<svg id="Capa_1" data-name="Capa 1" xmlns="http://www.w3.org/2000/svg" viewBox="0 0 870.94 870.94"><defs><style>.cls-1{fill:#8fdde5;}.cls-2{fill:#fff;}</style></defs><title>chat_icon2</title><circle id="Elipse_35" data-name="Elipse 35" class="cls-1" cx="435.47" cy="435.47" r="435.47"/><path class="cls-2" d="M684.38,319.94c0-81.16-66.23-147-148-147-78,0-141.93,60-147.55,136.06,89.25,9,162.38,72.83,183.91,157.86H684.38l-37.3-49.4a145.85,145.85,0,0,0,37.3-97.56Z"/><path class="cls-2" d="M383.6,339.43c-106.44-9.32-197,73.76-197,178.91a178.17,178.17,0,0,0,45.59,119.22L186.56,698H367.39c99.86,0,180.83-80.41,180.83-179.62,0-93.37-71.94-170.74-164.62-178.91ZM268.75,469.36h98.64V502H268.75Zm197.28,98H268.75V534.72H466Z"/></svg>