<svg xmlns="http://www.w3.org/2000/svg" width="307" height="307" viewBox="0 0 307 307">
  <g id="Grupo_200" data-name="Grupo 200" transform="translate(-261.245 -660)">
    <circle id="Elipse_34" data-name="Elipse 34" cx="153.5" cy="153.5" r="153.5" transform="translate(261.245 660)" fill="#68e2f6"/>
    <g id="chat" transform="translate(319.7 724.54)">
      <path id="Trazado_56" data-name="Trazado 56" d="M249.589,100a3.589,3.589,0,1,0,3.589,3.589A3.59,3.59,0,0,0,249.589,100Zm0,0" transform="translate(-157.709 -64.109)" fill="#fff" stroke="#fff" stroke-width="1"/>
      <path id="Trazado_57" data-name="Trazado 57" d="M83.589,267.178A3.589,3.589,0,1,0,80,263.589,3.591,3.591,0,0,0,83.589,267.178Zm0,0" transform="translate(-51.288 -166.684)" fill="#fff" stroke="#fff" stroke-width="1"/>
      <path id="Trazado_58" data-name="Trazado 58" d="M120.593,0C88.281,0,61.761,22.277,59.71,50.338,28.938,51.881,0,74.07,0,104.083a50.152,50.152,0,0,0,14,34.323A21.828,21.828,0,0,1,8.23,158.97a3.589,3.589,0,0,0,2.538,6.127A39.59,39.59,0,0,0,38.2,154.01a81.788,81.788,0,0,0,24.971,3.909c32.307,0,58.824-22.272,60.881-50.327a80.7,80.7,0,0,0,21.515-3.829,39.59,39.59,0,0,0,27.43,11.087,3.589,3.589,0,0,0,2.538-6.127,21.827,21.827,0,0,1-5.768-20.564,50.152,50.152,0,0,0,14-34.323C183.76,22.651,152.593,0,120.593,0ZM63.168,150.74c-8.471,0-18.123-1.663-24.589-4.235a3.589,3.589,0,0,0-3.976.911,32.384,32.384,0,0,1-16.107,9.559,29.026,29.026,0,0,0,2.188-21.362,3.582,3.582,0,0,0-.878-1.517A43.131,43.131,0,0,1,7.178,104.083c0-25.292,25.639-46.658,55.989-46.658C91.827,57.425,117,77.354,117,104.083c0,25.728-24.15,46.658-53.836,46.658ZM163.954,83.849a3.6,3.6,0,0,0-.878,1.517,29.026,29.026,0,0,0,2.188,21.362,32.374,32.374,0,0,1-16.107-9.559,3.592,3.592,0,0,0-3.976-.911,70.7,70.7,0,0,1-21.145,4.146c-1.049-13.573-7.819-26.329-19.394-35.8h46.815a3.589,3.589,0,1,0,0-7.178H93.617a66.938,66.938,0,0,0-26.711-7.073C68.969,26.246,92.26,7.178,120.593,7.178c30.35,0,55.989,21.366,55.989,46.658a43.13,43.13,0,0,1-12.628,30.014Zm0,0" transform="translate(0 0)" fill="#fff" stroke="#fff" stroke-width="1"/>
      <path id="Trazado_59" data-name="Trazado 59" d="M168.811,260H123.589a3.589,3.589,0,0,0,0,7.178h45.222a3.589,3.589,0,1,0,0-7.178Zm0,0" transform="translate(-76.931 -166.684)" fill="#fff" stroke="#fff" stroke-width="1"/>
      <path id="Trazado_60" data-name="Trazado 60" d="M143.168,320H83.589a3.589,3.589,0,1,0,0,7.178h59.579a3.589,3.589,0,1,0,0-7.178Zm0,0" transform="translate(-51.288 -205.15)" fill="#fff" stroke="#fff" stroke-width="1"/>
      <path id="Trazado_61" data-name="Trazado 61" d="M334.811,100H289.589a3.589,3.589,0,0,0,0,7.178h45.222a3.589,3.589,0,1,0,0-7.178Zm0,0" transform="translate(-183.353 -64.109)" fill="#fff" stroke="#fff" stroke-width="1"/>
    </g>
  </g>
</svg>
