<svg id="Capa_1" data-name="Capa 1" xmlns="http://www.w3.org/2000/svg" xmlns:xlink="http://www.w3.org/1999/xlink" viewBox="0 0 870.94 870.94"><defs><style>.cls-1{fill:#cdf8ff;}.cls-2{fill:url(#Degradado_sin_nombre_2);}.cls-3{fill:url(#Degradado_sin_nombre_3);}.cls-4{fill:url(#Degradado_sin_nombre_19);}.cls-5{fill:url(#Degradado_sin_nombre_5);}.cls-6{fill:url(#Degradado_sin_nombre_6);}.cls-7{fill:#eefdff;}.cls-8{fill:url(#Degradado_sin_nombre_7);}.cls-9{fill:url(#Degradado_sin_nombre_8);}.cls-10{fill:url(#Degradado_sin_nombre_9);}.cls-11{fill:url(#Degradado_sin_nombre_10);}.cls-12,.cls-15{fill:#fff;}.cls-13{fill:url(#Degradado_sin_nombre_11);}.cls-14{fill:#06cff1;}.cls-15{font-size:76.07px;font-family:BeautyandtheBeast, Beauty and the Beast;}.cls-16{letter-spacing:0.02em;}.cls-17{letter-spacing:0.09em;}</style><linearGradient id="Degradado_sin_nombre_2" x1="341.41" y1="-52.88" x2="304.14" y2="-53.71" gradientTransform="translate(166.38 643.63) scale(1.05 6.93)" gradientUnits="userSpaceOnUse"><stop offset="0" stop-color="#06cff1"/><stop offset="1" stop-color="#dcedf9"/></linearGradient><linearGradient id="Degradado_sin_nombre_3" x1="-50.63" y1="-5.77" x2="-58.19" y2="-23.09" gradientTransform="translate(1005.87 405.33) scale(9.24 4.55)" xlink:href="#Degradado_sin_nombre_2"/><linearGradient id="Degradado_sin_nombre_19" x1="-84.48" y1="-76.62" x2="-92.86" y2="-87.63" gradientTransform="translate(3446.39 2570.57) scale(33.05 25.13)" xlink:href="#Degradado_sin_nombre_2"/><linearGradient id="Degradado_sin_nombre_5" x1="-85.32" y1="-43.37" x2="-85.42" y2="-54.51" gradientTransform="translate(2694.04 981.35) scale(25.71 9.93)" gradientUnits="userSpaceOnUse"><stop offset="0" stop-color="#030d14"/><stop offset="1" stop-color="#0b2f45"/></linearGradient><radialGradient id="Degradado_sin_nombre_6" cx="-169.42" cy="-30.9" r="6.15" gradientTransform="matrix(-7.48, 0, 0, 7.48, -702.71, 721.82)" gradientUnits="userSpaceOnUse"><stop offset="0.13" stop-color="#3280fc"/><stop offset="1"/></radialGradient><linearGradient id="Degradado_sin_nombre_7" x1="14.7" y1="17.56" x2="2.28" y2="17.56" gradientTransform="translate(636.58 440.18) rotate(80.78) scale(4.51)" xlink:href="#Degradado_sin_nombre_5"/><radialGradient id="Degradado_sin_nombre_8" cx="-51.01" cy="-30.9" r="6.15" gradientTransform="translate(820.58 721.82) scale(7.48)" xlink:href="#Degradado_sin_nombre_6"/><linearGradient id="Degradado_sin_nombre_9" x1="-10.89" y1="17.56" x2="-23.32" y2="17.56" gradientTransform="translate(516.16 411.46) scale(4.51)" xlink:href="#Degradado_sin_nombre_5"/><linearGradient id="Degradado_sin_nombre_10" x1="73.94" y1="9.12" x2="54.69" y2="6.32" gradientTransform="translate(335.51 205.22) scale(2.7)" xlink:href="#Degradado_sin_nombre_2"/><linearGradient id="Degradado_sin_nombre_11" x1="-34.06" y1="111.96" x2="-46.51" y2="84.97" gradientTransform="translate(718.05 254.71) scale(6.44 2.97)" gradientUnits="userSpaceOnUse"><stop offset="0" stop-color="#3f88ad"/><stop offset="1" stop-color="#3487c4"/></linearGradient></defs><title>chat_icon</title><circle id="Elipse_35" data-name="Elipse 35" class="cls-1" cx="435.47" cy="435.47" r="435.47"/><g id="Grupo_190" data-name="Grupo 190"><rect id="Rectángulo_1" data-name="Rectángulo 1" class="cls-2" x="493.05" y="230.43" width="13.11" height="86.06"/><path id="Rectángulo_2" data-name="Rectángulo 2" class="cls-3" d="M470.51,307.47h58.2A28.28,28.28,0,0,1,557,335.75h0A28.27,28.27,0,0,1,528.71,364h-58.2a28.25,28.25,0,0,1-28.3-28.22v-.05h0a28.27,28.27,0,0,1,28.25-28.28Z"/><path id="Rectángulo_3" data-name="Rectángulo 3" class="cls-4" d="M450.42,334.52h98.36A156.11,156.11,0,0,1,704.89,490.63h0A156.11,156.11,0,0,1,548.78,646.75H450.42A156.11,156.11,0,0,1,294.31,490.63h0A156.11,156.11,0,0,1,450.42,334.52Z"/><path id="Trazado_4" data-name="Trazado 4" class="cls-5" d="M358.88,543.16h0a39.69,39.69,0,0,0,17.52,4H622.82a39.6,39.6,0,0,0,17.46-4h0a32.39,32.39,0,0,0,18.78-33.22l-.13-1a101.81,101.81,0,0,0-98.6-83.61c-21.5-1.12-44.06-1.68-67.6-1.55q-27.68.15-53.41,1.53C388.3,428,346.55,463,340.21,509l-.15,1A32.42,32.42,0,0,0,358.88,543.16Z"/><g id="Grupo_8" data-name="Grupo 8"><circle id="Elipse_11" data-name="Elipse 11" class="cls-6" cx="564.54" cy="490.65" r="46.47"/><g id="Grupo_3" data-name="Grupo 3"><circle id="Elipse_12" data-name="Elipse 12" class="cls-7" cx="564.53" cy="490.64" r="33.35" transform="translate(-10.2 969.29) rotate(-80.78)"/></g><g id="Grupo_4" data-name="Grupo 4"><circle id="Elipse_13" data-name="Elipse 13" class="cls-8" cx="564.54" cy="490.65" r="28.02" transform="translate(-10.21 969.31) rotate(-80.78)"/></g><g id="Grupo_5" data-name="Grupo 5"><path id="Trazado_5" data-name="Trazado 5" class="cls-7" d="M546.6,483.38A10.37,10.37,0,0,0,557,493.75h0a10.37,10.37,0,0,0,10.37-10.37h0A10.37,10.37,0,0,0,557,473h0A10.37,10.37,0,0,0,546.6,483.38Z"/></g><g id="Grupo_6" data-name="Grupo 6"><circle id="Elipse_14" data-name="Elipse 14" class="cls-7" cx="568.68" cy="512.13" r="4.14"/></g><g id="Grupo_7" data-name="Grupo 7"><path id="Trazado_6" data-name="Trazado 6" class="cls-7" d="M579,505.92A2.05,2.05,0,0,0,581,508h0a2.05,2.05,0,0,0,2.05-2.05h0a2.05,2.05,0,0,0-2.05-2.06h0A2.06,2.06,0,0,0,579,505.92Z"/></g></g><g id="Grupo_14" data-name="Grupo 14"><circle id="Elipse_15" data-name="Elipse 15" class="cls-9" cx="439.02" cy="490.65" r="46.47"/><g id="Grupo_9" data-name="Grupo 9"><circle id="Elipse_16" data-name="Elipse 16" class="cls-7" cx="439.01" cy="490.64" r="33.35"/></g><g id="Grupo_10" data-name="Grupo 10"><circle id="Elipse_17" data-name="Elipse 17" class="cls-10" cx="439.02" cy="490.65" r="28.02"/></g><g id="Grupo_11" data-name="Grupo 11"><path id="Trazado_7" data-name="Trazado 7" class="cls-7" d="M421.08,483.38a10.37,10.37,0,0,0,10.37,10.37h0a10.37,10.37,0,0,0,10.38-10.37h0A10.37,10.37,0,0,0,431.45,473h0a10.37,10.37,0,0,0-10.37,10.37Z"/></g><g id="Grupo_12" data-name="Grupo 12"><circle id="Elipse_18" data-name="Elipse 18" class="cls-7" cx="443.16" cy="512.13" r="4.14"/></g><g id="Grupo_13" data-name="Grupo 13"><path id="Trazado_8" data-name="Trazado 8" class="cls-7" d="M453.44,505.92A2.05,2.05,0,0,0,455.5,508h0a2.05,2.05,0,0,0,2.05-2.05h0a2.05,2.05,0,0,0-2.05-2.06h0A2.06,2.06,0,0,0,453.44,505.92Z"/></g></g><path id="Trazado_9" data-name="Trazado 9" class="cls-11" d="M482.81,224.68a16.79,16.79,0,0,0,16.8,16.79h0a16.79,16.79,0,0,0,16.79-16.79h0a16.8,16.8,0,0,0-16.79-16.8h0A16.8,16.8,0,0,0,482.81,224.68Z"/><path id="Trazado_10" data-name="Trazado 10" class="cls-12" d="M487.93,218.13a5.14,5.14,0,0,0,5.14,5.13h0a5.13,5.13,0,0,0,5.13-5.13h0a5.14,5.14,0,0,0-5.13-5.14h0A5.14,5.14,0,0,0,487.93,218.13Z"/><path id="Trazado_11" data-name="Trazado 11" class="cls-12" d="M375.26,395.17a18.37,18.37,0,0,0,13.54,18c6.87.75,12.41-6.21,18-13.52s17.79-25.48,12.92-30.67C413.29,362.17,375.76,376.65,375.26,395.17Z"/><circle id="Elipse_19" data-name="Elipse 19" class="cls-12" cx="438.03" cy="359.42" r="5.84"/><path id="Trazado_12" data-name="Trazado 12" class="cls-12" d="M355.77,497.2a236.31,236.31,0,0,1,50-48.36c12.33-8.11,24.49-13.89,23.77-15.56a51.66,51.66,0,0,0-25.4,6.55C369.17,456,353.54,495.62,355.77,497.2Z"/><path id="Trazado_13" data-name="Trazado 13" class="cls-12" d="M445.51,324.2c.42,0,.69-2.39,2.73-6.16a34.56,34.56,0,0,1,2.06-3.27c3.52-4.85,15.4-4.74,16.43-4.74,18.64.16,30.55-1,30.55-.9s-8.7-.1-15.11-.22c-18-.37-28.76-1.33-33.36,3.49a15.48,15.48,0,0,0-2.88,4.61A9.68,9.68,0,0,0,445.51,324.2Z"/><path id="Trazado_14" data-name="Trazado 14" class="cls-7" d="M449.39,567.15a9.48,9.48,0,0,0,8.61,8.31l61.55,5.94a9.48,9.48,0,0,0,10-6.52,42,42,0,0,0,1.33-5.88,2,2,0,0,0-1.84-2.35l-77.63-7.46a2.07,2.07,0,0,0-2.22,1.88v0A43.34,43.34,0,0,0,449.39,567.15Z"/><path id="Trazado_15" data-name="Trazado 15" class="cls-13" d="M449.39,567.15a41.08,41.08,0,0,0,80,8.48,9.51,9.51,0,0,1-9.79,5.76l-61.62-5.93A9.52,9.52,0,0,1,449.39,567.15Z"/></g><path class="cls-14" d="M322,479.47a116,116,0,0,0-33.67-28.6c-36.66,25.52-85,26.7-124.53,4.21C117.93,429,81.76,373,98,319.5c29.64-97.69,162.64-126,224-42.15,28.37,38.74,35.73,102.66-4,134.37,11.39,18.56,16.34,41.33,16.09,62.74C334,480.09,326,484.49,322,479.47Z"/><path class="cls-14" d="M253.06,237.52c32.48,9.84,65,35.85,74.88,69.45a2,2,0,0,1-.27,1.76l.09.07a.51.51,0,0,1-.72.72,1,1,0,0,0-.08-.11,2.17,2.17,0,0,1-3.2-.68c-16.82-30.84-37.91-54.16-72.45-64.85C247.27,242.63,249,236.28,253.06,237.52Z"/><path class="cls-14" d="M237.28,232.71c6.57,0,6.58,10.2,0,10.2S230.7,232.71,237.28,232.71Z"/><text class="cls-15" transform="translate(133.15 361.64)">H<tspan class="cls-16" x="32.79" y="0">o</tspan><tspan class="cls-17" x="76.22" y="0">l</tspan><tspan x="114.4" y="0">a</tspan></text></svg>