<svg id="Capa_1" data-name="Capa 1" xmlns="http://www.w3.org/2000/svg" xmlns:xlink="http://www.w3.org/1999/xlink" viewBox="0 0 976.34 979.9"><defs><style>.cls-1,.cls-7{fill:none;}.cls-2{fill:#68e2f6;}.cls-3{clip-path:url(#clip-path);}.cls-4{fill:#757575;}.cls-4,.cls-5{stroke:#000;}.cls-4,.cls-7{stroke-miterlimit:10;}.cls-5{fill:#fff;stroke-linecap:round;stroke-linejoin:round;}.cls-6{fill:#ffeef7;}.cls-7{stroke:#fff;}</style><clipPath id="clip-path" transform="translate(-15.55 -11.47)"><circle class="cls-1" cx="507.15" cy="498.36" r="488.17"/></clipPath></defs><title>defaultW</title><circle class="cls-2" cx="488.17" cy="488.17" r="488.17"/><g class="cls-3"><path d="M757.2,654.64c-7.9-52.55-18.4-104.68-22.92-157.4.31-28.19.81-57.63-.79-86.33l-.55,5.1c1.3-53.86-12.87-121-57.24-154.93C633.55,228.81,592,211.3,538.38,210.45c-31.83-.5-63.85.19-95.16,6-42.18,7.78-91.8,29-118.46,64-28.82,37.78-32.47,92.84-32.75,138.42-.31,51.9,4,105.16-12,154.53-6.37,19.67-15.87,38.33-20.55,58.47a127.78,127.78,0,0,0,5.27,74.48,38.35,38.35,0,0,1,11.52-26.75c-5.95,5.77,2,36,3.88,43.08a137.16,137.16,0,0,0,18.95,41.78c14,20.77,37.51,45.45,59.67,57.4,60,32.34,132.11,28,197.8,23.7,28.72-1.86,58.11-3.88,84.47-15.41,46.3-20.26,76.28-67.56,88.39-116.62.83-3.35,1.48-6.73,2.17-10.11.23-1.1.52-2.2.72-3.31.11-.6.27-1.2.38-1.8.51-2.77.86-5.57,1.29-8.36q6.93,19.93,13.84,39.85C763.44,709,761.06,680.3,757.2,654.64Z" transform="translate(-15.55 -11.47)"/><path d="M458.33,258.19c-26.71,8.18-51.86-12-57.39-37.51-7.49-34.51,19.41-66.68,47.35-82.09C533.08,91.81,655.65,264.16,458.33,258.19Z" transform="translate(-15.55 -11.47)"/><path class="cls-4" d="M705.3,915.22c-17.47,3.82-35.54,7.16-53.94,10-4.17.64-22.77,3.65-25.67,3.65-92.87,11.94-190.66,11.41-259.55-4,8.15,1.83-37.15-10.06-51.35-17-12,20.1-23.28,46.61-33.22,83H734.32C725.55,958.74,715.75,934.33,705.3,915.22Zm-54,10q-12.72,2-25.64,3.64Q638.6,927.21,651.34,925.24Z" transform="translate(-15.55 -11.47)"/><path class="cls-5" d="M391.75,929.71c66.35,10.53,152.06,9.69,233.94-.83l25.67-3.65c18.4-2.85,36.47-6.19,53.94-10-17.76-32.47-37.42-49.57-57.22-63.09,0,0-50.17-32.9-62-45.42C538,755.62,550.87,656.13,550.87,656.13l-80.72-1.39L465,656.13s12.9,99.49-35.24,150.57c-11.32,12-23.31,20.52-35.55,28.41L369.41,851c-18.79,12.65-37.5,28.23-54.62,56.83,14.2,6.93,31.6,12.57,51.35,17Z" transform="translate(-15.55 -11.47)"/><path d="M443.93,747.76c8.07,18.94,18,39.07,33.9,52.77,8.92,7.7,20.1,12.61,32,11,10.83-1.45,20.46-7.52,28.5-14.63a131.69,131.69,0,0,0,22-25.89,139.71,139.71,0,0,0,13-23.39c.25-.59-.72-.85-1-.27A132.06,132.06,0,0,1,561.79,767a144.61,144.61,0,0,1-20.21,25.61c-7.67,7.56-16.8,14.39-27.38,17.12-11.41,3-22.75-.14-32.12-7-7.47-5.49-13.55-12.77-18.76-20.38-7.47-10.92-13.35-22.87-18.52-35-.26-.6-1.12-.09-.87.5Z" transform="translate(-15.55 -11.47)"/><path d="M506.27,810.35a14.48,14.48,0,0,0-10,13.62c0,5,2.68,10.14,7.53,12s11.29.32,14.26-4.18c2.79-4.23,2.62-10.07.68-14.6-2.17-5.08-6.85-8.37-12.44-6.83a.5.5,0,0,0,.27,1c9.77-2.7,14.55,10.05,11.78,17.64-1.75,4.82-6.61,7.26-11.62,6.7s-8.42-4.53-9.26-9.28a13.49,13.49,0,0,1,9.1-15.06C507.15,811.11,506.89,810.14,506.27,810.35Z" transform="translate(-15.55 -11.47)"/><path class="cls-5" d="M703,527.29c-1.18-13.82-6.82-25.44-22.93-21.7-3,.71-6.51,2.7-9.89,5.24,2.06-11.3,3.65-22.82,4.71-34.47C685.23,362.13,656.91,246,509.65,246h-3.41C359,246,330.66,362.13,341,476.36c1.06,11.65,2.65,23.17,4.71,34.47-3.38-2.54-6.85-4.53-9.89-5.24-16.1-3.74-21.75,7.88-22.93,21.7-2.13,25,14.5,48.3,38.5,60.46,4,2,12.48,4.25,21.19,5.24,27.3,53,71.83,88.65,135.33,85.4,63.5,3.25,108-32.36,135.32-85.4,8.72-1,17.17-3.2,21.2-5.24C688.46,575.59,705.09,552.26,703,527.29Z" transform="translate(-15.55 -11.47)"/><path d="M498.89,543.26a28.64,28.64,0,0,0,5.67,2,26.44,26.44,0,0,0,5.92.8,11.93,11.93,0,0,0,5.71-1.12,6.43,6.43,0,0,0,2.17-1.84,7.55,7.55,0,0,0,1.2-2.6c1.06-3.79.94-7.85.63-11.81s-1-7.94-1.59-11.91c-.29-2-.57-4-.77-6l-.67-6c-.43-4-.91-8-1.31-12l-1.24-12-1.14-12,1.63,11.95,1.52,11.95c.52,4,1,8,1.45,12s.89,8,1.52,11.93,1.18,8,1.51,12,.43,8.15-.81,12.11a8.32,8.32,0,0,1-1.38,2.8,7.24,7.24,0,0,1-2.43,2,12.41,12.41,0,0,1-6,1,27.23,27.23,0,0,1-6-1A26.68,26.68,0,0,1,498.89,543.26Z" transform="translate(-15.55 -11.47)"/><path d="M385.1,424.23a95.42,95.42,0,0,1,13.75-11.83,57.6,57.6,0,0,1,7.94-4.64,65.32,65.32,0,0,1,8.62-3.27,97.86,97.86,0,0,1,18-3.1,83.79,83.79,0,0,1,18.12.12c-6,.45-11.93,1.27-17.83,2.2-3,.51-5.89,1-8.8,1.6s-5.81,1.23-8.62,2.06a69,69,0,0,0-16.13,7C395,417.38,390.11,420.87,385.1,424.23Z" transform="translate(-15.55 -11.47)"/><path d="M548.1,565.72c-1.42,1.17-2.84,2.34-4.28,3.49s-3,2.18-4.49,3.21a75.18,75.18,0,0,1-9.65,5.38A54.61,54.61,0,0,1,508.24,583a50,50,0,0,1-21.59-4.45,54.39,54.39,0,0,1-17.85-12.8,53.86,53.86,0,0,0,8.54,6.9,55.82,55.82,0,0,0,9.62,5.2A50.21,50.21,0,0,0,508.22,582a55,55,0,0,0,21.15-4.87A87.61,87.61,0,0,0,548.1,565.72Z" transform="translate(-15.55 -11.47)"/><path class="cls-6" d="M441.71,534.89c0,11.47-14.51,20.76-32.4,20.76s-32.4-9.29-32.4-20.76,14.51-20.77,32.4-20.77S441.71,523.42,441.71,534.89Z" transform="translate(-15.55 -11.47)"/><path d="M630.8,424.23c-5-3.36-9.91-6.85-15-9.87a69,69,0,0,0-16.13-7c-2.81-.83-5.71-1.47-8.62-2.06s-5.85-1.09-8.8-1.6c-5.89-.93-11.81-1.75-17.83-2.2a83.79,83.79,0,0,1,18.12-.12,97.86,97.86,0,0,1,18,3.1,65.32,65.32,0,0,1,8.62,3.27A57.6,57.6,0,0,1,617,412.4,96,96,0,0,1,630.8,424.23Z" transform="translate(-15.55 -11.47)"/><path class="cls-6" d="M574.18,534.89c0,11.47,14.51,20.76,32.4,20.76s32.4-9.29,32.4-20.76-14.51-20.77-32.4-20.77S574.18,523.42,574.18,534.89Z" transform="translate(-15.55 -11.47)"/><path d="M331.51,533.35c3.85,1.31,7,4,9.93,6.8a69.58,69.58,0,0,1,7.76,9.3A70.31,70.31,0,0,1,355.14,560l2.51,5.48c.82,1.84,1.69,3.64,2.59,5.44-2.18-3.39-3.95-7-5.79-10.58a82.54,82.54,0,0,0-13.56-19.66,43.23,43.23,0,0,0-4.35-4.1A21.62,21.62,0,0,0,331.51,533.35Z" transform="translate(-15.55 -11.47)"/><path d="M684.38,533.35a21.62,21.62,0,0,0-5,3.24,44.33,44.33,0,0,0-4.35,4.1,82.54,82.54,0,0,0-13.56,19.66c-1.84,3.56-3.61,7.19-5.79,10.58.9-1.8,1.77-3.6,2.59-5.44l2.51-5.48a70.31,70.31,0,0,1,5.94-10.56,69.58,69.58,0,0,1,7.76-9.3C677.35,537.37,680.53,534.66,684.38,533.35Z" transform="translate(-15.55 -11.47)"/><path d="M434.8,489a14.14,14.14,0,1,1,0-20A14.13,14.13,0,0,1,434.8,489Z" transform="translate(-15.55 -11.47)"/><path d="M581.22,489a14.14,14.14,0,1,0,0-20A14.13,14.13,0,0,0,581.22,489Z" transform="translate(-15.55 -11.47)"/><path d="M679.41,406.73c-3.57-26.81-3.36-53.82-10.86-79.83-7.14-24.76-54.64-70.62-95.64-78,0-4.86-.14-9.82-.46-14.9C495.59,222,427.61,223.49,375.22,258c-32.71,21.54-48.25,61.69-56.3,98.58-8.47,38.85-11.14,71.56,5.93,108.3,7.48,16.08,17.25,54.9,35.37,54.9,3.73-65.36-.18-118,49.34-168.6-11.9,17.84-16.25,42.33-24.24,62,24-11.14,35.33-18.25,53.62-30.28,21.77-14.32,42.58-31.92,59.78-52.47A150.64,150.64,0,0,1,484,366.8c-6.37,11.14-23.41,34.89-23.41,34.89,58.26-27.23,90.56-59.21,104.3-99.72a144,144,0,0,0,8.75,24.09c10,20.95,34.34,54.36,60.2,55.38-4.27-8.86-7.93-17.9-8.25-27.83,1.63,13.51,12.83,28.27,16.27,42.14,4.62,18.61,7.32,37.79,10.18,56.72,3.59,23.79,9.15,47.44,14.16,70.79,4.63-3.48,9.31-37.43,12-49.08C683.55,451.42,682.49,429.89,679.41,406.73Z" transform="translate(-15.55 -11.47)"/><path class="cls-7" d="M376.91,614c0,17.39-10.16,31.5-22.7,31.5s-22.7-14.11-22.7-31.5,10.16-31.5,22.7-31.5S376.91,596.61,376.91,614Z" transform="translate(-15.55 -11.47)"/><path class="cls-7" d="M683.32,614c0,17.39-10.16,31.5-22.7,31.5s-22.7-14.11-22.7-31.5,10.16-31.5,22.7-31.5S683.32,596.61,683.32,614Z" transform="translate(-15.55 -11.47)"/></g></svg>