<svg id="Capa_1" data-name="Capa 1" xmlns="http://www.w3.org/2000/svg" xmlns:xlink="http://www.w3.org/1999/xlink" viewBox="0 0 976.34 976.84"><defs><style>.cls-1{fill:none;}.cls-2{fill:#68e2f6;}.cls-3{clip-path:url(#clip-path);}.cls-4,.cls-6{fill:#fff;}.cls-4,.cls-5,.cls-6{stroke:#000;}.cls-4{stroke-linecap:round;stroke-linejoin:round;}.cls-5,.cls-6{stroke-miterlimit:10;}</style><clipPath id="clip-path" transform="translate(-15.55 -11.47)"><circle class="cls-1" cx="496.74" cy="497.45" r="488.17"/></clipPath></defs><title>defaultM</title><circle class="cls-2" cx="488.17" cy="488.17" r="488.17"/><g class="cls-3"><path class="cls-4" d="M610.89,825.05a99.21,99.21,0,0,1-10.39-11.8c-19.72,19.25-53.42,28.19-77.3,27-17.32-.9-51.83-11.05-69.18-27.56a99,99,0,0,1-8.95,10.48c21.4,18.94,63.34,29.37,84.08,29.58C554.16,853,587.8,843.52,610.89,825.05Z" transform="translate(-15.55 -11.47)"/><path class="cls-4" d="M600.5,813.25C567,768.67,578.35,706.8,578.35,706.8l-96.5-1.17-6.13,1.17S487,768.11,454,812.65c17.35,16.51,51.86,26.66,69.18,27.56C547.08,841.44,580.78,832.5,600.5,813.25Z" transform="translate(-15.55 -11.47)"/><path class="cls-5" d="M472,839.22c-10.22-4.38-19.72-9.74-26.89-16.09a99.75,99.75,0,0,1-11.48,10.07C376,876.08,303.81,865.92,256.41,987.81h70.45C362.29,925.27,406.9,878.07,472,839.22Z" transform="translate(-15.55 -11.47)"/><path class="cls-5" d="M620.48,833.2a100,100,0,0,1-9.59-8.15,119.31,119.31,0,0,1-28.17,16.36c63.08,38.44,106.64,85,141.4,146.4h73.54C750.27,865.92,678,876.08,620.48,833.2Z" transform="translate(-15.55 -11.47)"/><path class="cls-4" d="M582.72,841.41c-18,7.61-37.56,11.47-53.57,11.3-13.79-.14-36.93-4.82-57.19-13.49-65.06,38.85-109.67,86-145.1,148.59H724.12C689.36,926.45,645.8,879.85,582.72,841.41Z" transform="translate(-15.55 -11.47)"/><path d="M454.57,175.88C438.22,155.38,399,160.77,377,166c-33.56,8-57.06,23.11-77.63,51.13-18.55,25.25-34.57,52.8-43.21,82.91s-9.53,63.06,1.54,92.37c6.7,17.76,17.79,34.67,17.8,53.64,0,7.05-1.56,14-1.74,21.06-.74,29.15,20,43.41,33.54,65.8,11,18.18,17.14,42.62,25.19,62.44,58,142.79,197.1,141.52,319,89.65,35.19-15,59.5-61.82,76.64-93.4,10.94-20.15,18-41,26.92-61.8,9.07-21.12,21.26-36.49,17.19-61.13-.78-4.72-2-9.49-1.3-14.21.77-4.89,3.63-9.16,6.16-13.42,11-18.51,17-40.22,15.57-61.71-1.33-20-9.71-42.69-24.92-56.46-9.27-8.39-21.75-10.13-24.85-24.28-15.12-69.14-36.79-55.57-96.19-85.79S520.19,174.91,454.57,175.88Z" transform="translate(-15.55 -11.47)"/><path class="cls-6" d="M760.17,553.26c-1.41-16.52-8.16-30.41-27.41-25.94-3.64.85-7.78,3.24-11.82,6.27,2.46-13.51,4.36-27.28,5.63-41.21C739,355.82,705.12,217,529.07,217H525c-176,0-209.91,138.81-197.49,275.37,1.26,13.93,3.16,27.7,5.62,41.21-4-3-8.18-5.42-11.82-6.27-19.25-4.47-26,9.42-27.41,25.94-2.54,29.86,17.33,57.75,46,72.28,4.82,2.44,14.92,5.08,25.34,6.27,32.63,63.4,85.86,106,161.78,102.09,75.91,3.89,129.14-38.69,161.77-102.09,10.42-1.19,20.53-3.83,25.34-6.27C742.84,611,762.72,583.12,760.17,553.26Z" transform="translate(-15.55 -11.47)"/><path d="M380.17,417.14a111,111,0,0,1,16.36-14.28,67.18,67.18,0,0,1,9.5-5.58q2.5-1.18,5.09-2.14c1.7-.65,3.45-1.26,5.23-1.79A106.26,106.26,0,0,1,427.06,391c3.59-.55,7.19-1.05,10.8-1.31a96.52,96.52,0,0,1,21.69.31c-7.2.61-14.26,1.64-21.3,2.79-3.52.62-7,1.18-10.5,1.94s-6.94,1.47-10.29,2.47a83.37,83.37,0,0,0-19.25,8.29C392.1,409.06,386.23,413.19,380.17,417.14Z" transform="translate(-15.55 -11.47)"/><path d="M673.9,417.14c-6-3.95-11.92-8.08-18-11.66a83.63,83.63,0,0,0-19.26-8.29c-3.35-1-6.81-1.77-10.29-2.47s-7-1.32-10.49-1.94c-7.05-1.15-14.11-2.18-21.3-2.79a96.42,96.42,0,0,1,21.68-.31c3.62.26,7.21.76,10.8,1.31a106.26,106.26,0,0,1,10.71,2.36c1.78.53,3.53,1.14,5.23,1.79s3.43,1.35,5.09,2.14a67.18,67.18,0,0,1,9.5,5.58A111,111,0,0,1,673.9,417.14Z" transform="translate(-15.55 -11.47)"/><path d="M316.11,560.51c4.59,1.6,8.37,4.85,11.82,8.18a80.27,80.27,0,0,1,16.36,23.72l3,6.54c1,2.19,2,4.34,3.14,6.48-2.58-4.06-4.67-8.41-6.86-12.68a97.08,97.08,0,0,0-16.22-23.52,53.75,53.75,0,0,0-5.23-4.89A25.86,25.86,0,0,0,316.11,560.51Z" transform="translate(-15.55 -11.47)"/><path d="M738,560.51a25.86,25.86,0,0,0-6,3.83,53.75,53.75,0,0,0-5.23,4.89,97.08,97.08,0,0,0-16.22,23.52c-2.19,4.27-4.28,8.62-6.86,12.68,1.1-2.14,2.15-4.29,3.14-6.48l3-6.54a80.77,80.77,0,0,1,16.36-23.72C729.59,565.36,733.38,562.11,738,560.51Z" transform="translate(-15.55 -11.47)"/><path d="M439.6,507.5a16.9,16.9,0,1,1,0-23.9A16.9,16.9,0,0,1,439.6,507.5Z" transform="translate(-15.55 -11.47)"/><path d="M614.63,507.5a16.9,16.9,0,1,0,0-23.9A16.9,16.9,0,0,0,614.63,507.5Z" transform="translate(-15.55 -11.47)"/><path d="M533.74,439.14a97,97,0,0,1,6,13.66c1.69,4.69,3.07,9.49,4.3,14.32a268.23,268.23,0,0,1,5.58,29.35c1.34,9.87,2.32,19.8,2.84,29.75s.71,19.92.25,29.89v.22l-.19.11a37.17,37.17,0,0,1-8.94,3.93,27.49,27.49,0,0,1-9.72.85,51.5,51.5,0,0,1-9.55-1.85c-3.12-.88-6.16-2-9.19-3.11,6.1,2.1,12.35,4,18.78,4.44a26.92,26.92,0,0,0,9.5-1,36.87,36.87,0,0,0,8.71-4l-.2.33c.37-9.93.16-19.88-.41-29.8s-1.44-19.83-2.77-29.68-3-19.66-5.28-29.32S538.27,448,533.74,439.14Z" transform="translate(-15.55 -11.47)"/><path d="M785.25,316.62c18.22.29,16.92-62.3-17.16-57,26.81-27.47,20-78-3.81-103.64-29.46-31.7-81.23-14.81-121.54-18.79-46.45-4.58-86.47-33.87-131.88-40.3-84.64-12-157.7,42.72-157.7,129.82,21.4,27.59,26.23,54.41,55.75,69.39,13.84,7,39.2,29.35,53.51,28.72-6.09-9.88-19.63-21.28-16.13-33.43,28.23,12.39,62.79,48.6,96.18,35.75-14.88-7-36.67-10.16-44.88-26,15.9,12.69,40.52,17.14,59.51,24.07,18.61,6.8,34.82,8.34,54.47,8.32,28.53,0,65,3.26,83.5-21.81A62.7,62.7,0,0,1,707,320.14c11.85,88.59.33,199.26-9.09,222.36-19,46.57-38.51,75-76.85,106.12-16.39,13.33-31.37,17-51.35,8.35-15-6.49-15.35-15.33-22.16-38.87a18.62,18.62,0,0,1-3.06,1.17,79.06,79.06,0,0,1-16,1.87c-10.78,0-15.69-1.87-15.69-1.87.66,27.18-12.54,37.11-29.31,37.56-71.94,1.95-103-54.87-119-113.6-18.4-67.65-25.83-172.71-11.38-235.24,4.36-18.87-31.73,25.48-37.5,26.9a545.6,545.6,0,0,0-2.89,70.36c1,60.22,8.45,120.55,20.49,179.53C340.93,622.36,346,663.32,369,695.3c23.41,32.61,61.54,53.49,99.78,63.46a201.65,201.65,0,0,0,58.74,6.12c51.68-2.32,76.43-5.91,114.39-26.68,14.12-7.72,28.48-15.63,39.53-27.33,12.11-12.84,19.44-29.4,25.53-46,23.21-63.13,27-129.14,30.16-195.32.82-17.35-1.3-73.05-4.76-114.92,5.49,10.61,10,21.56,13.91,31.27,5.81,14.41,5.25,20.3,17.75,8.66,11.88-11.07,13.93-23.8,13.41-38.84,3.4,7.74,3.16,16.6,6,24.14,11.8-9.22,13.89-21.46,11.45-35.84C793.74,337.44,790.82,321.29,785.25,316.62Z" transform="translate(-15.55 -11.47)"/><path d="M531.49,594c33.27,42.61,105-3.8,113.85-11.06-18.76-10.12-27.16-38.68-65-38.68-19,0-27.63,13.67-27.63,13.67-10.58,2.68-16.24,7.38-34.81-.21-.41-.17-2.86-6.92-3.9-8a20.31,20.31,0,0,0-7.46-4.67c-8.65-3.39-21.87-2.88-31.1-1.52-9,1.32-18.71,4.84-24.6,12.08-7,8.59-11.89,17.37-23.85,19.62-.94.18-8.54.36-8.6.62C415.56,612.78,512.32,616.84,531.49,594Z" transform="translate(-15.55 -11.47)"/><path d="M315.66,334.89c.17-1.51.27-3,.45-4.54C314.55,333.89,314.56,335.15,315.66,334.89Z" transform="translate(-15.55 -11.47)"/></g></svg>