<?xml version="1.0" encoding="utf-8"?>
<!-- Generator: Adobe Illustrator 23.0.3, SVG Export Plug-In . SVG Version: 6.00 Build 0)  -->
<svg version="1.1" id="Capa_1" xmlns="http://www.w3.org/2000/svg" xmlns:xlink="http://www.w3.org/1999/xlink" x="0px" y="0px"
	 viewBox="0 0 615.07 949.79" style="enable-background:new 0 0 615.07 949.79;" xml:space="preserve">
<style type="text/css">
	.st0{fill:url(#Rectángulo_1_1_);}
	.st1{fill:url(#Rectángulo_2_1_);}
	.st2{fill:url(#Rectángulo_3_1_);}
	.st3{fill:url(#Trazado_4_1_);}
	.st4{fill:url(#Trazado_9_1_);}
	.st5{fill:#FFFFFF;}
	.st6{fill:#EEFDFF;}
	.st7{fill:url(#Trazado_15_1_);}
	.st8{fill:url(#Trazado_16_1_);}
	.st9{fill:url(#Trazado_17_1_);}
	.st10{fill:url(#Trazado_18_2_);}
	.st11{fill:url(#Trazado_19_2_);}
	.st12{opacity:0.29;fill:url(#Elipse_20_1_);enable-background:new    ;}
	.st13{fill:#089CD0;}
	.st14{fill:#9DEAEA;}
	.st15{fill:#2EC7B4;}
	.st16{fill:url(#Trazado_18_3_);}
	.st17{opacity:0.29;fill:url(#Trazado_19_3_);}
</style>
<title>diami_sleep</title>
<linearGradient id="Rectángulo_1_1_" gradientUnits="userSpaceOnUse" x1="-129.1918" y1="-62.7005" x2="-139.6218" y2="-62.9305" gradientTransform="matrix(4.63 0 0 30.39 882.82 1990.6512)">
	<stop  offset="0" style="stop-color:#06CFF1"/>
	<stop  offset="1" style="stop-color:#DCEDF9"/>
</linearGradient>
<rect id="Rectángulo_1" x="243.84" y="27.65" class="st0" width="16.09" height="105.58"/>
<linearGradient id="Rectángulo_2_1_" gradientUnits="userSpaceOnUse" x1="-217.7959" y1="-56.9704" x2="-219.9059" y2="-61.8105" gradientTransform="matrix(40.52 0 0 19.97 9119.5801 1342.7112)">
	<stop  offset="0" style="stop-color:#06CFF1"/>
	<stop  offset="1" style="stop-color:#DCEDF9"/>
</linearGradient>
<path id="Rectángulo_2" class="st1" d="M197.2,122.17h109.39c8.67,0,15.7,7.03,15.7,15.7v37.98c0,8.67-7.03,15.7-15.7,15.7H197.2
	c-8.67,0-15.7-7.03-15.7-15.7v-37.98C181.5,129.2,188.53,122.17,197.2,122.17z"/>
<linearGradient id="Rectángulo_3_1_" gradientUnits="userSpaceOnUse" x1="-225.2168" y1="-60.7046" x2="-227.5568" y2="-63.7846" gradientTransform="matrix(144.98 0 0 110.25 33093.1406 7229.0986)">
	<stop  offset="0" style="stop-color:#06CFF1"/>
	<stop  offset="1" style="stop-color:#DCEDF9"/>
</linearGradient>
<path id="Rectángulo_3" class="st2" d="M191.55,155.36h120.67c105.79,0,191.55,85.76,191.55,191.55l0,0
	c0,105.8-85.76,191.56-191.55,191.56H191.55C85.76,538.47,0,452.71,0,346.91l0,0C0,241.12,85.76,155.36,191.55,155.36z"/>
<linearGradient id="Trazado_4_1_" gradientUnits="userSpaceOnUse" x1="-225.6641" y1="-57.5014" x2="-225.6941" y2="-60.6114" gradientTransform="matrix(112.79 0 0 43.58 25705.5293 2922.1292)">
	<stop  offset="0" style="stop-color:#030D14"/>
	<stop  offset="1" style="stop-color:#0B2F45"/>
</linearGradient>
<path id="Trazado_4" class="st3" d="M79.23,411.33L79.23,411.33c6.68,3.29,14.04,5.01,21.49,5h302.31c7.45,0.01,14.81-1.71,21.49-5
	l0,0c15.69-7.16,24.98-23.62,23-40.75l-0.16-1.21c-7.75-56.15-58.61-99.33-121-102.57c-26.39-1.37-54.07-2.09-83-1.91
	c-22.63,0.13-44.48,0.75-65.55,1.87c-62.47,3.23-113.69,46.22-121.47,102.61l-0.17,1.21C54.2,387.73,63.51,404.19,79.23,411.33z"/>
<linearGradient id="Trazado_9_1_" gradientUnits="userSpaceOnUse" x1="-189.5176" y1="-63.3602" x2="-194.9076" y2="-64.1402" gradientTransform="matrix(11.86 0 0 11.87 2542.0898 778.8904)">
	<stop  offset="0" style="stop-color:#06CFF1"/>
	<stop  offset="1" style="stop-color:#DCEDF9"/>
</linearGradient>
<path id="Trazado_9" class="st4" d="M231.27,20.61c0,11.38,9.23,20.61,20.61,20.62l0,0c11.39-0.25,20.41-9.68,20.16-21.07
	C271.8,9.13,262.91,0.24,251.88,0l0,0c-11.38-0.01-20.61,9.22-20.62,20.6c0,0,0,0.01,0,0.01H231.27z"/>
<path id="Trazado_10" class="st5" d="M237.56,12.57c0,3.47,2.82,6.29,6.29,6.29c3.47,0,6.29-2.82,6.29-6.29
	c0-3.47-2.82-6.29-6.29-6.29c0,0-0.01,0-0.01,0l0,0C240.37,6.29,237.56,9.1,237.56,12.57z"/>
<path id="Trazado_11" class="st5" d="M99.34,229.75c-0.27,9.63,7.58,21.14,16.58,22.12c8.44,0.93,15.17-7.69,22.12-16.58
	s21.82-31.27,15.86-37.63C145.99,189.27,99.93,207.05,99.34,229.75z"/>
<circle id="Elipse_19" class="st5" cx="176.35" cy="185.91" r="7.17"/>
<path id="Trazado_12" class="st5" d="M75.41,354.95c2.3,1.62,18.32-31,61.34-59.33c15.12-9.95,30-17,29.16-19.11
	s-17.72,1.8-31.17,8.05C91.85,304.46,72.68,353.02,75.41,354.95z"/>
<path id="Trazado_13" class="st5" d="M185.56,142.7c0.51,0.08,0.84-2.94,3.35-7.59c0.76-1.38,1.6-2.72,2.52-4
	c4.32-5.94,19-5.8,20.1-5.79c22.81,0.19,37.47-1.25,37.47-1.12s-10.7-0.1-18.54-0.26c-22.11-0.45-35.27-1.64-40.92,4.28
	c-1.51,1.66-2.7,3.58-3.52,5.66C184.74,136.65,184.58,139.81,185.56,142.7z"/>
<g id="Grupo_184">
	<path id="Trazado_14" class="st6" d="M196.07,490.7c1.4-5.03,6.1-8.42,11.32-8.14l75.78,0.11c5.28-0.22,10.06,3.12,11.67,8.16
		c0.53,2.15,0.88,4.35,1.06,6.56c0.04,0.62-0.2,1.23-0.66,1.66c-0.49,0.46-1.13,0.71-1.8,0.7l-95.62-0.13
		c-0.67,0.01-1.32-0.24-1.82-0.69c-0.47-0.41-0.73-1.02-0.71-1.64C195.37,495.08,195.63,492.87,196.07,490.7z"/>
	
		<linearGradient id="Trazado_15_1_" gradientUnits="userSpaceOnUse" x1="-212.8633" y1="-42.8587" x2="-216.3433" y2="-35.3087" gradientTransform="matrix(28.12 2.46 -1.13 12.96 6197.0601 1551.1898)">
		<stop  offset="0" style="stop-color:#3F88AD"/>
		<stop  offset="1" style="stop-color:#3487C4"/>
	</linearGradient>
	<path id="Trazado_15" class="st7" d="M195.91,492.59c5.27-27.34,31.71-45.22,59.04-39.95c19.57,3.77,35.07,18.72,39.57,38.13
		c-1.58-4.9-6.19-8.18-11.34-8.07l-75.87,0.67C201.81,483.37,197.06,487.21,195.91,492.59z"/>
</g>
<linearGradient id="Trazado_16_1_" gradientUnits="userSpaceOnUse" x1="-223.9935" y1="-56.9731" x2="-226.6835" y2="-61.0832" gradientTransform="matrix(96.71 0 0 73.98 22011.5703 4984.5244)">
	<stop  offset="0" style="stop-color:#3A68AB"/>
	<stop  offset="0.05" style="stop-color:#316FB0"/>
	<stop  offset="0.24" style="stop-color:#1686C0"/>
	<stop  offset="0.41" style="stop-color:#0594CA"/>
	<stop  offset="0.54" style="stop-color:#0099CE"/>
	<stop  offset="0.66" style="stop-color:#2BA8D6"/>
	<stop  offset="0.92" style="stop-color:#99CFED"/>
	<stop  offset="1" style="stop-color:#BCDCF4"/>
</linearGradient>
<path id="Trazado_16" class="st8" d="M71.34,610.38c0,0.69,0,1.35,0,2c0.16,4.51,0.98,8.97,2.43,13.24
	c20.79,63.5,33.24,97,50.71,124.08c3,4.67,6.18,9.17,9.59,13.57c4.47,5.88,9.36,11.61,14.78,17.52
	c12.07,13.13,30.32,19.07,36.2,21.12c21.51,7.6,40.52,6.21,53.17,6.34h2.2c12.67-0.13,31.65,1.26,53.16-6.34
	c5.88-2.05,24.17-8,36.2-21.12c33.21-36.09,45.97-66.09,75.11-155.18c1.38-4.01,2.2-8.19,2.45-12.43c0.09-1.72,0.09-3.44,0-5.16
	c-0.9-11.27-5.31-21.98-12.61-30.62c-13.38-16.22-33.36-25.55-54.39-25.4l-101-0.42l-99.19-0.39c-21.49-0.31-41.98,9.06-55.81,25.51
	c-6.26,7.32-10.5,16.15-12.31,25.61c-0.21,1.27-0.39,2.56-0.51,3.82C71.41,607.51,71.34,608.93,71.34,610.38z"/>
<linearGradient id="Trazado_17_1_" gradientUnits="userSpaceOnUse" x1="-218.7807" y1="-37.8598" x2="-222.0207" y2="-49.0398" gradientTransform="matrix(48.35 0 0 16.36 10937.1201 1232.8397)">
	<stop  offset="0.04" style="stop-color:#06CFF1"/>
	<stop  offset="1" style="stop-color:#DEFA8E"/>
</linearGradient>
<path id="Trazado_17" class="st9" d="M239.34,551.59l101,0.42c21.02-0.14,40.99,9.19,54.36,25.41c7.32,8.63,11.74,19.34,12.64,30.62
	c-0.82-11.58-5.38-22.58-13-31.34c-13.83-16.43-34.31-25.77-55.78-25.46L239.34,551.59z"/>
<g>
	
		<linearGradient id="Trazado_18_2_" gradientUnits="userSpaceOnUse" x1="-327.0273" y1="-81.6958" x2="-336.0073" y2="-83.7657" gradientTransform="matrix(23.86 0 0 53.8 5253.0703 3677.8696)">
		<stop  offset="0" style="stop-color:#06CFF1"/>
		<stop  offset="1" style="stop-color:#DCEDF9"/>
	</linearGradient>
	<path id="Trazado_18" class="st10" d="M138.92,700.43c1.48-78.36,12.08-93.86-3.56-112.5c-6.62-8.09-15.8-13.68-26.02-15.87
		c-9.61-1.65-19.49-0.05-28.09,4.55c-31.36,17.77-22.06,94.78-1.39,143.4c4.52,10.61,16.58,39,31.31,38.36c6-0.27,10.48-5.35,13.6-9
		C138.55,733.19,138.7,712.24,138.92,700.43z"/>
	
		<linearGradient id="Trazado_19_2_" gradientUnits="userSpaceOnUse" x1="-184.6291" y1="-54.6588" x2="-199.8291" y2="-56.0888" gradientTransform="matrix(9.09 0 0 50.41 1874.27 3462.9604)">
		<stop  offset="0" style="stop-color:#06CFF1"/>
		<stop  offset="1" style="stop-color:#0074A2"/>
	</linearGradient>
	<path id="Trazado_19" class="st11" d="M124.5,749.7c3,4.67,6.19,9.17,9.6,13.57c1.09-1.11,2.05-2.23,2.92-3.26
		c13.82-16.17,14-37.11,14.18-48.93c1.48-78.37,12.1-93.85-3.56-112.49c-3.45-4.15-7.55-7.7-12.16-10.5
		c15.44,18.58,4.91,34.21,3.44,112.34c-0.21,11.81-0.39,32.76-14.18,49C124.65,749.51,124.57,749.6,124.5,749.7z"/>
</g>
<path id="Trazado_20" class="st5" d="M80.28,635.17c0.77-9.16,2.51-18.21,5.18-27c4.14-16.2,9.32-24.1,5.95-27.22
	c-2.19-2-6.5-0.66-7.48-0.35c-14.81,4.72-19.4,32.51-18.76,49.91c0.38,10.64,3,22.55,6.89,23.08c1.17,0.11,2.34-0.25,3.24-1
	C79.66,648.76,79.95,641.57,80.28,635.17z"/>
<path id="Trazado_21" class="st5" d="M70.12,664.89c-0.01,1.7,1.36,3.07,3.06,3.08c0,0,0.01,0,0.01,0l0,0c1.7,0,3.07-1.37,3.07-3.07
	l0,0l0,0c0.01-1.69-1.36-3.06-3.05-3.07c0,0-0.01,0-0.01,0l0,0c-1.7,0-3.07,1.37-3.07,3.07l0,0L70.12,664.89z"/>
<radialGradient id="Elipse_20_1_" cx="46.5" cy="244.9876" r="123.14" gradientTransform="matrix(-1 0 0 0.41 290.35 782.8)" gradientUnits="userSpaceOnUse">
	<stop  offset="0" style="stop-color:#0099FF"/>
	<stop  offset="1" style="stop-color:#FFFFFF"/>
</radialGradient>
<ellipse id="Elipse_20" class="st12" cx="243.85" cy="883.81" rx="161.16" ry="65.98"/>
<path id="Trazado_297" class="st5" d="M388.56,236.59c0.18,6.66-4.82,14.62-10.56,15.29c-5.37,0.63-9.66-5.33-14.08-11.47
	s-13.9-21.63-10.1-26C358.83,208.57,388.15,220.88,388.56,236.59z"/>
<path id="Trazado_298" class="st13" d="M302.49,516.53c-3.29,4.39-10.45,7.09-14.33,4.73c-3.65-2.21-3.25-8.16-2.84-14.28
	s2.46-20.75,7.06-21.75C298.44,483.93,310.26,506.19,302.49,516.53z"/>
<g id="_12">
	<path class="st14" d="M590.21,167.6c0.87-19.79-14.46-36.53-34.25-37.4c-5.96-0.26-11.89,0.97-17.25,3.57
		c-3.9-12.67-17.33-19.78-30-15.88c-2.84,0.87-5.49,2.27-7.82,4.11c-0.46-0.44-1-0.82-1.44-1.22
		C517.92,151.29,556.63,165.75,590.21,167.6z"/>
	<path class="st14" d="M586.13,201.88c7.15-0.52,14.25-1.65,21.21-3.36c-1.08-10.73-8.08-19.96-18.12-23.9c0.56-2.3,0.9-4.64,1-7
		c-33.58-1.85-72.29-16.31-90.76-46.82c-11.61-9.46-28.69-7.73-38.16,3.88c-0.97,1.2-1.85,2.47-2.6,3.82
		C473.02,175.45,538.07,200.11,586.13,201.88z"/>
	<path class="st15" d="M479.45,202.29c3.06,2.96,6.75,5.19,10.79,6.53c-5.69-4.09-11.06-8.6-16.08-13.49
		C475.56,197.91,477.34,200.25,479.45,202.29z"/>
	<path class="st14" d="M615.04,232.11c-37,10.69-79,4.2-113-15.65c0.05,0.06,0.09,0.14,0.14,0.2c1.78,9.73,8.43,17.86,17.61,21.54
		c1.5,3.38,3.65,6.43,6.31,9c0.4,0.38,0.82,0.72,1.23,1.07c-6.48,9.8-6.4,16.21-32.5,25.45c23.44,4.08,34.66-4.13,47.49-18.73
		c7.23,0.96,14.55-0.85,20.49-5.08c9.17,12.98,27.13,16.07,40.11,6.9c7.98-5.64,12.56-14.94,12.15-24.71L615.04,232.11z"/>
	<path class="st14" d="M615.04,232.11c-0.27-7.37-3.38-14.35-8.66-19.5c-0.27-0.26-0.55-0.47-0.82-0.72
		c1.64-4.25,2.25-8.84,1.78-13.37c-6.96,1.71-14.06,2.84-21.21,3.36c-48.06-1.77-113.11-26.43-127.44-73.4
		c-7.48,13.02-2.98,29.63,10.03,37.11c1.69,0.97,3.48,1.76,5.34,2.34c-4.58,8.57-4.54,18.87,0.1,27.4
		c5.02,4.89,10.39,9.4,16.08,13.49c2.58,0.86,5.28,1.36,8,1.48c1,2.2,2.27,4.27,3.79,6.16C536.02,236.31,578.02,242.8,615.04,232.11
		z"/>
	<path class="st5" d="M501.56,160.7l-15.64-6.45c-0.85-0.36-1.25-1.35-0.89-2.2c0.17-0.4,0.49-0.72,0.89-0.89l16.3-7.28l-8.88-3.68
		c-0.86-0.35-1.27-1.34-0.91-2.2c0.35-0.86,1.34-1.27,2.2-0.91l12.44,5.13c0.85,0.36,1.25,1.35,0.89,2.2
		c-0.17,0.4-0.49,0.72-0.89,0.89l-16.3,7.28l12,5c0.86,0.35,1.27,1.34,0.91,2.2c-0.35,0.86-1.34,1.27-2.2,0.91H501.56z"/>
	<path class="st5" d="M511.34,183.06c-0.88-1.09-0.71-2.69,0.39-3.57c0.32-0.25,0.69-0.43,1.08-0.51l26.46-5.37l-11.83-8.27
		c-1.15-0.8-1.43-2.39-0.63-3.54c0.8-1.15,2.39-1.43,3.54-0.63l16.68,11.67c1.15,0.81,1.42,2.4,0.61,3.54
		c-0.38,0.54-0.96,0.91-1.61,1.03l-26.46,5.37l16.11,11.28c1.18,0.76,1.51,2.34,0.75,3.51s-2.34,1.51-3.51,0.75
		c-0.05-0.03-0.1-0.07-0.15-0.1l-21-14.67C511.6,183.41,511.46,183.24,511.34,183.06z"/>
	<path class="st5" d="M541.43,212.37c-0.35-0.85-0.31-1.81,0.11-2.63c0.58-1.1,1.76-1.74,3-1.63l32.34,2.59l-10.91-13.48
		c-1.1-1.3-0.95-3.24,0.35-4.34c1.3-1.1,3.24-0.95,4.34,0.35c0.03,0.04,0.07,0.08,0.1,0.12l15.43,19c1.07,1.33,0.85,3.26-0.47,4.33
		c-0.61,0.49-1.39,0.73-2.17,0.67l-32.37-2.56l14.88,18.37c1.1,1.3,0.95,3.24-0.35,4.34c-1.3,1.1-3.24,0.95-4.34-0.35
		c-0.03-0.04-0.07-0.08-0.1-0.12l-19.39-23.94C541.7,212.87,541.55,212.63,541.43,212.37z"/>
</g>
<g>
	
		<linearGradient id="Trazado_18_3_" gradientUnits="userSpaceOnUse" x1="-312.6544" y1="-81.7527" x2="-321.6344" y2="-83.8227" gradientTransform="matrix(-23.86 0 0 53.8 -4416.0474 3677.8696)">
		<stop  offset="0" style="stop-color:#06CFF1"/>
		<stop  offset="1" style="stop-color:#DCEDF9"/>
	</linearGradient>
	<path id="Trazado_18_1_" class="st16" d="M369.32,746.31c3.12,3.65,7.6,8.73,13.6,9c14.73,0.64,26.79-27.75,31.31-38.36
		c20.67-48.62,29.97-125.63-1.39-143.4c-8.6-4.6-18.48-6.2-28.09-4.55c-10.22,2.19-19.4,7.78-26.02,15.87
		c-15.64,18.64-5.04,34.14-3.56,112.5C355.39,709.18,355.54,730.13,369.32,746.31z"/>
	
		<linearGradient id="Trazado_19_3_" gradientUnits="userSpaceOnUse" x1="-146.9024" y1="-54.7196" x2="-162.1024" y2="-56.1496" gradientTransform="matrix(-9.09 0 0 50.41 -1037.2472 3462.9604)">
		<stop  offset="0" style="stop-color:#06CFF1"/>
		<stop  offset="1" style="stop-color:#0074A2"/>
	</linearGradient>
	<path id="Trazado_19_1_" class="st17" d="M369.35,746.37c-13.79-16.24-13.97-37.19-14.18-49c-1.47-78.13-12-93.76,3.44-112.34
		c-4.61,2.8-8.71,6.35-12.16,10.5c-15.66,18.64-5.04,34.12-3.56,112.49c0.18,11.82,0.36,32.76,14.18,48.93
		c0.87,1.03,1.83,2.15,2.92,3.26c3.41-4.4,6.6-8.9,9.6-13.57C369.52,746.54,369.44,746.45,369.35,746.37z"/>
</g>
</svg>
