<?xml version="1.0" encoding="utf-8"?>
<!-- Generator: Adobe Illustrator 23.0.3, SVG Export Plug-In . SVG Version: 6.00 Build 0)  -->
<svg version="1.1" id="Capa_1" xmlns="http://www.w3.org/2000/svg" xmlns:xlink="http://www.w3.org/1999/xlink" x="0px" y="0px"
	 viewBox="0 0 550.72 966.33" style="enable-background:new 0 0 550.72 966.33;" xml:space="preserve">
<style type="text/css">
	.st0{fill:url(#Rectángulo_1_1_);}
	.st1{fill:url(#Rectángulo_2_1_);}
	.st2{fill:url(#Rectángulo_3_1_);}
	.st3{fill:url(#Trazado_4_1_);}
	.st4{fill:url(#Elipse_11_1_);}
	.st5{fill:#EEFDFF;}
	.st6{fill:url(#Elipse_13_1_);}
	.st7{fill:url(#Elipse_15_1_);}
	.st8{fill:url(#Elipse_17_1_);}
	.st9{fill:url(#Trazado_9_1_);}
	.st10{fill:#3D3333;}
	.st11{fill:#3A322D;}
	.st12{fill:#FFFFFF;}
	.st13{fill:#777777;}
	.st14{fill:url(#Trazado_15_1_);}
	.st15{fill:url(#Trazado_16_1_);}
	.st16{fill:url(#Trazado_17_1_);}
	.st17{fill:url(#Trazado_18_2_);}
	.st18{fill:url(#Trazado_19_1_);}
	.st19{opacity:0.25;fill:url(#Elipse_20_1_);enable-background:new    ;}
	.st20{fill:url(#Trazado_18_3_);}
</style>
<title>diami_dirty</title>
<linearGradient id="Rectángulo_1_1_" gradientUnits="userSpaceOnUse" x1="-152.6646" y1="-55.3882" x2="-163.2746" y2="-55.6282" gradientTransform="matrix(4.63 0 0 30.39 996.47 1770.0391)">
	<stop  offset="0" style="stop-color:#06CFF1"/>
	<stop  offset="1" style="stop-color:#DCEDF9"/>
</linearGradient>
<rect id="Rectángulo_1" x="248.09" y="28.13" class="st0" width="16.37" height="107.42"/>
<linearGradient id="Rectángulo_2_1_" gradientUnits="userSpaceOnUse" x1="-249.7001" y1="-49.9116" x2="-251.8501" y2="-54.8417" gradientTransform="matrix(40.52 0 0 19.97 10417.6006 1205.4609)">
	<stop  offset="0" style="stop-color:#06CFF1"/>
	<stop  offset="1" style="stop-color:#DCEDF9"/>
</linearGradient>
<path id="Rectángulo_2" class="st1" d="M200.63,124.3h111.3c8.82,0,15.97,7.15,15.97,15.97v38.65c0,8.82-7.15,15.97-15.97,15.97
	h-111.3c-8.82,0-15.97-7.15-15.97-15.97v-38.65C184.66,131.45,191.81,124.3,200.63,124.3z"/>
<linearGradient id="Rectángulo_3_1_" gradientUnits="userSpaceOnUse" x1="-257.8965" y1="-52.8291" x2="-260.2766" y2="-55.9591" gradientTransform="matrix(144.98 0 0 110.25 37838.3477 6369.6187)">
	<stop  offset="0" style="stop-color:#06CFF1"/>
	<stop  offset="1" style="stop-color:#2A0100"/>
</linearGradient>
<path id="Rectángulo_3" class="st2" d="M194.9,158.07h122.76c107.64,0,194.9,87.26,194.9,194.89l0,0
	c0,107.64-87.26,194.9-194.9,194.9H194.9C87.26,547.86,0,460.6,0,352.96l0,0C0,245.33,87.26,158.07,194.9,158.07z"/>
<linearGradient id="Trazado_4_1_" gradientUnits="userSpaceOnUse" x1="-258.2781" y1="-49.845" x2="-258.3081" y2="-53.0251" gradientTransform="matrix(112.79 0 0 43.58 29388.4707 2596.009)">
	<stop  offset="0" style="stop-color:#030D14"/>
	<stop  offset="1" style="stop-color:#0B2F45"/>
</linearGradient>
<path id="Trazado_4" class="st3" d="M80.62,418.5L80.62,418.5c6.81,3.34,14.29,5.07,21.87,5.05h307.57
	c7.58,0.02,15.06-1.71,21.86-5.05l0,0c15.99-7.27,25.46-24.02,23.44-41.46l-0.16-1.23c-7.89-57.13-59.63-101.06-123.07-104.36
	c-26.84-1.39-55-2.12-84.39-1.94c-23.02,0.13-45.25,0.76-66.69,1.91c-63.68,3.28-115.81,47-123.74,104.39l-0.17,1.23
	C55.14,394.49,64.62,411.24,80.62,418.5z"/>
<g id="Grupo_8">
	
		<radialGradient id="Elipse_11_1_" cx="-278.7546" cy="-49.8632" r="1.7491" gradientTransform="matrix(-32.81 0 0 32.81 -8808.5908 1991.0195)" gradientUnits="userSpaceOnUse">
		<stop  offset="0.13" style="stop-color:#3280FC"/>
		<stop  offset="1" style="stop-color:#000000"/>
	</radialGradient>
	<circle id="Elipse_11" class="st4" cx="337.35" cy="352.96" r="58"/>
	<g id="Grupo_3">
		<circle id="Elipse_12" class="st5" cx="337.35" cy="352.96" r="41.63"/>
	</g>
	<g id="Grupo_4">
		
			<linearGradient id="Elipse_13_1_" gradientUnits="userSpaceOnUse" x1="-233.7732" y1="-45.5945" x2="-237.3032" y2="-45.5945" gradientTransform="matrix(19.78 0 0 19.78 4996.2803 1254.8184)">
			<stop  offset="0" style="stop-color:#030D14"/>
			<stop  offset="1" style="stop-color:#0B2F45"/>
		</linearGradient>
		<circle id="Elipse_13" class="st6" cx="337.35" cy="352.96" r="34.97"/>
	</g>
	<g id="Grupo_5">
		<path id="Trazado_5" class="st5" d="M314.94,343.9c0.03,7.16,5.84,12.95,13,12.95l0,0c7.15,0,12.95-5.81,12.94-12.96
			c0-7.15-5.8-12.94-12.94-12.94l0,0C320.78,330.95,314.97,336.74,314.94,343.9L314.94,343.9z"/>
	</g>
	<g id="Grupo_6">
		<circle id="Elipse_14" class="st5" cx="342.51" cy="379.77" r="5.17"/>
	</g>
	<g id="Grupo_7">
		<path id="Trazado_6" class="st5" d="M355.34,372.02c-0.01,1.42,1.15,2.58,2.57,2.59c0,0,0.01,0,0.01,0l0,0
			c1.42,0.01,2.57-1.14,2.58-2.56c0-0.01,0-0.01,0-0.02l0,0c0-1.42-1.16-2.58-2.58-2.58l0,0l0,0c-1.42-0.01-2.57,1.14-2.58,2.56
			c0,0.01,0,0.01,0,0.02V372.02z"/>
	</g>
</g>
<g id="Grupo_14">
	
		<radialGradient id="Elipse_15_1_" cx="-249.6737" cy="-49.8632" r="1.75" gradientTransform="matrix(32.81 0 0 32.81 8372.3301 1991.0195)" gradientUnits="userSpaceOnUse">
		<stop  offset="0.13" style="stop-color:#3280FC"/>
		<stop  offset="1" style="stop-color:#000000"/>
	</radialGradient>
	<circle id="Elipse_15" class="st7" cx="180.66" cy="352.96" r="58"/>
	<g id="Grupo_9">
		<circle id="Elipse_16" class="st5" cx="180.66" cy="352.96" r="41.63"/>
	</g>
	<g id="Grupo_10">
		
			<linearGradient id="Elipse_17_1_" gradientUnits="userSpaceOnUse" x1="-239.4505" y1="-45.5945" x2="-242.9805" y2="-45.5945" gradientTransform="matrix(19.78 0 0 19.78 4951.96 1254.8184)">
			<stop  offset="0" style="stop-color:#030D14"/>
			<stop  offset="1" style="stop-color:#0B2F45"/>
		</linearGradient>
		<circle id="Elipse_17" class="st8" cx="180.66" cy="352.96" r="34.97"/>
	</g>
	<g id="Grupo_11">
		<path id="Trazado_7" class="st5" d="M158.26,343.9c-0.03,7.18,5.77,13.02,12.95,13.05c7.18,0.03,13.02-5.77,13.05-12.95
			c0.03-7.18-5.77-13.02-12.95-13.05c-0.03,0-0.07,0-0.1,0l0,0C164.07,330.98,158.29,336.76,158.26,343.9z"/>
	</g>
	<g id="Grupo_12">
		<circle id="Elipse_18" class="st5" cx="185.83" cy="379.77" r="5.17"/>
	</g>
	<g id="Grupo_13">
		<path id="Trazado_8" class="st5" d="M198.65,372.02c-0.01,1.42,1.15,2.58,2.57,2.59c0,0,0.01,0,0.01,0l0,0
			c1.42,0.01,2.58-1.15,2.59-2.57c0,0,0-0.01,0-0.01l0,0c0-1.42-1.16-2.58-2.58-2.58l0,0c-1.42,0-2.58,1.16-2.58,2.58L198.65,372.02
			z"/>
	</g>
</g>
<linearGradient id="Trazado_9_1_" gradientUnits="userSpaceOnUse" x1="-218.7865" y1="-57.2087" x2="-224.2665" y2="-58.0087" gradientTransform="matrix(11.86 0 0 11.87 2894.3398 706.4504)">
	<stop  offset="0" style="stop-color:#06CFF1"/>
	<stop  offset="1" style="stop-color:#DCEDF9"/>
</linearGradient>
<path id="Trazado_9" class="st9" d="M235.31,20.98c0,11.6,9.4,21,21,21l0,0c11.58-0.57,20.52-10.42,19.95-22
	c-0.53-10.79-9.16-19.42-19.95-19.95l0,0c-11.6,0-21,9.4-21,21L235.31,20.98z"/>
<path id="Trazado_10" class="st10" d="M241.7,12.79c-0.01,3.53,2.86,6.4,6.39,6.41c3.53,0.01,6.4-2.86,6.41-6.39
	c0.01-3.53-2.86-6.4-6.39-6.41c0,0-0.01,0-0.01,0l0,0c-3.53-0.01-6.39,2.85-6.4,6.38C241.7,12.78,241.7,12.79,241.7,12.79z"/>
<path id="Trazado_11" class="st11" d="M101.03,233.76c-0.28,9.79,7.71,21.5,16.87,22.51c8.58,0.94,15.43-7.83,22.5-16.87
	s22.2-31.82,16.14-38.29C148.54,192.57,101.68,210.66,101.03,233.76z"/>
<circle id="Elipse_19" class="st11" cx="179.42" cy="189.14" r="7.29"/>
<path id="Trazado_12" class="st12" d="M76.73,361.14c2.34,1.65,18.65-31.56,62.41-60.36c15.39-10.12,30.57-17.32,29.67-19.44
	s-18,1.83-31.72,8.18C93.46,309.77,73.95,359.22,76.73,361.14z"/>
<path id="Trazado_13" class="st13" d="M188.8,145.22c0.52,0.08,0.86-3,3.41-7.72c0.77-1.41,1.63-2.78,2.56-4.09
	c4.4-6,19.29-5.92,20.46-5.9c23.2,0.2,38.11-1.27,38.11-1.14s-10.88-0.1-18.86-0.26c-22.49-0.46-35.89-1.67-41.63,4.35
	c-1.53,1.69-2.75,3.64-3.58,5.76C187.96,139.05,187.79,142.27,188.8,145.22z"/>
<g id="Grupo_184">
	<path id="Trazado_14" class="st5" d="M199.49,499.27c1.42-5.12,6.21-8.57,11.52-8.28l77.1,0.1c5.38-0.22,10.24,3.18,11.87,8.31
		c0.54,2.19,0.9,4.42,1.08,6.67c0.04,0.64-0.2,1.26-0.67,1.7c-0.5,0.46-1.15,0.71-1.83,0.71l-97.29-0.13
		c-0.68,0-1.34-0.25-1.85-0.71c-0.47-0.42-0.74-1.03-0.72-1.67C198.78,503.72,199.05,501.48,199.49,499.27z"/>
	
		<linearGradient id="Trazado_15_1_" gradientUnits="userSpaceOnUse" x1="470.12" y1="458.7942" x2="570.45" y2="458.7942" gradientTransform="matrix(1 0 0 -1 -270.79 939.22)">
		<stop  offset="0" style="stop-color:#3F88AD"/>
		<stop  offset="1" style="stop-color:#469DD3"/>
	</linearGradient>
	<path id="Trazado_15" class="st14" d="M199.33,501.22c5.36-27.81,32.26-46.01,60.07-40.65c19.91,3.84,35.68,19.04,40.26,38.79
		c-1.61-4.98-6.3-8.32-11.54-8.21l-77.19,0.68C205.33,491.82,200.49,495.74,199.33,501.22z"/>
</g>
<linearGradient id="Trazado_16_1_" gradientUnits="userSpaceOnUse" x1="-256.522" y1="-49.0915" x2="-259.262" y2="-53.2715" gradientTransform="matrix(96.71 0 0 73.98 25163.8691 4415.2046)">
	<stop  offset="0" style="stop-color:#3A68AB"/>
	<stop  offset="0.05" style="stop-color:#316FB0"/>
	<stop  offset="0.24" style="stop-color:#1686C0"/>
	<stop  offset="0.41" style="stop-color:#0594CA"/>
	<stop  offset="0.54" style="stop-color:#0099CE"/>
	<stop  offset="0.66" style="stop-color:#2BA8D6"/>
	<stop  offset="0.92" style="stop-color:#99CFED"/>
	<stop  offset="1" style="stop-color:#BCDCF4"/>
</linearGradient>
<path id="Trazado_16" class="st15" d="M72.58,621.02c0,0.71,0,1.38,0,2c0.17,4.59,1,9.13,2.47,13.48
	c21.16,64.63,33.86,98.72,51.62,126.25c3.08,4.76,6.3,9.33,9.76,13.81c4.55,6,9.52,11.82,15,17.84
	c12.28,13.35,30.85,19.39,36.84,21.48c21.88,7.73,41.21,6.32,54.09,6.44h2.23c12.89-0.12,32.2,1.29,54.09-6.44
	c6-2.09,24.59-8.13,36.84-21.48c33.76-36.74,46.74-67.28,76.39-157.89c1.39-4.08,2.22-8.33,2.45-12.64c0.09-1.75,0.09-3.5,0-5.25
	c-0.91-11.47-5.4-22.36-12.83-31.15c-13.6-16.5-33.92-25.99-55.3-25.84l-102.72-0.41l-100.92-0.4c-21.84-0.31-42.67,9.2-56.75,25.9
	c-6.36,7.45-10.68,16.43-12.52,26.06c-0.21,1.29-0.39,2.61-0.52,3.89C72.66,618.1,72.58,619.54,72.58,621.02z"/>
<linearGradient id="Trazado_17_1_" gradientUnits="userSpaceOnUse" x1="-250.84" y1="-30.5783" x2="-254.14" y2="-41.9583" gradientTransform="matrix(48.35 0 0 16.36 12493.54 1124.4797)">
	<stop  offset="0.04" style="stop-color:#06CFF1"/>
	<stop  offset="1" style="stop-color:#DEFA8E"/>
</linearGradient>
<path id="Trazado_17" class="st16" d="M243.51,561.22l102.79,0.43c21.38-0.14,41.7,9.35,55.31,25.84
	c7.43,8.79,11.92,19.69,12.83,31.16c-0.82-11.8-5.47-23.01-13.23-31.93c-14.07-16.72-34.9-26.23-56.75-25.91L243.51,561.22z"/>
<linearGradient id="Trazado_18_2_" gradientUnits="userSpaceOnUse" x1="-360.2355" y1="-74.3824" x2="-369.3755" y2="-76.4924" gradientTransform="matrix(23.86 0 0 53.8 6001.3203 3269.9895)">
	<stop  offset="0" style="stop-color:#06CFF1"/>
	<stop  offset="1" style="stop-color:#DCEDF9"/>
</linearGradient>
<path id="Trazado_18" class="st17" d="M141.35,712.64c1.51-79.73,12.29-95.5-3.62-114.46c-6.76-8.23-16.11-13.93-26.52-16.15
	c-9.78-1.67-19.83-0.04-28.58,4.63c-31.9,18.08-22.42,96.44-1.42,145.91c4.59,10.78,16.87,39.71,31.85,39
	c6.14-0.28,10.67-5.44,13.84-9.16C140.97,745.97,141.12,724.66,141.35,712.64z"/>
<linearGradient id="Trazado_19_1_" gradientUnits="userSpaceOnUse" x1="-212.9492" y1="-46.8633" x2="-228.4092" y2="-48.3133" gradientTransform="matrix(9.09 0 0 50.41 2135.1101 3082.2004)">
	<stop  offset="0" style="stop-color:#06CFF1"/>
	<stop  offset="1" style="stop-color:#0074A2"/>
</linearGradient>
<path id="Trazado_19" class="st18" d="M126.68,762.75c3.07,4.76,6.29,9.33,9.76,13.81c1.11-1.13,2.09-2.27,3-3.31
	c14.06-16.45,14.21-37.75,14.42-49.78c1.51-79.74,12.31-95.49-3.62-114.46c-3.51-4.21-7.69-7.82-12.37-10.68
	c15.71,18.91,5,34.81,3.5,114.3c-0.22,12-0.4,33.33-14.43,49.81C126.84,762.53,126.75,762.63,126.68,762.75z"/>
<path id="Trazado_20" class="st12" d="M81.69,646.22c0.78-9.32,2.55-18.53,5.27-27.47c4.2-16.49,9.48-24.53,6.05-27.71
	c-2.22-2.07-6.61-0.67-7.61-0.35c-15.07,4.81-19.74,33.08-19.09,50.78c0.39,10.83,3,22.94,7,23.48c1.19,0.12,2.38-0.24,3.3-1
	C81.05,660.07,81.35,652.76,81.69,646.22z"/>
<path id="Trazado_21" class="st12" d="M71.35,676.48c0,1.72,1.4,3.12,3.12,3.13l0,0c1.72,0,3.12-1.4,3.13-3.12l0,0
	c0-1.72-1.4-3.12-3.12-3.12l0,0c-1.72-0.01-3.11,1.38-3.12,3.1c0,0.01,0,0.01,0,0.02L71.35,676.48z"/>
<radialGradient id="Elipse_20_1_" cx="-9.12" cy="232.5954" r="125.2838" gradientTransform="matrix(-1 0 0 0.41 238.98 803.28)" gradientUnits="userSpaceOnUse">
	<stop  offset="0" style="stop-color:#128EEC"/>
	<stop  offset="1" style="stop-color:#FFFFFF"/>
</radialGradient>
<ellipse id="Elipse_20" class="st19" cx="248.1" cy="899.21" rx="163.97" ry="67.13"/>
<path id="Trazado_297" class="st11" d="M395.34,240.72c0.18,6.77-4.91,14.87-10.74,15.55c-5.47,0.65-9.83-5.42-14.33-11.67
	s-14.15-22-10.28-26.49C365.09,212.22,394.92,224.73,395.34,240.72z"/>
<linearGradient id="Trazado_18_3_" gradientUnits="userSpaceOnUse" x1="-344.8157" y1="-74.3994" x2="-353.9557" y2="-76.5094" gradientTransform="matrix(-23.86 0 0 53.8 -5145.0327 3269.9895)">
	<stop  offset="0" style="stop-color:#06CFF1"/>
	<stop  offset="1" style="stop-color:#DCEDF9"/>
</linearGradient>
<path id="Trazado_18_1_" class="st20" d="M361.47,761.5c3.17,3.72,7.7,8.88,13.84,9.16c14.98,0.71,27.26-28.22,31.85-39
	c21-49.47,30.48-127.83-1.42-145.91c-8.75-4.67-18.8-6.3-28.58-4.63c-10.41,2.22-19.76,7.92-26.52,16.15
	c-15.91,18.96-5.13,34.73-3.62,114.46C347.25,723.75,347.4,745.06,361.47,761.5z"/>
<path id="Trazado_20_1_" class="st12" d="M411.76,663.04c0.92,0.76,2.11,1.12,3.3,1c4-0.54,6.61-12.65,7-23.48
	c0.65-17.7-4.02-45.97-19.09-50.78c-1-0.32-5.39-1.72-7.61,0.35c-3.43,3.18,1.85,11.22,6.05,27.71c2.72,8.94,4.49,18.15,5.27,27.47
	C407.02,651.85,407.32,659.16,411.76,663.04z"/>
<path id="Trazado_21_1_" class="st12" d="M417.01,675.58c0-0.01,0-0.01,0-0.02c-0.01-1.72-1.4-3.11-3.12-3.1l0,0
	c-1.72,0-3.12,1.4-3.12,3.12l0,0c0.01,1.72,1.41,3.12,3.13,3.12l0,0c1.72-0.01,3.12-1.41,3.12-3.13L417.01,675.58z"/>
</svg>
