<?xml version="1.0" encoding="utf-8"?>
<!-- Generator: Adobe Illustrator 23.0.3, SVG Export Plug-In . SVG Version: 6.00 Build 0)  -->
<svg version="1.1" id="Capa_1" xmlns="http://www.w3.org/2000/svg" xmlns:xlink="http://www.w3.org/1999/xlink" x="0px" y="0px"
	 viewBox="0 0 1080 1080" style="enable-background:new 0 0 1080 1080;" xml:space="preserve">
<style type="text/css">
	.st0{fill:url(#Rectángulo_1_1_);}
	.st1{fill:url(#Rectángulo_2_1_);}
	.st2{opacity:0.62;fill:url(#Rectángulo_3_1_);enable-background:new    ;}
	.st3{fill:url(#Trazado_4_1_);}
	.st4{fill:url(#Elipse_11_1_);}
	.st5{fill:#EEFDFF;}
	.st6{fill:url(#Elipse_13_1_);}
	.st7{fill:url(#Elipse_15_1_);}
	.st8{fill:url(#Elipse_17_1_);}
	.st9{fill:url(#Trazado_9_1_);}
	.st10{fill:#FFFFFF;}
	.st11{fill:url(#Trazado_15_1_);}
	.st12{fill:url(#Trazado_16_1_);}
	.st13{fill:url(#Trazado_17_1_);}
	.st14{fill:url(#Trazado_18_2_);}
	.st15{fill:url(#Trazado_19_1_);}
	.st16{fill:#F9F9F9;}
	.st17{fill:#BCBCBC;}
	.st18{opacity:0;}
	.st19{fill:#2D3962;}
	.st20{fill:url(#Trazado_18_3_);}
</style>
<title>diami_covid</title>
<linearGradient id="Rectángulo_1_1_" gradientUnits="userSpaceOnUse" x1="47.4299" y1="-0.1272" x2="37.2899" y2="-0.3472" gradientTransform="matrix(5.59 0 0 36.67 322.5 166.3121)">
	<stop  offset="0" style="stop-color:#06CFF1"/>
	<stop  offset="1" style="stop-color:#DCEDF9"/>
</linearGradient>
<rect id="Rectángulo_1" x="539.59" y="94.16" class="st0" width="18.9" height="123.99"/>
<linearGradient id="Rectángulo_2_1_" gradientUnits="userSpaceOnUse" x1="6.9906" y1="4.9615" x2="4.9406" y2="0.2515" gradientTransform="matrix(48.9 0 0 24.1 257.54 183.3297)">
	<stop  offset="0" style="stop-color:#06CFF1"/>
	<stop  offset="1" style="stop-color:#DCEDF9"/>
</linearGradient>
<path id="Rectángulo_2" class="st1" d="M481.64,205.16h134.8c8.43,0,15.27,6.84,15.27,15.27v50.94c0,8.43-6.84,15.27-15.27,15.27
	h-134.8c-8.43,0-15.27-6.84-15.27-15.27v-50.94C466.37,212,473.21,205.16,481.64,205.16z"/>
<linearGradient id="Rectángulo_3_1_" gradientUnits="userSpaceOnUse" x1="3.9889" y1="2.8684" x2="1.7089" y2="-0.1316" gradientTransform="matrix(174.97 0 0 133.06 68.43 304.8901)">
	<stop  offset="0" style="stop-color:#06CFF1"/>
	<stop  offset="1" style="stop-color:#DCEDF9"/>
</linearGradient>
<path id="Rectángulo_3" class="st2" d="M459.48,244.13h179.11c113.91,0,206.26,92.35,206.26,206.26v37.4
	c0,113.91-92.35,206.26-206.26,206.26H459.48c-113.91,0-206.26-92.35-206.26-206.26v-37.4
	C253.22,336.48,345.57,244.13,459.48,244.13z"/>
<linearGradient id="Trazado_4_1_" gradientUnits="userSpaceOnUse" x1="3.1082" y1="5.4301" x2="3.0882" y2="2.39" gradientTransform="matrix(136.17 0 0 52.59 126.62 269.4014)">
	<stop  offset="0" style="stop-color:#030D14"/>
	<stop  offset="1" style="stop-color:#0B2F45"/>
</linearGradient>
<path id="Trazado_4" class="st3" d="M346.27,544.74L346.27,544.74c7.86,3.85,16.49,5.85,25.24,5.83h355
	c8.75,0.02,17.38-1.98,25.23-5.83l0,0c19-9.4,29.76-28.38,27.05-47.85l-0.19-1.42c-9.1-65.94-68.83-116.66-142.06-120.47
	c-31-1.6-63.49-2.44-97.41-2.24c-26.57,0.15-52.23,0.89-77,2.2c-73.5,3.79-133.67,54.3-142.8,120.5l-0.2,1.42
	C316.53,516.36,327.26,535.34,346.27,544.74z"/>
<g id="Grupo_8">
	
		<radialGradient id="Elipse_11_1_" cx="-5.6732" cy="5.27" r="1.6715" gradientTransform="matrix(-39.6 0 0 39.6 417.95 258.1618)" gradientUnits="userSpaceOnUse">
		<stop  offset="0.13" style="stop-color:#3280FC"/>
		<stop  offset="1" style="stop-color:#000000"/>
	</radialGradient>
	<circle id="Elipse_11" class="st4" cx="642.61" cy="469.09" r="66.95"/>
	<g id="Grupo_3">
		<circle id="Elipse_12" class="st5" cx="642.61" cy="469.09" r="48.05"/>
	</g>
	<g id="Grupo_4">
		
			<linearGradient id="Elipse_13_1_" gradientUnits="userSpaceOnUse" x1="15.0909" y1="8.9849" x2="11.7093" y2="8.9849" gradientTransform="matrix(23.87 0 0 23.87 322.75 254.6198)">
			<stop  offset="0" style="stop-color:#030D14"/>
			<stop  offset="1" style="stop-color:#0B2F45"/>
		</linearGradient>
		<circle id="Elipse_13" class="st6" cx="642.61" cy="469.09" r="40.36"/>
	</g>
	<g id="Grupo_5">
		<path id="Trazado_5" class="st5" d="M616.75,458.63c-0.03,8.28,6.67,15.02,14.95,15.05c8.28,0.03,15.02-6.67,15.05-14.95
			c0.03-8.28-6.67-15.02-14.95-15.05c-0.02,0-0.03,0-0.05,0l0,0C623.49,443.68,616.78,450.37,616.75,458.63z"/>
	</g>
	<g id="Grupo_6">
		<circle id="Elipse_14" class="st5" cx="648.57" cy="500.04" r="5.96"/>
	</g>
	<g id="Grupo_7">
		<path id="Trazado_6" class="st5" d="M663.37,491.09c0,1.66,1.34,3,3,3l0,0c1.66,0,3-1.34,3-3l0,0c0-1.66-1.34-3-3-3l0,0
			C664.71,488.09,663.37,489.43,663.37,491.09z"/>
	</g>
</g>
<g id="Grupo_14">
	
		<radialGradient id="Elipse_15_1_" cx="5.46" cy="5.27" r="1.67" gradientTransform="matrix(39.6 0 0 39.6 245.67 258.1618)" gradientUnits="userSpaceOnUse">
		<stop  offset="0.13" style="stop-color:#3280FC"/>
		<stop  offset="1" style="stop-color:#000000"/>
	</radialGradient>
	<circle id="Elipse_15" class="st7" cx="461.75" cy="469.09" r="66.95"/>
	<g id="Grupo_9">
		<circle id="Elipse_16" class="st5" cx="461.75" cy="469.09" r="48.05"/>
	</g>
	<g id="Grupo_10">
		
			<linearGradient id="Elipse_17_1_" gradientUnits="userSpaceOnUse" x1="9.75" y1="8.9849" x2="6.3684" y2="8.9849" gradientTransform="matrix(23.87 0 0 23.87 269.26 254.6198)">
			<stop  offset="0" style="stop-color:#030D14"/>
			<stop  offset="1" style="stop-color:#0B2F45"/>
		</linearGradient>
		<circle id="Elipse_17" class="st8" cx="461.75" cy="469.09" r="40.36"/>
	</g>
	<g id="Grupo_11">
		<path id="Trazado_7" class="st5" d="M435.89,458.63c-0.03,8.28,6.67,15.02,14.95,15.05c8.28,0.03,15.02-6.67,15.05-14.95
			c0.03-8.28-6.67-15.02-14.95-15.05c-0.03,0-0.07,0-0.1,0C442.59,443.71,435.92,450.38,435.89,458.63z"/>
	</g>
	<g id="Grupo_12">
		<circle id="Elipse_18" class="st5" cx="467.71" cy="500.04" r="5.96"/>
	</g>
	<g id="Grupo_13">
		<path id="Trazado_8" class="st5" d="M482.51,491.09c0,1.66,1.34,3,3,3l0,0c1.66,0,3-1.34,3-3l0,0c0-1.66-1.34-3-3-3l0,0
			C483.85,488.09,482.51,489.43,482.51,491.09z"/>
	</g>
</g>
<linearGradient id="Trazado_9_1_" gradientUnits="userSpaceOnUse" x1="20.2891" y1="-2.7945" x2="15.0391" y2="-3.5546" gradientTransform="matrix(14.32 0 0 14.32 309.4 133.2802)">
	<stop  offset="0" style="stop-color:#06CFF1"/>
	<stop  offset="1" style="stop-color:#DCEDF9"/>
</linearGradient>
<path id="Trazado_9" class="st9" d="M524.83,85.89c-0.01,13.36,10.81,24.19,24.17,24.21l0,0c13.37,0,24.21-10.84,24.2-24.22
	c0-13.37-10.84-24.2-24.2-24.2l0,0c-13.37,0-24.2,10.83-24.21,24.2L524.83,85.89z"/>
<path id="Trazado_10" class="st10" d="M517.55,57.79c-0.01,3.44,2.78,6.23,6.22,6.24s6.23-2.78,6.24-6.22
	c0.01-3.44-2.78-6.23-6.22-6.24c0,0-0.01,0-0.01,0l0,0C520.34,51.56,517.56,54.34,517.55,57.79
	C517.55,57.78,517.55,57.79,517.55,57.79z"/>
<path id="Trazado_11" class="st10" d="M369.83,331.5c-0.34,11.3,8.91,24.82,19.48,26c9.9,1.08,17.81-9,26-19.47
	s25.62-36.72,18.62-44.19C424.67,284,370.59,304.83,369.83,331.5z"/>
<circle id="Elipse_19" class="st10" cx="460.32" cy="280" r="8.41"/>
<path id="Trazado_12" class="st10" d="M341.79,478.53c2.7,1.9,21.52-36.43,72-69.66c17.76-11.68,35.29-20,34.25-22.44
	s-20.8,2.12-36.61,9.45C361.1,419.23,338.58,476.26,341.79,478.53z"/>
<path id="Trazado_13" class="st10" d="M471.15,229.28c0.6,0.09,1-3.45,3.93-8.92c0.89-1.63,1.88-3.21,2.95-4.73
	c5.07-7,22.27-6.83,23.62-6.81c26.78,0.23,44-1.47,44-1.31s-12.57-0.12-21.77-0.31c-26-0.52-41.43-1.92-48.05,5
	c-1.77,1.95-3.17,4.2-4.14,6.64C469.81,224,470.43,229.19,471.15,229.28z"/>
<path id="Trazado_14" class="st5" d="M476.72,579.3c0.77,6.44,5.95,11.45,12.41,12l88.69,8.55c6.44,0.7,12.48-3.22,14.47-9.38
	c0.84-2.77,1.48-5.6,1.91-8.47c0.12-0.8-0.09-1.61-0.59-2.25c-0.5-0.64-1.25-1.05-2.06-1.13L479.67,567.8
	c-1.62-0.15-3.06,1.05-3.2,2.67c0,0.04-0.01,0.07-0.01,0.11C476.33,573.49,476.42,576.4,476.72,579.3z"/>
<linearGradient id="Trazado_15_1_" gradientUnits="userSpaceOnUse" x1="8.1917" y1="20.5276" x2="4.8017" y2="13.1876" gradientTransform="matrix(34.07 0 0 15.7 275.42 292.6604)">
	<stop  offset="0" style="stop-color:#3F88AD"/>
	<stop  offset="1" style="stop-color:#3487C4"/>
</linearGradient>
<path id="Trazado_15" class="st11" d="M476.71,579.31c3.39,32.53,32.5,56.16,65.03,52.77c23.27-2.42,42.93-18.32,50.18-40.56
	c-2.35,5.58-8.08,8.95-14.1,8.29l-88.71-8.53C482.67,590.71,477.51,585.72,476.71,579.31z"/>
<linearGradient id="Trazado_16_1_" gradientUnits="userSpaceOnUse" x1="4.3419" y1="6.3019" x2="1.7219" y2="2.3019" gradientTransform="matrix(116.71 0 0 89.29 151.46 396.8771)">
	<stop  offset="0" style="stop-color:#3A68AB"/>
	<stop  offset="0.05" style="stop-color:#316FB0"/>
	<stop  offset="0.24" style="stop-color:#1686C0"/>
	<stop  offset="0.41" style="stop-color:#0594CA"/>
	<stop  offset="0.54" style="stop-color:#0099CE"/>
	<stop  offset="0.66" style="stop-color:#2BA8D6"/>
	<stop  offset="0.92" style="stop-color:#99CFED"/>
	<stop  offset="1" style="stop-color:#BCDCF4"/>
</linearGradient>
<path id="Trazado_16" class="st12" d="M337,778.49c0,0.82,0,1.6,0,2.34c0.2,5.29,1.17,10.53,2.87,15.55
	c24.41,74.58,39,113.9,59.56,145.71c3.54,5.49,7.26,10.77,11.26,15.94c5.25,6.91,11,13.64,17.36,20.59
	c14.17,15.41,35.61,22.39,42.51,24.8c25.26,8.92,47.58,7.29,62.43,7.44h2.58c14.88-0.15,37.16,1.48,62.42-7.44
	c6.91-2.41,28.38-9.39,42.51-24.8c39-42.41,54-77.66,88.18-182.24c1.6-4.71,2.56-9.62,2.83-14.59c0.1-2.02,0.1-4.04,0-6.06
	c-1.04-13.26-6.22-25.85-14.81-36c-15.71-19.04-39.16-29.99-63.84-29.83l-118.65-0.49L417.79,709c-25.21-0.37-49.26,10.61-65.5,29.9
	c-7.36,8.6-12.34,18.98-14.46,30.1c-0.25,1.49-0.46,3-0.6,4.5C337.09,775.12,337,776.79,337,778.49z"/>
<linearGradient id="Trazado_17_1_" gradientUnits="userSpaceOnUse" x1="7.0671" y1="22.9205" x2="3.9171" y2="12.0406" gradientTransform="matrix(58.35 0 0 19.74 268.18 336.2807)">
	<stop  offset="0.04" style="stop-color:#06CFF1"/>
	<stop  offset="1" style="stop-color:#DEFA8E"/>
</linearGradient>
<path id="Trazado_17" class="st13" d="M534.3,709.46l118.64,0.49c24.68-0.16,48.13,10.79,63.84,29.83
	c8.59,10.15,13.77,22.74,14.81,36c-0.95-13.62-6.31-26.56-15.27-36.86c-16.23-19.3-40.28-30.29-65.5-29.92L534.3,709.46z"/>
<linearGradient id="Trazado_18_2_" gradientUnits="userSpaceOnUse" x1="-103.3728" y1="-18.0212" x2="-112.1128" y2="-20.0413" gradientTransform="matrix(28.79 0 0 64.93 235.76 385.1075)">
	<stop  offset="0" style="stop-color:#06CFF1"/>
	<stop  offset="1" style="stop-color:#DCEDF9"/>
</linearGradient>
<path id="Trazado_18" class="st14" d="M416.38,884.25c1.73-92,14.2-110.23-4.18-132.12c-7.79-9.5-18.58-16.07-30.6-18.63
	c-11.29-1.94-22.9-0.06-33,5.34c-36.83,20.87-25.9,111.31-1.64,168.41c5.29,12.45,19.47,45.85,36.77,45
	c7.1-0.34,12.31-6.28,16-10.58C415.94,922.72,416.11,898.13,416.38,884.25z"/>
<linearGradient id="Trazado_19_1_" gradientUnits="userSpaceOnUse" x1="18.9282" y1="8.359" x2="4.1382" y2="6.969" gradientTransform="matrix(10.97 0 0 60.84 275.67 384.0264)">
	<stop  offset="0" style="stop-color:#06CFF1"/>
	<stop  offset="1" style="stop-color:#0074A2"/>
</linearGradient>
<path id="Trazado_19" class="st15" d="M399.44,942.09c3.55,5.49,7.27,10.77,11.27,15.94c1.28-1.31,2.41-2.62,3.43-3.82
	c16.24-19,16.41-43.58,16.65-57.46c1.74-92,14.21-110.22-4.17-132.11c-4.05-4.87-8.87-9.04-14.28-12.33
	c18.14,21.82,5.77,40.17,4,131.93c-0.25,13.89-0.46,38.47-16.65,57.48C399.59,941.83,399.5,941.95,399.44,942.09z"/>
<path id="Trazado_20" class="st10" d="M347.51,807.61c0.52-9.88,2.37-17.16,6.09-31.7c4.85-19,10.94-28.31,7-32
	c-2.57-2.4-7.64-0.78-8.79-0.41c-17.39,5.54-22.78,38.18-22,58.6c0.46,12.52,3.52,26.49,8.1,27.11c1.37,0.14,2.73-0.27,3.8-1.14
	C346.77,823.57,347.12,815.13,347.51,807.61z"/>
<path id="Trazado_21" class="st10" d="M335.57,842.52c0,1.99,1.62,3.61,3.61,3.61c1.99,0,3.61-1.62,3.61-3.61l0,0
	c0-2-1.61-3.61-3.61-3.62l0,0c-1.99,0-3.61,1.62-3.61,3.61L335.57,842.52z"/>
<path class="st16" d="M445.26,550c27.29-7,60.64-14,87.93-20.93c6-1.52,12-3,18.17-3.19c10-0.23,19.61,3.18,29.06,6.23
	c28.57,9.24,50.36,15.77,80.3,19.32c0,0-1.82,17.79-3.27,26.35c-3.92,23.06-7.44,56-0.83,79.13c0,0-56.28,32.37-97.45,32.75
	C507,690.1,449,657.34,448.35,655.85c-0.48-1,4.41-33.67,3.68-63.35C451.51,571.23,445.26,550,445.26,550z"/>
<path class="st17" d="M452.69,555.84c-0.21,0-0.4-0.14-0.45-0.34c-0.3-1.1-0.47-1.71-0.48-1.71c-0.03-0.12-0.01-0.24,0.05-0.34
	c0.06-0.11,0.16-0.18,0.28-0.21l1.82-0.46c0.24-0.07,0.5,0.07,0.57,0.31c0.07,0.23-0.07,0.48-0.3,0.54c-0.01,0-0.02,0-0.03,0.01
	l-1.36,0.34c0.08,0.3,0.2,0.73,0.36,1.3c0.06,0.24-0.1,0.48-0.34,0.54c0,0,0,0,0,0L452.69,555.84z"/>
<path class="st17" d="M648.29,554.74h-0.07l-3.67-0.52c-0.25-0.03-0.42-0.26-0.39-0.5c0,0,0-0.01,0-0.01
	c0.05-0.25,0.28-0.42,0.53-0.38l3.66,0.53c0.24,0.02,0.42,0.23,0.4,0.47c0,0.01,0,0.02,0,0.03
	C648.71,554.58,648.52,554.74,648.29,554.74z M641,553.65h-0.08l-3.66-0.62c-0.25-0.04-0.42-0.27-0.38-0.52
	c0.05-0.25,0.3-0.41,0.55-0.36l3.65,0.62c0.25,0.04,0.42,0.26,0.38,0.51C641.42,553.5,641.22,553.65,641,553.65z M457.65,552.76
	c-0.21,0-0.39-0.14-0.45-0.34c-0.06-0.24,0.1-0.48,0.34-0.54c0,0,0,0,0,0l3.59-0.89c0.25-0.06,0.5,0.08,0.57,0.32
	c0.06,0.24-0.08,0.49-0.32,0.55c0,0,0,0-0.01,0l-3.6,0.88L457.65,552.76z M633.65,552.37h-0.09c-1.22-0.23-2.43-0.46-3.64-0.71
	c-0.24-0.04-0.41-0.28-0.36-0.52c0,0,0,0,0-0.01c0.06-0.25,0.31-0.4,0.56-0.34l3.62,0.71c0.24,0.03,0.41,0.26,0.37,0.5
	c0,0.01,0,0.02,0,0.02C634.06,552.23,633.87,552.38,633.65,552.37L633.65,552.37z M464.8,551c-0.21,0-0.39-0.14-0.45-0.34
	c-0.06-0.24,0.1-0.48,0.34-0.54c0,0,0,0,0,0l3.6-0.86c0.25-0.06,0.5,0.08,0.57,0.32c0.06,0.24-0.1,0.48-0.34,0.54c0,0,0,0,0,0
	l-3.6,0.86L464.8,551z M626.41,550.9h-0.11c-1.21-0.26-2.41-0.52-3.61-0.8c-0.24-0.05-0.4-0.29-0.35-0.53c0,0,0-0.01,0-0.01
	c0.06-0.25,0.31-0.4,0.56-0.33c0,0,0.01,0,0.01,0c1.19,0.28,2.39,0.54,3.6,0.8c0.24,0.05,0.4,0.29,0.35,0.53c0,0,0,0.01,0,0.01
	C626.8,550.77,626.62,550.9,626.41,550.9z M472,549.28c-0.21,0-0.4-0.14-0.46-0.34c-0.06-0.24,0.1-0.48,0.34-0.54c0,0,0,0,0,0
	l3.61-0.85c0.25-0.06,0.5,0.08,0.56,0.33c0.06,0.24-0.08,0.47-0.32,0.53c-0.01,0-0.01,0-0.02,0.01l-3.6,0.85L472,549.28z
	 M619.19,549.28h-0.12c-1.2-0.29-2.4-0.58-3.59-0.89c-0.24-0.05-0.39-0.3-0.34-0.54c0,0,0,0,0,0c0.08-0.24,0.33-0.39,0.58-0.32
	l3.58,0.89c0.24,0.05,0.39,0.28,0.35,0.52c0,0.01,0,0.01-0.01,0.02c-0.07,0.18-0.24,0.3-0.44,0.3L619.19,549.28z M479.19,547.61
	c-0.21,0-0.4-0.14-0.46-0.34c-0.05-0.24,0.1-0.48,0.34-0.54c0,0,0.01,0,0.01,0l3.6-0.84c0.25-0.06,0.5,0.09,0.57,0.33
	c0.05,0.24-0.1,0.48-0.34,0.54c0,0-0.01,0-0.01,0l-3.6,0.84L479.19,547.61z M612,547.44h-0.13l-3.57-1
	c-0.24-0.06-0.39-0.31-0.32-0.55c0,0,0-0.01,0-0.01c0.08-0.24,0.34-0.37,0.58-0.3l3.56,1c0.24,0.06,0.39,0.3,0.33,0.54
	c0,0,0,0,0,0.01C612.38,547.32,612.2,547.44,612,547.44z M486.39,545.92c-0.21,0-0.4-0.14-0.46-0.34c-0.05-0.24,0.1-0.48,0.34-0.54
	c0,0,0.01,0,0.01,0l3.6-0.83c0.25-0.06,0.5,0.08,0.57,0.33c0.05,0.24-0.1,0.48-0.34,0.54c0,0-0.01,0-0.01,0l-3.6,0.83L486.39,545.92
	z M604.87,545.47c-0.05,0.01-0.09,0.01-0.14,0l-3.55-1c-0.24-0.07-0.38-0.32-0.31-0.55c0,0,0,0,0-0.01c0.09-0.24,0.34-0.37,0.59-0.3
	l3.54,1c0.24,0.06,0.39,0.31,0.32,0.55c0,0,0,0.01,0,0.01c-0.07,0.17-0.23,0.29-0.42,0.3H604.87z M493.6,544.26
	c-0.21,0-0.4-0.14-0.46-0.34c-0.05-0.24,0.1-0.48,0.34-0.54c0,0,0.01,0,0.01,0l3.61-0.83c0.24-0.06,0.49,0.08,0.56,0.32
	c0.06,0.24-0.08,0.47-0.32,0.53c-0.01,0-0.01,0-0.02,0.01l-3.61,0.83L493.6,544.26z M597.78,543.39c-0.05,0.01-0.09,0.01-0.14,0
	l-3.54-1.08c-0.23-0.07-0.37-0.31-0.31-0.54c0-0.01,0-0.01,0.01-0.02c0.09-0.24,0.35-0.36,0.59-0.28l3.53,1.07
	c0.24,0.06,0.38,0.3,0.32,0.54c0,0.01,0,0.02-0.01,0.02c-0.07,0.17-0.24,0.28-0.42,0.29L597.78,543.39z M500.78,542.59
	c-0.21,0.01-0.4-0.13-0.46-0.34c-0.05-0.24,0.1-0.48,0.34-0.54c0,0,0.01,0,0.01,0l3.6-0.83c0.25-0.06,0.5,0.08,0.57,0.33
	c0.06,0.23-0.08,0.46-0.31,0.52c-0.01,0-0.02,0-0.03,0.01l-3.61,0.84L500.78,542.59z M590.68,541.22c-0.05,0.01-0.1,0.01-0.15,0
	l-3.52-1.11c-0.23-0.07-0.37-0.31-0.31-0.54c0-0.01,0-0.01,0.01-0.02c0.09-0.24,0.35-0.37,0.6-0.29l3.52,1.11
	c0.24,0.07,0.37,0.32,0.3,0.56c-0.07,0.16-0.21,0.27-0.38,0.29H590.68z M507.99,540.92c-0.21,0-0.4-0.14-0.45-0.34
	c-0.07-0.24,0.06-0.49,0.3-0.56c0.05-0.02,0.11-0.02,0.16-0.02l3.61-0.84c0.24-0.07,0.5,0.07,0.57,0.32c0,0,0,0,0,0
	c0.06,0.24-0.1,0.48-0.34,0.54c0,0,0,0,0,0l-3.61,0.85L507.99,540.92z M515.21,539.23c-0.21,0-0.4-0.14-0.46-0.34
	c-0.06-0.24,0.1-0.48,0.34-0.54c0,0,0,0,0,0l3.6-0.86c0.25-0.06,0.5,0.08,0.57,0.33c0.06,0.24-0.08,0.47-0.32,0.53
	c-0.01,0-0.01,0-0.02,0.01l-3.6,0.85L515.21,539.23z M583.64,538.99h-0.15l-3.51-1.13c-0.24-0.07-0.37-0.32-0.3-0.56
	c0,0,0-0.01,0-0.01c0.09-0.24,0.36-0.36,0.6-0.28l3.51,1.13c0.23,0.07,0.37,0.31,0.3,0.55c0,0.01,0,0.02-0.01,0.02
	c-0.06,0.16-0.2,0.27-0.37,0.29L583.64,538.99z M522.41,537.51c-0.21,0-0.4-0.14-0.46-0.34c-0.06-0.24,0.1-0.48,0.34-0.54
	c0,0,0,0,0,0l3.6-0.88c0.24-0.05,0.49,0.08,0.57,0.32c0.06,0.25-0.1,0.49-0.34,0.55l-3.6,0.87L522.41,537.51z M576.6,536.72h-0.14
	l-3.46-1.16c-0.23-0.07-0.37-0.31-0.31-0.54c0-0.01,0-0.01,0.01-0.02c0.09-0.24,0.36-0.36,0.6-0.28l3.47,1.12
	c0.24,0.07,0.38,0.33,0.31,0.57c-0.06,0.18-0.22,0.3-0.41,0.31L576.6,536.72z M529.6,535.72c-0.21,0-0.39-0.13-0.45-0.33
	c-0.06-0.24,0.1-0.48,0.34-0.54c0,0,0,0,0,0l3.58-0.9c0.25-0.07,0.5,0.07,0.58,0.31c0.06,0.24-0.08,0.49-0.33,0.55
	c0,0-0.01,0-0.01,0l-3.59,0.9L529.6,535.72z M569.6,534.48h-0.14c-1.27-0.37-2.43-0.7-3.55-1c-0.23-0.05-0.38-0.28-0.33-0.51
	c0-0.01,0-0.02,0.01-0.03c0.07-0.24,0.32-0.38,0.57-0.32c1.13,0.29,2.29,0.62,3.58,1c0.24,0.07,0.38,0.32,0.31,0.55c0,0,0,0,0,0.01
	c-0.06,0.18-0.22,0.3-0.41,0.32L569.6,534.48z M536.8,533.91c-0.21,0.01-0.39-0.13-0.45-0.33c-0.07-0.23,0.07-0.47,0.3-0.53
	c0.01,0,0.02-0.01,0.03-0.01c1.2-0.3,2.4-0.6,3.61-0.87c0.25-0.05,0.49,0.1,0.56,0.34c0.05,0.24-0.09,0.47-0.33,0.53
	c0,0-0.01,0-0.01,0c-1.2,0.27-2.4,0.56-3.59,0.86L536.8,533.91z M562.43,532.64h-0.1c-1.24-0.26-2.45-0.47-3.61-0.64
	c-0.25-0.03-0.43-0.26-0.4-0.51c0.05-0.25,0.29-0.41,0.54-0.37c1.18,0.17,2.41,0.39,3.67,0.65c0.24,0.04,0.4,0.26,0.36,0.5
	c0,0.01,0,0.02-0.01,0.03c-0.04,0.2-0.22,0.35-0.42,0.36L562.43,532.64z M544.03,532.32c-0.22,0-0.42-0.15-0.46-0.37
	c-0.04-0.24,0.12-0.48,0.37-0.52c0,0,0,0,0,0c1.31-0.23,2.52-0.41,3.7-0.54c0.25-0.04,0.48,0.14,0.52,0.39
	c0.03,0.25-0.15,0.47-0.4,0.5c0,0-0.01,0-0.01,0c-1.16,0.13-2.35,0.3-3.64,0.53L544.03,532.32z M555.1,531.6L555.1,531.6
	c-1.22-0.08-2.42-0.11-3.59-0.08l-0.09-0.44l0.05-0.45c1.27,0,2.45,0,3.69,0.08c0.25-0.04,0.47,0.13,0.51,0.38
	c0.04,0.25-0.13,0.47-0.38,0.51c-0.04,0.01-0.09,0.01-0.13,0H555.1z"/>
<path class="st17" d="M653.66,557.22L653.66,557.22c-0.24-0.01-0.43-0.21-0.42-0.46c0-0.01,0-0.02,0-0.03l0.14-1.34l-1.41-0.17
	c-0.24-0.02-0.42-0.23-0.4-0.47c0-0.01,0-0.02,0-0.03c0.04-0.25,0.27-0.42,0.52-0.38l1.86,0.22c0.25,0.03,0.43,0.24,0.41,0.49
	l-0.19,1.77C654.14,557.07,653.91,557.25,653.66,557.22z"/>
<path class="st17" d="M648.73,649c-0.22,0.01-0.41-0.15-0.46-0.36c-0.24-1.13-0.46-2.31-0.65-3.51c-0.04-0.24,0.12-0.47,0.36-0.51
	c0.01,0,0.02,0,0.03,0c0.25-0.04,0.48,0.12,0.53,0.37c0.2,1.19,0.42,2.35,0.65,3.47c0.05,0.24-0.11,0.48-0.36,0.53
	c0,0-0.01,0-0.01,0L648.73,649z M647.56,642c-0.23,0-0.43-0.16-0.46-0.39c-0.15-1.17-0.28-2.35-0.4-3.55
	c-0.01-0.25,0.18-0.46,0.43-0.48c0.25-0.02,0.47,0.15,0.51,0.4c0.11,1.19,0.24,2.36,0.39,3.52c0.02,0.25-0.16,0.47-0.41,0.49
	c0,0,0,0,0,0L647.56,642z M646.88,634.93c-0.24,0-0.44-0.18-0.47-0.42c-0.08-1.17-0.14-2.36-0.19-3.55
	c-0.01-0.25,0.2-0.46,0.45-0.47c0,0,0,0,0,0c0.25,0,0.46,0.19,0.49,0.43c0.05,1.19,0.11,2.37,0.19,3.54
	c0.01,0.25-0.19,0.46-0.44,0.47H646.88z M646.58,627.84c-0.25,0.01-0.46-0.19-0.47-0.44c0-1.07,0-2.14,0-3.22v-0.34
	c0-0.26,0.21-0.47,0.47-0.47c0.26,0,0.47,0.21,0.47,0.47v0.34c0,1.07,0,2.14,0,3.21c-0.01,0.25-0.21,0.45-0.46,0.45L646.58,627.84z
	 M646.58,620.74L646.58,620.74c-0.25,0-0.45-0.2-0.46-0.45c0-1.19,0.06-2.37,0.11-3.56c0-0.24,0.19-0.43,0.43-0.43
	c0.02,0,0.04,0,0.05,0c0.25,0,0.46,0.21,0.46,0.46c0,0,0,0,0,0c0,1.18-0.09,2.37-0.11,3.54c-0.03,0.24-0.23,0.42-0.47,0.41
	L646.58,620.74z M646.85,613.65L646.85,613.65c-0.25-0.01-0.45-0.22-0.44-0.47c0.06-1.19,0.14-2.37,0.22-3.55
	c0.05-0.25,0.3-0.42,0.55-0.37c0.21,0.04,0.36,0.22,0.38,0.43c-0.08,1.18-0.15,2.35-0.22,3.54c-0.04,0.23-0.24,0.4-0.48,0.39
	L646.85,613.65z M647.35,606.57L647.35,606.57c-0.25-0.02-0.44-0.23-0.43-0.48c0.1-1.19,0.21-2.37,0.32-3.54
	c0.04-0.25,0.26-0.43,0.51-0.41c0.25,0.02,0.45,0.23,0.43,0.49c0,0,0,0,0,0c-0.12,1.17-0.22,2.34-0.32,3.53
	c-0.05,0.24-0.26,0.4-0.5,0.38L647.35,606.57z M648.04,599.5L648.04,599.5c-0.25-0.02-0.44-0.23-0.42-0.48c0,0,0-0.01,0-0.01
	c0.13-1.18,0.27-2.36,0.41-3.53c0.04-0.25,0.27-0.43,0.52-0.39c0.25,0.02,0.43,0.24,0.41,0.49c0,0,0,0,0,0
	c-0.14,1.17-0.28,2.34-0.41,3.52c-0.04,0.24-0.26,0.4-0.5,0.37L648.04,599.5z M648.9,592.45h-0.06c-0.25-0.02-0.43-0.24-0.41-0.49
	c0,0,0-0.01,0-0.01c0.16-1.19,0.33-2.36,0.49-3.52c0.05-0.25,0.28-0.42,0.53-0.38c0.24,0.02,0.42,0.23,0.4,0.47
	c0,0.01,0,0.02,0,0.03c-0.17,1.16-0.33,2.33-0.49,3.51c-0.04,0.21-0.23,0.36-0.45,0.36L648.9,592.45z M649.9,585.45h-0.07
	c-0.25-0.03-0.42-0.26-0.39-0.5c0,0,0-0.01,0-0.01c0.18-1.19,0.37-2.36,0.56-3.51c0.05-0.25,0.28-0.42,0.53-0.37c0,0,0,0,0.01,0
	c0.25,0.03,0.42,0.26,0.39,0.5c0,0,0,0.01,0,0.01c-0.19,1.14-0.38,2.31-0.56,3.5c-0.06,0.19-0.25,0.32-0.45,0.32L649.9,585.45z
	 M651.04,578.45H651c-0.24-0.03-0.42-0.24-0.39-0.48c0-0.01,0-0.01,0-0.02c0.17-1.09,0.34-2.27,0.51-3.51
	c0.04-0.25,0.27-0.43,0.52-0.39c0.25,0.03,0.43,0.25,0.41,0.5c-0.18,1.25-0.35,2.44-0.51,3.53c-0.08,0.2-0.27,0.32-0.48,0.3
	L651.04,578.45z M652.04,571.45L652.04,571.45c-0.24-0.01-0.43-0.22-0.41-0.47c0-0.01,0-0.02,0-0.02c0.15-1.17,0.29-2.36,0.43-3.53
	c0.04-0.25,0.27-0.42,0.52-0.39c0.25,0.02,0.43,0.24,0.41,0.49c0,0,0,0,0,0c-0.14,1.17-0.28,2.36-0.43,3.53
	c-0.09,0.22-0.33,0.34-0.56,0.28L652.04,571.45z M652.89,564.39L652.89,564.39c-0.25-0.02-0.44-0.24-0.42-0.49
	c0.15-1.26,0.28-2.45,0.4-3.53c0.05-0.25,0.3-0.42,0.56-0.36c0.22,0.05,0.37,0.23,0.37,0.45l-0.39,3.53
	c-0.08,0.21-0.31,0.33-0.53,0.29L652.89,564.39z"/>
<path class="st17" d="M648.39,655.06c-0.17,0-0.32-0.08-0.41-0.22c-0.12-0.21-0.05-0.48,0.16-0.6c0,0,0.01-0.01,0.01-0.01l1.31-0.72
	c-0.13-0.47-0.26-0.94-0.38-1.41c-0.06-0.24,0.08-0.47,0.32-0.53c0.01,0,0.01,0,0.02-0.01c0.24-0.07,0.5,0.07,0.57,0.32c0,0,0,0,0,0
	c0.15,0.58,0.3,1.15,0.46,1.72c0.05,0.19-0.03,0.4-0.2,0.5l-1.62,0.9C648.56,655.04,648.47,655.06,648.39,655.06z"/>
<path class="st17" d="M557.74,684.81c-0.25,0.01-0.46-0.18-0.47-0.43c0,0,0-0.01,0-0.01c0.01-0.25,0.21-0.45,0.46-0.45h1.07
	c0.87,0,1.75,0,2.63-0.07c0.23-0.04,0.45,0.12,0.48,0.34c0,0.03,0.01,0.05,0.01,0.08c0.01,0.25-0.19,0.46-0.44,0.47
	c-0.9,0-1.79,0.06-2.67,0.07L557.74,684.81z M554.01,684.81L554.01,684.81c-1.24,0-2.48-0.1-3.72-0.17
	c-0.25-0.01-0.45-0.23-0.44-0.48c0,0,0,0,0,0c0.02-0.25,0.24-0.43,0.49-0.41c0,0,0,0,0,0c1.24,0.07,2.47,0.13,3.7,0.16
	c0.25,0.01,0.45,0.21,0.45,0.46c-0.04,0.24-0.25,0.41-0.49,0.39L554.01,684.81z M565.17,684.55c-0.24,0.01-0.44-0.17-0.47-0.41
	c-0.02-0.25,0.17-0.46,0.42-0.48c0,0,0,0,0,0c1.2-0.1,2.44-0.23,3.69-0.39c0.25-0.04,0.48,0.14,0.52,0.39
	c0.02,0.25-0.15,0.47-0.4,0.5c-1.26,0.15-2.51,0.28-3.72,0.39L565.17,684.55z M546.6,684.37L546.6,684.37
	c-1.24-0.11-2.47-0.24-3.71-0.38c-0.24-0.01-0.43-0.22-0.41-0.47c0-0.01,0-0.02,0-0.02c0.04-0.25,0.27-0.43,0.52-0.39
	c1.23,0.14,2.46,0.26,3.68,0.37c0.25,0.02,0.44,0.23,0.43,0.48c-0.05,0.23-0.27,0.39-0.51,0.36V684.37z M572.55,683.64
	c-0.22,0.01-0.42-0.15-0.46-0.37c-0.04-0.24,0.12-0.47,0.36-0.51c0.01,0,0.01,0,0.02,0c1.21-0.19,2.43-0.41,3.65-0.64
	c0.25-0.05,0.49,0.11,0.55,0.36c0.05,0.24-0.11,0.47-0.35,0.52c-0.01,0-0.01,0-0.02,0c-1.23,0.23-2.45,0.44-3.68,0.64H572.55z
	 M539.22,683.54h-0.07c-1.23-0.17-2.46-0.35-3.69-0.55c-0.25-0.03-0.42-0.26-0.39-0.5c0,0,0-0.01,0-0.01
	c0.05-0.25,0.29-0.41,0.54-0.37c1.22,0.2,2.45,0.38,3.67,0.55c0.24,0.02,0.42,0.23,0.4,0.47c0,0.01,0,0.02,0,0.03
	c-0.06,0.2-0.25,0.34-0.46,0.33V683.54z M531.87,682.36h-0.09c-1.23-0.22-2.45-0.46-3.67-0.7c-0.24-0.04-0.41-0.28-0.36-0.52
	c0,0,0,0,0-0.01c0.07-0.24,0.31-0.4,0.56-0.35c1.21,0.25,2.43,0.48,3.65,0.71c0.24,0.03,0.41,0.26,0.37,0.5c0,0.01,0,0.02,0,0.02
	c-0.07,0.19-0.26,0.31-0.46,0.3V682.36z M579.87,682.27c-0.21,0-0.4-0.14-0.45-0.35c-0.05-0.24,0.09-0.47,0.33-0.53
	c0.01,0,0.01,0,0.02,0c1.2-0.26,2.4-0.54,3.61-0.83c0.25-0.06,0.5,0.09,0.57,0.33c0.06,0.24-0.1,0.48-0.34,0.54c0,0,0,0,0,0
	c-1.21,0.29-2.42,0.57-3.63,0.83L579.87,682.27z M524.6,680.88h-0.11c-1.21-0.27-2.42-0.55-3.63-0.85
	c-0.23-0.05-0.38-0.27-0.34-0.51c0-0.01,0.01-0.02,0.01-0.03c0.07-0.24,0.32-0.39,0.57-0.32c0,0,0,0,0,0
	c1.19,0.29,2.4,0.57,3.6,0.84c0.24,0.05,0.4,0.29,0.35,0.53c0,0,0,0.01,0,0.01c-0.08,0.19-0.27,0.3-0.47,0.28L524.6,680.88z
	 M587.09,680.53c-0.21,0-0.39-0.13-0.45-0.33c-0.06-0.24,0.08-0.49,0.32-0.55c0,0,0,0,0.01,0c1.19-0.31,2.38-0.64,3.57-1
	c0.24-0.07,0.5,0.06,0.58,0.3c0.07,0.23-0.05,0.47-0.28,0.54c-0.01,0-0.02,0.01-0.03,0.01c-1.2,0.34-2.39,0.68-3.59,1L587.09,680.53
	z M517.38,679.13h-0.12c-1.21-0.32-2.4-0.64-3.59-1c-0.24-0.06-0.38-0.29-0.33-0.53c0-0.01,0-0.01,0.01-0.02
	c0.08-0.24,0.33-0.38,0.58-0.3c0,0,0,0,0,0c1.18,0.33,2.38,0.65,3.58,1c0.24,0.06,0.38,0.29,0.33,0.53c0,0.01,0,0.01-0.01,0.02
	c-0.09,0.18-0.28,0.28-0.47,0.25L517.38,679.13z M594.23,678.48c-0.2,0-0.38-0.12-0.45-0.31c-0.07-0.24,0.07-0.49,0.3-0.56
	c0,0,0,0,0.01,0c1.17-0.36,2.35-0.73,3.52-1.11c0.24-0.08,0.5,0.04,0.59,0.27c0.09,0.22-0.02,0.47-0.25,0.56
	c-0.01,0.01-0.03,0.01-0.04,0.01c-1.17,0.38-2.35,0.76-3.54,1.12c-0.05,0-0.11-0.01-0.16-0.03L594.23,678.48z M510.23,677.14h-0.14
	l-3.57-1.14c-0.23-0.07-0.37-0.31-0.31-0.54c0-0.01,0-0.01,0.01-0.02c0.09-0.24,0.35-0.37,0.6-0.29c1.16,0.37,2.34,0.73,3.53,1.08
	c0.24,0.07,0.38,0.32,0.31,0.55c0,0,0,0,0,0.01c-0.07,0.18-0.24,0.3-0.44,0.3L510.23,677.14z M601.23,676.14
	c-0.19,0-0.37-0.12-0.44-0.3c-0.09-0.22,0.02-0.47,0.24-0.56c0.01,0,0.02-0.01,0.04-0.01c1.17-0.4,2.33-0.81,3.48-1.23
	c0.24-0.08,0.51,0.03,0.61,0.26c0.08,0.23-0.04,0.49-0.27,0.58c0,0-0.01,0-0.01,0l-3.49,1.23L601.23,676.14z M503.12,674.87h-0.15
	c-1.19-0.39-2.36-0.78-3.52-1.18c-0.24-0.08-0.36-0.33-0.28-0.57c0,0,0-0.01,0-0.01c0.1-0.23,0.36-0.35,0.6-0.26l3.5,1.18
	c0.23,0.07,0.37,0.31,0.3,0.55c0,0.01,0,0.02-0.01,0.02c-0.07,0.16-0.24,0.27-0.42,0.27L503.12,674.87z M608.19,673.62
	c-0.19,0-0.36-0.11-0.44-0.28c-0.09-0.23,0.02-0.48,0.25-0.57c0.01,0,0.02-0.01,0.02-0.01c1.16-0.44,2.31-0.88,3.44-1.33
	c0.23-0.09,0.5,0.01,0.61,0.24c0.1,0.22,0,0.48-0.23,0.58c-0.01,0-0.02,0.01-0.02,0.01l-3.46,1.33c-0.05,0.02-0.1,0.03-0.15,0.03
	L608.19,673.62z M496.12,672.45h-0.17l-3.47-1.29c-0.23-0.08-0.36-0.34-0.27-0.58c0,0,0,0,0,0c0.1-0.23,0.37-0.34,0.61-0.25
	c1.14,0.43,2.3,0.86,3.47,1.28c0.23,0.08,0.36,0.34,0.27,0.58c0,0,0,0,0,0c-0.08,0.16-0.24,0.26-0.42,0.26L496.12,672.45z
	 M615.12,670.91c-0.18,0-0.35-0.1-0.43-0.27c-0.09-0.22,0.01-0.48,0.24-0.58c0,0,0.01,0,0.01,0c1.15-0.47,2.29-0.94,3.41-1.42
	c0.23-0.1,0.51,0,0.62,0.23c0.1,0.23-0.01,0.49-0.24,0.59c0,0,0,0,0,0c-1.12,0.47-2.26,0.95-3.42,1.42
	c-0.07,0.02-0.15,0.03-0.22,0.03H615.12z M489.25,669.83c-0.06,0.01-0.12,0.01-0.18,0c-1.17-0.46-2.32-0.92-3.44-1.38
	c-0.22-0.08-0.34-0.32-0.26-0.55c0-0.01,0.01-0.02,0.01-0.03c0.11-0.23,0.38-0.33,0.62-0.24l3.42,1.38
	c0.23,0.08,0.35,0.33,0.27,0.56c0,0.01,0,0.01-0.01,0.02c-0.09,0.17-0.27,0.26-0.46,0.24L489.25,669.83z M621.9,668
	c-0.18,0-0.34-0.1-0.42-0.26c-0.1-0.21-0.02-0.47,0.2-0.58c0.01-0.01,0.02-0.01,0.03-0.01l3.37-1.49c0.23-0.11,0.51-0.02,0.63,0.21
	c0.1,0.21,0.02,0.47-0.2,0.58c-0.01,0.01-0.02,0.01-0.03,0.01c-1.1,0.5-2.23,1-3.38,1.5C622.04,667.99,621.97,668,621.9,668z
	 M482.37,667c-0.06,0.01-0.13,0.01-0.19,0l-3.4-1.46c-0.23-0.09-0.33-0.35-0.24-0.57c0-0.01,0.01-0.02,0.01-0.03
	c0.12-0.23,0.39-0.32,0.62-0.21l3.39,1.46c0.23,0.1,0.34,0.36,0.24,0.59c0,0,0,0,0,0C482.71,666.93,482.54,667.01,482.37,667
	L482.37,667z M628.64,665c-0.18,0-0.34-0.09-0.42-0.25c-0.11-0.21-0.02-0.47,0.19-0.58c0.01,0,0.02-0.01,0.03-0.01l3.33-1.57
	c0.23-0.11,0.51-0.02,0.63,0.2c0.11,0.22,0.02,0.48-0.19,0.59c-0.01,0-0.01,0.01-0.02,0.01c-1.08,0.51-2.19,1-3.34,1.57
	C628.78,664.99,628.71,665,628.64,665z M475.64,664.06c-0.07,0-0.14-0.02-0.2-0.05c-1.16-0.52-2.28-1-3.36-1.55
	c-0.22-0.1-0.32-0.36-0.22-0.58c0-0.01,0.01-0.01,0.01-0.02c0.12-0.22,0.4-0.31,0.63-0.2c1.07,0.51,2.19,1,3.34,1.55
	c0.22,0.08,0.32,0.33,0.24,0.54c-0.01,0.02-0.01,0.03-0.02,0.05c-0.08,0.18-0.27,0.28-0.46,0.27L475.64,664.06z M635.35,661.83
	c-0.17,0-0.33-0.09-0.42-0.24c-0.11-0.21-0.04-0.47,0.17-0.58c0.01-0.01,0.02-0.01,0.03-0.02l3.3-1.64
	c0.23-0.11,0.51-0.03,0.64,0.19c0.11,0.22,0.03,0.48-0.19,0.59c0,0-0.01,0-0.01,0.01l-3.31,1.64c-0.07,0.05-0.16,0.07-0.25,0.06
	L635.35,661.83z M468.96,660.91c-0.07,0.01-0.14,0.01-0.21,0c-1.17-0.57-2.27-1.13-3.31-1.66c-0.21-0.1-0.31-0.36-0.2-0.57
	c0-0.01,0.01-0.02,0.01-0.03c0.13-0.22,0.41-0.3,0.63-0.18l3.3,1.64c0.22,0.1,0.31,0.35,0.22,0.57c0,0.01-0.01,0.02-0.02,0.03
	c-0.1,0.15-0.28,0.24-0.46,0.21L468.96,660.91z M641.96,658.52c-0.17,0-0.33-0.09-0.42-0.24c-0.12-0.21-0.04-0.47,0.16-0.59
	c0.01-0.01,0.02-0.01,0.03-0.01l3.26-1.71c0.22-0.12,0.51-0.05,0.64,0.17c0.12,0.21,0.05,0.48-0.16,0.6c-0.01,0-0.01,0.01-0.02,0.01
	c-1,0.51-2.06,1.09-3.27,1.71c-0.08,0.05-0.18,0.08-0.28,0.07L641.96,658.52z M462.41,657.52c-0.08,0.01-0.15,0.01-0.23,0
	c-1.22-0.66-2.3-1.26-3.24-1.79c-0.21-0.11-0.29-0.37-0.18-0.58c0.01-0.01,0.01-0.02,0.02-0.03c0.14-0.21,0.42-0.28,0.64-0.15
	c0.93,0.52,2,1.12,3.22,1.77c0.21,0.1,0.3,0.35,0.2,0.56c-0.01,0.01-0.01,0.03-0.02,0.04c-0.1,0.16-0.28,0.25-0.47,0.22
	L462.41,657.52z M456,653.89c-0.1,0-0.19-0.03-0.27-0.08c-0.84-0.56-1-0.73-1-0.87c-0.06-0.16-0.08-0.33-0.07-0.5
	c0-0.39,0-1.08,0.15-2.19c0.03-0.25,0.26-0.43,0.51-0.4c0.24,0.01,0.43,0.21,0.42,0.46c0,0.01,0,0.01,0,0.02
	c-0.1,1.08-0.14,1.75-0.14,2.11v0.13c0.22,0.18,0.46,0.35,0.7,0.5c0.2,0.13,0.26,0.4,0.13,0.59c-0.01,0.01-0.01,0.02-0.02,0.03
	C456.32,653.82,456.16,653.9,456,653.89z M455.6,647.21L455.6,647.21c-0.24-0.01-0.43-0.21-0.42-0.46c0-0.01,0-0.01,0-0.02
	l0.36-3.53c0.04-0.25,0.26-0.43,0.51-0.41c0.25,0.02,0.44,0.24,0.42,0.49L456,646.8c-0.03,0.22-0.21,0.39-0.43,0.41H455.6z
	 M456.33,640.15h-0.05c-0.24-0.01-0.43-0.21-0.42-0.46c0-0.01,0-0.01,0-0.02c0.11-1.12,0.23-2.3,0.34-3.53
	c0.03-0.25,0.26-0.43,0.51-0.41c0.25,0.02,0.44,0.23,0.42,0.48c0,0,0,0.01,0,0.01c-0.11,1.23-0.23,2.41-0.34,3.53
	c-0.03,0.24-0.25,0.42-0.49,0.4H456.33z M456.99,633.08L456.99,633.08c-0.25-0.01-0.44-0.22-0.43-0.47c0,0,0-0.01,0-0.01
	c0.1-1.14,0.2-2.32,0.3-3.53c0.03-0.25,0.26-0.43,0.51-0.41c0.25,0.01,0.44,0.22,0.43,0.47c0,0,0,0.01,0,0.01
	c-0.1,1.21-0.2,2.39-0.3,3.54C457.47,632.93,457.25,633.1,456.99,633.08L456.99,633.08z M457.57,626.01L457.57,626.01
	c-0.25-0.01-0.44-0.22-0.43-0.47c0,0,0,0,0,0c0.09-1.16,0.17-2.34,0.25-3.54c0.02-0.26,0.24-0.46,0.5-0.44s0.46,0.24,0.44,0.5l0,0
	c-0.08,1.2-0.17,2.38-0.26,3.54C458.05,625.85,457.83,626.03,457.57,626.01c0-0.01-0.02-0.01-0.03-0.01L457.57,626.01z
	 M458.04,618.94L458.04,618.94c-0.25-0.02-0.44-0.22-0.44-0.47c0.07-1.17,0.14-2.35,0.19-3.54c0.03-0.25,0.25-0.44,0.5-0.42
	c0.25,0.01,0.45,0.21,0.44,0.46c0,0,0,0,0,0c-0.06,1.2-0.12,2.38-0.19,3.55C458.52,618.77,458.3,618.96,458.04,618.94
	c-0.01,0-0.02,0-0.04,0H458.04z M458.39,611.86L458.39,611.86c-0.25-0.01-0.45-0.22-0.45-0.47c0.05-1.17,0.09-2.35,0.13-3.53
	c0.02-0.25,0.23-0.45,0.48-0.44c0.25,0,0.45,0.2,0.45,0.45c0,0,0,0.01,0,0.01c0,1.19-0.07,2.37-0.12,3.55
	C458.87,611.68,458.65,611.88,458.39,611.86c-0.01,0-0.02,0-0.03,0H458.39z M458.6,604.77L458.6,604.77c-0.25,0-0.45-0.2-0.46-0.45
	c0-1.18,0-2.36,0-3.54c0.02-0.25,0.23-0.45,0.48-0.44c0.25-0.01,0.45,0.19,0.46,0.44c0,0,0,0,0,0c0,1.19,0,2.37,0,3.55
	C459.07,604.58,458.86,604.78,458.6,604.77c-0.01,0-0.02,0-0.03,0L458.6,604.77z M458.6,597.69c-0.25,0.01-0.46-0.2-0.47-0.45
	c0,0,0,0,0,0c0-1.18,0-2.36-0.05-3.53c0-0.25,0.2-0.45,0.45-0.46c0.24-0.03,0.45,0.14,0.48,0.38c0,0.02,0,0.04,0,0.06
	c0,1.18,0.05,2.36,0.06,3.55C459.06,597.49,458.85,597.69,458.6,597.69L458.6,597.69z M458.41,590.6c-0.24,0.01-0.45-0.18-0.47-0.42
	c-0.06-1.18-0.14-2.36-0.23-3.53c-0.01-0.25,0.18-0.46,0.43-0.48c0.25-0.02,0.47,0.16,0.5,0.41c0.09,1.18,0.17,2.36,0.24,3.55
	c0.01,0.25-0.2,0.46-0.45,0.47c0,0,0,0,0,0L458.41,590.6z M457.85,583.53c-0.24,0.01-0.44-0.17-0.47-0.4
	c-0.12-1.18-0.26-2.36-0.41-3.51c-0.03-0.25,0.15-0.47,0.4-0.5c0,0,0.01,0,0.01,0c0.25-0.04,0.48,0.14,0.52,0.39
	c0.15,1.16,0.29,2.34,0.41,3.53c0.03,0.24-0.15,0.46-0.39,0.49c-0.01,0-0.02,0-0.03,0H457.85z M456.95,576.53
	c-0.23,0.01-0.43-0.16-0.46-0.39c-0.18-1.19-0.37-2.36-0.56-3.49c-0.04-0.25,0.14-0.47,0.38-0.51c0,0,0.01,0,0.01,0
	c0.25-0.04,0.48,0.12,0.53,0.37c0.2,1.14,0.38,2.31,0.56,3.51c0.03,0.24-0.13,0.46-0.37,0.5c-0.01,0-0.01,0-0.02,0L456.95,576.53z
	 M455.77,569.53c-0.22,0.01-0.42-0.15-0.46-0.37c-0.23-1.21-0.46-2.37-0.69-3.47c-0.05-0.24,0.11-0.48,0.36-0.53c0,0,0.01,0,0.01,0
	c0.25-0.05,0.49,0.1,0.55,0.35c0.23,1.11,0.46,2.28,0.69,3.5c0.04,0.25-0.13,0.47-0.38,0.51L455.77,569.53z M454.33,562.53
	c-0.22,0.01-0.41-0.14-0.46-0.35c-0.29-1.27-0.56-2.43-0.81-3.45c-0.05-0.24,0.09-0.47,0.33-0.53c0.01,0,0.01,0,0.02,0
	c0.25-0.06,0.5,0.08,0.56,0.33c0.25,1,0.53,2.18,0.82,3.47c0.05,0.24-0.11,0.47-0.35,0.52c0,0-0.01,0-0.01,0L454.33,562.53z"/>
<g class="st18">
	<path class="st19" d="M653.75,612c-1.38,17.25-1.24,30.57,2.87,44.92c0,0-56.28,32.37-97.45,32.75
		C507,690.1,449,657.34,448.35,655.85c-0.44-0.94,3.6-23.06,3.8-50.23c0,0,71.05,5.11,105.35,4.8S653.75,612,653.75,612z"/>
</g>
<path class="st17" d="M572.71,542.9c-5.82-3.49-12.41-5.48-19.19-5.77c-10.72-0.38-19.76,5.25-19.76,5.25s12.44-2.84,20.06-2.4
	C560.18,540.45,566.5,541.43,572.71,542.9z"/>
<path class="st17" d="M486.45,647.28c0,0,28.14,17.51,68.89,18.1c41.63,0.59,65.6-15.91,65.6-15.91s-35.19,6.34-65,6.22
	C529,655.59,486.45,647.28,486.45,647.28z"/>
<path class="st17" d="M488.31,608l134.3,3.31c0,0-37,9.09-68.38,8.45C523.77,619.12,488.31,608,488.31,608z"/>
<path class="st17" d="M486.21,580.79c0,0,32.42-13.22,68.83-13.1c34.59,0.1,65.67,13.46,65.67,13.46s-35.5-3.36-65.29-3.76
	C528.44,577,486.21,580.79,486.21,580.79z"/>
<linearGradient id="Trazado_18_3_" gradientUnits="userSpaceOnUse" x1="-92.1965" y1="-18.0291" x2="-100.9365" y2="-20.0491" gradientTransform="matrix(-28.79 0 0 64.93 1153.0972 385.1075)">
	<stop  offset="0" style="stop-color:#06CFF1"/>
	<stop  offset="1" style="stop-color:#DCEDF9"/>
</linearGradient>
<path id="Trazado_18_1_" class="st20" d="M667.36,941.16c3.69,4.3,8.9,10.24,16,10.58c17.3,0.85,31.48-32.55,36.77-45
	c24.26-57.1,35.19-147.54-1.64-168.41c-10.1-5.4-21.71-7.28-33-5.34c-12.02,2.56-22.81,9.13-30.6,18.63
	c-18.38,21.89-5.91,40.12-4.18,132.12C650.98,897.62,651.15,922.21,667.36,941.16z"/>
<path id="Trazado_20_1_" class="st10" d="M725.38,827.56c1.07,0.87,2.43,1.28,3.8,1.14c4.58-0.62,7.64-14.59,8.1-27.11
	c0.78-20.42-4.61-53.06-22-58.6c-1.15-0.37-6.22-1.99-8.79,0.41c-3.94,3.69,2.15,13,7,32c3.72,14.54,5.57,21.82,6.09,31.7
	C719.97,814.62,720.32,823.06,725.38,827.56z"/>
<path id="Trazado_21_1_" class="st10" d="M731.52,842c0-1.99-1.62-3.61-3.61-3.61l0,0c-2,0.01-3.61,1.62-3.61,3.62l0,0
	c0,1.99,1.62,3.61,3.61,3.61c1.99,0,3.61-1.62,3.61-3.61L731.52,842z"/>
</svg>
