<?xml version="1.0" encoding="utf-8"?>
<!-- Generator: Adobe Illustrator 23.0.3, SVG Export Plug-In . SVG Version: 6.00 Build 0)  -->
<svg version="1.1" id="Capa_1" xmlns="http://www.w3.org/2000/svg" xmlns:xlink="http://www.w3.org/1999/xlink" x="0px" y="0px"
	 viewBox="0 0 510 894.86" style="enable-background:new 0 0 510 894.86;" xml:space="preserve">
<style type="text/css">
	.st0{fill:url(#Rectángulo_1_1_);}
	.st1{fill:url(#Rectángulo_2_1_);}
	.st2{fill:url(#Rectángulo_3_1_);}
	.st3{fill:url(#Trazado_4_1_);}
	.st4{fill:url(#Elipse_11_1_);}
	.st5{fill:#EEFDFF;}
	.st6{fill:url(#Elipse_13_1_);}
	.st7{fill:url(#Elipse_15_1_);}
	.st8{fill:url(#Elipse_17_1_);}
	.st9{fill:url(#Trazado_9_1_);}
	.st10{fill:#FFFFFF;}
	.st11{fill:url(#Trazado_15_1_);}
	.st12{fill:url(#Trazado_16_1_);}
	.st13{fill:url(#Trazado_17_1_);}
	.st14{fill:url(#Trazado_18_2_);}
	.st15{fill:url(#Trazado_19_2_);}
	.st16{opacity:0.37;fill:url(#Elipse_20_1_);enable-background:new    ;}
	.st17{fill:url(#Trazado_18_3_);}
	.st18{fill:url(#Trazado_19_3_);}
</style>
<title>diami_avatar</title>
<g id="Grupo_15">
	
		<linearGradient id="Rectángulo_1_1_" gradientUnits="userSpaceOnUse" x1="-279.2675" y1="-92.5529" x2="-277.5276" y2="-92.593" gradientTransform="matrix(26.12 0 0 171.38 7536.2202 15942.1797)">
		<stop  offset="0" style="stop-color:#06CFF1"/>
		<stop  offset="1" style="stop-color:#DCEDF9"/>
	</linearGradient>
	<rect id="Rectángulo_1" x="265.1" y="26.05" class="st0" width="15.16" height="99.48"/>
	
		<linearGradient id="Rectángulo_2_1_" gradientUnits="userSpaceOnUse" x1="-282.1881" y1="-92.6377" x2="-281.8381" y2="-93.4478" gradientTransform="matrix(228.53 0 0 112.62 64717.0391 10630.9375)">
		<stop  offset="0" style="stop-color:#06CFF1"/>
		<stop  offset="1" style="stop-color:#DCEDF9"/>
	</linearGradient>
	<path id="Rectángulo_2" class="st1" d="M208.98,115.11h127.41c1.45,0,2.62,1.17,2.62,2.62v60.13c0,1.45-1.17,2.62-2.62,2.62
		H208.98c-1.45,0-2.62-1.17-2.62-2.62v-60.13C206.36,116.28,207.53,115.11,208.98,115.11z"/>
	
		<linearGradient id="Rectángulo_3_1_" gradientUnits="userSpaceOnUse" x1="-282.5693" y1="-92.5195" x2="-282.1793" y2="-93.0394" gradientTransform="matrix(817.74 0 0 621.88 231168.8594 58037.3047)">
		<stop  offset="0" style="stop-color:#06CFF1"/>
		<stop  offset="1" style="stop-color:#DCEDF9"/>
	</linearGradient>
	<path id="Rectángulo_3" class="st2" d="M182.79,146.37h179.79c81.42,0,147.43,66.01,147.43,147.43v66.1
		c0,81.42-66.01,147.43-147.43,147.43H182.79c-81.42,0-147.43-66.01-147.43-147.43v-66.1C35.36,212.38,101.37,146.37,182.79,146.37z
		"/>
	
		<linearGradient id="Trazado_4_1_" gradientUnits="userSpaceOnUse" x1="-282.3216" y1="-92.9756" x2="-282.3116" y2="-93.4957" gradientTransform="matrix(636.43 0 0 245.8 179948.7813 23244.2148)">
		<stop  offset="0" style="stop-color:#030D14"/>
		<stop  offset="1" style="stop-color:#0B2F45"/>
	</linearGradient>
	<path id="Trazado_4" class="st3" d="M435.35,387.55L435.35,387.55c-6.29,3.09-13.21,4.69-20.22,4.68H130.26
		c-7.02,0.01-13.94-1.59-20.24-4.68l0,0c-15.26-7.54-23.87-22.77-21.71-38.39l0.15-1.14c7.3-52.91,55.22-93.59,114-96.64
		c24.86-1.29,50.94-2,78.15-1.8c21.33,0.12,41.92,0.71,61.75,1.77c59,3,107.25,43.56,114.57,96.66l0.16,1.15
		C459.21,364.78,450.6,380.01,435.35,387.55z"/>
	<g id="Grupo_8">
		
			<radialGradient id="Elipse_11_1_" cx="-281.5854" cy="-93.5329" r="0.29" gradientTransform="matrix(185.07 0 0 185.07 52310.2617 17635.6289)" gradientUnits="userSpaceOnUse">
			<stop  offset="0.13" style="stop-color:#3280FC"/>
			<stop  offset="1" style="stop-color:#000000"/>
		</radialGradient>
		<circle id="Elipse_11" class="st4" cx="197.61" cy="326.85" r="53.71"/>
		<g id="Grupo_3">
			<circle id="Elipse_12" class="st5" cx="197.61" cy="326.85" r="38.55"/>
		</g>
		<g id="Grupo_4">
			
				<linearGradient id="Elipse_13_1_" gradientUnits="userSpaceOnUse" x1="-281.2745" y1="-94.2401" x2="-280.6845" y2="-94.2401" gradientTransform="matrix(111.57 0 0 111.57 31546.5 10841.2227)">
				<stop  offset="0" style="stop-color:#030D14"/>
				<stop  offset="1" style="stop-color:#0B2F45"/>
			</linearGradient>
			<circle id="Elipse_13" class="st6" cx="197.61" cy="326.85" r="32.38"/>
		</g>
		<g id="Grupo_5">
			<path id="Trazado_5" class="st5" d="M218.35,318.46c0,6.63-5.37,12-12,12s-12-5.37-12-12l0,0c0-6.63,5.37-12,12-12l0,0
				C212.98,306.46,218.35,311.83,218.35,318.46z"/>
		</g>
		<g id="Grupo_6">
			<circle id="Elipse_14" class="st5" cx="192.82" cy="351.68" r="4.79"/>
		</g>
		<g id="Grupo_7">
			<path id="Trazado_6" class="st5" d="M180.95,344.5c0.01,1.31-1.05,2.39-2.36,2.4c-0.01,0-0.02,0-0.03,0l0,0
				c-1.32,0-2.39-1.07-2.39-2.39v0l0,0c0-1.32,1.07-2.39,2.39-2.39h0l0,0C179.88,342.12,180.95,343.19,180.95,344.5L180.95,344.5
				L180.95,344.5z"/>
		</g>
	</g>
	<g id="Grupo_14">
		
			<radialGradient id="Elipse_15_1_" cx="-282.1454" cy="-93.5329" r="0.29" gradientTransform="matrix(185.07 0 0 185.07 52560.2422 17635.6289)" gradientUnits="userSpaceOnUse">
			<stop  offset="0.13" style="stop-color:#3280FC"/>
			<stop  offset="1" style="stop-color:#000000"/>
		</radialGradient>
		<circle id="Elipse_15" class="st7" cx="342.71" cy="326.85" r="53.71"/>
		<g id="Grupo_9">
			<circle id="Elipse_16" class="st5" cx="342.71" cy="326.85" r="38.55"/>
		</g>
		<g id="Grupo_10">
			
				<linearGradient id="Elipse_17_1_" gradientUnits="userSpaceOnUse" x1="-282.2145" y1="-94.2401" x2="-281.6245" y2="-94.2401" gradientTransform="matrix(111.57 0 0 111.57 31796.4805 10841.2227)">
				<stop  offset="0" style="stop-color:#030D14"/>
				<stop  offset="1" style="stop-color:#0B2F45"/>
			</linearGradient>
			<circle id="Elipse_17" class="st8" cx="342.71" cy="326.85" r="32.38"/>
		</g>
		<g id="Grupo_11">
			<path id="Trazado_7" class="st5" d="M363.46,318.46c0,6.63-5.37,12-12,12s-12-5.37-12-12s5.37-12,12-12l0,0
				C358.09,306.46,363.46,311.83,363.46,318.46z"/>
		</g>
		<g id="Grupo_12">
			<circle id="Elipse_18" class="st5" cx="337.92" cy="351.68" r="4.79"/>
		</g>
		<g id="Grupo_13">
			<path id="Trazado_8" class="st5" d="M326.06,344.5c0.01,1.32-1.06,2.39-2.38,2.4c-0.01,0-0.01,0-0.02,0l0,0
				c-1.32,0-2.39-1.07-2.39-2.39v0l0,0c0-1.32,1.07-2.39,2.39-2.39l0,0l0,0C324.98,342.12,326.05,343.19,326.06,344.5L326.06,344.5z
				"/>
		</g>
	</g>
	
		<linearGradient id="Trazado_9_1_" gradientUnits="userSpaceOnUse" x1="-281.3868" y1="-91.9599" x2="-280.4868" y2="-92.0899" gradientTransform="matrix(66.92 0 0 66.92 19062.2188 6179.2842)">
		<stop  offset="0" style="stop-color:#06CFF1"/>
		<stop  offset="1" style="stop-color:#DCEDF9"/>
	</linearGradient>
	<path id="Trazado_9" class="st9" d="M292.13,19.42c0.01,10.72-8.68,19.41-19.4,19.42c-0.01,0-0.01,0-0.02,0l0,0
		c-10.73,0-19.42-8.69-19.42-19.42S261.98,0,272.71,0l0,0C283.44,0,292.13,8.69,292.13,19.42z"/>
	<path id="Trazado_10" class="st10" d="M286.18,11.84c0,3.27-2.65,5.92-5.92,5.92c-3.27,0-5.92-2.65-5.92-5.92
		c0-3.27,2.65-5.92,5.92-5.92l0,0C283.53,5.92,286.18,8.57,286.18,11.84z"/>
	<path id="Trazado_11" class="st10" d="M416.45,216.47c0.26,9.07-7.14,19.91-15.62,20.84c-8,0.87-14.3-7.25-20.84-15.63
		s-20.56-29.45-14.94-35.44C372.46,178.32,415.84,195.08,416.45,216.47z"/>
	<circle id="Elipse_19" class="st10" cx="343.85" cy="175.16" r="6.75"/>
	<path id="Trazado_12" class="st10" d="M438.95,334.43c-2.16,1.53-17.26-29.23-57.79-55.9c-14.25-9.37-28.31-16.06-27.48-18
		s16.69,1.7,29.38,7.58C423.46,286.85,441.53,332.61,438.95,334.43z"/>
	<path id="Trazado_13" class="st10" d="M335.13,134.46c-0.48,0.07-0.79-2.77-3.16-7.15c-0.71-1.31-1.5-2.58-2.37-3.79
		c-4.07-5.6-17.86-5.48-18.94-5.47c-21.49,0.19-35.3-1.17-35.3-1.05s10.09-0.09,17.47-0.24c20.82-0.42,33.23-1.54,38.55,4
		c1.42,1.56,2.54,3.37,3.32,5.33C336.24,130.21,335.74,134.38,335.13,134.46z"/>
	<path id="Trazado_14" class="st5" d="M330.7,415.27c-0.64,5.17-4.81,9.18-10,9.61l-71.15,6.86c-5.16,0.54-10-2.59-11.61-7.52
		c-0.67-2.23-1.18-4.5-1.53-6.8c-0.19-1.31,0.72-2.52,2.02-2.71c0.03,0,0.06-0.01,0.1-0.01l89.77-8.65
		c1.28-0.13,2.42,0.81,2.55,2.09c0,0,0,0.01,0,0.01c0.01,0.04,0.01,0.09,0,0.13C330.97,410.61,330.92,412.95,330.7,415.27z"/>
	
		<linearGradient id="Trazado_15_1_" gradientUnits="userSpaceOnUse" x1="-281.8904" y1="-96.1146" x2="-281.3104" y2="-97.3746" gradientTransform="matrix(159.24 0 0 73.4 45162.9531 7492.2598)">
		<stop  offset="0" style="stop-color:#3F88AD"/>
		<stop  offset="1" style="stop-color:#3487C4"/>
	</linearGradient>
	<path id="Trazado_15" class="st11" d="M330.7,415.28c-2.71,26.1-26.07,45.06-52.17,42.34c-18.67-1.94-34.45-14.69-40.26-32.54
		c1.89,4.48,6.49,7.18,11.32,6.66l71.16-6.86C325.91,424.42,330.06,420.42,330.7,415.28z"/>
	
		<linearGradient id="Trazado_16_1_" gradientUnits="userSpaceOnUse" x1="-282.4859" y1="-93.3073" x2="-282.0359" y2="-93.9872" gradientTransform="matrix(545.48 0 0 417.29 154275.7656 39655.3398)">
		<stop  offset="0" style="stop-color:#3A68AB"/>
		<stop  offset="0.05" style="stop-color:#316FB0"/>
		<stop  offset="0.24" style="stop-color:#1686C0"/>
		<stop  offset="0.41" style="stop-color:#0594CA"/>
		<stop  offset="0.54" style="stop-color:#0099CE"/>
		<stop  offset="0.66" style="stop-color:#2BA8D6"/>
		<stop  offset="0.92" style="stop-color:#99CFED"/>
		<stop  offset="1" style="stop-color:#BCDCF4"/>
	</linearGradient>
	<path id="Trazado_16" class="st12" d="M442.8,575.08c0,0.65,0,1.28,0,1.88c-0.16,4.25-0.93,8.45-2.3,12.47
		c-19.58,59.83-31.32,91.38-47.77,116.9c-2.85,4.41-5.83,8.64-9,12.79c-4.21,5.55-8.82,10.95-13.93,16.52
		c-11.37,12.36-28.56,18-34.11,19.89c-20.26,7.16-38.17,5.86-50.08,6h-2.07c-11.94-0.11-29.82,1.19-50.08-6
		c-5.55-1.93-22.77-7.53-34.11-19.89c-31.26-34-43.29-62.3-70.74-146.21c-1.31-3.79-2.1-7.74-2.35-11.75
		c-0.08-1.62-0.08-3.24,0-4.86c0.59-10,4.66-19.86,11.88-28.85c12.36-15.4,31.46-23.84,51.21-23.93l95.19-0.39l93.45-0.37
		c20.18-0.09,39.74,8.38,52.55,24c6.2,7.56,10.15,15.71,11.6,24.13c0.2,1.19,0.37,2.41,0.48,3.61S442.8,573.68,442.8,575.08z"/>
	
		<linearGradient id="Trazado_17_1_" gradientUnits="userSpaceOnUse" x1="-282.0121" y1="-95.9281" x2="-281.4721" y2="-97.7981" gradientTransform="matrix(272.69 0 0 92.26 77076.2578 9425.2744)">
		<stop  offset="0.04" style="stop-color:#06CFF1"/>
		<stop  offset="1" style="stop-color:#DEFA8E"/>
	</linearGradient>
	<path id="Trazado_17" class="st13" d="M284.5,519.68l-95.18,0.4c-19.75,0.08-38.85,8.52-51.22,23.93
		c-7.22,9-11.28,18.81-11.88,28.84c0.49-10.28,4.72-20.37,12.26-29.56c12.78-15.6,32.36-24.07,52.55-24L284.5,519.68z"/>
	
		<linearGradient id="Trazado_18_2_" gradientUnits="userSpaceOnUse" x1="-263.8376" y1="-98.181" x2="-262.3376" y2="-98.5311" gradientTransform="matrix(134.57 0 0 303.52 38416.0625 29107.7129)">
		<stop  offset="0" style="stop-color:#06CFF1"/>
		<stop  offset="1" style="stop-color:#DCEDF9"/>
	</linearGradient>
	<path id="Trazado_18" class="st14" d="M379.13,659.93c-1.39-73.83-11.38-88.43,3.35-106c1.69-2,10.34-12.32,24.55-15
		c9.05-1.55,18.37-0.04,26.47,4.29c29.54,16.74,20.78,89.3,1.32,135.11c-4.25,10-15.63,36.78-29.51,36.14
		c-5.68-0.26-9.87-5-12.81-8.48C379.46,690.8,379.32,671.06,379.13,659.93z"/>
	
		<linearGradient id="Trazado_19_2_" gradientUnits="userSpaceOnUse" x1="-282.7493" y1="-93.8416" x2="-280.2093" y2="-94.0816" gradientTransform="matrix(51.27 0 0 284.35 14822.21 27350.5293)">
		<stop  offset="0" style="stop-color:#06CFF1"/>
		<stop  offset="1" style="stop-color:#0074A2"/>
	</linearGradient>
	<path id="Trazado_19" class="st15" d="M392.69,706.33c-2.84,4.41-5.82,8.64-9,12.79c-1-1.05-1.94-2.1-2.76-3.06
		c-13-15.24-13.16-35-13.36-46.11c-1.39-73.84-11.4-88.42,3.36-106c3.24-3.91,7.11-7.25,11.45-9.89
		c-14.55,17.5-4.63,32.23-3.24,105.84c0.2,11.14,0.37,30.87,13.36,46.13C392.58,706.12,392.64,706.22,392.69,706.33z"/>
	<path id="Trazado_20" class="st10" d="M434.36,598.45c-0.42-7.93-1.91-13.77-4.88-25.44c-3.9-15.27-8.78-22.71-5.61-25.66
		c2.07-1.92,6.13-0.62,7.06-0.33c14,4.45,18.27,30.64,17.67,47c-0.37,10-2.82,21.25-6.49,21.75c-1.1,0.11-2.2-0.22-3.06-0.91
		C434.95,611.25,434.68,604.48,434.36,598.45z"/>
	<path id="Trazado_21" class="st10" d="M443.94,626.45c0,1.6-1.3,2.9-2.9,2.9s-2.9-1.3-2.9-2.9s1.3-2.9,2.9-2.9l0,0
		C442.64,623.55,443.94,624.85,443.94,626.45L443.94,626.45z"/>
	
		<radialGradient id="Elipse_20_1_" cx="552.13" cy="-141.4103" r="116.01" gradientTransform="matrix(1 0 0 -0.41 -271.87 775.28)" gradientUnits="userSpaceOnUse">
		<stop  offset="0" style="stop-color:#128EEC"/>
		<stop  offset="1" style="stop-color:#FFFFFF;stop-opacity:0"/>
	</radialGradient>
	<ellipse id="Elipse_20" class="st16" cx="280.26" cy="832.7" rx="151.84" ry="62.16"/>
	
		<linearGradient id="Trazado_18_3_" gradientUnits="userSpaceOnUse" x1="-262.3763" y1="-98.176" x2="-260.8763" y2="-98.5261" gradientTransform="matrix(-134.57 0 0 303.52 -37652.457 29107.7129)">
		<stop  offset="0" style="stop-color:#06CFF1"/>
		<stop  offset="1" style="stop-color:#DCEDF9"/>
	</linearGradient>
	<path id="Trazado_18_1_" class="st17" d="M174.47,707.52c-2.94,3.48-7.13,8.22-12.81,8.48c-13.88,0.64-25.26-26.14-29.51-36.14
		c-19.46-45.81-28.22-118.37,1.32-135.11c8.1-4.33,17.42-5.84,26.47-4.29c14.21,2.68,22.86,13,24.55,15
		c14.73,17.57,4.74,32.17,3.35,106C187.65,672.59,187.51,692.33,174.47,707.52z"/>
	
		<linearGradient id="Trazado_19_3_" gradientUnits="userSpaceOnUse" x1="-278.9139" y1="-93.8363" x2="-276.3739" y2="-94.0762" gradientTransform="matrix(-51.27 0 0 284.35 -14058.6055 27350.5293)">
		<stop  offset="0" style="stop-color:#06CFF1"/>
		<stop  offset="1" style="stop-color:#0074A2"/>
	</linearGradient>
	<path id="Trazado_19_1_" class="st18" d="M174.47,707.56c12.99-15.26,13.16-34.99,13.36-46.13c1.39-73.61,11.31-88.34-3.24-105.84
		c4.34,2.64,8.21,5.98,11.45,9.89c14.76,17.58,4.75,32.16,3.36,106c-0.2,11.11-0.36,30.87-13.36,46.11
		c-0.82,0.96-1.76,2.01-2.76,3.06c-3.18-4.15-6.16-8.38-9-12.79C174.32,707.75,174.39,707.65,174.47,707.56z"/>
	<path id="Trazado_20_1_" class="st10" d="M127.92,616.39c-0.86,0.69-1.96,1.02-3.06,0.91c-3.67-0.5-6.12-11.75-6.49-21.75
		c-0.6-16.36,3.67-42.55,17.67-47c0.93-0.29,4.99-1.59,7.06,0.33c3.17,2.95-1.71,10.39-5.61,25.66
		c-2.97,11.67-4.46,17.51-4.88,25.44C132.29,606.01,132.02,612.78,127.92,616.39z"/>
	<path id="Trazado_21_1_" class="st10" d="M123.03,627.98c0-1.6,1.3-2.9,2.9-2.9l0,0c1.6,0,2.9,1.3,2.9,2.9s-1.3,2.9-2.9,2.9
		S123.03,629.58,123.03,627.98L123.03,627.98z"/>
</g>
</svg>
