<?xml version="1.0" encoding="utf-8"?>
<!-- Generator: Adobe Illustrator 23.0.3, SVG Export Plug-In . SVG Version: 6.00 Build 0)  -->
<svg version="1.1" id="Capa_1" xmlns="http://www.w3.org/2000/svg" xmlns:xlink="http://www.w3.org/1999/xlink" x="0px" y="0px"
	 viewBox="0 0 659.24 966.09" style="enable-background:new 0 0 659.24 966.09;" xml:space="preserve">
<style type="text/css">
	.st0{fill:url(#Rectángulo_1_1_);}
	.st1{fill:url(#Rectángulo_2_1_);}
	.st2{fill:url(#Rectángulo_3_1_);}
	.st3{fill:url(#Trazado_4_1_);}
	.st4{fill:url(#Elipse_11_1_);}
	.st5{fill:#EEFDFF;}
	.st6{fill:url(#Elipse_13_1_);}
	.st7{fill:url(#Elipse_15_1_);}
	.st8{fill:url(#Elipse_17_1_);}
	.st9{fill:url(#Trazado_9_1_);}
	.st10{fill:#FFFFFF;}
	.st11{fill:url(#Trazado_15_1_);}
	.st12{fill:url(#Trazado_16_1_);}
	.st13{fill:url(#Trazado_17_1_);}
	.st14{fill:url(#Trazado_18_2_);}
	.st15{fill:url(#Trazado_19_2_);}
	.st16{opacity:0.25;fill:url(#Elipse_20_1_);enable-background:new    ;}
	.st17{fill:#A3D4E5;}
	.st18{fill:#92C6DD;}
	.st19{fill:#ED9E6D;}
	.st20{fill:#944434;}
	.st21{fill:#B85F3E;}
	.st22{fill:url(#Trazado_18_3_);}
	.st23{opacity:0.32;fill:url(#Trazado_19_3_);}
</style>
<title>diami_hungry</title>
<linearGradient id="Rectángulo_1_1_" gradientUnits="userSpaceOnUse" x1="-107.7635" y1="-54.5481" x2="-118.3735" y2="-54.7782" gradientTransform="matrix(4.63 0 0 30.39 897.17 1744.2891)">
	<stop  offset="0" style="stop-color:#06CFF1"/>
	<stop  offset="1" style="stop-color:#DCEDF9"/>
</linearGradient>
<rect id="Rectángulo_1" x="356.69" y="28.13" class="st0" width="16.36" height="107.39"/>
<linearGradient id="Rectángulo_2_1_" gradientUnits="userSpaceOnUse" x1="-195.8539" y1="-48.6287" x2="-198.0038" y2="-53.5488" gradientTransform="matrix(40.52 0 0 19.97 8344.3496 1179.7109)">
	<stop  offset="0" style="stop-color:#06CFF1"/>
	<stop  offset="1" style="stop-color:#DCEDF9"/>
</linearGradient>
<path id="Rectángulo_2" class="st1" d="M309.24,124.27H420.5c8.82,0,15.97,7.15,15.97,15.97v38.63c0,8.82-7.15,15.97-15.97,15.97
	H309.24c-8.82,0-15.97-7.15-15.97-15.97v-38.63C293.27,131.42,300.42,124.27,309.24,124.27z"/>
<linearGradient id="Rectángulo_3_1_" gradientUnits="userSpaceOnUse" x1="-203.2144" y1="-52.5903" x2="-205.5944" y2="-55.7203" gradientTransform="matrix(144.98 0 0 110.25 30019.7988 6343.8687)">
	<stop  offset="0" style="stop-color:#06CFF1"/>
	<stop  offset="1" style="stop-color:#DCEDF9"/>
</linearGradient>
<path id="Rectángulo_3" class="st2" d="M303.56,158.03h122.68c107.61,0,194.85,87.23,194.85,194.84l0,0
	c0,107.61-87.24,194.85-194.85,194.85H303.56c-107.66,0-194.9-87.25-194.9-194.85l0,0C108.66,245.26,195.9,158.03,303.56,158.03z"/>
<linearGradient id="Trazado_4_1_" gradientUnits="userSpaceOnUse" x1="-203.6956" y1="-49.2651" x2="-203.7156" y2="-52.435" gradientTransform="matrix(112.79 0 0 43.58 23340.3711 2570.259)">
	<stop  offset="0" style="stop-color:#030D14"/>
	<stop  offset="1" style="stop-color:#0B2F45"/>
</linearGradient>
<path id="Trazado_4" class="st3" d="M189.26,418.39L189.26,418.39c6.8,3.35,14.28,5.09,21.86,5.08h307.5
	c7.57,0.01,15.05-1.71,21.85-5.05l0,0c15.98-7.26,25.45-24.01,23.44-41.45l-0.17-1.22c-7.88-57.12-59.61-101-123-104.34
	c-26.84-1.39-55-2.12-84.37-1.94c-23.02,0.13-45.24,0.76-66.67,1.91c-63.67,3.28-115.78,47-123.71,104.36l-0.17,1.24
	C163.83,394.41,173.3,411.13,189.26,418.39z"/>
<g id="Grupo_8">
	
		<radialGradient id="Elipse_11_1_" cx="-222.3292" cy="-49.0732" r="1.7496" gradientTransform="matrix(-32.81 0 0 32.81 -6848.7002 1965.2695)" gradientUnits="userSpaceOnUse">
		<stop  offset="0.13" style="stop-color:#3280FC"/>
		<stop  offset="1" style="stop-color:#000000"/>
	</radialGradient>
	<circle id="Elipse_11" class="st4" cx="445.92" cy="352.87" r="57.99"/>
	<g id="Grupo_3">
		<circle id="Elipse_12" class="st5" cx="445.92" cy="352.87" r="41.62"/>
	</g>
	<g id="Grupo_4">
		
			<linearGradient id="Elipse_13_1_" gradientUnits="userSpaceOnUse" x1="-181.1345" y1="-44.2978" x2="-184.6745" y2="-44.2978" gradientTransform="matrix(19.78 0 0 19.78 4063.7202 1229.0801)">
			<stop  offset="0" style="stop-color:#030D14"/>
			<stop  offset="1" style="stop-color:#0B2F45"/>
		</linearGradient>
		<circle id="Elipse_13" class="st6" cx="445.92" cy="352.87" r="34.96"/>
	</g>
	<g id="Grupo_5">
		<path id="Trazado_5" class="st5" d="M423.56,343.81c0,7.16,5.79,12.97,12.95,13l0,0c7.15-0.63,12.44-6.94,11.81-14.09
			c-0.55-6.28-5.53-11.26-11.81-11.81l0,0C429.39,330.94,423.61,336.69,423.56,343.81z"/>
	</g>
	<g id="Grupo_6">
		<circle id="Elipse_14" class="st5" cx="451.09" cy="379.68" r="5.17"/>
	</g>
	<g id="Grupo_7">
		<path id="Trazado_6" class="st5" d="M463.91,371.93c-0.01,1.42,1.14,2.57,2.56,2.58c0.01,0,0.01,0,0.02,0l0,0
			c1.42,0.01,2.57-1.14,2.58-2.56c0-0.01,0-0.01,0-0.02l0,0c0.01-1.42-1.15-2.58-2.57-2.59c0,0-0.01,0-0.01,0l0,0
			c-1.42-0.01-2.57,1.14-2.58,2.56c0,0.01,0,0.01,0,0.02V371.93z"/>
	</g>
</g>
<g id="Grupo_14">
	
		<radialGradient id="Elipse_15_1_" cx="-196.09" cy="-49.0732" r="1.75" gradientTransform="matrix(32.81 0 0 32.81 6723.1304 1965.2695)" gradientUnits="userSpaceOnUse">
		<stop  offset="0.13" style="stop-color:#3280FC"/>
		<stop  offset="1" style="stop-color:#000000"/>
	</radialGradient>
	<circle id="Elipse_15" class="st7" cx="289.27" cy="352.87" r="57.99"/>
	<g id="Grupo_9">
		<circle id="Elipse_16" class="st5" cx="289.27" cy="352.87" r="41.62"/>
	</g>
	<g id="Grupo_10">
		
			<linearGradient id="Elipse_17_1_" gradientUnits="userSpaceOnUse" x1="-186.8134" y1="-44.2978" x2="-190.3535" y2="-44.2978" gradientTransform="matrix(19.78 0 0 19.78 4019.4001 1229.0801)">
			<stop  offset="0" style="stop-color:#030D14"/>
			<stop  offset="1" style="stop-color:#0B2F45"/>
		</linearGradient>
		<circle id="Elipse_17" class="st8" cx="289.27" cy="352.87" r="34.96"/>
	</g>
	<g id="Grupo_11">
		<path id="Trazado_7" class="st5" d="M266.88,343.81c0,7.15,5.8,12.95,12.95,12.95s12.95-5.8,12.95-12.95
			c0-7.15-5.8-12.95-12.95-12.95l0,0C272.69,330.89,266.91,336.67,266.88,343.81z"/>
	</g>
	<g id="Grupo_12">
		<circle id="Elipse_18" class="st5" cx="294.44" cy="379.68" r="5.17"/>
	</g>
	<g id="Grupo_13">
		<path id="Trazado_8" class="st5" d="M307.26,371.93c-0.01,1.42,1.14,2.57,2.56,2.58c0.01,0,0.01,0,0.02,0l0,0
			c1.42,0.01,2.58-1.15,2.59-2.57c0,0,0-0.01,0-0.01l0,0c0.01-1.42-1.15-2.58-2.57-2.59c0,0-0.01,0-0.01,0l0,0
			c-1.42,0.01-2.57,1.16-2.58,2.58L307.26,371.93z"/>
	</g>
</g>
<linearGradient id="Trazado_9_1_" gradientUnits="userSpaceOnUse" x1="-167.7239" y1="-55.0387" x2="-173.2039" y2="-55.8388" gradientTransform="matrix(11.86 0 0 11.87 2397.3899 680.7004)">
	<stop  offset="0" style="stop-color:#06CFF1"/>
	<stop  offset="1" style="stop-color:#DCEDF9"/>
</linearGradient>
<path id="Trazado_9" class="st9" d="M343.91,20.97c0,11.6,9.4,21,21,21l0,0c11.58-0.62,20.47-10.51,19.85-22.09
	c-0.57-10.72-9.13-19.27-19.85-19.85l0,0c-11.6,0-21,9.4-21,21V20.97z"/>
<path id="Trazado_12" class="st10" d="M185.37,361.04c2.34,1.65,18.64-31.55,62.4-60.34c15.38-10.12,30.56-17.32,29.66-19.44
	s-18,1.83-31.71,8.18C202.1,309.69,182.56,359.08,185.37,361.04z"/>
<path id="Trazado_13" class="st10" d="M297.42,145.16c0.52,0.08,0.85-3,3.4-7.72c0.78-1.41,1.63-2.78,2.56-4.09
	c4.4-6,19.28-5.91,20.45-5.9c23.2,0.2,38.11-1.27,38.11-1.13s-10.88-0.1-18.85-0.27c-22.49-0.45-35.89-1.66-41.63,4.36
	c-1.53,1.69-2.74,3.63-3.58,5.75C296.57,138.99,296.41,142.21,297.42,145.16z"/>
<g id="Grupo_184">
	<path id="Trazado_14" class="st5" d="M308.1,499.14c1.42-5.12,6.21-8.57,11.52-8.28l77.08,0.1c5.37-0.22,10.23,3.19,11.86,8.31
		c0.53,2.19,0.89,4.42,1.07,6.67c0.05,0.63-0.2,1.25-0.66,1.69c-0.5,0.46-1.16,0.72-1.84,0.71l-97.26-0.13
		c-0.68,0.01-1.34-0.24-1.85-0.7c-0.47-0.43-0.73-1.04-0.72-1.67C307.39,503.59,307.65,501.35,308.1,499.14z"/>
	
		<linearGradient id="Trazado_15_1_" gradientUnits="userSpaceOnUse" x1="-190.9355" y1="-33.9744" x2="-194.4755" y2="-26.2944" gradientTransform="matrix(28.12 2.46 -1.13 12.96 5703.6802 1390.1598)">
		<stop  offset="0" style="stop-color:#3F88AD"/>
		<stop  offset="1" style="stop-color:#3487C4"/>
	</linearGradient>
	<path id="Trazado_15" class="st11" d="M307.94,501.05c5.36-27.81,32.25-46,60.06-40.64c19.9,3.84,35.67,19.04,40.25,38.78
		c-1.62-4.98-6.3-8.32-11.54-8.21l-77.17,0.68C313.94,491.66,309.1,495.57,307.94,501.05z"/>
</g>
<linearGradient id="Trazado_16_1_" gradientUnits="userSpaceOnUse" x1="-202.0067" y1="-48.7476" x2="-204.7467" y2="-52.9276" gradientTransform="matrix(96.71 0 0 73.98 20000.1699 4389.4546)">
	<stop  offset="0" style="stop-color:#3A68AB"/>
	<stop  offset="0.05" style="stop-color:#316FB0"/>
	<stop  offset="0.24" style="stop-color:#1686C0"/>
	<stop  offset="0.41" style="stop-color:#0594CA"/>
	<stop  offset="0.54" style="stop-color:#0099CE"/>
	<stop  offset="0.66" style="stop-color:#2BA8D6"/>
	<stop  offset="0.92" style="stop-color:#99CFED"/>
	<stop  offset="1" style="stop-color:#BCDCF4"/>
</linearGradient>
<path id="Trazado_16" class="st12" d="M181.22,620.86c0,0.7,0,1.38,0,2c0.17,4.59,1,9.12,2.47,13.47
	c21.15,64.59,33.82,98.65,51.58,126.21c3.07,4.75,6.29,9.32,9.76,13.8c4.54,6,9.52,11.82,15,17.83
	c12.27,13.35,30.83,19.39,36.82,21.48c21.88,7.73,41.21,6.32,54.08,6.44h2.23c12.89-0.12,32.19,1.29,54.08-6.44
	c6-2.09,24.58-8.13,36.82-21.48c33.75-36.73,46.73-67.26,76.37-157.84c1.39-4.08,2.22-8.33,2.46-12.64c0.09-1.75,0.09-3.5,0-5.25
	c-0.91-11.47-5.4-22.36-12.83-31.14c-13.59-16.46-33.85-25.94-55.19-25.83l-102.76-0.43l-100.89-0.4
	c-21.84-0.31-42.67,9.2-56.74,25.9c-6.35,7.44-10.67,16.4-12.52,26c-0.21,1.29-0.39,2.61-0.52,3.89
	C181.31,617.94,181.22,619.38,181.22,620.86z"/>
<linearGradient id="Trazado_17_1_" gradientUnits="userSpaceOnUse" x1="-196.8102" y1="-29.0175" x2="-200.1002" y2="-40.3875" gradientTransform="matrix(48.35 0 0 16.36 9989.6396 1098.7297)">
	<stop  offset="0.04" style="stop-color:#06CFF1"/>
	<stop  offset="1" style="stop-color:#DEFA8E"/>
</linearGradient>
<path id="Trazado_17" class="st13" d="M352.11,561.06l102.76,0.43c21.38-0.14,41.68,9.35,55.29,25.84
	c7.43,8.78,11.91,19.67,12.83,31.14c-0.83-11.79-5.47-22.99-13.22-31.91c-14.07-16.71-34.9-26.21-56.74-25.89L352.11,561.06z"/>
<linearGradient id="Trazado_18_2_" gradientUnits="userSpaceOnUse" x1="-307.1644" y1="-73.9293" x2="-316.2943" y2="-76.0393" gradientTransform="matrix(23.86 0 0 53.8 4844.3701 3244.2395)">
	<stop  offset="0" style="stop-color:#06CFF1"/>
	<stop  offset="1" style="stop-color:#DCEDF9"/>
</linearGradient>
<path id="Trazado_18" class="st14" d="M249.98,712.47c1.5-79.7,12.28-95.47-3.63-114.43c-6.75-8.23-16.09-13.92-26.5-16.14
	c-9.77-1.7-19.83-0.09-28.58,4.57c-31.89,18.07-22.43,96.41-1.41,145.86c4.59,10.79,16.87,39.71,31.85,39
	c6.13-0.28,10.66-5.44,13.83-9.16C249.56,745.78,249.75,724.47,249.98,712.47z"/>
<linearGradient id="Trazado_19_2_" gradientUnits="userSpaceOnUse" x1="-163.0896" y1="-46.356" x2="-178.5495" y2="-47.806" gradientTransform="matrix(9.09 0 0 50.41 1790.51 3056.4504)">
	<stop  offset="0" style="stop-color:#06CFF1"/>
	<stop  offset="1" style="stop-color:#0074A2"/>
</linearGradient>
<path id="Trazado_19" class="st15" d="M235.31,762.56c3.07,4.75,6.29,9.32,9.76,13.8c1.1-1.13,2.09-2.27,3-3.31
	c14.06-16.45,14.21-37.74,14.42-49.77c1.51-79.72,12.31-95.46-3.62-114.43c-3.5-4.22-7.68-7.82-12.37-10.67
	c15.71,18.9,5,34.79,3.5,114.26c-0.21,12-0.4,33.33-14.42,49.8C235.47,762.33,235.38,762.44,235.31,762.56z"/>
<path id="Trazado_20" class="st10" d="M190.33,646.08c0.77-9.31,2.52-18.52,5.23-27.46c4.2-16.49,9.47-24.52,6-27.7
	c-2.23-2.07-6.62-0.67-7.61-0.35c-15.07,4.8-19.73,33.07-19.09,50.76c0.4,10.83,3.05,22.94,7,23.48c1.19,0.12,2.38-0.24,3.3-1
	C189.69,659.9,189.99,652.59,190.33,646.08z"/>
<path id="Trazado_21" class="st10" d="M179.99,676.31c0,1.73,1.4,3.13,3.13,3.13l0,0l0,0c1.72-0.01,3.12-1.41,3.12-3.13l0,0
	c0.01-1.72-1.39-3.12-3.11-3.13c0,0-0.01,0-0.01,0l0,0c-1.72,0-3.12,1.4-3.13,3.12V676.31z"/>
<radialGradient id="Elipse_20_1_" cx="109.14" cy="207.0754" r="125.25" gradientTransform="matrix(-1 0 0 0.41 465.83 813.49)" gradientUnits="userSpaceOnUse">
	<stop  offset="0" style="stop-color:#128EEC"/>
	<stop  offset="1" style="stop-color:#FFFFFF"/>
</radialGradient>
<ellipse id="Elipse_20" class="st16" cx="356.69" cy="898.98" rx="163.92" ry="67.11"/>
<circle class="st17" cx="166.46" cy="145.96" r="9.81"/>
<circle class="st18" cx="166.46" cy="182.53" r="13.61"/>
<path class="st17" d="M92.05,188.03c0,9.98,8.09,18.07,18.07,18.07c9.98,0,18.07-8.09,18.07-18.07c0-9.98-8.09-18.07-18.07-18.07
	C100.14,169.96,92.05,178.05,92.05,188.03L92.05,188.03z"/>
<path class="st18" d="M110.12,164.47c0,4.84,3.92,8.76,8.76,8.76c4.84,0,8.76-3.92,8.76-8.76s-3.92-8.76-8.76-8.76
	S110.12,159.63,110.12,164.47L110.12,164.47z"/>
<path class="st17" d="M64.19,142.7c-0.01,25.76,20.88,46.65,46.64,46.66c25.76,0.01,46.65-20.88,46.66-46.64
	s-20.88-46.65-46.64-46.66c0,0-0.01,0-0.01,0C85.08,96.07,64.2,116.94,64.19,142.7z"/>
<circle class="st17" cx="36.63" cy="102.11" r="36.63"/>
<path class="st17" d="M2.9,145.96c0,16.81,13.63,30.44,30.44,30.44s30.44-13.63,30.44-30.44s-13.63-30.44-30.44-30.44
	S2.9,129.15,2.9,145.96L2.9,145.96z"/>
<path class="st17" d="M89.05,122.92c23.34,6.36,47.43-7.4,53.79-30.74c6.36-23.34-7.4-47.43-30.74-53.79
	c-23.34-6.36-47.42,7.4-53.79,30.73C51.95,92.46,65.71,116.55,89.05,122.92z"/>
<path class="st17" d="M57.93,202.14c23.34,6.37,47.43-7.4,53.79-30.74c6.37-23.34-7.4-47.43-30.74-53.79s-47.43,7.4-53.79,30.74
	c0,0,0,0,0,0C20.83,171.69,34.59,195.77,57.93,202.14z"/>
<path class="st19" d="M107.35,153.71l-4.31-0.27l0.19,2.88c0.29,0.27,0.58,0.54,0.85,0.81l10.56,10.56
	c-2.67,2.72-2.62,7.09,0.1,9.76c2.72,2.67,7.09,2.62,9.76-0.1c1.24-1.27,1.95-2.97,1.97-4.75c3.82-0.05,6.87-3.19,6.81-7.01
	s-3.19-6.87-7.01-6.81c-1.81,0.03-3.53,0.76-4.8,2.04L110.68,150c-0.13-0.12-0.24-0.25-0.36-0.38l-3.29-0.21L107.35,153.71z"/>
<path class="st20" d="M85.17,142.64c-7.53-4.72-17-5.5-24.66-9.92c-14.03-7.96-18.95-25.79-10.98-39.82
	c1.6-2.82,3.65-5.35,6.08-7.49c-15.25,6.14-22.63,23.49-16.49,38.74c4.7,11.66,16.21,19.11,28.78,18.62
	c8.06-0.28,16.05,1.47,23.26,5.08C89.44,145.82,87.42,144.06,85.17,142.64z"/>
<path class="st21" d="M107.08,149.41l3.28,0.21c-9.24-9.66-14.19-22.64-13.73-36C97,97.19,83.98,83.58,67.55,83.22
	c-4.08-0.09-8.14,0.66-11.92,2.2c-12.1,10.67-13.25,29.13-2.58,41.23c2.14,2.42,4.66,4.47,7.47,6.07
	c7.71,4.43,17.14,5.21,24.66,9.93c2.26,1.42,4.28,3.17,6,5.21c4.41,2.2,8.48,5.05,12.05,8.45l-0.19-2.88l4.31,0.27L107.08,149.41z"
	/>
<linearGradient id="Trazado_18_3_" gradientUnits="userSpaceOnUse" x1="-285.8476" y1="-73.9163" x2="-294.9776" y2="-76.0262" gradientTransform="matrix(-23.86 0 0 53.8 -3640.2927 3244.2395)">
	<stop  offset="0" style="stop-color:#06CFF1"/>
	<stop  offset="1" style="stop-color:#DCEDF9"/>
</linearGradient>
<path id="Trazado_18_1_" class="st22" d="M459.92,762.87c3.17,3.72,7.7,8.88,13.83,9.16c14.98,0.71,27.26-28.21,31.85-39
	c21.02-49.45,30.48-127.79-1.41-145.86c-8.75-4.66-18.81-6.27-28.58-4.57c-10.41,2.22-19.75,7.91-26.5,16.14
	c-15.91,18.96-5.13,34.73-3.63,114.43C445.71,725.17,445.9,746.48,459.92,762.87z"/>
<linearGradient id="Trazado_19_3_" gradientUnits="userSpaceOnUse" x1="-107.1361" y1="-46.3421" x2="-122.5961" y2="-47.7921" gradientTransform="matrix(-9.09 0 0 50.41 -586.4327 3056.4504)">
	<stop  offset="0" style="stop-color:#06CFF1"/>
	<stop  offset="1" style="stop-color:#0074A2"/>
</linearGradient>
<path id="Trazado_19_1_" class="st23" d="M459.88,762.94c-14.02-16.47-14.21-37.8-14.42-49.8c-1.5-79.47-12.21-95.36,3.5-114.26
	c-4.69,2.85-8.87,6.45-12.37,10.67c-15.93,18.97-5.13,34.71-3.62,114.43c0.21,12.03,0.36,33.32,14.42,49.77
	c0.91,1.04,1.9,2.18,3,3.31c3.47-4.48,6.69-9.05,9.76-13.8C460.08,763.14,459.99,763.03,459.88,762.94z"/>
<path id="Trazado_20_1_" class="st10" d="M504.91,628.68c0.64,0.23,1.35,0.2,1.97-0.09c2.03-1.04,1.16-8.07-0.68-13.99
	c-3.01-9.66-10.89-24.02-19.93-23.75c-0.59,0.02-3.23,0.09-4.04,1.63c-1.27,2.37,3.1,5.7,8.49,13.8c3.16,4.31,5.85,8.94,8.03,13.82
	C500.18,623.54,501.73,627.43,504.91,628.68z"/>
</svg>
