<svg id="Capa_1" data-name="Capa 1" xmlns="http://www.w3.org/2000/svg" xmlns:xlink="http://www.w3.org/1999/xlink" viewBox="0 0 693.09 591.12"><defs><style>.cls-1{fill:url(#Degradado_sin_nombre_20);}.cls-2{fill:url(#Degradado_sin_nombre_19);}.cls-3{fill:url(#Degradado_sin_nombre_19-2);}.cls-4{fill:url(#Degradado_sin_nombre_19-3);}.cls-5{fill:url(#Degradado_sin_nombre_9);}.cls-6{fill:url(#Degradado_sin_nombre_8);}.cls-7{fill:#eefdff;}.cls-8{fill:url(#Degradado_sin_nombre_9-2);}.cls-9{fill:url(#Degradado_sin_nombre_8-2);}.cls-10{fill:url(#Degradado_sin_nombre_9-3);}.cls-11{fill:url(#Degradado_sin_nombre_19-4);}.cls-12{fill:#fff;}.cls-13{fill:url(#Degradado_sin_nombre_11);}.cls-14{fill:url(#Degradado_sin_nombre_12);}.cls-15{fill:url(#Degradado_sin_nombre_13);}.cls-16{fill:url(#Degradado_sin_nombre_19-5);}.cls-17{fill:url(#Degradado_sin_nombre_15);}.cls-18{opacity:0.25;isolation:isolate;fill:url(#Degradado_sin_nombre_16);}.cls-19{fill:url(#Degradado_sin_nombre_30);}.cls-20{fill:url(#Degradado_sin_nombre_30-2);}.cls-21{fill:url(#Degradado_sin_nombre_30-3);}.cls-22{fill:url(#Degradado_sin_nombre_30-4);}.cls-23{fill:url(#Degradado_sin_nombre_30-5);}.cls-24{fill:url(#Degradado_sin_nombre_30-6);}.cls-25{fill:url(#Degradado_sin_nombre_30-7);}.cls-26{fill:url(#Degradado_sin_nombre_30-8);}.cls-27{fill:url(#Degradado_sin_nombre_30-9);}.cls-28{fill:url(#Degradado_sin_nombre_30-10);}.cls-29{fill:url(#Degradado_sin_nombre_30-11);}.cls-30{fill:url(#Degradado_sin_nombre_30-12);}.cls-31{fill:url(#Degradado_sin_nombre_30-13);}.cls-32{fill:url(#Degradado_sin_nombre_30-14);}</style><linearGradient id="Degradado_sin_nombre_20" x1="-1701.72" y1="-319.62" x2="-1695.35" y2="-330.83" gradientTransform="translate(40147.59 5399.04) scale(23.67 13.79)" gradientUnits="userSpaceOnUse"><stop offset="0" stop-color="#06bed8"/><stop offset="1" stop-color="#004666"/></linearGradient><linearGradient id="Degradado_sin_nombre_19" x1="-877.34" y1="-370.77" x2="-864.14" y2="-371.06" gradientTransform="translate(2220 5264.14) scale(2.13 13.96)" gradientUnits="userSpaceOnUse"><stop offset="0" stop-color="#06cff1"/><stop offset="1" stop-color="#dcedf9"/></linearGradient><linearGradient id="Degradado_sin_nombre_19-2" x1="-1657.22" y1="-366.75" x2="-1654.54" y2="-372.88" gradientTransform="translate(31206.79 3522.89) scale(18.62 9.18)" xlink:href="#Degradado_sin_nombre_19"/><linearGradient id="Degradado_sin_nombre_19-3" x1="-1731" y1="-362.13" x2="-1728.03" y2="-366.04" gradientTransform="translate(115665.88 18827.16) scale(66.62 50.66)" xlink:href="#Degradado_sin_nombre_19"/><linearGradient id="Degradado_sin_nombre_9" x1="-1721.48" y1="-361.14" x2="-1721.46" y2="-365.09" gradientTransform="translate(89664.43 7644.81) scale(51.82 20.02)" gradientUnits="userSpaceOnUse"><stop offset="0" stop-color="#030d14"/><stop offset="1" stop-color="#0b2f45"/></linearGradient><radialGradient id="Degradado_sin_nombre_8" cx="-1634.72" cy="-362.51" r="2.18" gradientTransform="translate(24971.55 5703.01) scale(15.08)" gradientUnits="userSpaceOnUse"><stop offset="0.13" stop-color="#3280fc"/><stop offset="1"/></radialGradient><linearGradient id="Degradado_sin_nombre_9-2" x1="-1555.84" y1="-360.63" x2="-1551.43" y2="-360.63" gradientTransform="translate(14445.98 3518.31) scale(9.09)" xlink:href="#Degradado_sin_nombre_9"/><radialGradient id="Degradado_sin_nombre_8-2" cx="-1630.12" cy="-362.51" r="2.18" gradientTransform="translate(24991.92 5703.01) scale(15.08)" xlink:href="#Degradado_sin_nombre_8"/><linearGradient id="Degradado_sin_nombre_9-3" x1="-1548.21" y1="-360.63" x2="-1543.81" y2="-360.63" gradientTransform="translate(14466.34 3518.31) scale(9.09)" xlink:href="#Degradado_sin_nombre_9"/><linearGradient id="Degradado_sin_nombre_19-4" x1="-1415.71" y1="-384.76" x2="-1408.88" y2="-385.76" gradientTransform="translate(8150.44 2281.09) scale(5.45)" xlink:href="#Degradado_sin_nombre_19"/><linearGradient id="Degradado_sin_nombre_11" x1="-1611.88" y1="-349.19" x2="-1607.47" y2="-358.75" gradientTransform="translate(21378.93 2529.41) scale(12.98 5.98)" gradientUnits="userSpaceOnUse"><stop offset="0" stop-color="#3f88ad"/><stop offset="1" stop-color="#3487c4"/></linearGradient><linearGradient id="Degradado_sin_nombre_12" x1="-1716.57" y1="-358.05" x2="-1713.16" y2="-363.26" gradientTransform="translate(76672.38 12796.63) scale(44.43 34.03)" gradientUnits="userSpaceOnUse"><stop offset="0" stop-color="#3a68ab"/><stop offset="0.05" stop-color="#316fb0"/><stop offset="0.24" stop-color="#1686c0"/><stop offset="0.41" stop-color="#0594ca"/><stop offset="0.54" stop-color="#0099ce"/><stop offset="0.66" stop-color="#2ba8d6"/><stop offset="0.92" stop-color="#99cfed"/><stop offset="1" stop-color="#bcdcf4"/></linearGradient><linearGradient id="Degradado_sin_nombre_13" x1="-1675.34" y1="-343.3" x2="-1671.24" y2="-357.47" gradientTransform="translate(37606.3 3105.46) scale(22.21 7.52)" gradientUnits="userSpaceOnUse"><stop offset="0.04" stop-color="#06cff1"/><stop offset="1" stop-color="#defa8e"/></linearGradient><linearGradient id="Degradado_sin_nombre_19-5" x1="-1438.27" y1="-390.19" x2="-1426.89" y2="-392.82" gradientTransform="translate(17860.55 9399.63) scale(10.97 24.72)" xlink:href="#Degradado_sin_nombre_19"/><linearGradient id="Degradado_sin_nombre_15" x1="-1300.95" y1="-356.34" x2="-1281.7" y2="-358.15" gradientTransform="translate(5926.69 8834.23) scale(4.18 23.16)" gradientUnits="userSpaceOnUse"><stop offset="0" stop-color="#06cff1"/><stop offset="1" stop-color="#0074a2"/></linearGradient><radialGradient id="Degradado_sin_nombre_16" cx="462.3" cy="555.17" r="71.69" gradientTransform="matrix(1, 0, 0, -0.41, -84.7, 780.76)" gradientUnits="userSpaceOnUse"><stop offset="0" stop-color="#128eec"/><stop offset="1" stop-color="#fff"/></radialGradient><linearGradient id="Degradado_sin_nombre_30" x1="-1650.33" y1="-335" x2="-1650.33" y2="-373.08" gradientTransform="translate(25827.96 6033.4) scale(15.55 15.58)" gradientUnits="userSpaceOnUse"><stop offset="0" stop-color="#3194f8"/><stop offset="0.32" stop-color="#63a7f5"/><stop offset="0.47" stop-color="#2ac4e9"/><stop offset="0.75" stop-color="#baf4ff"/><stop offset="0.9" stop-color="#efbad3"/><stop offset="1" stop-color="#efbad3"/></linearGradient><linearGradient id="Degradado_sin_nombre_30-2" x1="-1624.14" y1="-335.46" x2="-1624.14" y2="-373.54" gradientTransform="translate(25957.73 6030.19) scale(15.55 15.58)" xlink:href="#Degradado_sin_nombre_30"/><linearGradient id="Degradado_sin_nombre_30-3" x1="-1643.18" y1="-347.2" x2="-1643.18" y2="-385.28" gradientTransform="translate(25870.68 5977.51) scale(15.55 15.58)" xlink:href="#Degradado_sin_nombre_30"/><linearGradient id="Degradado_sin_nombre_30-4" x1="-1391.68" y1="-295.79" x2="-1391.68" y2="-333.87" gradientTransform="translate(8246.81 2393.7) scale(5.49)" xlink:href="#Degradado_sin_nombre_30"/><linearGradient id="Degradado_sin_nombre_30-5" x1="-1459.59" y1="-315.55" x2="-1459.59" y2="-353.63" gradientTransform="translate(10992.74 2936.36) scale(7.04)" xlink:href="#Degradado_sin_nombre_30"/><linearGradient id="Degradado_sin_nombre_30-6" x1="-1512.69" y1="-346.14" x2="-1512.69" y2="-384.22" gradientTransform="translate(10882.86 2873.13) scale(7.04)" xlink:href="#Degradado_sin_nombre_30"/><linearGradient id="Degradado_sin_nombre_30-7" x1="-1479.22" y1="-358.29" x2="-1479.22" y2="-396.37" gradientTransform="translate(10952.11 2847.99) scale(7.04)" xlink:href="#Degradado_sin_nombre_30"/><linearGradient id="Degradado_sin_nombre_30-8" x1="-1402.28" y1="-299.92" x2="-1402.28" y2="-338" gradientTransform="translate(6792.18 2099.84) scale(4.71)" xlink:href="#Degradado_sin_nombre_30"/><linearGradient id="Degradado_sin_nombre_30-9" x1="-1417.95" y1="-318.87" x2="-1417.95" y2="-356.95" gradientTransform="translate(6773.62 2121.03) scale(4.71)" xlink:href="#Degradado_sin_nombre_30"/><linearGradient id="Degradado_sin_nombre_30-10" x1="-1414.64" y1="-354.77" x2="-1414.64" y2="-392.85" gradientTransform="translate(6775.94 2002.67) scale(4.71)" xlink:href="#Degradado_sin_nombre_30"/><linearGradient id="Degradado_sin_nombre_30-11" x1="-1307.11" y1="-346.18" x2="-1307.11" y2="-384.25" gradientTransform="translate(6923.88 2035.75) scale(4.71)" xlink:href="#Degradado_sin_nombre_30"/><linearGradient id="Degradado_sin_nombre_30-12" x1="-1385.94" y1="-286.29" x2="-1385.94" y2="-324.37" gradientTransform="translate(6814.74 2118.71) scale(4.71)" xlink:href="#Degradado_sin_nombre_30"/><linearGradient id="Degradado_sin_nombre_30-13" x1="-1401.75" y1="-359.88" x2="-1401.75" y2="-397.96" gradientTransform="translate(8938.15 2314.87) scale(5.91)" xlink:href="#Degradado_sin_nombre_30"/><linearGradient id="Degradado_sin_nombre_30-14" x1="-1658.45" y1="-343.5" x2="-1658.45" y2="-381.58" gradientTransform="translate(34317.61 7734.82) scale(20.32 20.36)" xlink:href="#Degradado_sin_nombre_30"/></defs><title>GRACIAS</title><g id="Grupo_198" data-name="Grupo 198"><g id="Grupo_197" data-name="Grupo 197"><path id="Trazado_3" data-name="Trazado 3" class="cls-1" d="M326.43,480.7c44,12.05,54.41,8.69,62.25,20.47a27,27,0,0,1,4.58,17.21,25.52,25.52,0,0,1-7.16,14.93c-15.08,14.6-56.56-3.26-80.32-22.78-5.18-4.26-19.07-15.68-16.29-23.78a12.08,12.08,0,0,1,7.24-6.12C308.07,475.53,319.8,478.88,326.43,480.7Z" transform="translate(-84.7 -130.6)"/><rect id="Rectángulo_1" data-name="Rectángulo 1" class="cls-2" x="368.24" y="54.3" width="9.36" height="61.46"/><rect id="Rectángulo_2" data-name="Rectángulo 2" class="cls-3" x="331.94" y="109.32" width="81.96" height="40.4" rx="19.89"/><path id="Rectángulo_3" data-name="Rectángulo 3" class="cls-4" d="M422.49,259.24h70.26A111.51,111.51,0,0,1,604.26,370.75h0a111.52,111.52,0,0,1-111.5,111.52H422.49A111.52,111.52,0,0,1,311,370.76h0A111.51,111.51,0,0,1,422.49,259.24Z" transform="translate(-84.7 -130.6)"/><path id="Trazado_4" data-name="Trazado 4" class="cls-5" d="M558.13,408.26h0a28.23,28.23,0,0,1-12.51,2.89h-176a28.23,28.23,0,0,1-12.51-2.89h0a23.15,23.15,0,0,1-13.42-23.72l.1-.7c4.53-32.69,34.12-57.83,70.42-59.75,15.39-.8,31.48-1.22,48.29-1.12q19.75.12,38.16,1.09c36.44,1.88,66.26,26.92,70.79,59.75l.1.71A23.16,23.16,0,0,1,558.13,408.26Z" transform="translate(-84.7 -130.6)"/><g id="Grupo_8" data-name="Grupo 8"><circle id="Elipse_11" data-name="Elipse 11" class="cls-6" cx="326.54" cy="240.16" r="33.19"/><g id="Grupo_3" data-name="Grupo 3"><circle id="Elipse_12" data-name="Elipse 12" class="cls-7" cx="326.54" cy="240.16" r="23.82"/></g><g id="Grupo_4" data-name="Grupo 4"><circle id="Elipse_13" data-name="Elipse 13" class="cls-8" cx="326.54" cy="240.16" r="20.01"/></g><g id="Grupo_5" data-name="Grupo 5"><path id="Trazado_5" data-name="Trazado 5" class="cls-7" d="M424.05,365.61a7.42,7.42,0,0,1-7.42,7.41h0a7.4,7.4,0,0,1-7.4-7.4h0a7.41,7.41,0,0,1,14.82,0Z" transform="translate(-84.7 -130.6)"/></g><g id="Grupo_6" data-name="Grupo 6"><circle id="Elipse_14" data-name="Elipse 14" class="cls-7" cx="323.58" cy="255.5" r="2.96"/></g><g id="Grupo_7" data-name="Grupo 7"><path id="Trazado_6" data-name="Trazado 6" class="cls-7" d="M400.94,381.67a1.47,1.47,0,0,1-1.47,1.49,1.49,1.49,0,0,1-1.5-1.47,1.5,1.5,0,0,1,1.48-1.5h0A1.48,1.48,0,0,1,400.94,381.67Z" transform="translate(-84.7 -130.6)"/></g></g><g id="Grupo_14" data-name="Grupo 14"><circle id="Elipse_15" data-name="Elipse 15" class="cls-9" cx="416.18" cy="240.16" r="33.19"/><g id="Grupo_9" data-name="Grupo 9"><circle id="Elipse_16" data-name="Elipse 16" class="cls-7" cx="416.18" cy="240.16" r="23.82"/></g><g id="Grupo_10" data-name="Grupo 10"><circle id="Elipse_17" data-name="Elipse 17" class="cls-10" cx="416.18" cy="240.16" r="20.01"/></g><g id="Grupo_11" data-name="Grupo 11"><path id="Trazado_7" data-name="Trazado 7" class="cls-7" d="M513.71,365.61a7.41,7.41,0,1,1-14.82.51,4.34,4.34,0,0,1,0-.51h0a7.4,7.4,0,0,1,7.4-7.41h0A7.43,7.43,0,0,1,513.71,365.61Z" transform="translate(-84.7 -130.6)"/></g><g id="Grupo_12" data-name="Grupo 12"><circle id="Elipse_18" data-name="Elipse 18" class="cls-7" cx="413.23" cy="255.5" r="2.96"/></g><g id="Grupo_13" data-name="Grupo 13"><path id="Trazado_8" data-name="Trazado 8" class="cls-7" d="M490.6,381.67a1.47,1.47,0,0,1-1.47,1.49,1.49,1.49,0,0,1-1.5-1.47,1.5,1.5,0,0,1,1.48-1.5h0a1.47,1.47,0,0,1,1.48,1.47Z" transform="translate(-84.7 -130.6)"/></g></g><path id="Trazado_9" data-name="Trazado 9" class="cls-11" d="M469.62,180.8a12,12,0,1,1-12-12h0A12,12,0,0,1,469.62,180.8Z" transform="translate(-84.7 -130.6)"/><path id="Trazado_10" data-name="Trazado 10" class="cls-12" d="M466,176.12a3.6,3.6,0,1,1,0-.05Z" transform="translate(-84.7 -130.6)"/><path id="Trazado_11" data-name="Trazado 11" class="cls-12" d="M546.45,302.55a13.13,13.13,0,0,1-9.65,12.88c-4.91.54-8.84-4.48-12.87-9.66s-12.68-18.2-9.25-21.9C519.27,279,546.08,289.34,546.45,302.55Z" transform="translate(-84.7 -130.6)"/><circle id="Elipse_19" data-name="Elipse 19" class="cls-12" cx="416.89" cy="146.42" r="4.17"/><path id="Trazado_12" data-name="Trazado 12" class="cls-12" d="M560.36,375.44c-1.32.9-10.67-18.05-35.71-34.54-8.81-5.79-17.49-10-17-11.12s10.31,1,18.1,4.68C550.78,346,562,374.32,560.36,375.44Z" transform="translate(-84.7 -130.6)"/><path id="Trazado_13" data-name="Trazado 13" class="cls-12" d="M496.23,251.89c-.3.05-.49-1.71-2-4.4a23.47,23.47,0,0,0-1.46-2.34c-2.52-3.46-11-3.38-11.71-3.38-13.28.12-21.81-.72-21.81-.64s6.23-.06,10.79-.15c12.88-.27,20.55-.91,23.83,2.49a10.71,10.71,0,0,1,2.05,3.29A7,7,0,0,1,496.23,251.89Z" transform="translate(-84.7 -130.6)"/><path id="Trazado_14" data-name="Trazado 14" class="cls-7" d="M493.48,425.36a6.77,6.77,0,0,1-6.17,5.93l-43.94,4.28a6.78,6.78,0,0,1-7.17-4.65,30.45,30.45,0,0,1-1-4.2,1.49,1.49,0,0,1,.3-1.12,1.47,1.47,0,0,1,1-.57L492,419.68a1.45,1.45,0,0,1,1.58,1.31.17.17,0,0,1,0,.07A30.88,30.88,0,0,1,493.48,425.36Z" transform="translate(-84.7 -130.6)"/><path id="Trazado_15" data-name="Trazado 15" class="cls-13" d="M493.47,425.36a29.37,29.37,0,0,1-57.14,6.05,6.83,6.83,0,0,0,7,4.12l44-4.24A6.77,6.77,0,0,0,493.47,425.36Z" transform="translate(-84.7 -130.6)"/><path id="Trazado_16" data-name="Trazado 16" class="cls-14" d="M562.74,524.12v1.15a27.41,27.41,0,0,1-1.42,7.72c-12.11,37-19.38,56.46-29.53,72.23-1.75,2.71-3.62,5.34-5.58,7.9-2.6,3.43-5.43,6.76-8.61,10.2a51.49,51.49,0,0,1-21.08,12.3,86.4,86.4,0,0,1-30.94,3.69H464.3a86.4,86.4,0,0,1-30.94-3.69,51.49,51.49,0,0,1-21.08-12.3c-19.32-21-26.74-38.49-43.72-90.33a27.55,27.55,0,0,1-1.4-7.24c-.05-1-.05-2,0-3a31.5,31.5,0,0,1,7.34-17.83,40.64,40.64,0,0,1,31.6-14.77l58.85-.26,57.75-.22a41.6,41.6,0,0,1,32.47,14.82,32.36,32.36,0,0,1,7.17,14.91c.12.74.23,1.49.3,2.23S562.74,523.29,562.74,524.12Z" transform="translate(-84.7 -130.6)"/><path id="Trazado_17" data-name="Trazado 17" class="cls-15" d="M464.93,489.91l-58.85.25A40.67,40.67,0,0,0,374.39,505a31.47,31.47,0,0,0-7.34,17.83,31.13,31.13,0,0,1,7.57-18.27,41.62,41.62,0,0,1,32.53-14.83Z" transform="translate(-84.7 -130.6)"/><path id="Trazado_18" data-name="Trazado 18" class="cls-16" d="M523.38,576.55c-.9-45.61-7-54.63,2.08-65.49a26.69,26.69,0,0,1,15.16-9.24A25.45,25.45,0,0,1,557,504.46c18.25,10.34,12.84,55.23.82,83.48-2.65,6.16-9.66,22.73-18.24,22.33a12.15,12.15,0,0,1-7.92-5.24C523.6,595.64,523.51,583.44,523.38,576.55Z" transform="translate(-84.7 -130.6)"/><path id="Trazado_19" data-name="Trazado 19" class="cls-17" d="M531.78,605.23c-1.77,2.72-3.62,5.35-5.59,7.91-.63-.64-1.19-1.3-1.71-1.89-8-9.42-8.15-21.61-8.25-28.49-.9-45.63-7.05-54.63,2.07-65.49a28.54,28.54,0,0,1,7.08-6.11c-9,10.86-2.87,19.92-2,65.4.12,6.88.23,19.08,8.26,28.5Z" transform="translate(-84.7 -130.6)"/><path id="Trazado_20" data-name="Trazado 20" class="cls-12" d="M557.52,538.57a75.6,75.6,0,0,0-3-15.71c-2.4-9.44-5.43-14-3.46-15.86,1.28-1.18,3.79-.38,4.37-.2,8.61,2.71,11.29,18.93,10.91,29.06-.22,6.19-1.76,13.13-4,13.43a2.58,2.58,0,0,1-1.89-.56A14.48,14.48,0,0,1,557.52,538.57Z" transform="translate(-84.7 -130.6)"/><path id="Trazado_21" data-name="Trazado 21" class="cls-12" d="M563.44,555.88a1.81,1.81,0,0,1-3.57,0h0a1.82,1.82,0,0,1,1.81-1.82h0a1.82,1.82,0,0,1,1.81,1.82Z" transform="translate(-84.7 -130.6)"/><ellipse id="Elipse_20" data-name="Elipse 20" class="cls-18" cx="377.6" cy="552.72" rx="93.82" ry="38.4"/></g><g id="stars"><path id="Trazado_303" data-name="Trazado 303" class="cls-19" d="M193.7,402.82a32,32,0,0,1-20.06-20.14,8.67,8.67,0,0,0-16.47,0,32,32,0,0,1-20.06,20.14,8.67,8.67,0,0,0,0,16.45,31.93,31.93,0,0,1,20.06,20.13,8.67,8.67,0,0,0,16.47,0,31.93,31.93,0,0,1,20.06-20.13,8.67,8.67,0,0,0,0-16.45Zm-28.27,16a50.13,50.13,0,0,0-7.74-7.74,50.2,50.2,0,0,0,7.74-7.75,49.27,49.27,0,0,0,7.73,7.75A48.78,48.78,0,0,0,165.43,418.79Z" transform="translate(-84.7 -130.6)"/><path id="Trazado_304" data-name="Trazado 304" class="cls-20" d="M730.61,393.36a32,32,0,0,1-20.07-20.14,8.67,8.67,0,0,0-16.46,0A32,32,0,0,1,674,393.36a8.67,8.67,0,0,0,0,16.45,32,32,0,0,1,20.06,20.12,8.67,8.67,0,0,0,16.46,0,31.91,31.91,0,0,1,20.07-20.12,8.67,8.67,0,0,0,0-16.46Zm-28.31,16a48.37,48.37,0,0,0-7.73-7.74,49.7,49.7,0,0,0,7.73-7.75,50.2,50.2,0,0,0,7.74,7.75,49.33,49.33,0,0,0-7.74,7.75Z" transform="translate(-84.7 -130.6)"/><path id="Trazado_306" data-name="Trazado 306" class="cls-21" d="M311,193.29a8.67,8.67,0,0,0,16.47,0,31.89,31.89,0,0,1,20.06-20.12,8.67,8.67,0,0,0,0-16.46,31.92,31.92,0,0,1-20-20.16,8.67,8.67,0,0,0-16.46,0A32,32,0,0,1,291,156.68a8.67,8.67,0,0,0,0,16.46A31.93,31.93,0,0,1,311,193.29Zm8.24-36.09a49.2,49.2,0,0,0,7.73,7.74,49.27,49.27,0,0,0-7.73,7.75,50.2,50.2,0,0,0-7.74-7.75,50.13,50.13,0,0,0,7.73-7.75Z" transform="translate(-84.7 -130.6)"/><path id="Trazado_307" data-name="Trazado 307" class="cls-22" d="M606.49,618.65a12.09,12.09,0,1,0,12.08,12.09h0A12.08,12.08,0,0,0,606.49,618.65Z" transform="translate(-84.7 -130.6)"/><path id="Trazado_309" data-name="Trazado 309" class="cls-23" d="M717.25,522.36a15.49,15.49,0,1,0,15.49,15.49h0A15.49,15.49,0,0,0,717.25,522.36Z" transform="translate(-84.7 -130.6)"/><path id="Trazado_310" data-name="Trazado 310" class="cls-24" d="M249,259.47A15.49,15.49,0,1,0,233.51,275h0A15.47,15.47,0,0,0,249,259.49h0Z" transform="translate(-84.7 -130.6)"/><path id="Trazado_311" data-name="Trazado 311" class="cls-25" d="M538.37,164.26a15.49,15.49,0,1,0-15.49-15.49h0A15.49,15.49,0,0,0,538.37,164.26Z" transform="translate(-84.7 -130.6)"/><path id="Trazado_312" data-name="Trazado 312" class="cls-26" d="M197.83,562.89a10.39,10.39,0,1,0-10.39,10.38h0a10.38,10.38,0,0,0,10.38-10.38Z" transform="translate(-84.7 -130.6)"/><path id="Trazado_313" data-name="Trazado 313" class="cls-27" d="M95.08,484.54a10.38,10.38,0,1,0,10.37,10.38h0a10.37,10.37,0,0,0-10.37-10.38Z" transform="translate(-84.7 -130.6)"/><path id="Trazado_316" data-name="Trazado 316" class="cls-28" d="M113,217.52a10.39,10.39,0,1,0-10.34-10.43v0A10.39,10.39,0,0,0,113,217.52Z" transform="translate(-84.7 -130.6)"/><path id="Trazado_317" data-name="Trazado 317" class="cls-29" d="M767.41,270.4a10.38,10.38,0,1,0,10.38,10.38h0a10.38,10.38,0,0,0-10.38-10.38Z" transform="translate(-84.7 -130.6)"/><path id="Trazado_318" data-name="Trazado 318" class="cls-30" d="M286.94,635.68a10.38,10.38,0,1,0,10.38,10.38h0a10.38,10.38,0,0,0-10.38-10.38Z" transform="translate(-84.7 -130.6)"/><circle id="Elipse_37" data-name="Elipse 37" class="cls-31" cx="653.79" cy="34.51" r="13.01"/><path id="Trazado_321" data-name="Trazado 321" class="cls-32" d="M656.66,206.26a48.61,48.61,0,0,1-30.56-30.65,8.67,8.67,0,0,0-16.46,0,48.62,48.62,0,0,1-30.57,30.65,8.67,8.67,0,0,0,0,16.46,48.67,48.67,0,0,1,30.57,30.62,8.68,8.68,0,0,0,16.46,0,48.61,48.61,0,0,1,30.56-30.65,8.67,8.67,0,0,0,0-16.46ZM617.87,231.4a66.61,66.61,0,0,0-16.87-17,66.54,66.54,0,0,0,16.87-16.89,66.34,66.34,0,0,0,16.86,16.89,66.62,66.62,0,0,0-16.86,16.92Z" transform="translate(-84.7 -130.6)"/></g></g></svg>