<svg id="Capa_1" data-name="Capa 1" xmlns="http://www.w3.org/2000/svg" xmlns:xlink="http://www.w3.org/1999/xlink" viewBox="0 0 1000 1000"><defs><style>.cls-1{fill:url(#Degradado_sin_nombre_44);}.cls-2{fill:url(#Degradado_sin_nombre_14);}.cls-3{fill:url(#Degradado_sin_nombre_14-2);}.cls-4{fill:url(#Degradado_sin_nombre_14-3);}.cls-5{fill:url(#Degradado_sin_nombre_9);}.cls-6{fill:url(#Degradado_sin_nombre_8);}.cls-7{fill:#eefdff;}.cls-8{fill:url(#Degradado_sin_nombre_9-2);}.cls-9{fill:url(#Degradado_sin_nombre_8-2);}.cls-10{fill:url(#Degradado_sin_nombre_9-3);}.cls-11{fill:url(#Degradado_sin_nombre_14-4);}.cls-12{fill:#fff;}.cls-13{fill:url(#Degradado_sin_nombre_11);}.cls-14{fill:url(#Degradado_sin_nombre_12);}.cls-15{fill:url(#Degradado_sin_nombre_13);}.cls-16{fill:url(#Degradado_sin_nombre_14-5);}.cls-17{fill:url(#Degradado_sin_nombre_15);}.cls-18{opacity:0.25;isolation:isolate;fill:url(#Degradado_sin_nombre_16);}.cls-19{fill:url(#Degradado_sin_nombre_30);}.cls-20{fill:url(#Degradado_sin_nombre_30-2);}.cls-21{fill:url(#Degradado_sin_nombre_30-3);}.cls-22{fill:url(#Degradado_sin_nombre_30-4);}.cls-23{fill:url(#Degradado_sin_nombre_30-5);}.cls-24{fill:url(#Degradado_sin_nombre_30-6);}.cls-25{fill:url(#Degradado_sin_nombre_30-7);}.cls-26{fill:url(#Degradado_sin_nombre_30-8);}.cls-27{fill:url(#Degradado_sin_nombre_30-9);}.cls-28{fill:url(#Degradado_sin_nombre_30-10);}.cls-29{fill:url(#Degradado_sin_nombre_30-11);}.cls-30{fill:url(#Degradado_sin_nombre_30-12);}.cls-31{fill:url(#Degradado_sin_nombre_30-13);}.cls-32{fill:url(#Degradado_sin_nombre_30-14);}</style><linearGradient id="Degradado_sin_nombre_44" x1="-1879.65" y1="984.8" x2="-1872.61" y2="997.19" gradientTransform="matrix(23.67, 0, 0, -13.79, 44364.21, 14672.98)" gradientUnits="userSpaceOnUse"><stop offset="0" stop-color="#06bed8"/><stop offset="1" stop-color="#004666"/></linearGradient><linearGradient id="Degradado_sin_nombre_14" x1="-946.04" y1="1041.97" x2="-931.45" y2="1042.29" gradientTransform="matrix(2.13, 0, 0, -13.96, 2514.88, 14785.3)" gradientUnits="userSpaceOnUse"><stop offset="0" stop-color="#06cff1"/><stop offset="1" stop-color="#dcedf9"/></linearGradient><linearGradient id="Degradado_sin_nombre_14-2" x1="-1830.27" y1="1029.73" x2="-1827.31" y2="1036.5" gradientTransform="matrix(18.62, 0, 0, -9.18, 34568.81, 9764.97)" xlink:href="#Degradado_sin_nombre_14"/><linearGradient id="Degradado_sin_nombre_14-3" x1="-1913.46" y1="1043.58" x2="-1910.18" y2="1047.89" gradientTransform="matrix(66.62, 0, 0, -50.66, 127871.2, 53393.92)" xlink:href="#Degradado_sin_nombre_14"/><linearGradient id="Degradado_sin_nombre_9" x1="-1902.49" y1="1035.82" x2="-1902.46" y2="1040.19" gradientTransform="matrix(51.82, 0, 0, -20.02, 99116.95, 21192.53)" gradientUnits="userSpaceOnUse"><stop offset="0" stop-color="#030d14"/><stop offset="1" stop-color="#0b2f45"/></linearGradient><radialGradient id="Degradado_sin_nombre_8" cx="-1804.37" cy="1033.82" r="2.41" gradientTransform="matrix(15.08, 0, 0, -15.08, 27675.13, 15992.49)" gradientUnits="userSpaceOnUse"><stop offset="0.13" stop-color="#3280fc"/><stop offset="1"/></radialGradient><linearGradient id="Degradado_sin_nombre_9-2" x1="-1714.9" y1="1022.44" x2="-1710.04" y2="1022.44" gradientTransform="matrix(9.09, 0, 0, -9.09, 16035.42, 9698.65)" xlink:href="#Degradado_sin_nombre_9"/><radialGradient id="Degradado_sin_nombre_8-2" cx="-1799.15" cy="1033.82" r="2.41" gradientTransform="matrix(15.08, 0, 0, -15.08, 27695.5, 15992.49)" xlink:href="#Degradado_sin_nombre_8"/><linearGradient id="Degradado_sin_nombre_9-3" x1="-1706.24" y1="1022.44" x2="-1701.38" y2="1022.44" gradientTransform="matrix(9.09, 0, 0, -9.09, 16055.78, 9698.65)" xlink:href="#Degradado_sin_nombre_9"/><linearGradient id="Degradado_sin_nombre_14-4" x1="-1555.82" y1="1033.17" x2="-1548.28" y2="1034.27" gradientTransform="matrix(5.45, 0, 0, -5.45, 8978.14, 5833.79)" xlink:href="#Degradado_sin_nombre_14"/><linearGradient id="Degradado_sin_nombre_11" x1="-1778.9" y1="997.05" x2="-1774.03" y2="1007.61" gradientTransform="matrix(12.98, 0, 0, -5.98, 23607.21, 6445.69)" gradientUnits="userSpaceOnUse"><stop offset="0" stop-color="#3f88ad"/><stop offset="1" stop-color="#3487c4"/></linearGradient><linearGradient id="Degradado_sin_nombre_12" x1="-1897.01" y1="1036.78" x2="-1893.24" y2="1042.53" gradientTransform="matrix(44.43, 0, 0, -34.03, 84750.36, 35955.21)" gradientUnits="userSpaceOnUse"><stop offset="0" stop-color="#3a68ab"/><stop offset="0.05" stop-color="#316fb0"/><stop offset="0.24" stop-color="#1686c0"/><stop offset="0.41" stop-color="#0594ca"/><stop offset="0.54" stop-color="#0099ce"/><stop offset="0.66" stop-color="#2ba8d6"/><stop offset="0.92" stop-color="#99cfed"/><stop offset="1" stop-color="#bcdcf4"/></linearGradient><linearGradient id="Degradado_sin_nombre_13" x1="-1850.07" y1="997.6" x2="-1845.54" y2="1013.25" gradientTransform="matrix(22.21, 0, 0, -7.52, 41551.36, 8078.18)" gradientUnits="userSpaceOnUse"><stop offset="0.04" stop-color="#06cff1"/><stop offset="1" stop-color="#defa8e"/></linearGradient><linearGradient id="Degradado_sin_nombre_14-5" x1="-1585.85" y1="1070.02" x2="-1573.28" y2="1072.92" gradientTransform="matrix(10.97, 0, 0, -24.72, 19714.97, 26171.55)" xlink:href="#Degradado_sin_nombre_14"/><linearGradient id="Degradado_sin_nombre_15" x1="-1425.85" y1="1031.71" x2="-1404.58" y2="1033.71" gradientTransform="matrix(4.18, 0, 0, -23.16, 6518.17, 24535.99)" gradientUnits="userSpaceOnUse"><stop offset="0" stop-color="#06cff1"/><stop offset="1" stop-color="#0074a2"/></linearGradient><radialGradient id="Degradado_sin_nombre_16" cx="528.91" cy="751.93" r="79.18" gradientTransform="translate(0 444.1) scale(1 0.41)" gradientUnits="userSpaceOnUse"><stop offset="0" stop-color="#128eec"/><stop offset="1" stop-color="#fff"/></radialGradient><linearGradient id="Degradado_sin_nombre_30" x1="-1822.46" y1="1003.78" x2="-1822.46" y2="1045.84" gradientTransform="matrix(15.55, 0, 0, -15.58, 28534.26, 16535.28)" gradientUnits="userSpaceOnUse"><stop offset="0" stop-color="#3194f8"/><stop offset="0.32" stop-color="#63a7f5"/><stop offset="0.47" stop-color="#2ac4e9"/><stop offset="0.75" stop-color="#baf4ff"/><stop offset="0.9" stop-color="#efbad3"/><stop offset="1" stop-color="#efbad3"/></linearGradient><linearGradient id="Degradado_sin_nombre_30-2" x1="-1792.2" y1="1004.31" x2="-1792.2" y2="1046.37" gradientTransform="matrix(15.55, 0, 0, -15.58, 28664.03, 16532.07)" xlink:href="#Degradado_sin_nombre_30"/><linearGradient id="Degradado_sin_nombre_30-3" x1="-1813.82" y1="1017.63" x2="-1813.82" y2="1059.69" gradientTransform="matrix(15.55, 0, 0, -15.58, 28576.98, 16479.39)" xlink:href="#Degradado_sin_nombre_30"/><linearGradient id="Degradado_sin_nombre_30-4" x1="-1529.48" y1="933.77" x2="-1529.48" y2="975.83" gradientTransform="matrix(5.49, 0, 0, -5.49, 9081.95, 5973.84)" xlink:href="#Degradado_sin_nombre_30"/><linearGradient id="Degradado_sin_nombre_30-5" x1="-1606.83" y1="964.92" x2="-1606.83" y2="1006.98" gradientTransform="matrix(7.04, 0, 0, -7.04, 12116.18, 7579.8)" xlink:href="#Degradado_sin_nombre_30"/><linearGradient id="Degradado_sin_nombre_30-6" x1="-1667.15" y1="999.64" x2="-1667.15" y2="1041.7" gradientTransform="matrix(7.04, 0, 0, -7.04, 12006.3, 7516.57)" xlink:href="#Degradado_sin_nombre_30"/><linearGradient id="Degradado_sin_nombre_30-7" x1="-1629.14" y1="1013.44" x2="-1629.14" y2="1055.5" gradientTransform="matrix(7.04, 0, 0, -7.04, 12075.55, 7491.43)" xlink:href="#Degradado_sin_nombre_30"/><linearGradient id="Degradado_sin_nombre_30-8" x1="-1539.44" y1="931.78" x2="-1539.44" y2="973.84" gradientTransform="matrix(4.71, 0, 0, -4.71, 7482.24, 5144.9)" xlink:href="#Degradado_sin_nombre_30"/><linearGradient id="Degradado_sin_nombre_30-9" x1="-1554.63" y1="914.4" x2="-1554.63" y2="956.46" gradientTransform="matrix(4.71, 0, 0, -4.71, 7463.68, 5166.09)" xlink:href="#Degradado_sin_nombre_30"/><linearGradient id="Degradado_sin_nombre_30-10" x1="-1552.73" y1="1011.4" x2="-1552.73" y2="1053.46" gradientTransform="matrix(4.71, 0, 0, -4.71, 7466, 5047.73)" xlink:href="#Degradado_sin_nombre_30"/><linearGradient id="Degradado_sin_nombre_30-11" x1="-1431.49" y1="984.29" x2="-1431.49" y2="1026.35" gradientTransform="matrix(4.71, 0, 0, -4.71, 7613.94, 5080.81)" xlink:href="#Degradado_sin_nombre_30"/><linearGradient id="Degradado_sin_nombre_30-12" x1="-1520.92" y1="916.3" x2="-1520.92" y2="958.36" gradientTransform="matrix(4.71, 0, 0, -4.71, 7504.8, 5163.77)" xlink:href="#Degradado_sin_nombre_30"/><linearGradient id="Degradado_sin_nombre_30-13" x1="-1539.6" y1="1009.25" x2="-1539.6" y2="1051.31" gradientTransform="matrix(5.91, 0, 0, -5.91, 9936.11, 6313.73)" xlink:href="#Degradado_sin_nombre_30"/><linearGradient id="Degradado_sin_nombre_30-14" x1="-1831.43" y1="1016.7" x2="-1831.43" y2="1058.76" gradientTransform="matrix(20.32, 0, 0, -20.36, 37911.13, 21515.78)" xlink:href="#Degradado_sin_nombre_30"/></defs><title>THANK</title><g id="Grupo_198" data-name="Grupo 198"><g id="Grupo_197" data-name="Grupo 197"><path id="Trazado_3" data-name="Trazado 3" class="cls-1" d="M378.84,528.13c48.63,13.31,60.09,9.59,68.75,22.61a29.72,29.72,0,0,1,5.06,19,28.18,28.18,0,0,1-7.91,16.5c-16.65,16.12-62.47-3.6-88.71-25.17-5.72-4.7-21.07-17.31-18-26.26a13.39,13.39,0,0,1,8-6.76C358.56,522.41,371.51,526.12,378.84,528.13Z"/><rect id="Rectángulo_1" data-name="Rectángulo 1" class="cls-2" x="518.57" y="201.4" width="10.34" height="67.89"/><rect id="Rectángulo_2" data-name="Rectángulo 2" class="cls-3" x="478.48" y="262.18" width="90.53" height="44.62" rx="21.97"/><path id="Rectángulo_3" data-name="Rectángulo 3" class="cls-4" d="M484.94,283.51h77.6A123.17,123.17,0,0,1,685.71,406.69h0A123.17,123.17,0,0,1,562.54,529.87h-77.6A123.18,123.18,0,0,1,361.77,406.69h0A123.18,123.18,0,0,1,484.94,283.51Z"/><path id="Trazado_4" data-name="Trazado 4" class="cls-5" d="M634.76,448.11h0a31.24,31.24,0,0,1-13.82,3.2H426.54a31.24,31.24,0,0,1-13.82-3.2h0a25.57,25.57,0,0,1-14.82-26.2l.11-.77c5-36.11,37.69-63.88,77.78-66,17-.88,34.77-1.34,53.34-1.23q21.82.12,42.15,1.2c40.25,2.08,73.19,29.73,78.19,66l.11.78A25.57,25.57,0,0,1,634.76,448.11Z"/><g id="Grupo_8" data-name="Grupo 8"><circle id="Elipse_11" data-name="Elipse 11" class="cls-6" cx="472.51" cy="406.69" r="36.66"/><g id="Grupo_3" data-name="Grupo 3"><circle id="Elipse_12" data-name="Elipse 12" class="cls-7" cx="472.51" cy="406.69" r="26.31"/></g><g id="Grupo_4" data-name="Grupo 4"><circle id="Elipse_13" data-name="Elipse 13" class="cls-8" cx="472.51" cy="406.69" r="22.1"/></g><g id="Grupo_5" data-name="Grupo 5"><path id="Trazado_5" data-name="Trazado 5" class="cls-7" d="M486.66,401a8.19,8.19,0,0,1-8.19,8.19h0a8.18,8.18,0,0,1-8.18-8.18h0a8.19,8.19,0,0,1,16.37,0Z"/></g><g id="Grupo_6" data-name="Grupo 6"><circle id="Elipse_14" data-name="Elipse 14" class="cls-7" cx="469.24" cy="423.64" r="3.27"/></g><g id="Grupo_7" data-name="Grupo 7"><path id="Trazado_6" data-name="Trazado 6" class="cls-7" d="M461.14,418.74a1.64,1.64,0,1,1-1.64-1.63A1.64,1.64,0,0,1,461.14,418.74Z"/></g></g><g id="Grupo_14" data-name="Grupo 14"><circle id="Elipse_15" data-name="Elipse 15" class="cls-9" cx="571.53" cy="406.69" r="36.66"/><g id="Grupo_9" data-name="Grupo 9"><circle id="Elipse_16" data-name="Elipse 16" class="cls-7" cx="571.53" cy="406.69" r="26.31"/></g><g id="Grupo_10" data-name="Grupo 10"><circle id="Elipse_17" data-name="Elipse 17" class="cls-10" cx="571.53" cy="406.69" r="22.1"/></g><g id="Grupo_11" data-name="Grupo 11"><path id="Trazado_7" data-name="Trazado 7" class="cls-7" d="M585.69,401a8.19,8.19,0,1,1-16.37,0h0a8.18,8.18,0,0,1,8.18-8.18h0A8.19,8.19,0,0,1,585.69,401Z"/></g><g id="Grupo_12" data-name="Grupo 12"><circle id="Elipse_18" data-name="Elipse 18" class="cls-7" cx="568.27" cy="423.64" r="3.27"/></g><g id="Grupo_13" data-name="Grupo 13"><path id="Trazado_8" data-name="Trazado 8" class="cls-7" d="M560.17,418.74a1.64,1.64,0,1,1-1.64-1.63A1.63,1.63,0,0,1,560.17,418.74Z"/></g></g><path id="Trazado_9" data-name="Trazado 9" class="cls-11" d="M537,196.87a13.26,13.26,0,1,1-13.25-13.25A13.26,13.26,0,0,1,537,196.87Z"/><path id="Trazado_10" data-name="Trazado 10" class="cls-12" d="M533,191.7a4,4,0,1,1-4.05-4A4,4,0,0,1,533,191.7Z"/><path id="Trazado_11" data-name="Trazado 11" class="cls-12" d="M621.86,331.35a14.51,14.51,0,0,1-10.66,14.23c-5.42.59-9.76-4.95-14.22-10.67s-14-20.1-10.21-24.19C591.84,305.32,621.45,316.76,621.86,331.35Z"/><circle id="Elipse_19" data-name="Elipse 19" class="cls-12" cx="572.31" cy="303.15" r="4.61"/><path id="Trazado_12" data-name="Trazado 12" class="cls-12" d="M637.22,411.86c-1.46,1-11.78-19.94-39.44-38.15-9.73-6.39-19.32-11-18.75-12.28s11.39,1.15,20,5.17C626.64,379.39,639,410.62,637.22,411.86Z"/><path id="Trazado_13" data-name="Trazado 13" class="cls-12" d="M566.39,275.4c-.33.05-.54-1.89-2.16-4.86a24.8,24.8,0,0,0-1.61-2.59c-2.78-3.82-12.19-3.73-12.93-3.73-14.67.13-24.09-.8-24.09-.71s6.88-.07,11.92-.17c14.22-.29,22.69-1,26.32,2.75a12.15,12.15,0,0,1,2.26,3.64A7.68,7.68,0,0,1,566.39,275.4Z"/><path id="Trazado_14" data-name="Trazado 14" class="cls-7" d="M563.35,467a7.48,7.48,0,0,1-6.81,6.55L508,478.28a7.49,7.49,0,0,1-7.92-5.14A33.48,33.48,0,0,1,499,468.5a1.67,1.67,0,0,1,.33-1.24,1.61,1.61,0,0,1,1.12-.62l61.27-5.91a1.6,1.6,0,0,1,1.75,1.52A33.29,33.29,0,0,1,563.35,467Z"/><path id="Trazado_15" data-name="Trazado 15" class="cls-13" d="M563.34,467a32.44,32.44,0,0,1-63.11,6.68,7.52,7.52,0,0,0,7.73,4.55l48.57-4.68A7.49,7.49,0,0,0,563.34,467Z"/><path id="Trazado_16" data-name="Trazado 16" class="cls-14" d="M639.85,576.08v1.28a30.17,30.17,0,0,1-1.57,8.52c-13.37,40.85-21.4,62.36-32.61,79.78-1.94,3-4,5.9-6.17,8.73-2.87,3.79-6,7.47-9.51,11.27a56.85,56.85,0,0,1-23.28,13.58,95.5,95.5,0,0,1-34.18,4.08h-1.41a95.5,95.5,0,0,1-34.18-4.08,56.85,56.85,0,0,1-23.28-13.58c-21.34-23.22-29.54-42.52-48.29-99.78a30.24,30.24,0,0,1-1.55-8c-.05-1.1-.05-2.21,0-3.31a34.82,34.82,0,0,1,8.11-19.69,44.93,44.93,0,0,1,34.91-16.32l65-.28,63.78-.25a46,46,0,0,1,35.87,16.37,35.8,35.8,0,0,1,7.92,16.47c.13.82.25,1.65.33,2.47S639.85,575.17,639.85,576.08Z"/><path id="Trazado_17" data-name="Trazado 17" class="cls-15" d="M531.81,538.3l-65,.27a44.92,44.92,0,0,0-35,16.34,34.75,34.75,0,0,0-8.11,19.69,34.48,34.48,0,0,1,8.36-20.18A46,46,0,0,1,468,538.05Z"/><path id="Trazado_18" data-name="Trazado 18" class="cls-16" d="M596.38,634c-1-50.38-7.78-60.35,2.29-72.34a29.59,29.59,0,0,1,16.75-10.21,28.19,28.19,0,0,1,18.07,2.92c20.16,11.42,14.18,61,.9,92.21-2.92,6.8-10.67,25.1-20.14,24.66a13.4,13.4,0,0,1-8.75-5.79C596.62,655.08,596.52,641.61,596.38,634Z"/><path id="Trazado_19" data-name="Trazado 19" class="cls-17" d="M605.65,665.68c-1.95,3-4,5.9-6.17,8.73-.7-.71-1.32-1.43-1.89-2.09-8.88-10.4-9-23.86-9.11-31.46-1-50.4-7.79-60.35,2.29-72.34a31.55,31.55,0,0,1,7.81-6.75c-9.93,12-3.16,22-2.21,72.24.13,7.6.25,21.07,9.12,31.48A1.46,1.46,0,0,1,605.65,665.68Z"/><path id="Trazado_20" data-name="Trazado 20" class="cls-12" d="M634.08,592.05a82.7,82.7,0,0,0-3.33-17.36c-2.65-10.42-6-15.5-3.82-17.51,1.41-1.31,4.18-.42,4.82-.23,9.52,3,12.47,20.91,12.06,32.1-.25,6.84-1.95,14.5-4.43,14.84a2.87,2.87,0,0,1-2.09-.62A16,16,0,0,1,634.08,592.05Z"/><path id="Trazado_21" data-name="Trazado 21" class="cls-12" d="M640.62,611.16a2,2,0,0,1-3.94,0h0a2,2,0,0,1,2-2h0a2,2,0,0,1,2,2Z"/><ellipse id="Elipse_20" data-name="Elipse 20" class="cls-18" cx="528.91" cy="751.93" rx="103.63" ry="42.42"/></g><g id="stars"><path id="Trazado_303" data-name="Trazado 303" class="cls-19" d="M232.23,442.1a35.29,35.29,0,0,1-22.16-22.24,9.58,9.58,0,0,0-18.19,0,35.27,35.27,0,0,1-22.16,22.24,9.58,9.58,0,0,0,0,18.17,35.27,35.27,0,0,1,22.16,22.24,9.58,9.58,0,0,0,18.19,0,35.29,35.29,0,0,1,22.16-22.24,9.58,9.58,0,0,0,0-18.17ZM201,459.74a55.3,55.3,0,0,0-8.55-8.55,54.93,54.93,0,0,0,8.55-8.56,54.87,54.87,0,0,0,8.54,8.56A54.37,54.37,0,0,0,201,459.74Z"/><path id="Trazado_304" data-name="Trazado 304" class="cls-20" d="M825.27,431.65a35.31,35.31,0,0,1-22.17-22.24,9.58,9.58,0,0,0-18.18,0,35.29,35.29,0,0,1-22.16,22.24,9.58,9.58,0,0,0,0,18.17,35.3,35.3,0,0,1,22.16,22.23,9.58,9.58,0,0,0,18.18,0,35.27,35.27,0,0,1,22.17-22.23,9.58,9.58,0,0,0,0-18.18ZM794,449.29a54,54,0,0,0-8.54-8.55,54.44,54.44,0,0,0,8.54-8.56,54.93,54.93,0,0,0,8.55,8.56A54.93,54.93,0,0,0,794,449.3Z"/><path id="Trazado_306" data-name="Trazado 306" class="cls-21" d="M361.78,210.67a9.58,9.58,0,0,0,18.19,0,35.26,35.26,0,0,1,22.16-22.23,9.58,9.58,0,0,0,0-18.18A35.26,35.26,0,0,1,380,148a9.58,9.58,0,0,0-18.19,0,35.26,35.26,0,0,1-22.16,22.23,9.58,9.58,0,0,0,0,18.18A35.26,35.26,0,0,1,361.78,210.67Zm9.1-39.87a54.87,54.87,0,0,0,8.54,8.56,54.8,54.8,0,0,0-8.54,8.55,55.3,55.3,0,0,0-8.55-8.55,54.93,54.93,0,0,0,8.54-8.57Z"/><path id="Trazado_307" data-name="Trazado 307" class="cls-22" d="M688.17,680.5a13.35,13.35,0,1,0,13.35,13.34h0A13.35,13.35,0,0,0,688.17,680.5Z"/><path id="Trazado_309" data-name="Trazado 309" class="cls-23" d="M810.51,574.14a17.11,17.11,0,1,0,17.11,17.11,17.11,17.11,0,0,0-17.11-17.11Z"/><path id="Trazado_310" data-name="Trazado 310" class="cls-24" d="M293.32,283.77a17.11,17.11,0,1,0-17.1,17.1h0a17.09,17.09,0,0,0,17.1-17.09Z"/><path id="Trazado_311" data-name="Trazado 311" class="cls-25" d="M612.93,178.6a17.11,17.11,0,1,0-17.11-17.11v0A17.11,17.11,0,0,0,612.93,178.6Z"/><path id="Trazado_312" data-name="Trazado 312" class="cls-26" d="M236.79,618.91a11.47,11.47,0,1,0-11.46,11.46h0A11.46,11.46,0,0,0,236.79,618.91Z"/><path id="Trazado_313" data-name="Trazado 313" class="cls-27" d="M135.14,710.6a11.46,11.46,0,1,0,11.46,11.46h0A11.46,11.46,0,0,0,135.14,710.6Z"/><path id="Trazado_316" data-name="Trazado 316" class="cls-28" d="M146.42,157.9A11.47,11.47,0,1,0,135,146.43a11.47,11.47,0,0,0,11.46,11.47Z"/><path id="Trazado_317" data-name="Trazado 317" class="cls-29" d="M865.92,295.84a11.46,11.46,0,1,0,11.46,11.46h0A11.46,11.46,0,0,0,865.92,295.84Z"/><path id="Trazado_318" data-name="Trazado 318" class="cls-30" d="M335.22,699.31a11.46,11.46,0,1,0,11.46,11.46h0A11.46,11.46,0,0,0,335.22,699.31Z"/><circle id="Elipse_37" data-name="Elipse 37" class="cls-31" cx="833.98" cy="179.55" r="14.37"/><path id="Trazado_321" data-name="Trazado 321" class="cls-32" d="M743.59,225a53.72,53.72,0,0,1-33.76-33.86,9.58,9.58,0,0,0-18.18,0A53.74,53.74,0,0,1,657.89,225a9.58,9.58,0,0,0,0,18.18A53.72,53.72,0,0,1,691.65,277a9.58,9.58,0,0,0,18.18,0,53.72,53.72,0,0,1,33.76-33.86,9.58,9.58,0,0,0,0-18.18Zm-42.85,27.76A73.51,73.51,0,0,0,682.11,234a73.43,73.43,0,0,0,18.63-18.66A73.43,73.43,0,0,0,719.37,234a73.51,73.51,0,0,0-18.63,18.68Z"/></g></g></svg>