<svg id="Capa_1" data-name="Capa 1" xmlns="http://www.w3.org/2000/svg" xmlns:xlink="http://www.w3.org/1999/xlink" viewBox="0 0 512.24 605.36"><defs><style>.cls-1{font-size:86.92px;fill:#e23365;letter-spacing:-0.01em;}.cls-1,.cls-24{font-family:ProductSans-Black, Product Sans Black;font-weight:800;}.cls-2{letter-spacing:-0.03em;}.cls-3{letter-spacing:0em;}.cls-4{letter-spacing:-0.01em;}.cls-5{fill:url(#Degradado_sin_nombre_19);}.cls-6{fill:url(#Degradado_sin_nombre_19-2);}.cls-7{fill:url(#Degradado_sin_nombre_19-3);}.cls-8{fill:url(#Degradado_sin_nombre_9);}.cls-9{fill:url(#Degradado_sin_nombre_8);}.cls-10{fill:#eefdff;}.cls-11{fill:url(#Degradado_sin_nombre_9-2);}.cls-12{fill:url(#Degradado_sin_nombre_8-2);}.cls-13{fill:url(#Degradado_sin_nombre_9-3);}.cls-14{fill:url(#Degradado_sin_nombre_19-4);}.cls-15{fill:#fff;}.cls-16{fill:url(#Degradado_sin_nombre_11);}.cls-17{fill:url(#Degradado_sin_nombre_12);}.cls-18{fill:url(#Degradado_sin_nombre_13);}.cls-19{fill:url(#Degradado_sin_nombre_19-5);}.cls-20{fill:url(#Degradado_sin_nombre_15);}.cls-21{opacity:0.37;isolation:isolate;fill:url(#Degradado_sin_nombre_16);}.cls-22{fill:url(#Degradado_sin_nombre_19-6);}.cls-23{fill:url(#Degradado_sin_nombre_15-2);}.cls-24{font-size:101.22px;fill:#474747;}.cls-25{letter-spacing:0em;}</style><linearGradient id="Degradado_sin_nombre_19" x1="-99.69" y1="-103.02" x2="-98.88" y2="-103.04" gradientTransform="translate(2832.41 17865.98) scale(26.12 171.38)" gradientUnits="userSpaceOnUse"><stop offset="0" stop-color="#06cff1"/><stop offset="1" stop-color="#dcedf9"/></linearGradient><linearGradient id="Degradado_sin_nombre_19-2" x1="-102.2" y1="-102.87" x2="-102.04" y2="-103.24" gradientTransform="translate(23579.43 11849.62) scale(228.53 112.62)" xlink:href="#Degradado_sin_nombre_19"/><linearGradient id="Degradado_sin_nombre_19-3" x1="-102.49" y1="-104.46" x2="-102.31" y2="-104.7" gradientTransform="translate(83973.45 65367.11) scale(817.74 621.88)" xlink:href="#Degradado_sin_nombre_19"/><linearGradient id="Degradado_sin_nombre_9" x1="-102.36" y1="-104.59" x2="-102.36" y2="-104.83" gradientTransform="translate(65571.39 26181.81) scale(636.43 245.8)" gradientUnits="userSpaceOnUse"><stop offset="0" stop-color="#030d14"/><stop offset="1" stop-color="#0b2f45"/></linearGradient><radialGradient id="Degradado_sin_nombre_8" cx="-101.51" cy="-104.83" r="0.13" gradientTransform="translate(18995.45 19723.71) scale(185.07)" gradientUnits="userSpaceOnUse"><stop offset="0.13" stop-color="#3280fc"/><stop offset="1"/></radialGradient><linearGradient id="Degradado_sin_nombre_9-2" x1="-101" y1="-105.08" x2="-100.73" y2="-105.08" gradientTransform="translate(11461.69 12047.3) scale(111.57)" xlink:href="#Degradado_sin_nombre_9"/><radialGradient id="Degradado_sin_nombre_8-2" cx="-102.5" cy="-104.83" r="0.13" gradientTransform="translate(19245.43 19723.71) scale(185.07)" xlink:href="#Degradado_sin_nombre_8"/><linearGradient id="Degradado_sin_nombre_9-3" x1="-102.64" y1="-105.08" x2="-102.37" y2="-105.08" gradientTransform="translate(11711.67 12047.3) scale(111.57)" xlink:href="#Degradado_sin_nombre_9"/><linearGradient id="Degradado_sin_nombre_19-4" x1="-101.36" y1="-99.59" x2="-100.92" y2="-99.66" gradientTransform="translate(7196.62 6970.32) scale(66.92)" xlink:href="#Degradado_sin_nombre_19"/><linearGradient id="Degradado_sin_nombre_11" x1="-101.73" y1="-105.15" x2="-101.46" y2="-105.73" gradientTransform="matrix(-158.55, -14.82, 6.83, -73.08, -14978.11, -8700.17)" gradientUnits="userSpaceOnUse"><stop offset="0" stop-color="#3f88ad"/><stop offset="1" stop-color="#3487c4"/></linearGradient><linearGradient id="Degradado_sin_nombre_12" x1="-102.47" y1="-105.47" x2="-102.24" y2="-105.81" gradientTransform="translate(56269.37 44650.82) scale(545.48 417.29)" gradientUnits="userSpaceOnUse"><stop offset="0" stop-color="#3a68ab"/><stop offset="0.05" stop-color="#316fb0"/><stop offset="0.24" stop-color="#1686c0"/><stop offset="0.41" stop-color="#0594ca"/><stop offset="0.54" stop-color="#0099ce"/><stop offset="0.66" stop-color="#2ba8d6"/><stop offset="0.92" stop-color="#99cfed"/><stop offset="1" stop-color="#bcdcf4"/></linearGradient><linearGradient id="Degradado_sin_nombre_13" x1="-101.95" y1="-107.88" x2="-101.68" y2="-108.81" gradientTransform="translate(28172.06 10520.39) scale(272.69 92.26)" gradientUnits="userSpaceOnUse"><stop offset="0.04" stop-color="#06cff1"/><stop offset="1" stop-color="#defa8e"/></linearGradient><linearGradient id="Degradado_sin_nombre_19-5" x1="-93.96" y1="-108.07" x2="-93.21" y2="-108.24" gradientTransform="translate(14373.46 32737.95) scale(134.57 303.52)" xlink:href="#Degradado_sin_nombre_19"/><linearGradient id="Degradado_sin_nombre_15" x1="-103.92" y1="-105.99" x2="-102.66" y2="-106.11" gradientTransform="translate(5773.61 30750.73) scale(51.27 284.35)" gradientUnits="userSpaceOnUse"><stop offset="0" stop-color="#06cff1"/><stop offset="1" stop-color="#0074a2"/></linearGradient><radialGradient id="Degradado_sin_nombre_16" cx="694.95" cy="153.24" r="57.61" gradientTransform="matrix(1, 0, 0, -0.41, -454.08, 637.6)" gradientUnits="userSpaceOnUse"><stop offset="0" stop-color="#128eec"/><stop offset="1" stop-color="#fff" stop-opacity="0"/></radialGradient><linearGradient id="Degradado_sin_nombre_19-6" x1="-91.92" y1="-108.06" x2="-91.17" y2="-108.24" gradientTransform="matrix(-134.57, 0, 0, 303.52, -13249.86, 32737.95)" xlink:href="#Degradado_sin_nombre_19"/><linearGradient id="Degradado_sin_nombre_15-2" x1="-98.57" y1="-105.99" x2="-97.31" y2="-106.11" gradientTransform="matrix(-51.27, 0, 0, 284.35, -4650.01, 30750.73)" xlink:href="#Degradado_sin_nombre_15"/></defs><title>NOT_FOUND</title><text class="cls-1" transform="translate(0 187.28)">N<tspan class="cls-2" x="63.11" y="0">O</tspan><tspan class="cls-3" x="132.47" y="0">T </tspan><tspan class="cls-4" x="204.09" y="0">F</tspan><tspan class="cls-3" x="253.29" y="0">OUND</tspan></text><g id="Grupo_15" data-name="Grupo 15"><rect id="Rectángulo_1" data-name="Rectángulo 1" class="cls-5" x="239.37" y="185.16" width="6.98" height="45.82"/><rect id="Rectángulo_2" data-name="Rectángulo 2" class="cls-6" x="212.31" y="226.18" width="61.1" height="30.11" rx="1.21"/><rect id="Rectángulo_3" data-name="Rectángulo 3" class="cls-7" x="133.55" y="240.58" width="218.62" height="166.26" rx="67.91"/><path id="Trazado_4" data-name="Trazado 4" class="cls-8" d="M500,472.43h0a21.15,21.15,0,0,1-9.31,2.15H359.48a21.13,21.13,0,0,1-9.33-2.15h0c-7-3.48-11-10.49-10-17.69l.07-.52c3.37-24.37,25.44-43.11,52.51-44.51,11.45-.6,23.46-.93,36-.83q14.73.08,28.44.81c27.17,1.38,49.4,20.07,52.77,44.52l.07.53C511,461.94,507,469,500,472.43Z" transform="translate(-182.21 -120.76)"/><g id="Grupo_8" data-name="Grupo 8"><circle id="Elipse_11" data-name="Elipse 11" class="cls-9" cx="208.28" cy="323.71" r="24.74"/><g id="Grupo_3" data-name="Grupo 3"><circle id="Elipse_12" data-name="Elipse 12" class="cls-10" cx="208.28" cy="323.71" r="17.76"/></g><g id="Grupo_4" data-name="Grupo 4"><circle id="Elipse_13" data-name="Elipse 13" class="cls-11" cx="208.28" cy="323.71" r="14.91"/></g><g id="Grupo_5" data-name="Grupo 5"><path id="Trazado_5" data-name="Trazado 5" class="cls-10" d="M400.05,440.6a5.53,5.53,0,1,1-11.05,0h0a5.52,5.52,0,0,1,5.52-5.52h0A5.52,5.52,0,0,1,400.05,440.6Z" transform="translate(-182.21 -120.76)"/></g><g id="Grupo_6" data-name="Grupo 6"><circle id="Elipse_14" data-name="Elipse 14" class="cls-10" cx="206.08" cy="335.15" r="2.21"/></g><g id="Grupo_7" data-name="Grupo 7"><path id="Trazado_6" data-name="Trazado 6" class="cls-10" d="M382.82,452.6a1.09,1.09,0,0,1-1.08,1.1h0a1.1,1.1,0,0,1-1.1-1.1h0a1.1,1.1,0,0,1,1.1-1.1h0a1.1,1.1,0,0,1,1.1,1.1Z" transform="translate(-182.21 -120.76)"/></g></g><g id="Grupo_14" data-name="Grupo 14"><circle id="Elipse_15" data-name="Elipse 15" class="cls-12" cx="275.12" cy="323.71" r="24.74"/><g id="Grupo_9" data-name="Grupo 9"><circle id="Elipse_16" data-name="Elipse 16" class="cls-10" cx="275.12" cy="323.71" r="17.76"/></g><g id="Grupo_10" data-name="Grupo 10"><circle id="Elipse_17" data-name="Elipse 17" class="cls-13" cx="275.12" cy="323.71" r="14.91"/></g><g id="Grupo_11" data-name="Grupo 11"><path id="Trazado_7" data-name="Trazado 7" class="cls-10" d="M466.89,440.6a5.53,5.53,0,1,1-5.53-5.52h0A5.53,5.53,0,0,1,466.89,440.6Z" transform="translate(-182.21 -120.76)"/></g><g id="Grupo_12" data-name="Grupo 12"><circle id="Elipse_18" data-name="Elipse 18" class="cls-10" cx="272.91" cy="335.15" r="2.21"/></g><g id="Grupo_13" data-name="Grupo 13"><path id="Trazado_8" data-name="Trazado 8" class="cls-10" d="M449.66,452.6a1.1,1.1,0,0,1-1.09,1.1h0a1.1,1.1,0,0,1-1.1-1.1h0a1.1,1.1,0,0,1,1.1-1.1h0a1.1,1.1,0,0,1,1.1,1.1Z" transform="translate(-182.21 -120.76)"/></g></g><path id="Trazado_9" data-name="Trazado 9" class="cls-14" d="M443.27,302.63a9.63,9.63,0,0,1-9.63,9.64h0a9.65,9.65,0,0,1,0-19.29h0A9.64,9.64,0,0,1,443.27,302.63Z" transform="translate(-182.21 -120.76)"/><path id="Trazado_10" data-name="Trazado 10" class="cls-15" d="M440.32,298.86a2.94,2.94,0,1,1-2.94-2.94h0A2.94,2.94,0,0,1,440.32,298.86Z" transform="translate(-182.21 -120.76)"/><path id="Trazado_11" data-name="Trazado 11" class="cls-15" d="M491.29,393.63c.12,4.17-3.28,9.17-7.19,9.6-3.68.4-6.59-3.34-9.6-7.2s-9.47-13.57-6.88-16.33C471,376.05,491,383.77,491.29,393.63Z" transform="translate(-182.21 -120.76)"/><circle id="Elipse_19" data-name="Elipse 19" class="cls-15" cx="275.64" cy="253.84" r="3.11"/><path id="Trazado_12" data-name="Trazado 12" class="cls-15" d="M501.66,448c-1,.7-8-13.46-26.62-25.75-6.56-4.31-13-7.4-12.66-8.29s7.69.78,13.54,3.49C494.52,426,502.85,447.12,501.66,448Z" transform="translate(-182.21 -120.76)"/><path id="Trazado_13" data-name="Trazado 13" class="cls-15" d="M453.84,355.85c-.22,0-.36-1.27-1.46-3.29a15.93,15.93,0,0,0-1.09-1.75c-1.87-2.58-8.22-2.52-8.72-2.52-9.9.09-16.26-.53-16.26-.48s4.65,0,8.05-.11c9.59-.19,15.3-.71,17.75,1.84a8.14,8.14,0,0,1,1.53,2.46C454.35,353.9,454.12,355.82,453.84,355.85Z" transform="translate(-182.21 -120.76)"/><path id="Trazado_14" data-name="Trazado 14" class="cls-10" d="M405.94,499.7a5.07,5.07,0,0,1,5-4l32.92-.09a5.06,5.06,0,0,1,5,3.94,22.81,22.81,0,0,1,.41,3.19,1.09,1.09,0,0,1-1,1.15h-.05l-41.53.12a1.06,1.06,0,0,1-1.08-1.06h0v-.06A23.06,23.06,0,0,1,405.94,499.7Z" transform="translate(-182.21 -120.76)"/><path id="Trazado_15" data-name="Trazado 15" class="cls-16" d="M405.94,499.7a21.88,21.88,0,0,1,42.81-.53,5.06,5.06,0,0,0-4.91-3.54l-32.93.09A5.06,5.06,0,0,0,405.94,499.7Z" transform="translate(-182.21 -120.76)"/><path id="Trazado_16" data-name="Trazado 16" class="cls-17" d="M503.8,567.33v.93a21.77,21.77,0,0,1-1.15,6.19c-9.72,29.71-15.55,45.38-23.72,58-1.41,2.19-2.89,4.29-4.47,6.35-2.09,2.76-4.38,5.44-6.91,8.21-5.65,6.14-14.19,8.94-16.94,9.87-10.06,3.56-19,2.91-24.87,3h-1c-5.93,0-14.81.59-24.87-3-2.75-.95-11.31-3.73-16.94-9.87-15.52-16.89-21.49-30.94-35.13-72.61a21.86,21.86,0,0,1-1.16-5.83c0-.81,0-1.61,0-2.42a25.24,25.24,0,0,1,5.9-14.32A32.69,32.69,0,0,1,377.94,540l47.27-.19,46.4-.18a33.46,33.46,0,0,1,26.1,11.91,25.94,25.94,0,0,1,5.76,12c.1.59.18,1.19.24,1.79S503.8,566.63,503.8,567.33Z" transform="translate(-182.21 -120.76)"/><path id="Trazado_17" data-name="Trazado 17" class="cls-18" d="M425.19,539.81l-47.27.2a32.65,32.65,0,0,0-25.43,11.89,25.28,25.28,0,0,0-5.9,14.32,25,25,0,0,1,6.09-14.68,33.48,33.48,0,0,1,26.09-11.92Z" transform="translate(-182.21 -120.76)"/><path id="Trazado_18" data-name="Trazado 18" class="cls-19" d="M472.18,609.46c-.69-36.66-5.65-43.91,1.66-52.64A21.82,21.82,0,0,1,486,549.37a20.54,20.54,0,0,1,13.15,2.13c14.67,8.32,10.32,44.35.65,67.1-2.11,5-7.76,18.26-14.65,17.94-2.82-.12-4.9-2.48-6.36-4.21C472.34,624.79,472.27,615,472.18,609.46Z" transform="translate(-182.21 -120.76)"/><path id="Trazado_19" data-name="Trazado 19" class="cls-20" d="M478.91,632.5c-1.41,2.19-2.89,4.29-4.47,6.35-.49-.52-1-1-1.37-1.52-6.45-7.56-6.53-17.38-6.63-22.89-.69-36.67-5.66-43.91,1.67-52.64a22.8,22.8,0,0,1,5.68-4.91c-7.22,8.69-2.3,16-1.61,52.56.1,5.53.19,15.33,6.64,22.9A.6.6,0,0,1,478.91,632.5Z" transform="translate(-182.21 -120.76)"/><path id="Trazado_20" data-name="Trazado 20" class="cls-15" d="M499.61,578.93c-.21-3.94-.95-6.84-2.43-12.63-1.93-7.59-4.36-11.28-2.78-12.74,1-1,3-.31,3.5-.17,7,2.21,9.07,15.22,8.78,23.34-.19,5-1.4,10.55-3.23,10.8a2.1,2.1,0,0,1-1.52-.45C499.9,585.29,499.76,581.93,499.61,578.93Z" transform="translate(-182.21 -120.76)"/><path id="Trazado_21" data-name="Trazado 21" class="cls-15" d="M504.36,592.84a1.44,1.44,0,1,1-1.44-1.44h0a1.43,1.43,0,0,1,1.44,1.44Z" transform="translate(-182.21 -120.76)"/><ellipse id="Elipse_20" data-name="Elipse 20" class="cls-21" cx="240.87" cy="574.5" rx="75.4" ry="30.87"/><path id="Trazado_18-2" data-name="Trazado 18" class="cls-22" d="M370.55,633.09c-1.46,1.73-3.54,4.09-6.37,4.22-6.89.31-12.54-13-14.65-17.95-9.66-22.75-14-58.78.66-67.09a20.46,20.46,0,0,1,13.14-2.14,21.83,21.83,0,0,1,12.19,7.45c7.32,8.73,2.36,16,1.67,52.64C377.09,615.75,377,625.55,370.55,633.09Z" transform="translate(-182.21 -120.76)"/><path id="Trazado_19-2" data-name="Trazado 19" class="cls-23" d="M370.55,633.11c6.45-7.57,6.53-17.37,6.63-22.9.69-36.56,5.62-43.87-1.61-52.56a22.67,22.67,0,0,1,5.69,4.91c7.33,8.73,2.36,16,1.67,52.64-.1,5.51-.18,15.33-6.64,22.89-.41.48-.87,1-1.37,1.52-1.58-2.06-3.06-4.16-4.47-6.35A1.3,1.3,0,0,1,370.55,633.11Z" transform="translate(-182.21 -120.76)"/><path id="Trazado_20-2" data-name="Trazado 20" class="cls-15" d="M347.43,587.84a2.08,2.08,0,0,1-1.52.45c-1.82-.25-3-5.83-3.22-10.8-.3-8.12,1.82-21.13,8.77-23.34.46-.14,2.48-.79,3.51.17,1.57,1.46-.85,5.16-2.79,12.74-1.47,5.79-2.21,8.69-2.42,12.63C349.6,582.69,349.47,586.05,347.43,587.84Z" transform="translate(-182.21 -120.76)"/><path id="Trazado_21-2" data-name="Trazado 21" class="cls-15" d="M345,593.6a1.44,1.44,0,0,1,1.44-1.44h0A1.44,1.44,0,1,1,345,593.6Z" transform="translate(-182.21 -120.76)"/></g><text class="cls-24" transform="translate(103.31 86.85)">o<tspan class="cls-25" x="59.11" y="0">op</tspan><tspan x="178.76" y="0">s!!</tspan></text></svg>