<svg id="Capa_1" data-name="Capa 1" xmlns="http://www.w3.org/2000/svg" xmlns:xlink="http://www.w3.org/1999/xlink" viewBox="0 0 526.75 603.87"><defs><style>.cls-1{fill:#008fd4;}.cls-2{fill:url(#Degradado_sin_nombre_15);}.cls-3{fill:url(#Degradado_sin_nombre_15-2);}.cls-4{opacity:0.62;isolation:isolate;fill:url(#Degradado_sin_nombre_15-3);}.cls-5{fill:url(#Degradado_sin_nombre_8);}.cls-6{fill:url(#Degradado_sin_nombre_7);}.cls-7{fill:#eefdff;}.cls-8{fill:url(#Degradado_sin_nombre_8-2);}.cls-9{fill:url(#Degradado_sin_nombre_7-2);}.cls-10{fill:url(#Degradado_sin_nombre_8-3);}.cls-11{fill:url(#Degradado_sin_nombre_15-4);}.cls-12{fill:#fff;}.cls-13{fill:url(#Degradado_sin_nombre_10);}.cls-14{fill:url(#Degradado_sin_nombre_11);}.cls-15{fill:url(#Degradado_sin_nombre_12);}.cls-16{fill:url(#Degradado_sin_nombre_15-5);}.cls-17{fill:url(#Degradado_sin_nombre_14);}.cls-18{fill:#bcbcbc;}.cls-19{fill:url(#Degradado_sin_nombre_15-6);}.cls-20{fill:#bf0066;}</style><linearGradient id="Degradado_sin_nombre_15" x1="33.86" y1="996.58" x2="30.01" y2="996.66" gradientTransform="matrix(5.59, 0, 0, -36.67, 95.36, 36697.62)" gradientUnits="userSpaceOnUse"><stop offset="0" stop-color="#06cff1"/><stop offset="1" stop-color="#dcedf9"/></linearGradient><linearGradient id="Degradado_sin_nombre_15-2" x1="6.18" y1="992.75" x2="5.4" y2="994.54" gradientTransform="matrix(48.9, 0, 0, -24.1, 209.64, 24308.43)" xlink:href="#Degradado_sin_nombre_15"/><linearGradient id="Degradado_sin_nombre_15-3" x1="3.89" y1="999.32" x2="3.02" y2="1000.46" gradientTransform="matrix(174.97, 0, 0, -133.06, -105.54, 133498.95)" xlink:href="#Degradado_sin_nombre_15"/><linearGradient id="Degradado_sin_nombre_8" x1="3.68" y1="997.04" x2="3.67" y2="998.19" gradientTransform="matrix(136.17, 0, 0, -52.59, -8.55, 52912.99)" gradientUnits="userSpaceOnUse"><stop offset="0" stop-color="#030d14"/><stop offset="1" stop-color="#0b2f45"/></linearGradient><radialGradient id="Degradado_sin_nombre_7" cx="-1.75" cy="996.3" r="0.63" gradientTransform="translate(236 39722.4) rotate(180) scale(39.6)" gradientUnits="userSpaceOnUse"><stop offset="0.13" stop-color="#3280fc"/><stop offset="1"/></radialGradient><linearGradient id="Degradado_sin_nombre_8-2" x1="10.2" y1="993.01" x2="8.92" y2="993.01" gradientTransform="matrix(23.87, 0, 0, -23.87, 77.33, 23973.13)" xlink:href="#Degradado_sin_nombre_8"/><radialGradient id="Degradado_sin_nombre_7-2" cx="6.37" cy="996.3" r="0.63" gradientTransform="matrix(39.6, 0, 0, -39.6, -15.48, 39722.4)" xlink:href="#Degradado_sin_nombre_7"/><linearGradient id="Degradado_sin_nombre_8-3" x1="9.56" y1="993.01" x2="8.28" y2="993.01" gradientTransform="matrix(23.87, 0, 0, -23.87, 23.84, 23973.13)" xlink:href="#Degradado_sin_nombre_8"/><linearGradient id="Degradado_sin_nombre_15-4" x1="15.07" y1="989.18" x2="13.07" y2="989.47" gradientTransform="matrix(14.32, 0, 0, -14.32, 296.08, 14468.6)" xlink:href="#Degradado_sin_nombre_15"/><linearGradient id="Degradado_sin_nombre_10" x1="7.4" y1="987.75" x2="6.12" y2="990.54" gradientTransform="matrix(34.07, 0, 0, -15.7, 242.35, 16009.36)" gradientUnits="userSpaceOnUse"><stop offset="0" stop-color="#3f88ad"/><stop offset="1" stop-color="#3487c4"/></linearGradient><linearGradient id="Degradado_sin_nombre_11" x1="4.27" y1="998.37" x2="3.27" y2="999.89" gradientTransform="matrix(116.71, 0, 0, -89.29, 35.75, 89777.17)" gradientUnits="userSpaceOnUse"><stop offset="0" stop-color="#3a68ab"/><stop offset="0.05" stop-color="#316fb0"/><stop offset="0.24" stop-color="#1686c0"/><stop offset="0.41" stop-color="#0594ca"/><stop offset="0.54" stop-color="#0099ce"/><stop offset="0.66" stop-color="#2ba8d6"/><stop offset="0.92" stop-color="#99cfed"/><stop offset="1" stop-color="#bcdcf4"/></linearGradient><linearGradient id="Degradado_sin_nombre_12" x1="5.68" y1="989.33" x2="4.49" y2="993.46" gradientTransform="matrix(58.35, 0, 0, -19.74, 210.83, 20097.02)" gradientUnits="userSpaceOnUse"><stop offset="0.04" stop-color="#06cff1"/><stop offset="1" stop-color="#defa8e"/></linearGradient><linearGradient id="Degradado_sin_nombre_15-5" x1="-33.51" y1="1007.41" x2="-36.83" y2="1008.18" gradientTransform="matrix(28.79, 0, 0, -64.93, 207.97, 65381.04)" xlink:href="#Degradado_sin_nombre_15"/><linearGradient id="Degradado_sin_nombre_14" x1="18.4" y1="997.35" x2="12.78" y2="997.88" gradientTransform="matrix(10.97, 0, 0, -60.84, 265.7, 61285.87)" gradientUnits="userSpaceOnUse"><stop offset="0" stop-color="#06cff1"/><stop offset="1" stop-color="#0074a2"/></linearGradient><linearGradient id="Degradado_sin_nombre_15-6" x1="-19" y1="1007.41" x2="-22.32" y2="1008.18" gradientTransform="translate(1182.89 65381.04) rotate(180) scale(28.79 64.93)" xlink:href="#Degradado_sin_nombre_15"/></defs><title>not_notify</title><path class="cls-1" d="M222.55,176.87h10L251,207.51h.51L251,198.7V176.87h8.55v45.7h-9.06L231,190.21h-.51L231,199v23.55h-8.49Z" transform="translate(-222.55 -176.36)"/><path class="cls-1" d="M282.47,190.28a17.37,17.37,0,0,1,6.67,1.24,15.45,15.45,0,0,1,8.68,8.71,18.58,18.58,0,0,1,0,13.4,15.37,15.37,0,0,1-8.68,8.71,18.39,18.39,0,0,1-13.33,0,15.37,15.37,0,0,1-8.68-8.71,18.58,18.58,0,0,1,0-13.4,15.45,15.45,0,0,1,8.68-8.71A17.36,17.36,0,0,1,282.47,190.28Zm0,25.59a8.08,8.08,0,0,0,3.1-.61,8,8,0,0,0,2.65-1.75A8.58,8.58,0,0,0,290,210.7a10.91,10.91,0,0,0,0-7.53,8.37,8.37,0,0,0-1.82-2.81,8,8,0,0,0-2.65-1.76,8.26,8.26,0,0,0-3.1-.6,8.18,8.18,0,0,0-3.12.6,8.06,8.06,0,0,0-2.62,1.76,8.22,8.22,0,0,0-1.82,2.81,10.91,10.91,0,0,0,0,7.53,8.42,8.42,0,0,0,1.82,2.81,8,8,0,0,0,5.74,2.36Z" transform="translate(-222.55 -176.36)"/><path class="cls-1" d="M318.47,176.87h8.36V189.7l-.51,5.68h.51a10.35,10.35,0,0,1,3.86-3.67,11.16,11.16,0,0,1,5.64-1.43q6.07,0,9,3.57t2.91,9.76v19h-8.36V204.63a7.13,7.13,0,0,0-1.54-4.94A5.45,5.45,0,0,0,334,198a6.3,6.3,0,0,0-3.07.73,6.88,6.88,0,0,0-2.26,2,9.28,9.28,0,0,0-1.41,3,13.55,13.55,0,0,0-.47,3.6v15.26h-8.36Z" transform="translate(-222.55 -176.36)"/><path class="cls-1" d="M374.05,219.25h-.51a14.16,14.16,0,0,1-3.54,3.06,10,10,0,0,1-5.33,1.28,12.94,12.94,0,0,1-4.56-.8,11.81,11.81,0,0,1-3.74-2.2,9.82,9.82,0,0,1-2.48-3.38,10.38,10.38,0,0,1-.9-4.34,9.71,9.71,0,0,1,1-4.37,9.87,9.87,0,0,1,2.68-3.35,12.06,12.06,0,0,1,4.05-2.14,16.81,16.81,0,0,1,5.08-.74,21.93,21.93,0,0,1,5,.48,24.44,24.44,0,0,1,3.25,1v-1a5.08,5.08,0,0,0-2-4.11,7.44,7.44,0,0,0-4.91-1.63,9.18,9.18,0,0,0-7.34,3.64l-6.06-4.15q5-6.25,13.59-6.25,7.27,0,11.11,3.41t3.82,10.11v18.77h-8.23Zm0-9.38a17.52,17.52,0,0,0-3-1.12,13.12,13.12,0,0,0-3.41-.41,7.23,7.23,0,0,0-4.63,1.3,4,4,0,0,0-1.63,3.23,3.61,3.61,0,0,0,1.57,3.06,5.88,5.88,0,0,0,3.6,1.15,7.77,7.77,0,0,0,5.46-2.2,7.12,7.12,0,0,0,2.07-5Z" transform="translate(-222.55 -176.36)"/><path class="cls-1" d="M398.11,221,385,191.3h9.51l7.92,18.95h.44l7.6-18.95h9.32l-19.6,45h-9Z" transform="translate(-222.55 -176.36)"/><path class="cls-1" d="M450,223.59a17.84,17.84,0,0,1-5.45-.77,15,15,0,0,1-4.15-2,13.09,13.09,0,0,1-3-2.87,13.78,13.78,0,0,1-1.85-3.29l7.47-3.19a8.07,8.07,0,0,0,2.9,3.61,7.24,7.24,0,0,0,4.05,1.18,6.88,6.88,0,0,0,3.64-.83,2.34,2.34,0,0,0,1.34-2,2.43,2.43,0,0,0-1.12-2.07,11.63,11.63,0,0,0-3.86-1.44l-4.4-1a15,15,0,0,1-3-1,11.72,11.72,0,0,1-2.84-1.78,9.33,9.33,0,0,1-2.11-2.62,7.41,7.41,0,0,1-.83-3.57,8.28,8.28,0,0,1,1-4.09,9.25,9.25,0,0,1,2.72-3,12.65,12.65,0,0,1,4.05-1.91,17.9,17.9,0,0,1,5-.67,17.59,17.59,0,0,1,8,1.75,10.78,10.78,0,0,1,5.17,5.58l-7.21,2.94a5.53,5.53,0,0,0-2.61-2.68,7.94,7.94,0,0,0-3.45-.83,6.55,6.55,0,0,0-3.13.73,2.17,2.17,0,0,0-1.34,1.89,1.92,1.92,0,0,0,1.12,1.72,12.6,12.6,0,0,0,3,1.15l4.79,1.15a13.77,13.77,0,0,1,7.11,3.67,8.67,8.67,0,0,1,1.38,9.86,10.42,10.42,0,0,1-2.72,3.28,13.15,13.15,0,0,1-4.21,2.27A17.09,17.09,0,0,1,450,223.59Z" transform="translate(-222.55 -176.36)"/><path class="cls-1" d="M483.56,190.28a17.37,17.37,0,0,1,6.67,1.24,15.53,15.53,0,0,1,8.68,8.71,18.72,18.72,0,0,1,0,13.4,15.45,15.45,0,0,1-8.68,8.71,18.42,18.42,0,0,1-13.34,0,15.45,15.45,0,0,1-8.68-8.71,18.72,18.72,0,0,1,0-13.4,15.61,15.61,0,0,1,3.45-5.26,15.79,15.79,0,0,1,5.23-3.45A17.41,17.41,0,0,1,483.56,190.28Zm0,25.59a8.12,8.12,0,0,0,3.1-.61,7.81,7.81,0,0,0,2.64-1.75,8.27,8.27,0,0,0,1.82-2.81,10.91,10.91,0,0,0,0-7.53,8.08,8.08,0,0,0-1.82-2.81,7.84,7.84,0,0,0-2.64-1.76,8.3,8.3,0,0,0-3.1-.6,8.19,8.19,0,0,0-3.13.6,8,8,0,0,0-2.61,1.76,8.22,8.22,0,0,0-1.82,2.81,10.91,10.91,0,0,0,0,7.53,8.42,8.42,0,0,0,1.82,2.81,8,8,0,0,0,5.74,2.36Z" transform="translate(-222.55 -176.36)"/><path class="cls-1" d="M505.2,222.57v-45.7h8.36v45.7Z" transform="translate(-222.55 -176.36)"/><path class="cls-1" d="M525.36,187.08a5.32,5.32,0,0,1-5.36-5.36,5.18,5.18,0,0,1,.42-2.1,5.28,5.28,0,0,1,1.15-1.69,5.1,5.1,0,0,1,1.72-1.15,5.41,5.41,0,0,1,5.9,1.15,5.3,5.3,0,0,1,0,7.59A5.28,5.28,0,0,1,525.36,187.08Zm-4.15,35.49V191.3h8.36v31.27Z" transform="translate(-222.55 -176.36)"/><path class="cls-1" d="M566.59,214.59a17.48,17.48,0,0,1-5.71,6.48,15.82,15.82,0,0,1-9.16,2.52,17.38,17.38,0,0,1-6.67-1.25,15.44,15.44,0,0,1-5.23-3.47,16.17,16.17,0,0,1-3.45-5.27,17.37,17.37,0,0,1-1.24-6.67,17.64,17.64,0,0,1,1.24-6.7,15.53,15.53,0,0,1,8.68-8.71,17.37,17.37,0,0,1,6.67-1.24,16,16,0,0,1,9.12,2.48,14.75,14.75,0,0,1,5.43,6.45l-7.66,3.19a8.28,8.28,0,0,0-2.78-3.29,7.55,7.55,0,0,0-4.24-1.11,7.69,7.69,0,0,0-3.13.64,8,8,0,0,0-2.58,1.78,8.19,8.19,0,0,0-1.76,2.81,11.18,11.18,0,0,0,0,7.4,8.1,8.1,0,0,0,1.76,2.81,8,8,0,0,0,2.58,1.79,7.86,7.86,0,0,0,3.13.64,8.08,8.08,0,0,0,4.44-1.18,8.25,8.25,0,0,0,2.9-3.42Z" transform="translate(-222.55 -176.36)"/><path class="cls-1" d="M576.35,187.08a5.32,5.32,0,0,1-5.36-5.36,5.18,5.18,0,0,1,.42-2.1,5.28,5.28,0,0,1,1.15-1.69,5.1,5.1,0,0,1,1.72-1.15,5.41,5.41,0,0,1,5.9,1.15,5.3,5.3,0,0,1,0,7.59A5.28,5.28,0,0,1,576.35,187.08Zm-4.15,35.49V191.3h8.36v31.27Z" transform="translate(-222.55 -176.36)"/><path class="cls-1" d="M591.35,198.44h-5.49V191.3h5.49v-9.58h8.36v9.58h7.66v7.14h-7.66v12.5a8.94,8.94,0,0,0,.22,2.07,3.4,3.4,0,0,0,.86,1.61,3.15,3.15,0,0,0,2.56,1,5.32,5.32,0,0,0,1.72-.22,5.46,5.46,0,0,0,1.21-.6l2.36,7.33a13.9,13.9,0,0,1-3.15,1.06,18.8,18.8,0,0,1-3.74.35,11.36,11.36,0,0,1-4.24-.75,9,9,0,0,1-3.16-2.05q-3-2.94-3-8.34Z" transform="translate(-222.55 -176.36)"/><path class="cls-1" d="M635.13,218.48h-.51a10.62,10.62,0,0,1-4,3.74,11.61,11.61,0,0,1-5.68,1.37q-5.94,0-8.84-3.64t-2.9-9.7V191.3h8.36v17.93a7.21,7.21,0,0,0,1.5,5,5.67,5.67,0,0,0,4.37,1.63,6.07,6.07,0,0,0,3-.74,7.17,7.17,0,0,0,2.24-2,9.05,9.05,0,0,0,1.4-2.93,13.18,13.18,0,0,0,.48-3.61V191.3H643v31.27h-7.85Z" transform="translate(-222.55 -176.36)"/><path class="cls-1" d="M673.1,218.8h-.51a9.5,9.5,0,0,1-3.57,3.38,11.79,11.79,0,0,1-6,1.41,13.5,13.5,0,0,1-5.71-1.25,15.19,15.19,0,0,1-4.79-3.44,16.52,16.52,0,0,1-3.29-5.27,19.15,19.15,0,0,1,0-13.4,16.36,16.36,0,0,1,3.29-5.26,15.22,15.22,0,0,1,4.79-3.45,13.49,13.49,0,0,1,5.71-1.24,11.79,11.79,0,0,1,6,1.4,9.57,9.57,0,0,1,3.57,3.38h.51l-.51-4.47V176.87H681v45.7H673.1Zm-8.36-2.93a8.23,8.23,0,0,0,3.16-.61,8,8,0,0,0,2.65-1.75,9,9,0,0,0,1.85-2.81,10.48,10.48,0,0,0,0-7.53,8.75,8.75,0,0,0-1.85-2.81,8,8,0,0,0-2.65-1.76,8.42,8.42,0,0,0-3.16-.6,7.9,7.9,0,0,0-3.16.64,8.35,8.35,0,0,0-2.65,1.78,8.86,8.86,0,0,0-1.85,2.81,10.13,10.13,0,0,0,0,7.4,8.75,8.75,0,0,0,1.85,2.81,8.38,8.38,0,0,0,2.65,1.79A8.07,8.07,0,0,0,664.74,215.87Z" transform="translate(-222.55 -176.36)"/><path class="cls-1" d="M717.39,215a17.59,17.59,0,0,1-5.84,6.19,16.26,16.26,0,0,1-9,2.36,17.2,17.2,0,0,1-6.6-1.25,15.64,15.64,0,0,1-8.74-8.74,18,18,0,0,1,0-13.08,16.21,16.21,0,0,1,8.52-8.9,15.63,15.63,0,0,1,6.55-1.34,17,17,0,0,1,6.7,1.24,13.71,13.71,0,0,1,4.91,3.45,14.73,14.73,0,0,1,3,5.2,20.1,20.1,0,0,1,1,6.51v.76a4.62,4.62,0,0,0-.06.7,3.17,3.17,0,0,0-.07.71H694.22a8.8,8.8,0,0,0,1.06,3.28,7.89,7.89,0,0,0,2,2.3,7.57,7.57,0,0,0,2.58,1.34,10,10,0,0,0,2.87.42,8.17,8.17,0,0,0,4.76-1.31,9.52,9.52,0,0,0,3-3.29Zm-7.59-12.13a5.61,5.61,0,0,0-.55-1.85,6.38,6.38,0,0,0-1.4-1.91,7.21,7.21,0,0,0-2.3-1.47,8.51,8.51,0,0,0-3.28-.58,7.62,7.62,0,0,0-4.73,1.54,8.05,8.05,0,0,0-2.87,4.27Z" transform="translate(-222.55 -176.36)"/><path class="cls-1" d="M736,223.59a18,18,0,0,1-5.46-.77,15,15,0,0,1-4.14-2,13.09,13.09,0,0,1-3-2.87,13.44,13.44,0,0,1-1.85-3.29l7.46-3.19a8.15,8.15,0,0,0,2.91,3.61,7.24,7.24,0,0,0,4.05,1.18,6.91,6.91,0,0,0,3.64-.83,2.36,2.36,0,0,0,1.34-2,2.43,2.43,0,0,0-1.12-2.07,11.63,11.63,0,0,0-3.86-1.44l-4.4-1a15,15,0,0,1-3-1,11.53,11.53,0,0,1-2.84-1.78,9,9,0,0,1-2.11-2.62,7.41,7.41,0,0,1-.83-3.57,8.28,8.28,0,0,1,1-4.09,9.21,9.21,0,0,1,2.71-3,12.86,12.86,0,0,1,4-1.91,18,18,0,0,1,5-.67,17.6,17.6,0,0,1,8,1.75,10.82,10.82,0,0,1,5.17,5.58l-7.21,2.94a5.55,5.55,0,0,0-2.62-2.68,7.9,7.9,0,0,0-3.44-.83,6.52,6.52,0,0,0-3.13.73,2.17,2.17,0,0,0-1.34,1.89,1.92,1.92,0,0,0,1.12,1.72,12.6,12.6,0,0,0,3,1.15l4.78,1.15a13.8,13.8,0,0,1,7.12,3.67,8.51,8.51,0,0,1,2.33,6,8.36,8.36,0,0,1-1,3.9,10.39,10.39,0,0,1-2.71,3.28,13.15,13.15,0,0,1-4.21,2.27A17.09,17.09,0,0,1,736,223.59Z" transform="translate(-222.55 -176.36)"/><rect id="Rectángulo_1" data-name="Rectángulo 1" class="cls-2" x="266.37" y="127.56" width="7.18" height="47.09"/><path id="Rectángulo_2" data-name="Rectángulo 2" class="cls-3" d="M466.92,346.07h51.19a5.8,5.8,0,0,1,5.8,5.8v19.35a5.8,5.8,0,0,1-5.8,5.8H466.92a5.8,5.8,0,0,1-5.8-5.8V351.87A5.8,5.8,0,0,1,466.92,346.07Z" transform="translate(-222.55 -176.36)"/><path id="Rectángulo_3" data-name="Rectángulo 3" class="cls-4" d="M458.5,360.87h68a78.33,78.33,0,0,1,78.33,78.33v14.21a78.33,78.33,0,0,1-78.33,78.32h-68a78.33,78.33,0,0,1-78.33-78.32V439.2A78.33,78.33,0,0,1,458.5,360.87Z" transform="translate(-222.55 -176.36)"/><path id="Trazado_4" data-name="Trazado 4" class="cls-5" d="M415.51,475h0a21.78,21.78,0,0,0,9.58,2.22H559.91a21.78,21.78,0,0,0,9.58-2.22h0c7.21-3.57,11.3-10.77,10.27-18.17l-.07-.54c-3.46-25-26.14-44.3-54-45.75-11.77-.61-24.11-.92-37-.85q-15.13.09-29.24.84c-27.92,1.44-50.77,20.62-54.23,45.76l-.08.54C404.21,464.26,408.29,471.46,415.51,475Z" transform="translate(-222.55 -176.36)"/><g id="Grupo_8" data-name="Grupo 8"><circle id="Elipse_11" data-name="Elipse 11" class="cls-6" cx="305.5" cy="269.94" r="25.42"/><g id="Grupo_3" data-name="Grupo 3"><circle id="Elipse_12" data-name="Elipse 12" class="cls-7" cx="305.5" cy="269.94" r="18.25"/></g><g id="Grupo_4" data-name="Grupo 4"><circle id="Elipse_13" data-name="Elipse 13" class="cls-8" cx="305.5" cy="269.94" r="15.33"/></g><g id="Grupo_5" data-name="Grupo 5"><path id="Trazado_5" data-name="Trazado 5" class="cls-7" d="M518.22,442.33a5.7,5.7,0,1,0,5.72-5.68h0A5.71,5.71,0,0,0,518.22,442.33Z" transform="translate(-222.55 -176.36)"/></g><g id="Grupo_6" data-name="Grupo 6"><circle id="Elipse_14" data-name="Elipse 14" class="cls-7" cx="307.76" cy="281.69" r="2.26"/></g><g id="Grupo_7" data-name="Grupo 7"><path id="Trazado_6" data-name="Trazado 6" class="cls-7" d="M535.93,454.66a1.14,1.14,0,0,0,1.14,1.14h0a1.14,1.14,0,0,0,1.14-1.14h0a1.14,1.14,0,0,0-1.14-1.14h0A1.14,1.14,0,0,0,535.93,454.66Z" transform="translate(-222.55 -176.36)"/></g></g><g id="Grupo_14" data-name="Grupo 14"><circle id="Elipse_15" data-name="Elipse 15" class="cls-9" cx="236.81" cy="269.94" r="25.42"/><g id="Grupo_9" data-name="Grupo 9"><circle id="Elipse_16" data-name="Elipse 16" class="cls-7" cx="236.81" cy="269.94" r="18.25"/></g><g id="Grupo_10" data-name="Grupo 10"><circle id="Elipse_17" data-name="Elipse 17" class="cls-10" cx="236.81" cy="269.94" r="15.33"/></g><g id="Grupo_11" data-name="Grupo 11"><path id="Trazado_7" data-name="Trazado 7" class="cls-7" d="M449.54,442.33a5.7,5.7,0,1,0,5.72-5.68h0A5.71,5.71,0,0,0,449.54,442.33Z" transform="translate(-222.55 -176.36)"/></g><g id="Grupo_12" data-name="Grupo 12"><circle id="Elipse_18" data-name="Elipse 18" class="cls-7" cx="239.08" cy="281.69" r="2.26"/></g><g id="Grupo_13" data-name="Grupo 13"><path id="Trazado_8" data-name="Trazado 8" class="cls-7" d="M467.25,454.66a1.13,1.13,0,0,0,1.14,1.14h0a1.13,1.13,0,0,0,1.13-1.14h0a1.13,1.13,0,0,0-1.13-1.14h0A1.13,1.13,0,0,0,467.25,454.66Z" transform="translate(-222.55 -176.36)"/></g></g><path id="Trazado_9" data-name="Trazado 9" class="cls-11" d="M483.32,300.78A9.18,9.18,0,0,0,492.5,310h0a9.19,9.19,0,0,0,0-18.38h0a9.2,9.2,0,0,0-9.2,9.19Z" transform="translate(-222.55 -176.36)"/><path id="Trazado_10" data-name="Trazado 10" class="cls-12" d="M480.55,290.11a2.37,2.37,0,0,0,4.73,0,2.35,2.35,0,0,0-2.36-2.37h0a2.36,2.36,0,0,0-2.37,2.36Z" transform="translate(-222.55 -176.36)"/><path id="Trazado_11" data-name="Trazado 11" class="cls-12" d="M424.45,394.05c-.12,4.29,3.39,9.43,7.4,9.88,3.76.41,6.77-3.42,9.88-7.4s9.73-13.94,7.07-16.78C445.28,376,424.74,383.92,424.45,394.05Z" transform="translate(-222.55 -176.36)"/><circle id="Elipse_19" data-name="Elipse 19" class="cls-12" cx="236.27" cy="198.13" r="3.19"/><path id="Trazado_12" data-name="Trazado 12" class="cls-12" d="M413.81,449.89c1,.72,8.17-13.84,27.34-26.46,6.74-4.43,13.4-7.59,13-8.52s-7.9.81-13.91,3.59C421.14,427.37,412.59,449,413.81,449.89Z" transform="translate(-222.55 -176.36)"/><path id="Trazado_13" data-name="Trazado 13" class="cls-12" d="M462.93,355.23c.23,0,.38-1.31,1.49-3.38a20.8,20.8,0,0,1,1.12-1.8c1.93-2.66,8.46-2.59,9-2.59,10.17.09,16.71-.55,16.71-.49s-4.77-.05-8.26-.12c-9.88-.2-15.74-.73-18.25,1.9a8.34,8.34,0,0,0-1.57,2.52C462.42,353.23,462.66,355.2,462.93,355.23Z" transform="translate(-222.55 -176.36)"/><path id="Trazado_14" data-name="Trazado 14" class="cls-7" d="M465.05,488.16a5.18,5.18,0,0,0,4.71,4.55L503.44,496a5.18,5.18,0,0,0,5.5-3.56,23.42,23.42,0,0,0,.72-3.22,1.09,1.09,0,0,0-.22-.85,1.16,1.16,0,0,0-.79-.43l-42.48-4.11a1.12,1.12,0,0,0-1.22,1v.05A21.54,21.54,0,0,0,465.05,488.16Z" transform="translate(-222.55 -176.36)"/><path id="Trazado_15" data-name="Trazado 15" class="cls-13" d="M465,488.16a22.49,22.49,0,0,0,43.76,4.64,5.2,5.2,0,0,1-5.36,3.15l-33.69-3.24A5.22,5.22,0,0,1,465,488.16Z" transform="translate(-222.55 -176.36)"/><path id="Trazado_16" data-name="Trazado 16" class="cls-14" d="M412,563.8v.89a20.57,20.57,0,0,0,1.09,5.91c9.27,28.32,14.81,43.25,22.62,55.33C437,628,438.45,630,440,632c2,2.63,4.18,5.18,6.59,7.82,5.39,5.86,13.53,8.51,16.15,9.42,9.59,3.39,18.07,2.77,23.71,2.83h1c5.65-.06,14.11.56,23.7-2.83,2.62-.91,10.78-3.56,16.14-9.42,14.81-16.1,20.51-29.49,33.49-69.2a21,21,0,0,0,1.08-5.54q0-1.15,0-2.31a24.16,24.16,0,0,0-5.63-13.67,31.16,31.16,0,0,0-24.24-11.33l-45.06-.18-44.21-.16a31.91,31.91,0,0,0-24.88,11.36,24.72,24.72,0,0,0-5.49,11.43c-.09.56-.17,1.14-.23,1.71S412,563.16,412,563.8Z" transform="translate(-222.55 -176.36)"/><path id="Trazado_17" data-name="Trazado 17" class="cls-15" d="M486.91,537.59l45.06.18a31.16,31.16,0,0,1,24.24,11.33,24.16,24.16,0,0,1,5.63,13.67,23.9,23.9,0,0,0-5.8-14,31.94,31.94,0,0,0-24.88-11.36Z" transform="translate(-222.55 -176.36)"/><path id="Trazado_18" data-name="Trazado 18" class="cls-16" d="M442.13,604c.66-34.94,5.39-41.87-1.59-50.18a20.49,20.49,0,0,0-11.62-7.07,19.54,19.54,0,0,0-12.53,2c-14,7.93-9.83,42.28-.62,64,2,4.73,7.39,17.41,14,17.09,2.7-.13,4.68-2.39,6.08-4C442,618.57,442,609.24,442.13,604Z" transform="translate(-222.55 -176.36)"/><path id="Trazado_19" data-name="Trazado 19" class="cls-17" d="M435.7,625.93C437.05,628,438.46,630,440,632c.49-.49.91-1,1.3-1.45,6.17-7.21,6.23-16.55,6.32-21.82.67-34.94,5.4-41.85-1.58-50.17a21.85,21.85,0,0,0-5.42-4.68c6.89,8.29,2.19,15.25,1.52,50.1-.1,5.28-.18,14.61-6.33,21.83A.67.67,0,0,0,435.7,625.93Z" transform="translate(-222.55 -176.36)"/><path id="Trazado_20" data-name="Trazado 20" class="cls-12" d="M416,574.86c.2-3.75.9-6.52,2.31-12,1.84-7.21,4.16-10.75,2.66-12.15-1-.91-2.9-.3-3.34-.16-6.6,2.11-8.65,14.5-8.35,22.26.17,4.75,1.33,10.06,3.07,10.29a2,2,0,0,0,1.45-.43C415.7,580.92,415.83,577.72,416,574.86Z" transform="translate(-222.55 -176.36)"/><path id="Trazado_21" data-name="Trazado 21" class="cls-12" d="M411.44,588.12a1.38,1.38,0,0,0,2.75,0h0a1.39,1.39,0,0,0-1.38-1.38h0a1.38,1.38,0,0,0-1.37,1.37Z" transform="translate(-222.55 -176.36)"/><path class="cls-18" d="M455.92,479.25a.18.18,0,0,1-.17-.13c-.11-.42-.18-.65-.18-.65a.15.15,0,0,1,0-.13.16.16,0,0,1,.1-.08l.69-.17a.17.17,0,0,1,.22.11.17.17,0,0,1-.11.21h0l-.52.13c0,.12.08.28.14.5a.17.17,0,0,1-.13.2h-.05Z" transform="translate(-222.55 -176.36)"/><path class="cls-18" d="M532.24,479.77h0a.17.17,0,0,1-.16-.17h0l.06-.51-.54-.07a.16.16,0,0,1-.15-.18h0a.17.17,0,0,1,.2-.14l.7.08a.17.17,0,0,1,.16.19l-.07.67A.18.18,0,0,1,532.24,479.77Z" transform="translate(-222.55 -176.36)"/><path class="cls-18" d="M530.24,516.93a.19.19,0,0,1-.16-.09.16.16,0,0,1,.07-.22h0l.5-.27-.15-.54a.17.17,0,0,1,.12-.2h0a.18.18,0,0,1,.22.12h0c.06.22.11.44.17.65a.16.16,0,0,1-.07.19l-.62.35Z" transform="translate(-222.55 -176.36)"/><path id="Trazado_18-2" data-name="Trazado 18" class="cls-19" d="M537.44,625.58c1.41,1.63,3.38,3.89,6.08,4,6.57.32,12-12.37,14-17.09,9.22-21.69,13.37-56-.62-64a19.59,19.59,0,0,0-12.53-2,20.54,20.54,0,0,0-11.62,7.08c-7,8.31-2.25,15.23-1.59,50.17C531.22,609,531.29,618.38,537.44,625.58Z" transform="translate(-222.55 -176.36)"/><path id="Trazado_20-2" data-name="Trazado 20" class="cls-12" d="M559.48,582.44a2,2,0,0,0,1.44.43c1.74-.24,2.9-5.54,3.08-10.3.29-7.75-1.75-20.15-8.36-22.25-.43-.14-2.36-.76-3.34.16-1.49,1.4.82,4.93,2.66,12.15,1.42,5.52,2.12,8.28,2.32,12C557.42,577.52,557.56,580.73,559.48,582.44Z" transform="translate(-222.55 -176.36)"/><path id="Trazado_21-2" data-name="Trazado 21" class="cls-12" d="M561.81,587.92a1.37,1.37,0,0,0-1.37-1.37h0a1.37,1.37,0,0,0-1.37,1.37h0a1.37,1.37,0,1,0,2.74,0Z" transform="translate(-222.55 -176.36)"/><path class="cls-20" d="M261.84,733.52h15.44a27.13,27.13,0,0,1,9.77,1.66,21,21,0,0,1,7.4,4.69,20.31,20.31,0,0,1,4.69,7.24,27.26,27.26,0,0,1,0,18.57,20,20,0,0,1-4.69,7.21,21.21,21.21,0,0,1-7.4,4.66,27.13,27.13,0,0,1-9.77,1.66H261.84ZM276.9,771a19.32,19.32,0,0,0,6.64-1,12.86,12.86,0,0,0,4.78-3,12.11,12.11,0,0,0,2.88-4.63,19.61,19.61,0,0,0,0-12.06,12.15,12.15,0,0,0-2.88-4.62,12.86,12.86,0,0,0-4.78-3,19.32,19.32,0,0,0-6.64-1h-6.45V771Z" transform="translate(-222.55 -176.36)"/><path class="cls-20" d="M311.36,743.73a5.45,5.45,0,0,1-3.8-1.57,5.43,5.43,0,0,1-1.14-5.9,5.25,5.25,0,0,1,1.14-1.69,5.4,5.4,0,0,1,1.73-1.15,5.46,5.46,0,0,1,5.9,1.15,5.3,5.3,0,0,1,0,7.59A5.25,5.25,0,0,1,311.36,743.73Zm-4.15,35.48V747.94h8.36v31.27Z" transform="translate(-222.55 -176.36)"/><path class="cls-20" d="M342.19,775.89h-.52a13.85,13.85,0,0,1-3.54,3.07,10,10,0,0,1-5.33,1.27,12.79,12.79,0,0,1-4.56-.8,11.65,11.65,0,0,1-3.73-2.2,9.63,9.63,0,0,1-2.49-3.38,10.37,10.37,0,0,1-.89-4.34,9.74,9.74,0,0,1,.95-4.37,9.87,9.87,0,0,1,2.68-3.35,12,12,0,0,1,4.06-2.14,16.75,16.75,0,0,1,5.07-.73,21.93,21.93,0,0,1,5,.48,23.78,23.78,0,0,1,3.26,1v-1a5.12,5.12,0,0,0-2-4.12,7.52,7.52,0,0,0-4.92-1.63,9.2,9.2,0,0,0-7.34,3.64l-6.06-4.15q5-6.25,13.59-6.25,7.27,0,11.11,3.41t3.83,10.12v18.76h-8.23Zm0-9.38a17.32,17.32,0,0,0-3-1.12,13.56,13.56,0,0,0-3.41-.41,7.25,7.25,0,0,0-4.63,1.31,4,4,0,0,0-1.62,3.22,3.6,3.6,0,0,0,1.56,3.06,5.88,5.88,0,0,0,3.6,1.15,7.61,7.61,0,0,0,5.46-2.2,6.91,6.91,0,0,0,1.53-2.3A7,7,0,0,0,342.19,766.51Z" transform="translate(-222.55 -176.36)"/><path class="cls-20" d="M357.05,747.94h7.85V752h.51a11,11,0,0,1,4-3.7,11.37,11.37,0,0,1,5.59-1.4,10.36,10.36,0,0,1,6,1.66,9.32,9.32,0,0,1,3.44,4.08,12.88,12.88,0,0,1,4.15-4,12,12,0,0,1,6.51-1.69,12.47,12.47,0,0,1,5,.92,9.35,9.35,0,0,1,3.48,2.59,11.45,11.45,0,0,1,2.07,4,17.41,17.41,0,0,1,.7,5.07v19.72H398V761q0-6.37-5.23-6.38a5.78,5.78,0,0,0-2.94.74,6.36,6.36,0,0,0-2.13,2,9.66,9.66,0,0,0-1.35,3,14.15,14.15,0,0,0-.47,3.7v15.19h-8.36V761q0-6.37-5.49-6.38a5.31,5.31,0,0,0-2.81.74,6.28,6.28,0,0,0-2,2,9.59,9.59,0,0,0-1.28,3,14.6,14.6,0,0,0-.45,3.7v15.19h-8.36Z" transform="translate(-222.55 -176.36)"/><path class="cls-20" d="M417.87,743.73a5.25,5.25,0,0,1-2.07-.42,5.1,5.1,0,0,1-1.72-1.15,5.41,5.41,0,0,1-1.15-5.9,5.42,5.42,0,0,1,8.77-1.69,5.3,5.3,0,0,1,0,7.59A5.25,5.25,0,0,1,417.87,743.73Zm-4.15,35.48V747.94h8.36v31.27Z" transform="translate(-222.55 -176.36)"/><path class="cls-20" d="M447.23,755.09h-5.49v-7.15h5.49v-9.57h8.36v9.57h7.66v7.15h-7.66v12.49a9.09,9.09,0,0,0,.22,2.08,3.45,3.45,0,0,0,.86,1.61,3.18,3.18,0,0,0,2.56,1.05,5.07,5.07,0,0,0,1.72-.23,5.25,5.25,0,0,0,1.21-.6l2.36,7.34a13.49,13.49,0,0,1-3.16,1,18.62,18.62,0,0,1-3.73.35,11.36,11.36,0,0,1-4.24-.75,9,9,0,0,1-3.16-2.05q-3-2.92-3-8.34Z" transform="translate(-222.55 -176.36)"/><path class="cls-20" d="M498.67,771.68a17.6,17.6,0,0,1-5.84,6.19,16.29,16.29,0,0,1-9,2.36,17.25,17.25,0,0,1-6.61-1.24,15.78,15.78,0,0,1-8.74-8.75,17.36,17.36,0,0,1-1.24-6.66,17.08,17.08,0,0,1,1.21-6.42,16.12,16.12,0,0,1,8.52-8.9,15.77,15.77,0,0,1,6.54-1.34,17,17,0,0,1,6.7,1.24,13.66,13.66,0,0,1,4.92,3.45,15,15,0,0,1,3,5.2,19.84,19.84,0,0,1,1,6.51v.77a3.6,3.6,0,0,0-.07.7,3.73,3.73,0,0,0-.06.7H475.5a8.85,8.85,0,0,0,1.05,3.29,7.85,7.85,0,0,0,2,2.29,7.53,7.53,0,0,0,2.59,1.34,9.92,9.92,0,0,0,2.87.42,8.14,8.14,0,0,0,4.75-1.31,9.45,9.45,0,0,0,3-3.29Zm-7.6-12.13a5.34,5.34,0,0,0-.54-1.85,6.55,6.55,0,0,0-1.41-1.91,7.34,7.34,0,0,0-2.29-1.47,8.57,8.57,0,0,0-3.29-.57,7.65,7.65,0,0,0-4.72,1.53,8.09,8.09,0,0,0-2.87,4.27Z" transform="translate(-222.55 -176.36)"/><path class="cls-20" d="M537.85,775.89h-.51A14.2,14.2,0,0,1,533.8,779a10.06,10.06,0,0,1-5.33,1.27,12.81,12.81,0,0,1-4.57-.8,11.76,11.76,0,0,1-3.73-2.2,9.88,9.88,0,0,1-2.49-3.38,10.37,10.37,0,0,1-.89-4.34,9.64,9.64,0,0,1,3.64-7.72,11.88,11.88,0,0,1,4.05-2.14,16.75,16.75,0,0,1,5.07-.73,21.93,21.93,0,0,1,5,.48,23.36,23.36,0,0,1,3.26,1v-1a5.12,5.12,0,0,0-2-4.12,7.51,7.51,0,0,0-4.91-1.63,9.19,9.19,0,0,0-7.34,3.64l-6.07-4.15q5-6.25,13.6-6.25,7.27,0,11.1,3.41t3.83,10.12v18.76h-8.23Zm0-9.38a17.52,17.52,0,0,0-3-1.12,13.64,13.64,0,0,0-3.42-.41,7.2,7.2,0,0,0-4.62,1.31,4,4,0,0,0-1.63,3.22,3.6,3.6,0,0,0,1.56,3.06,5.91,5.91,0,0,0,3.61,1.15,7.73,7.73,0,0,0,3.06-.6,7.65,7.65,0,0,0,2.39-1.6,7.1,7.1,0,0,0,1.54-2.3A7,7,0,0,0,537.85,766.51Z" transform="translate(-222.55 -176.36)"/><path class="cls-20" d="M548.76,747.94h9.51l7.79,19.91h.44l7.85-19.91h9.45l-13.47,31.27H562.1Z" transform="translate(-222.55 -176.36)"/><path class="cls-20" d="M592.28,743.73a5.41,5.41,0,0,1-3.79-1.57,5.41,5.41,0,0,1-1.15-5.9,5.28,5.28,0,0,1,1.15-1.69,5.35,5.35,0,0,1,1.72-1.15,5.46,5.46,0,0,1,5.9,1.15,5.3,5.3,0,0,1,0,7.59A5.25,5.25,0,0,1,592.28,743.73Zm-4.14,35.48V747.94h8.36v31.27Z" transform="translate(-222.55 -176.36)"/><path class="cls-20" d="M616.54,780.23a17.88,17.88,0,0,1-5.46-.76,15,15,0,0,1-4.15-2,13.13,13.13,0,0,1-3-2.88,13.92,13.92,0,0,1-1.85-3.28l7.47-3.19a8,8,0,0,0,2.9,3.6,7.25,7.25,0,0,0,4.06,1.18,6.78,6.78,0,0,0,3.63-.83,2.34,2.34,0,0,0,1.34-2A2.44,2.44,0,0,0,620.4,768a11.62,11.62,0,0,0-3.86-1.43l-4.41-1a15,15,0,0,1-3-1,12.07,12.07,0,0,1-2.84-1.79,9.19,9.19,0,0,1-2.11-2.62,7.41,7.41,0,0,1-.83-3.57,8.27,8.27,0,0,1,1-4.08,9.18,9.18,0,0,1,2.72-3,12.86,12.86,0,0,1,4.05-1.91,17.9,17.9,0,0,1,5-.67,17.63,17.63,0,0,1,8,1.75,10.83,10.83,0,0,1,5.16,5.59L622,757.19a5.53,5.53,0,0,0-2.61-2.68,7.94,7.94,0,0,0-3.45-.83,6.44,6.44,0,0,0-3.13.74,2.15,2.15,0,0,0-1.34,1.88,1.93,1.93,0,0,0,1.12,1.72,12.77,12.77,0,0,0,3,1.15l4.79,1.15a13.84,13.84,0,0,1,7.11,3.67,8.67,8.67,0,0,1,1.38,9.86,10.57,10.57,0,0,1-2.72,3.29A13.33,13.33,0,0,1,622,779.4,16.8,16.8,0,0,1,616.54,780.23Z" transform="translate(-222.55 -176.36)"/><path class="cls-20" d="M654.57,775.89h-.51a14.2,14.2,0,0,1-3.54,3.07,10.06,10.06,0,0,1-5.33,1.27,12.81,12.81,0,0,1-4.57-.8,11.76,11.76,0,0,1-3.73-2.2,9.88,9.88,0,0,1-2.49-3.38,10.53,10.53,0,0,1-.89-4.34,9.64,9.64,0,0,1,3.64-7.72,12,12,0,0,1,4.05-2.14,16.75,16.75,0,0,1,5.07-.73,21.87,21.87,0,0,1,5,.48,23.36,23.36,0,0,1,3.26,1v-1a5.12,5.12,0,0,0-2-4.12,7.51,7.51,0,0,0-4.91-1.63,9.19,9.19,0,0,0-7.34,3.64l-6.07-4.15q5-6.25,13.6-6.25,7.27,0,11.1,3.41t3.83,10.12v18.76h-8.23Zm0-9.38a17.52,17.52,0,0,0-3-1.12,13.64,13.64,0,0,0-3.42-.41,7.2,7.2,0,0,0-4.62,1.31,4,4,0,0,0-1.63,3.22,3.6,3.6,0,0,0,1.56,3.06,5.91,5.91,0,0,0,3.61,1.15,7.61,7.61,0,0,0,5.45-2.2,7.1,7.1,0,0,0,1.54-2.3A7,7,0,0,0,654.57,766.51Z" transform="translate(-222.55 -176.36)"/><path class="cls-20" d="M669.44,747.94h7.85v4.34h.51a8,8,0,0,1,1.53-2.11,11.71,11.71,0,0,1,2.14-1.67,12,12,0,0,1,2.55-1.14,8.93,8.93,0,0,1,2.71-.44,10.15,10.15,0,0,1,2.84.35,7.2,7.2,0,0,1,2,.93l-2.23,7.46a8.41,8.41,0,0,0-1.69-.6,9.74,9.74,0,0,0-2.27-.23,7.07,7.07,0,0,0-3.12.68,6.91,6.91,0,0,0-2.4,1.89,8.86,8.86,0,0,0-1.53,2.85,11.31,11.31,0,0,0-.54,3.56v15.4h-8.36Z" transform="translate(-222.55 -176.36)"/><path class="cls-20" d="M713.41,775.89h-.51a14.2,14.2,0,0,1-3.54,3.07,10.06,10.06,0,0,1-5.33,1.27,12.81,12.81,0,0,1-4.57-.8,11.76,11.76,0,0,1-3.73-2.2,9.88,9.88,0,0,1-2.49-3.38,10.53,10.53,0,0,1-.89-4.34,9.74,9.74,0,0,1,1-4.37,9.87,9.87,0,0,1,2.68-3.35,12.06,12.06,0,0,1,4-2.14,16.75,16.75,0,0,1,5.07-.73,21.81,21.81,0,0,1,5,.48,23.36,23.36,0,0,1,3.26,1v-1a5.12,5.12,0,0,0-2-4.12,7.51,7.51,0,0,0-4.91-1.63,9.19,9.19,0,0,0-7.34,3.64l-6.06-4.15q5-6.25,13.59-6.25,7.27,0,11.1,3.41t3.83,10.12v18.76h-8.23Zm0-9.38a17.52,17.52,0,0,0-3-1.12A13.64,13.64,0,0,0,707,765a7.2,7.2,0,0,0-4.62,1.31,4,4,0,0,0-1.63,3.22,3.6,3.6,0,0,0,1.56,3.06,5.93,5.93,0,0,0,3.61,1.15,7.7,7.7,0,0,0,3.06-.6,7.54,7.54,0,0,0,2.39-1.6,7.1,7.1,0,0,0,1.54-2.3A7,7,0,0,0,713.41,766.51ZM704,741.69l2.68-8.68h9.77l-5.74,8.68Z" transform="translate(-222.55 -176.36)"/></svg>