<svg id="Capa_1" data-name="Capa 1" xmlns="http://www.w3.org/2000/svg" xmlns:xlink="http://www.w3.org/1999/xlink" viewBox="0 0 629.05 629.59"><defs><style>.cls-1,.cls-24{font-size:63.82px;font-family:ProductSans-Bold, Product Sans;font-weight:700;}.cls-1{fill:#008fd4;}.cls-2{letter-spacing:0em;}.cls-3{letter-spacing:-0.01em;}.cls-4{letter-spacing:-0.01em;}.cls-5{letter-spacing:0em;}.cls-6{fill:url(#Degradado_sin_nombre_15);}.cls-7{fill:url(#Degradado_sin_nombre_15-2);}.cls-8{opacity:0.62;isolation:isolate;fill:url(#Degradado_sin_nombre_15-3);}.cls-9{fill:url(#Degradado_sin_nombre_8);}.cls-10{fill:url(#Degradado_sin_nombre_7);}.cls-11{fill:#eefdff;}.cls-12{fill:url(#Degradado_sin_nombre_8-2);}.cls-13{fill:url(#Degradado_sin_nombre_7-2);}.cls-14{fill:url(#Degradado_sin_nombre_8-3);}.cls-15{fill:url(#Degradado_sin_nombre_15-4);}.cls-16{fill:#fff;}.cls-17{fill:url(#Degradado_sin_nombre_10);}.cls-18{fill:url(#Degradado_sin_nombre_11);}.cls-19{fill:url(#Degradado_sin_nombre_12);}.cls-20{fill:url(#Degradado_sin_nombre_15-5);}.cls-21{fill:url(#Degradado_sin_nombre_14);}.cls-22{fill:#bcbcbc;}.cls-23{fill:url(#Degradado_sin_nombre_15-6);}.cls-24{fill:#bf0066;}.cls-25{letter-spacing:0em;}.cls-26{letter-spacing:0em;}.cls-27{letter-spacing:0em;}.cls-28{letter-spacing:-0.02em;}</style><linearGradient id="Degradado_sin_nombre_15" x1="33.86" y1="996.58" x2="30.01" y2="996.66" gradientTransform="matrix(5.59, 0, 0, -36.67, 135.19, 36706.17)" gradientUnits="userSpaceOnUse"><stop offset="0" stop-color="#06cff1"/><stop offset="1" stop-color="#dcedf9"/></linearGradient><linearGradient id="Degradado_sin_nombre_15-2" x1="6.18" y1="992.75" x2="5.4" y2="994.54" gradientTransform="matrix(48.9, 0, 0, -24.1, 209.64, 24308.43)" xlink:href="#Degradado_sin_nombre_15"/><linearGradient id="Degradado_sin_nombre_15-3" x1="3.89" y1="999.32" x2="3.02" y2="1000.46" gradientTransform="matrix(174.97, 0, 0, -133.06, -105.54, 133498.95)" xlink:href="#Degradado_sin_nombre_15"/><linearGradient id="Degradado_sin_nombre_8" x1="3.68" y1="997.04" x2="3.67" y2="998.19" gradientTransform="matrix(136.17, 0, 0, -52.59, -8.55, 52912.99)" gradientUnits="userSpaceOnUse"><stop offset="0" stop-color="#030d14"/><stop offset="1" stop-color="#0b2f45"/></linearGradient><radialGradient id="Degradado_sin_nombre_7" cx="-1.75" cy="996.3" r="0.63" gradientTransform="translate(275.83 39730.95) rotate(180) scale(39.6)" gradientUnits="userSpaceOnUse"><stop offset="0.13" stop-color="#3280fc"/><stop offset="1"/></radialGradient><linearGradient id="Degradado_sin_nombre_8-2" x1="10.2" y1="993.01" x2="8.92" y2="993.01" gradientTransform="matrix(23.87, 0, 0, -23.87, 117.16, 23981.68)" xlink:href="#Degradado_sin_nombre_8"/><radialGradient id="Degradado_sin_nombre_7-2" cx="6.37" cy="996.3" r="0.63" gradientTransform="matrix(39.6, 0, 0, -39.6, 24.35, 39730.95)" xlink:href="#Degradado_sin_nombre_7"/><linearGradient id="Degradado_sin_nombre_8-3" x1="9.56" y1="993.01" x2="8.28" y2="993.01" gradientTransform="matrix(23.87, 0, 0, -23.87, 63.67, 23981.68)" xlink:href="#Degradado_sin_nombre_8"/><linearGradient id="Degradado_sin_nombre_15-4" x1="15.07" y1="989.18" x2="13.07" y2="989.47" gradientTransform="matrix(14.32, 0, 0, -14.32, 296.08, 14468.6)" xlink:href="#Degradado_sin_nombre_15"/><linearGradient id="Degradado_sin_nombre_10" x1="7.4" y1="987.75" x2="6.12" y2="990.54" gradientTransform="matrix(34.07, 0, 0, -15.7, 242.35, 16009.36)" gradientUnits="userSpaceOnUse"><stop offset="0" stop-color="#3f88ad"/><stop offset="1" stop-color="#3487c4"/></linearGradient><linearGradient id="Degradado_sin_nombre_11" x1="4.27" y1="998.37" x2="3.27" y2="999.89" gradientTransform="matrix(116.71, 0, 0, -89.29, 35.75, 89777.17)" gradientUnits="userSpaceOnUse"><stop offset="0" stop-color="#3a68ab"/><stop offset="0.05" stop-color="#316fb0"/><stop offset="0.24" stop-color="#1686c0"/><stop offset="0.41" stop-color="#0594ca"/><stop offset="0.54" stop-color="#0099ce"/><stop offset="0.66" stop-color="#2ba8d6"/><stop offset="0.92" stop-color="#99cfed"/><stop offset="1" stop-color="#bcdcf4"/></linearGradient><linearGradient id="Degradado_sin_nombre_12" x1="5.68" y1="989.33" x2="4.49" y2="993.46" gradientTransform="matrix(58.35, 0, 0, -19.74, 210.83, 20097.02)" gradientUnits="userSpaceOnUse"><stop offset="0.04" stop-color="#06cff1"/><stop offset="1" stop-color="#defa8e"/></linearGradient><linearGradient id="Degradado_sin_nombre_15-5" x1="-33.51" y1="1007.41" x2="-36.83" y2="1008.18" gradientTransform="matrix(28.79, 0, 0, -64.93, 207.97, 65381.04)" xlink:href="#Degradado_sin_nombre_15"/><linearGradient id="Degradado_sin_nombre_14" x1="18.4" y1="997.35" x2="12.78" y2="997.88" gradientTransform="matrix(10.97, 0, 0, -60.84, 265.7, 61285.87)" gradientUnits="userSpaceOnUse"><stop offset="0" stop-color="#06cff1"/><stop offset="1" stop-color="#0074a2"/></linearGradient><linearGradient id="Degradado_sin_nombre_15-6" x1="-19" y1="1007.41" x2="-22.32" y2="1008.18" gradientTransform="translate(1182.89 65381.04) rotate(180) scale(28.79 64.93)" xlink:href="#Degradado_sin_nombre_15"/></defs><title>not_notify</title><text class="cls-1" transform="translate(0 54.76)">No <tspan class="cls-2" x="96.94" y="0">h</tspan><tspan class="cls-3" x="133.25" y="0">a</tspan><tspan x="166.76" y="0">y n</tspan><tspan class="cls-4" x="252.72" y="0">o</tspan><tspan class="cls-5" x="288.52" y="0">t</tspan><tspan x="314.43" y="0">i</tspan><tspan class="cls-2" x="330.96" y="0">fica</tspan><tspan x="438.68" y="0">c</tspan><tspan class="cls-2" x="473.46" y="0">i</tspan><tspan class="cls-3" x="489.67" y="0">o</tspan><tspan x="525.79" y="0">n</tspan><tspan class="cls-5" x="562.42" y="0">e</tspan><tspan x="598.23" y="0">s</tspan></text><rect id="Rectángulo_1" data-name="Rectángulo 1" class="cls-6" x="306.2" y="136.11" width="7.18" height="47.09"/><path id="Rectángulo_2" data-name="Rectángulo 2" class="cls-7" d="M466.92,346.07h51.19a5.8,5.8,0,0,1,5.8,5.8v19.35a5.8,5.8,0,0,1-5.8,5.8H466.92a5.8,5.8,0,0,1-5.8-5.8V351.87A5.8,5.8,0,0,1,466.92,346.07Z" transform="translate(-182.72 -167.81)"/><path id="Rectángulo_3" data-name="Rectángulo 3" class="cls-8" d="M458.5,360.87h68a78.33,78.33,0,0,1,78.33,78.33v14.21a78.33,78.33,0,0,1-78.33,78.32h-68a78.33,78.33,0,0,1-78.33-78.32V439.2A78.33,78.33,0,0,1,458.5,360.87Z" transform="translate(-182.72 -167.81)"/><path id="Trazado_4" data-name="Trazado 4" class="cls-9" d="M415.51,475h0a21.78,21.78,0,0,0,9.58,2.22H559.91a21.78,21.78,0,0,0,9.58-2.22h0c7.21-3.57,11.3-10.77,10.27-18.17l-.07-.54c-3.46-25-26.14-44.3-54-45.75-11.77-.61-24.11-.92-37-.85q-15.13.09-29.24.84c-27.92,1.44-50.77,20.62-54.23,45.76l-.08.54C404.21,464.26,408.29,471.46,415.51,475Z" transform="translate(-182.72 -167.81)"/><g id="Grupo_8" data-name="Grupo 8"><circle id="Elipse_11" data-name="Elipse 11" class="cls-10" cx="345.33" cy="278.49" r="25.42"/><g id="Grupo_3" data-name="Grupo 3"><circle id="Elipse_12" data-name="Elipse 12" class="cls-11" cx="345.33" cy="278.49" r="18.25"/></g><g id="Grupo_4" data-name="Grupo 4"><circle id="Elipse_13" data-name="Elipse 13" class="cls-12" cx="345.33" cy="278.49" r="15.33"/></g><g id="Grupo_5" data-name="Grupo 5"><path id="Trazado_5" data-name="Trazado 5" class="cls-11" d="M518.22,442.33a5.7,5.7,0,1,0,5.72-5.68h0A5.71,5.71,0,0,0,518.22,442.33Z" transform="translate(-182.72 -167.81)"/></g><g id="Grupo_6" data-name="Grupo 6"><circle id="Elipse_14" data-name="Elipse 14" class="cls-11" cx="347.59" cy="290.25" r="2.26"/></g><g id="Grupo_7" data-name="Grupo 7"><path id="Trazado_6" data-name="Trazado 6" class="cls-11" d="M535.93,454.66a1.14,1.14,0,0,0,1.14,1.14h0a1.14,1.14,0,0,0,1.14-1.14h0a1.14,1.14,0,0,0-1.14-1.14h0A1.14,1.14,0,0,0,535.93,454.66Z" transform="translate(-182.72 -167.81)"/></g></g><g id="Grupo_14" data-name="Grupo 14"><circle id="Elipse_15" data-name="Elipse 15" class="cls-13" cx="276.64" cy="278.49" r="25.42"/><g id="Grupo_9" data-name="Grupo 9"><circle id="Elipse_16" data-name="Elipse 16" class="cls-11" cx="276.64" cy="278.49" r="18.25"/></g><g id="Grupo_10" data-name="Grupo 10"><circle id="Elipse_17" data-name="Elipse 17" class="cls-14" cx="276.64" cy="278.49" r="15.33"/></g><g id="Grupo_11" data-name="Grupo 11"><path id="Trazado_7" data-name="Trazado 7" class="cls-11" d="M449.54,442.33a5.7,5.7,0,1,0,5.72-5.68h0A5.71,5.71,0,0,0,449.54,442.33Z" transform="translate(-182.72 -167.81)"/></g><g id="Grupo_12" data-name="Grupo 12"><circle id="Elipse_18" data-name="Elipse 18" class="cls-11" cx="278.91" cy="290.25" r="2.26"/></g><g id="Grupo_13" data-name="Grupo 13"><path id="Trazado_8" data-name="Trazado 8" class="cls-11" d="M467.25,454.66a1.13,1.13,0,0,0,1.14,1.14h0a1.13,1.13,0,0,0,1.13-1.14h0a1.13,1.13,0,0,0-1.13-1.14h0A1.13,1.13,0,0,0,467.25,454.66Z" transform="translate(-182.72 -167.81)"/></g></g><path id="Trazado_9" data-name="Trazado 9" class="cls-15" d="M483.32,300.78A9.18,9.18,0,0,0,492.5,310h0a9.19,9.19,0,0,0,0-18.38h0a9.2,9.2,0,0,0-9.2,9.19Z" transform="translate(-182.72 -167.81)"/><path id="Trazado_10" data-name="Trazado 10" class="cls-16" d="M480.55,290.11a2.37,2.37,0,0,0,4.73,0,2.35,2.35,0,0,0-2.36-2.37h0a2.36,2.36,0,0,0-2.37,2.36Z" transform="translate(-182.72 -167.81)"/><path id="Trazado_11" data-name="Trazado 11" class="cls-16" d="M424.45,394.05c-.12,4.29,3.39,9.43,7.4,9.88,3.76.41,6.77-3.42,9.88-7.4s9.73-13.94,7.07-16.78C445.28,376,424.74,383.92,424.45,394.05Z" transform="translate(-182.72 -167.81)"/><circle id="Elipse_19" data-name="Elipse 19" class="cls-16" cx="276.1" cy="206.68" r="3.19"/><path id="Trazado_12" data-name="Trazado 12" class="cls-16" d="M413.81,449.89c1,.72,8.17-13.84,27.34-26.46,6.74-4.43,13.4-7.59,13-8.52s-7.9.81-13.91,3.59C421.14,427.37,412.59,449,413.81,449.89Z" transform="translate(-182.72 -167.81)"/><path id="Trazado_13" data-name="Trazado 13" class="cls-16" d="M462.93,355.23c.23,0,.38-1.31,1.49-3.38a20.8,20.8,0,0,1,1.12-1.8c1.93-2.66,8.46-2.59,9-2.59,10.17.09,16.71-.55,16.71-.49s-4.77-.05-8.26-.12c-9.88-.2-15.74-.73-18.25,1.9a8.34,8.34,0,0,0-1.57,2.52C462.42,353.23,462.66,355.2,462.93,355.23Z" transform="translate(-182.72 -167.81)"/><path id="Trazado_14" data-name="Trazado 14" class="cls-11" d="M465.05,488.16a5.18,5.18,0,0,0,4.71,4.55L503.44,496a5.18,5.18,0,0,0,5.5-3.56,23.42,23.42,0,0,0,.72-3.22,1.09,1.09,0,0,0-.22-.85,1.16,1.16,0,0,0-.79-.43l-42.48-4.11a1.12,1.12,0,0,0-1.22,1v.05A21.54,21.54,0,0,0,465.05,488.16Z" transform="translate(-182.72 -167.81)"/><path id="Trazado_15" data-name="Trazado 15" class="cls-17" d="M465,488.16a22.49,22.49,0,0,0,43.76,4.64,5.2,5.2,0,0,1-5.36,3.15l-33.69-3.24A5.22,5.22,0,0,1,465,488.16Z" transform="translate(-182.72 -167.81)"/><path id="Trazado_16" data-name="Trazado 16" class="cls-18" d="M412,563.8v.89a20.57,20.57,0,0,0,1.09,5.91c9.27,28.32,14.81,43.25,22.62,55.33C437,628,438.45,630,440,632c2,2.63,4.18,5.18,6.59,7.82,5.39,5.86,13.53,8.51,16.15,9.42,9.59,3.39,18.07,2.77,23.71,2.83h1c5.65-.06,14.11.56,23.7-2.83,2.62-.91,10.78-3.56,16.14-9.42,14.81-16.1,20.51-29.49,33.49-69.2a21,21,0,0,0,1.08-5.54q0-1.15,0-2.31a24.16,24.16,0,0,0-5.63-13.67,31.16,31.16,0,0,0-24.24-11.33l-45.06-.18-44.21-.16a31.91,31.91,0,0,0-24.88,11.36,24.72,24.72,0,0,0-5.49,11.43c-.09.56-.17,1.14-.23,1.71S412,563.16,412,563.8Z" transform="translate(-182.72 -167.81)"/><path id="Trazado_17" data-name="Trazado 17" class="cls-19" d="M486.91,537.59l45.06.18a31.16,31.16,0,0,1,24.24,11.33,24.16,24.16,0,0,1,5.63,13.67,23.9,23.9,0,0,0-5.8-14,31.94,31.94,0,0,0-24.88-11.36Z" transform="translate(-182.72 -167.81)"/><path id="Trazado_18" data-name="Trazado 18" class="cls-20" d="M442.13,604c.66-34.94,5.39-41.87-1.59-50.18a20.49,20.49,0,0,0-11.62-7.07,19.54,19.54,0,0,0-12.53,2c-14,7.93-9.83,42.28-.62,64,2,4.73,7.39,17.41,14,17.09,2.7-.13,4.68-2.39,6.08-4C442,618.57,442,609.24,442.13,604Z" transform="translate(-182.72 -167.81)"/><path id="Trazado_19" data-name="Trazado 19" class="cls-21" d="M435.7,625.93C437.05,628,438.46,630,440,632c.49-.49.91-1,1.3-1.45,6.17-7.21,6.23-16.55,6.32-21.82.67-34.94,5.4-41.85-1.58-50.17a21.85,21.85,0,0,0-5.42-4.68c6.89,8.29,2.19,15.25,1.52,50.1-.1,5.28-.18,14.61-6.33,21.83A.67.67,0,0,0,435.7,625.93Z" transform="translate(-182.72 -167.81)"/><path id="Trazado_20" data-name="Trazado 20" class="cls-16" d="M416,574.86c.2-3.75.9-6.52,2.31-12,1.84-7.21,4.16-10.75,2.66-12.15-1-.91-2.9-.3-3.34-.16-6.6,2.11-8.65,14.5-8.35,22.26.17,4.75,1.33,10.06,3.07,10.29a2,2,0,0,0,1.45-.43C415.7,580.92,415.83,577.72,416,574.86Z" transform="translate(-182.72 -167.81)"/><path id="Trazado_21" data-name="Trazado 21" class="cls-16" d="M411.44,588.12a1.38,1.38,0,0,0,2.75,0h0a1.39,1.39,0,0,0-1.38-1.38h0a1.38,1.38,0,0,0-1.37,1.37Z" transform="translate(-182.72 -167.81)"/><path class="cls-22" d="M455.92,479.25a.18.18,0,0,1-.17-.13c-.11-.42-.18-.65-.18-.65a.15.15,0,0,1,0-.13.16.16,0,0,1,.1-.08l.69-.17a.17.17,0,0,1,.22.11.17.17,0,0,1-.11.21h0l-.52.13c0,.12.08.28.14.5a.17.17,0,0,1-.13.2h-.05Z" transform="translate(-182.72 -167.81)"/><path class="cls-22" d="M532.24,479.77h0a.17.17,0,0,1-.16-.17h0l.06-.51-.54-.07a.16.16,0,0,1-.15-.18h0a.17.17,0,0,1,.2-.14l.7.08a.17.17,0,0,1,.16.19l-.07.67A.18.18,0,0,1,532.24,479.77Z" transform="translate(-182.72 -167.81)"/><path class="cls-22" d="M530.24,516.93a.19.19,0,0,1-.16-.09.16.16,0,0,1,.07-.22h0l.5-.27-.15-.54a.17.17,0,0,1,.12-.2h0a.18.18,0,0,1,.22.12h0c.06.22.11.44.17.65a.16.16,0,0,1-.07.19l-.62.35Z" transform="translate(-182.72 -167.81)"/><path id="Trazado_18-2" data-name="Trazado 18" class="cls-23" d="M537.44,625.58c1.41,1.63,3.38,3.89,6.08,4,6.57.32,12-12.37,14-17.09,9.22-21.69,13.37-56-.62-64a19.59,19.59,0,0,0-12.53-2,20.54,20.54,0,0,0-11.62,7.08c-7,8.31-2.25,15.23-1.59,50.17C531.22,609,531.29,618.38,537.44,625.58Z" transform="translate(-182.72 -167.81)"/><path id="Trazado_20-2" data-name="Trazado 20" class="cls-16" d="M559.48,582.44a2,2,0,0,0,1.44.43c1.74-.24,2.9-5.54,3.08-10.3.29-7.75-1.75-20.15-8.36-22.25-.43-.14-2.36-.76-3.34.16-1.49,1.4.82,4.93,2.66,12.15,1.42,5.52,2.12,8.28,2.32,12C557.42,577.52,557.56,580.73,559.48,582.44Z" transform="translate(-182.72 -167.81)"/><path id="Trazado_21-2" data-name="Trazado 21" class="cls-16" d="M561.81,587.92a1.37,1.37,0,0,0-1.37-1.37h0a1.37,1.37,0,0,0-1.37,1.37h0a1.37,1.37,0,1,0,2.74,0Z" transform="translate(-182.72 -167.81)"/><text class="cls-24" transform="translate(74.52 611.4)">D<tspan class="cls-25" x="45.89" y="0">i</tspan><tspan x="62.09" y="0">ami </tspan><tspan class="cls-26" x="182.96" y="0">t</tspan><tspan class="cls-27" x="208.24" y="0">e </tspan><tspan class="cls-3" x="257.76" y="0">a</tspan><tspan x="291.26" y="0">vi</tspan><tspan class="cls-5" x="343.34" y="0">s</tspan><tspan x="374.48" y="0">a</tspan><tspan class="cls-28" x="408.62" y="0">r</tspan><tspan class="cls-27" x="433.32" y="0">á</tspan></text></svg>