<svg id="Capa_1" data-name="Capa 1" xmlns="http://www.w3.org/2000/svg" xmlns:xlink="http://www.w3.org/1999/xlink" viewBox="0 0 1769.36 1080"><defs><style>.cls-1{fill:#b2e1ed;}.cls-2{fill:#1e3244;}.cls-3{font-size:52.67px;fill:#00365b;font-family:Montserrat-Regular, Montserrat;}.cls-4{letter-spacing:0em;}.cls-5{letter-spacing:-0.01em;}.cls-6{letter-spacing:0em;}.cls-7{letter-spacing:-0.01em;}.cls-8{letter-spacing:0em;}.cls-9{letter-spacing:-0.01em;}.cls-10{letter-spacing:-0.03em;}.cls-11{font-family:Montserrat-Black, Montserrat;font-weight:800;}.cls-12{letter-spacing:-0.01em;}.cls-13{letter-spacing:0em;}.cls-14{letter-spacing:-0.02em;}.cls-15{fill:url(#Degradado_sin_nombre_44);}.cls-16{fill:url(#Degradado_sin_nombre_14);}.cls-17{fill:url(#Degradado_sin_nombre_14-2);}.cls-18{fill:url(#Degradado_sin_nombre_14-3);}.cls-19{fill:url(#Degradado_sin_nombre_9);}.cls-20{fill:url(#Degradado_sin_nombre_8);}.cls-21{fill:#eefdff;}.cls-22{fill:url(#Degradado_sin_nombre_9-2);}.cls-23{fill:url(#Degradado_sin_nombre_8-2);}.cls-24{fill:url(#Degradado_sin_nombre_9-3);}.cls-25{fill:url(#Degradado_sin_nombre_14-4);}.cls-26,.cls-36{fill:#fff;}.cls-27{fill:url(#Degradado_sin_nombre_11);}.cls-28{fill:url(#Degradado_sin_nombre_12);}.cls-29{fill:url(#Degradado_sin_nombre_13);}.cls-30{fill:url(#Degradado_sin_nombre_14-5);}.cls-31{fill:url(#Degradado_sin_nombre_15);}.cls-32{opacity:0.25;isolation:isolate;fill:url(#Degradado_sin_nombre_46);}.cls-33,.cls-48{fill:#d2eaf9;}.cls-33,.cls-34,.cls-35,.cls-36,.cls-37,.cls-38,.cls-39,.cls-40,.cls-41,.cls-43,.cls-44,.cls-45,.cls-46,.cls-49,.cls-50,.cls-51,.cls-52,.cls-53,.cls-54,.cls-55,.cls-56,.cls-57{fill-rule:evenodd;}.cls-34{fill:#b3cee8;}.cls-35{fill:#aed0ee;}.cls-37{fill:#a8cded;}.cls-38{fill:#bad9f2;}.cls-39{fill:#d7e8f7;}.cls-40{fill:#3493d1;}.cls-41{fill:#80bee8;}.cls-42,.cls-43{fill:#151f42;}.cls-44{fill:#01051a;}.cls-45{fill:#f7b63a;}.cls-46{fill:#fac74c;}.cls-47{fill:#fad996;}.cls-49{fill:#0c1332;}.cls-50{fill:#f4ad85;}.cls-51{fill:#f09373;}.cls-52{fill:#e8685b;}.cls-53{fill:#3288c9;}.cls-54{fill:#296fad;}.cls-55{fill:#242b5c;}.cls-56{fill:#392680;}.cls-57{fill:#ee846a;}</style><linearGradient id="Degradado_sin_nombre_44" x1="6.69" y1="1066.13" x2="8.42" y2="1069.18" gradientTransform="matrix(94.37, 0, 0, -54.95, 149.03, 59805.77)" gradientUnits="userSpaceOnUse"><stop offset="0" stop-color="#06bed8"/><stop offset="1" stop-color="#004666"/></linearGradient><linearGradient id="Degradado_sin_nombre_14" x1="119.53" y1="1076.57" x2="123.11" y2="1076.65" gradientTransform="matrix(8.48, 0, 0, -55.64, 383.2, 60282.53)" gradientUnits="userSpaceOnUse"><stop offset="0" stop-color="#06cff1"/><stop offset="1" stop-color="#dcedf9"/></linearGradient><linearGradient id="Degradado_sin_nombre_14-2" x1="14.88" y1="1073.51" x2="15.61" y2="1075.18" gradientTransform="matrix(74.19, 0, 0, -36.56, 284.63, 39710.11)" xlink:href="#Degradado_sin_nombre_14"/><linearGradient id="Degradado_sin_nombre_14-3" x1="4.91" y1="1078.72" x2="5.71" y2="1079.77" gradientTransform="matrix(265.49, 0, 0, -201.9, -2.31, 218451.48)" xlink:href="#Degradado_sin_nombre_14"/><linearGradient id="Degradado_sin_nombre_9" x1="6.44" y1="1076.87" x2="6.45" y2="1077.94" gradientTransform="matrix(206.62, 0, 0, -79.8, 85.99, 86526.58)" gradientUnits="userSpaceOnUse"><stop offset="0" stop-color="#030d14"/><stop offset="1" stop-color="#0b2f45"/></linearGradient><radialGradient id="Degradado_sin_nombre_8" cx="18.36" cy="1076.45" r="0.59" gradientTransform="matrix(60.08, 0, 0, -60.08, 263.8, 65223.62)" gradientUnits="userSpaceOnUse"><stop offset="0.13" stop-color="#3280fc"/><stop offset="1"/></radialGradient><linearGradient id="Degradado_sin_nombre_9-2" x1="28.87" y1="1073.79" x2="30.07" y2="1073.79" gradientTransform="matrix(36.22, 0, 0, -36.22, 299.6, 39440.73)" xlink:href="#Degradado_sin_nombre_9"/><radialGradient id="Degradado_sin_nombre_8-2" cx="18.63" cy="1076.45" r="0.59" gradientTransform="matrix(60.08, 0, 0, -60.08, 344.96, 65223.62)" xlink:href="#Degradado_sin_nombre_8"/><linearGradient id="Degradado_sin_nombre_9-3" x1="29.31" y1="1073.79" x2="30.51" y2="1073.79" gradientTransform="matrix(36.22, 0, 0, -36.22, 380.76, 39440.73)" xlink:href="#Degradado_sin_nombre_9"/><linearGradient id="Degradado_sin_nombre_14-4" x1="47.25" y1="1070.67" x2="49.11" y2="1070.94" gradientTransform="matrix(21.73, 0, 0, -21.73, 363.33, 23605.84)" xlink:href="#Degradado_sin_nombre_14"/><linearGradient id="Degradado_sin_nombre_11" x1="21.11" y1="1069.66" x2="22.3" y2="1072.25" gradientTransform="matrix(51.7, 0, 0, -23.82, 324.98, 26107.06)" gradientUnits="userSpaceOnUse"><stop offset="0" stop-color="#3f88ad"/><stop offset="1" stop-color="#3487c4"/></linearGradient><linearGradient id="Degradado_sin_nombre_12" x1="6.89" y1="1078.05" x2="7.82" y2="1079.46" gradientTransform="matrix(177.09, 0, 0, -135.48, 136.89, 146864.99)" gradientUnits="userSpaceOnUse"><stop offset="0" stop-color="#3a68ab"/><stop offset="0.05" stop-color="#316fb0"/><stop offset="0.24" stop-color="#1686c0"/><stop offset="0.41" stop-color="#0594ca"/><stop offset="0.54" stop-color="#0099ce"/><stop offset="0.66" stop-color="#2ba8d6"/><stop offset="0.92" stop-color="#99cfed"/><stop offset="1" stop-color="#bcdcf4"/></linearGradient><linearGradient id="Degradado_sin_nombre_13" x1="12.69" y1="1070.84" x2="13.8" y2="1074.68" gradientTransform="matrix(88.53, 0, 0, -29.96, 225.48, 32796.17)" gradientUnits="userSpaceOnUse"><stop offset="0.04" stop-color="#06cff1"/><stop offset="1" stop-color="#defa8e"/></linearGradient><linearGradient id="Degradado_sin_nombre_14-5" x1="63.48" y1="1086.56" x2="66.57" y2="1087.27" gradientTransform="matrix(43.68, 0, 0, -98.52, 409.19, 106926.63)" xlink:href="#Degradado_sin_nombre_14"/><linearGradient id="Degradado_sin_nombre_15" x1="61.44" y1="1077.28" x2="66.67" y2="1077.77" gradientTransform="matrix(16.65, 0, 0, -92.32, 429.76, 100222.5)" gradientUnits="userSpaceOnUse"><stop offset="0" stop-color="#06cff1"/><stop offset="1" stop-color="#0074a2"/></linearGradient><radialGradient id="Degradado_sin_nombre_46" cx="1422.41" cy="884.21" r="77.58" gradientTransform="translate(0 522.23) scale(1 0.41)" gradientUnits="userSpaceOnUse"><stop offset="0" stop-color="#128eec"/><stop offset="1" stop-color="#fff" stop-opacity="0"/></radialGradient></defs><title>RECOMENDANDO1</title><rect class="cls-1" x="-0.62" y="-3.68" width="1770.21" height="594.38"/><rect class="cls-2" x="-1.02" y="521.7" width="1770.21" height="559.21"/><text class="cls-3" transform="translate(558.82 130.46)"><tspan class="cls-4">C</tspan><tspan x="37.76" y="0">UI</tspan><tspan class="cls-5" x="95.38" y="0">D</tspan><tspan class="cls-6" x="138.36" y="0">A </tspan><tspan class="cls-7" x="189.92" y="0">T</tspan><tspan class="cls-8" x="219.42" y="0">U SA</tspan><tspan class="cls-9" x="345.08" y="0">L</tspan><tspan x="375.42" y="0">UD MEN</tspan><tspan class="cls-10" x="602.79" y="0">T</tspan><tspan x="631.18" y="0">AL</tspan><tspan class="cls-11"><tspan x="-43.82" y="63.2">TRANQUILI</tspan><tspan class="cls-5" x="269.98" y="63.2">D</tspan><tspan x="312.96" y="63.2">AD EN </tspan><tspan class="cls-12" x="508.3" y="63.2">T</tspan><tspan class="cls-13" x="542.22" y="63.2">U </tspan><tspan class="cls-14" x="599.31" y="63.2">V</tspan><tspan x="639.92" y="63.2">I</tspan><tspan class="cls-12" x="658.36" y="63.2">D</tspan><tspan x="701.33" y="63.2">A</tspan></tspan></text><g id="Grupo_182" data-name="Grupo 182"><path id="Trazado_3" data-name="Trazado 3" class="cls-15" d="M1275.36,664.94c47.63,13,58.88,9.39,67.37,22.16,1,1.46,6,8.95,5,18.56a27.61,27.61,0,0,1-7.75,16.17c-16.32,15.8-61.21-3.52-86.92-24.66-5.61-4.6-20.65-17-17.62-25.74,1.24-3.6,5.1-5.38,7.86-6.62C1255.49,659.33,1268.18,663,1275.36,664.94Z"/><rect id="Rectángulo_1" data-name="Rectángulo 1" class="cls-16" x="1412.27" y="344.81" width="10.14" height="66.52"/><rect id="Rectángulo_2" data-name="Rectángulo 2" class="cls-17" x="1372.99" y="404.36" width="88.7" height="43.71" rx="5.4"/><rect id="Rectángulo_3" data-name="Rectángulo 3" class="cls-18" x="1258.64" y="425.27" width="317.39" height="241.37" rx="104.01"/><path id="Trazado_4" data-name="Trazado 4" class="cls-19" d="M1526.12,586.54h0a30.59,30.59,0,0,1-13.54,3.13H1322.11a30.53,30.53,0,0,1-13.54-3.13h0c-10.2-5-16-15.22-14.52-25.67l.1-.76c4.89-35.38,36.93-62.58,76.21-64.63,16.62-.86,34.07-1.31,52.26-1.2q21.39.12,41.3,1.18c39.43,2,71.71,29.13,76.61,64.64l.1.77C1542.07,571.31,1536.31,581.5,1526.12,586.54Z"/><g id="Grupo_8" data-name="Grupo 8"><circle id="Elipse_11" data-name="Elipse 11" class="cls-20" cx="1367.14" cy="545.95" r="35.92"/><g id="Grupo_3" data-name="Grupo 3"><circle id="Elipse_12" data-name="Elipse 12" class="cls-21" cx="1367.14" cy="545.95" r="25.78"/></g><g id="Grupo_4" data-name="Grupo 4"><circle id="Elipse_13" data-name="Elipse 13" class="cls-22" cx="1367.14" cy="545.95" r="21.65"/></g><g id="Grupo_5" data-name="Grupo 5"><path id="Trazado_5" data-name="Trazado 5" class="cls-21" d="M1381,540.34a8,8,0,1,1-16,0h0a8,8,0,0,1,8-8h0A8,8,0,0,1,1381,540.34Z"/></g><g id="Grupo_6" data-name="Grupo 6"><circle id="Elipse_14" data-name="Elipse 14" class="cls-21" cx="1363.94" cy="562.56" r="3.2"/></g><g id="Grupo_7" data-name="Grupo 7"><path id="Trazado_6" data-name="Trazado 6" class="cls-21" d="M1356,557.76a1.6,1.6,0,0,1-1.59,1.6h0a1.6,1.6,0,0,1-1.6-1.6h0a1.6,1.6,0,1,1,3.2,0Z"/></g></g><g id="Grupo_14" data-name="Grupo 14"><circle id="Elipse_15" data-name="Elipse 15" class="cls-23" cx="1464.17" cy="545.95" r="35.92"/><g id="Grupo_9" data-name="Grupo 9"><circle id="Elipse_16" data-name="Elipse 16" class="cls-21" cx="1464.17" cy="545.95" r="25.78"/></g><g id="Grupo_10" data-name="Grupo 10"><circle id="Elipse_17" data-name="Elipse 17" class="cls-24" cx="1464.17" cy="545.95" r="21.65"/></g><g id="Grupo_11" data-name="Grupo 11"><path id="Trazado_7" data-name="Trazado 7" class="cls-21" d="M1478,540.34a8,8,0,1,1-8-8A8,8,0,0,1,1478,540.34Z"/></g><g id="Grupo_12" data-name="Grupo 12"><circle id="Elipse_18" data-name="Elipse 18" class="cls-21" cx="1460.97" cy="562.56" r="3.2"/></g><g id="Grupo_13" data-name="Grupo 13"><path id="Trazado_8" data-name="Trazado 8" class="cls-21" d="M1453,557.76a1.6,1.6,0,0,1-1.6,1.6h0a1.6,1.6,0,0,1-1.6-1.6h0a1.6,1.6,0,0,1,3.2,0Z"/></g></g><path id="Trazado_9" data-name="Trazado 9" class="cls-25" d="M1430.33,340.38a13,13,0,1,1-13-13,13,13,0,0,1,13,13Z"/><path id="Trazado_10" data-name="Trazado 10" class="cls-26" d="M1426.37,335.31a4,4,0,0,1-4,4h0a4,4,0,0,1,0-7.92h0A4,4,0,0,1,1426.37,335.31Z"/><path id="Trazado_11" data-name="Trazado 11" class="cls-26" d="M1513.48,472.14c.17,6.07-4.78,13.31-10.45,13.94-5.31.58-9.56-4.85-13.93-10.45s-13.75-19.7-10-23.71C1484.06,446.63,1513.07,457.84,1513.48,472.14Z"/><circle id="Elipse_19" data-name="Elipse 19" class="cls-26" cx="1464.93" cy="444.52" r="4.51"/><path id="Trazado_12" data-name="Trazado 12" class="cls-26" d="M1528.52,551c-1.44,1-11.54-19.54-38.64-37.37-9.53-6.27-18.93-10.74-18.37-12s11.16,1.13,19.64,5.07C1518.17,519.21,1530.24,549.8,1528.52,551Z"/><path id="Trazado_13" data-name="Trazado 13" class="cls-26" d="M1459.13,417.3c-.33.05-.53-1.85-2.12-4.78a23.73,23.73,0,0,0-1.58-2.53c-2.72-3.75-11.94-3.66-12.67-3.66-14.37.12-23.6-.78-23.6-.7s6.74-.06,11.68-.16c13.92-.29,22.22-1,25.78,2.69a11.79,11.79,0,0,1,2.21,3.57C1459.84,414.46,1459.51,417.25,1459.13,417.3Z"/><path id="Trazado_14" data-name="Trazado 14" class="cls-21" d="M1456.14,605.08a7.35,7.35,0,0,1-6.66,6.43l-47.58,4.58a7.31,7.31,0,0,1-7.76-5,30.74,30.74,0,0,1-1-4.54,1.59,1.59,0,0,1,.32-1.21,1.62,1.62,0,0,1,1.1-.61l60-5.78a1.53,1.53,0,0,1,1.18.37,1.56,1.56,0,0,1,.54,1.11A31.78,31.78,0,0,1,1456.14,605.08Z"/><path id="Trazado_15" data-name="Trazado 15" class="cls-27" d="M1456.14,605.09a31.77,31.77,0,0,1-61.8,6.55,7.36,7.36,0,0,0,7.56,4.45l47.59-4.59A7.34,7.34,0,0,0,1456.14,605.09Z"/><path id="Trazado_16" data-name="Trazado 16" class="cls-28" d="M1531.1,711.94c0,.44,0,.86,0,1.26a29.61,29.61,0,0,1-1.54,8.34c-13.09,40-20.94,61.11-32,78.17-1.9,2.95-3.89,5.78-6,8.56-2.82,3.7-5.89,7.31-9.31,11-7.61,8.26-19.11,12-22.81,13.3-13.55,4.79-25.53,3.91-33.49,4h-1.39c-8-.08-19.93.8-33.48-4-3.71-1.3-15.23-5-22.81-13.31-20.91-22.75-29-41.66-47.31-97.76a29.44,29.44,0,0,1-1.52-7.83c-.06-1.08-.06-2.17,0-3.25a34.08,34.08,0,0,1,7.95-19.29,44,44,0,0,1,34.25-16l63.65-.26,62.49-.25a45.13,45.13,0,0,1,35.14,16,34.91,34.91,0,0,1,7.75,16.14c.14.8.25,1.62.33,2.42S1531.1,711,1531.1,711.94Z"/><path id="Trazado_17" data-name="Trazado 17" class="cls-29" d="M1425.25,674.91l-63.65.26a44.08,44.08,0,0,0-34.25,16,34,34,0,0,0-7.94,19.29c.32-6.88,3.15-13.63,8.19-19.77a45.06,45.06,0,0,1,35.14-16Z"/><path id="Trazado_18" data-name="Trazado 18" class="cls-30" d="M1488.51,768.68c-.93-49.38-7.61-59.14,2.24-70.88,1.13-1.35,6.91-8.24,16.42-10a27.7,27.7,0,0,1,17.69,2.87c19.76,11.2,13.89,59.72.88,90.35-2.84,6.68-10.45,24.6-19.73,24.17-3.8-.18-6.6-3.37-8.57-5.68C1488.75,789.32,1488.65,776.12,1488.51,768.68Z"/><path id="Trazado_19" data-name="Trazado 19" class="cls-31" d="M1497.6,799.71c-1.91,2.95-3.9,5.78-6,8.55-.68-.7-1.29-1.4-1.84-2-8.71-10.19-8.8-23.38-8.94-30.83-.93-49.37-7.62-59.12,2.25-70.87a30.66,30.66,0,0,1,7.66-6.61c-9.74,11.7-3.1,21.55-2.17,70.77.13,7.45.25,20.64,8.93,30.85A.74.74,0,0,1,1497.6,799.71Z"/><path id="Trazado_20" data-name="Trazado 20" class="cls-26" d="M1525.45,727.57c-.28-5.31-1.27-9.21-3.26-17-2.6-10.2-5.87-15.18-3.75-17.15,1.38-1.29,4.1-.42,4.72-.22,9.32,3,12.22,20.48,11.82,31.44-.25,6.71-1.89,14.21-4.35,14.54a2.76,2.76,0,0,1-2-.61C1525.85,736.13,1525.67,731.6,1525.45,727.57Z"/><path id="Trazado_21" data-name="Trazado 21" class="cls-26" d="M1531.86,746.29a1.94,1.94,0,1,1-1.94-1.94h0a1.93,1.93,0,0,1,1.93,1.94Z"/><ellipse id="Elipse_20" data-name="Elipse 20" class="cls-32" cx="1422.41" cy="884.21" rx="101.53" ry="41.57"/></g><path class="cls-33" d="M927.23,875.77s67.42-80.41-11.24-150c0,0,70.63-78.71,25.68-168S810,476,741,494.15s-158.93,9.08-228-62.06-149.3-56-179.8-22.71-38.53,101.42-4.82,169.53,14.45,112-14.45,145.31-32.11,126,36.92,151.55Z"/><path class="cls-34" d="M823.19,875.77c26.71-43.86,34.64-82.81,11-105.08C808,746,747.69,783.42,687.5,875.77Z"/><path class="cls-33" d="M725,875.77q3.85-4.92,7.63-9.5a398.75,398.75,0,0,1,47.91,9.5H790a394.66,394.66,0,0,0-55.48-11.84c9.48-11.36,18.59-21.19,27.1-29.64,6.5.22,36,1.61,59.44,9.6a1.28,1.28,0,0,0,.83-2.43c-21.6-7.35-48.07-9.2-57.75-9.65q5.3-5.16,10.26-9.62c5.12-.49,24.24-1.83,50.18,2.58a1.29,1.29,0,0,0,.44-2.54,210.38,210.38,0,0,0-47.45-2.87c26.73-23.51,44.62-31.72,44.76-31.78a1.93,1.93,0,1,0-1.65-3.49c-.1,0-8,3.65-21,12.87,2.94-5.74,7.13-13.69,8.43-14.89a1.29,1.29,0,0,0-1.75-1.89c-2,1.86-8.88,15.4-11.23,20.08-5.27,3.89-11.21,8.58-17.7,14.2l7.49-27.27a1.28,1.28,0,1,0-2.47-.68l-8.53,31q-6.66,5.93-14,13.1l7.55-32A1.28,1.28,0,1,0,765,798l-8.5,36.09c-7.24,7.32-14.88,15.59-22.78,24.94l5.54-32.76a1.29,1.29,0,1,0-2.54-.44l-6.28,37.12c-3.38,4.09-6.81,8.35-10.27,12.83Zm-5.35,0H717l4.31-28.94a1.28,1.28,0,1,1,2.54.39Z"/><path class="cls-35" d="M594.33,711.46c-7.51-20.24-25.15-55.22-65.53-95.82C464.93,551.42,423,477.15,457.09,448.12c33.41-28.49,126.7,66.54,175.79,257.42C617.63,709.17,604.91,711,594.33,711.46Z"/><path class="cls-36" d="M612.93,699.86a47.55,47.55,0,0,0-15.37-1.73,1,1,0,0,1-.08-2,51.32,51.32,0,0,1,14.8,1.48q-1.38-4.77-2.81-9.41c-3.3-.91-14-3.85-18.05-4.65a1,1,0,0,1,.37-1.93c3.75.73,12.81,3.19,17,4.34q-2.68-8.67-5.46-16.92a230.84,230.84,0,0,0-24.7-4.31,1,1,0,1,1,.22-2,231.77,231.77,0,0,1,23.75,4.08q-2.83-8.31-5.74-16.19a322.53,322.53,0,0,0-35.27-6.17,1,1,0,0,1,.22-2,329.26,329.26,0,0,1,34.22,5.9q-3.85-10.34-7.82-20c-4.57-1.37-23.56-6.71-39.09-5.74a1,1,0,0,1-1-.92,1,1,0,0,1,.93-1.05c14.46-.9,31.81,3.54,38.25,5.38q-4.9-11.79-10-22.54c-6.38-1.24-32.18-5.73-46.15-.35a1,1,0,0,1-.7-1.85c13.55-5.22,37.51-1.53,45.8,0q-5.38-11.35-10.83-21.59c-4.86-.13-25.25-.33-45.61,4.16a1,1,0,0,1-.43-1.92c19.29-4.26,38.58-4.35,45-4.24q-3.24-6-6.49-11.68c-4.62-.22-24.42-.69-52.22,5a1,1,0,1,1-.4-1.93c25.94-5.33,45-5.31,51.45-5.11-5.16-8.88-10.31-17.07-15.38-24.6-6,.43-36.58,2.82-53.77,8.48a1,1,0,0,1-1.25-.62,1,1,0,0,1,.63-1.25c16.51-5.43,45-7.88,53.1-8.49q-4.46-6.52-8.82-12.39c-5.17.4-28.93,2.55-51.76,9a1,1,0,0,1-.54-1.9c21.51-6.12,43.83-8.4,50.91-9-6.83-9.07-13.42-16.95-19.61-23.75-5-.09-27.6-.15-45.9,5.06a1,1,0,0,1-.55-1.9c16.84-4.79,37.19-5.19,44.61-5.15-2.57-2.78-5.07-5.36-7.48-7.77-3.9-.58-18.5-2.34-38.54,0a1,1,0,0,1-1.1-.87,1,1,0,0,1,.86-1.09,161.09,161.09,0,0,1,36.46-.37c-19.57-19-32.95-26-33.06-26.08a1.48,1.48,0,1,1,1.41-2.6c.07,0,6,3.1,15.61,10.67-2-4.51-4.93-10.76-5.88-11.73a1,1,0,0,1,0-1.4,1,1,0,0,1,1.39,0c1.46,1.5,6.21,12.13,7.83,15.81,3.88,3.19,8.25,7,13,11.56l-4.69-21.17a1,1,0,0,1,.75-1.18,1,1,0,0,1,1.17.75l5.34,24.09c3.24,3.2,6.65,6.72,10.19,10.57l-4.55-24.84a1,1,0,0,1,1.94-.36l5.12,28c5.26,5.89,10.79,12.52,16.49,20l-3-25.3a1,1,0,0,1,2-.24L533,522.79q3.88,5.21,7.84,10.89L538.64,511a1,1,0,0,1,2-.2l2.56,26.25q7.29,10.76,14.72,23.31l-.49-21.72a1,1,0,0,1,2,0l.58,25.28c1.94,3.37,3.88,6.86,5.83,10.43l.77-16.3a1,1,0,0,1,1-.94,1,1,0,0,1,.94,1l-.93,19.57q5.38,10.08,10.71,21.23l1.44-18a1,1,0,1,1,2,.16L580,602.45q4.62,9.87,9.15,20.62l2-15.84a1,1,0,0,1,2,.24l-2.4,19.27q3.92,9.48,7.72,19.61l3.41-13.88a1,1,0,0,1,1.2-.72,1,1,0,0,1,.72,1.19l-4.1,16.69q2.73,7.39,5.38,15.16l4.48-11.43a1,1,0,0,1,1.84.72L606,667.69q2.43,7.2,4.79,14.7l3.32-7.28a1,1,0,1,1,1.8.82l-4.24,9.28q1.74,5.65,3.44,11.47l4.75-5.46a1,1,0,0,1,1.49,1.29l-5.59,6.42q1.38,4.77,2.73,9.65l-2.93.52Q614.25,704.44,612.93,699.86Z"/><path class="cls-37" d="M635.88,875.77c-.45-2-.91-4.06-1.4-6.06-8-33.34-20.56-61.27-36.49-84.35a201.42,201.42,0,0,0-62.23-58.62,229.11,229.11,0,0,0-71.56-27.59c-27.14-5.7-55.52-7.13-83.79-5-9.53.71-19.09,1.83-28.61,3.34s-19.2,3.43-28.63,5.7h0a4,4,0,0,0-3,4.8l.08.27c.94,3.67,21.39,82.21,71,148.55q7.26,9.72,15.37,19h5.55c-6.24-6.93-12.1-14.12-17.6-21.48q-5.42-7.23-10.36-14.64c12.8-9.14,98.43-49.8,108.11-54.39,14.22,9.5,28.67,20.1,43.08,31.9L416.08,875.77h8.67l113.92-55.94c11.23,9.34,22.42,19.41,33.43,30.27-8,4.11-29.52,14.62-52.26,25.67h8.71c21.13-10.28,40-19.54,46.39-22.84q10.89,10.89,21.49,22.84h5.08q-11.88-13.59-24.17-25.83c1.25-6.9,8.33-47.94,5.81-77.28q6,7.14,11.43,15a214.64,214.64,0,0,1,12.49,20.46,1.92,1.92,0,0,0-1,1.84c2.17,27.35,0,53.43-1.39,65.77h3.84a373.53,373.53,0,0,0,1.66-61.66,255.54,255.54,0,0,1,16.77,43.22,1.9,1.9,0,0,0-1.39,1.91s.27,7.26.21,16.53h3.82c0-3.3,0-6.34,0-8.89.32,1.25.63,2.51.94,3.78.4,1.69.8,3.39,1.18,5.11Zm-311-166.47c4.89,1.12,25.06,6,54,17.13-10.13,3.4-33.08,11.28-43.18,16.24-6-16.43-9.52-28.59-10.82-33.37Zm12.16,37,0,0c11.65-5.81,42.74-16.12,47.37-17.65,14.42,5.72,30.78,12.9,48.34,21.81L353.19,784.5c-6.58-13.91-11.94-27-16.17-38.23Zm17.81,41.67,82.35-35.27a577.72,577.72,0,0,1,51.46,30.13c-16.22,7.7-93.77,44.68-106.5,53.68a429.18,429.18,0,0,1-27.31-48.54ZM579.74,768.7a1.9,1.9,0,0,0-.66,1.65c2.9,26.46-3,64.57-5,76.31C563.18,836,552.16,826.1,541.09,816.9c11.62-38.45,9.83-68.11,9.13-75.45a195.9,195.9,0,0,1,29.52,27.25ZM546.6,738.8a1.89,1.89,0,0,0-.36,1.38c0,.09,4.28,31.25-8.34,74.09-14.45-11.84-28.95-22.47-43.21-32,5.07-18.26,6.08-62,6.19-68a212.11,212.11,0,0,1,32.75,16q6.63,4,13,8.51Zm-49.39-25.93a1.78,1.78,0,0,0-.12.65c0,.14-.74,46.7-5.76,66.51a580.46,580.46,0,0,0-52.11-30.57c2.24-22.78-1.42-46.57-2.05-50.4q13.24,1.44,26.19,4.14a241.31,241.31,0,0,1,33.85,9.67Zm-63.91-14.2a1.69,1.69,0,0,0,0,.5c0,.08,4.31,24.58,2.25,48.4-17.89-9.12-34.55-16.46-49.25-22.3a137.9,137.9,0,0,0-3.49-27.17,310.13,310.13,0,0,1,50.47.57Zm-54.3-.29c0,.1,0,.2.05.3a136.14,136.14,0,0,1,3.43,25.07A446.35,446.35,0,0,0,328.3,706.2q12-2.73,24.14-4.66C361.2,700.15,370.08,699.09,379,698.38Z"/><path class="cls-38" d="M590.92,755c-10-11.87-28.76-29.45-60.62-44.75-54.06-26-97.26-65.13-83.65-94.87,13.1-28.65,89.73,8.19,164,120.64L591,754.91Z"/><path class="cls-39" d="M460.47,624.81a2,2,0,0,1,1.25-3.88,147.86,147.86,0,0,1,16.7,6.86l-7.27-9.15a1.36,1.36,0,0,1,2.13-1.69l10.79,13.61c4.76,2.41,10.12,5.32,15.95,8.82l-6.78-12.33a1.35,1.35,0,0,1,.54-1.84,1.34,1.34,0,0,1,1.84.53l9.08,16.53c6,3.77,12.42,8.13,19.1,13.14l-5.48-10.92a1.36,1.36,0,1,1,2.42-1.22l8,15.94c6.92,5.43,14.07,11.54,21.3,18.42l-4.07-11a1.35,1.35,0,1,1,2.53-.95L554.56,682c6.71,6.66,13.46,14,20.12,22l-.92-6.89a1.36,1.36,0,0,1,2.7-.36L578,708q7.51,9.35,14.79,19.93L592.1,721a1.36,1.36,0,0,1,2.7-.26l1.12,11.9q3.48,5.3,6.88,10.91l-3,2.89c-2.26-3.76-4.55-7.4-6.87-11-3.26-.8-11.14-2.57-14.9-1.9a1.36,1.36,0,1,1-.48-2.67c3.32-.59,9.17.42,13.19,1.29q-2.78-4.12-5.6-8.07c-3.31-.47-11.5-1.39-17.56-.1a1.36,1.36,0,0,1-.57-2.66c5.2-1.11,11.78-.7,16-.24q-5.88-8-11.9-15.18c-4.87.42-20.34,1.91-27.09,4.62a1.35,1.35,0,0,1-1-2.51c6.33-2.55,19.67-4,26-4.63-4.31-5.06-8.66-9.83-13-14.31-4.82.3-20.63,1.56-32.19,6a1.36,1.36,0,0,1-1-2.54c10.4-4,24.1-5.44,30.67-6q-3.24-3.27-6.47-6.33a131.71,131.71,0,0,0-38.89,6.2,1.36,1.36,0,1,1-.86-2.57,134.2,134.2,0,0,1,36.9-6.29,292.4,292.4,0,0,0-23-19.15c-5.91,1.5-28.85,7.49-39.74,12.8a1.36,1.36,0,0,1-1.19-2.44c10.08-4.91,30-10.33,38.11-12.44-5.56-4.06-10.91-7.65-16-10.82-5.51,2-25.89,9.36-30.73,11.44a1.35,1.35,0,1,1-1.07-2.48c4.43-1.91,21.5-8.12,28.86-10.78-6.64-4.06-12.71-7.36-18-10-5.09,2.21-17.33,7.55-20.29,9.08a1.35,1.35,0,0,1-1.83-.58,1.37,1.37,0,0,1,.58-1.83c2.63-1.36,12.52-5.7,18.34-8.24A147.13,147.13,0,0,0,460.47,624.81Z"/><path class="cls-38" d="M681.82,737.3c5.71-17.26,18.38-44.53,46.29-75,47.37-51.78,77.18-113.17,49.43-139.52-26.73-25.39-93.85,48-125.47,202.58l29.64,11.94Z"/><path class="cls-39" d="M766.66,539a2.39,2.39,0,0,0-3.06-3.66,168.79,168.79,0,0,0-15.13,14.73L752.36,537a1.59,1.59,0,0,0-3-.9l-5.79,19.48c-4.11,4.69-8.66,10.2-13.46,16.54l2-16.34a1.59,1.59,0,0,0-3.15-.39l-2.65,21.91c-4.87,6.72-9.93,14.25-15,22.6l1.18-14.25a1.59,1.59,0,0,0-3.16-.27l-1.73,20.81c-5.14,8.91-10.24,18.67-15.1,29.29l-.37-13.71a1.58,1.58,0,1,0-3.16.08l.55,20.37c-4.38,10.16-8.52,21-12.26,32.66l-2-7.88a1.58,1.58,0,1,0-3.07.78l3.27,12.88c-2.72,8.94-5.2,18.3-7.36,28.09L665.72,701a1.59,1.59,0,0,0-3.05.91l4,13.4q-1.47,7.28-2.71,14.84l4.54,1.83q1.21-7.59,2.67-14.88c3.2-2.3,11-7.66,15.35-8.57a1.59,1.59,0,1,0-.63-3.11c-3.87.8-9.78,4.45-13.77,7.16q1.21-5.7,2.56-11.21c3.39-2,11.88-6.53,19-7.78a1.59,1.59,0,1,0-.55-3.13c-6.13,1.07-13.1,4.39-17.43,6.71,1.92-7.5,4-14.72,6.29-21.67,5.48-1.68,22.93-6.81,31.43-6.81a1.59,1.59,0,1,0,0-3.18c-8,0-23.11,4.2-30.21,6.31q3.72-11.07,7.88-21.21c5.36-1.78,23.08-7.32,37.54-7.59a1.59,1.59,0,1,0-.06-3.17c-13,.24-28.54,4.6-35.9,6.92q2.1-5,4.27-9.7a154,154,0,0,1,44.92-10.24,1.59,1.59,0,1,0-.18-3.17,157.3,157.3,0,0,0-42.82,9.28,341.07,341.07,0,0,1,16.59-30.82c7.07-1,34.6-4.46,48.74-3.44a1.59,1.59,0,0,0,.23-3.17c-13.1-.94-37.09,1.87-46.82,3.13,4.27-6.84,8.51-13.08,12.62-18.73,6.86-.24,32.19-1.13,38.36-1a1.59,1.59,0,0,0,.08-3.17c-5.65-.14-26.89.57-36,.89,5.44-7.3,10.6-13.53,15.16-18.69,6.49.18,22.11.63,26,1a1.59,1.59,0,0,0,.3-3.16c-3.45-.34-16.09-.73-23.51-.94A168.21,168.21,0,0,1,766.66,539Z"/><path class="cls-38" d="M640.27,875.69c13.79-18.46,40-46.15,85.79-71.61,77.75-43.2,138.24-105,115.47-147.84-21.93-41.26-132.12,20-232.22,193.09l30.84,26.26Z"/><path class="cls-39" d="M821.91,671.45a3,3,0,0,0-2.2-5.63,214,214,0,0,0-24.12,11.63l9.95-14.19a2,2,0,0,0-3.29-2.31L787.46,682c-6.83,4-14.51,8.78-22.82,14.48l8.93-18.86a2,2,0,0,0-3.63-1.73L758,701.2c-8.55,6.12-17.66,13.14-27.1,21.14L738,705.69a2,2,0,0,0-3.7-1.59l-10.44,24.31c-9.76,8.65-19.81,18.33-29.91,29.15L699,740.93a2,2,0,0,0-3.85-1.18l-7.52,24.71C678.3,774.9,669,786.32,659.8,798.78l.75-10.28a2,2,0,1,0-4-.29L655.31,805q-10.3,14.49-20.14,30.82l.35-10.3a2,2,0,1,0-4-.13l-.6,17.7q-4.7,8.16-9.22,16.76l4.72,4q4.5-8.64,9.19-16.82c4.76-1.48,16.27-4.79,21.89-4.13a2,2,0,0,0,.49-4c-5-.59-13.54,1.42-19.43,3.07q3.75-6.36,7.58-12.44c4.86-1,16.92-3.08,26-1.7a2,2,0,0,0,.6-4c-7.8-1.17-17.5,0-23.65,1.06q8-12.36,16.28-23.52c7.25.18,30.29,1,40.51,4.44a2,2,0,1,0,1.28-3.81c-9.59-3.21-29.47-4.25-38.85-4.57q8.93-11.81,18-22.32c7.17,0,30.68.48,48.17,6a2,2,0,1,0,1.2-3.84c-15.75-4.94-36.15-5.93-45.92-6.1q4.51-5.13,9-9.94c7.28-.43,32.15-1.21,58.12,5.74a2,2,0,0,0,1-3.88c-22.74-6.09-44.67-6.37-55.19-6.06A429.91,429.91,0,0,1,735,726.66c8.87,1.7,43.38,8.53,60,15.44a2,2,0,0,0,1.55-3.72c-15.36-6.39-45.33-12.65-57.53-15,7.88-6.5,15.48-12.29,22.69-17.44,8.34,2.46,39.16,11.58,46.5,14.24a2,2,0,0,0,1.38-3.78c-6.73-2.43-32.55-10.12-43.68-13.41,9.47-6.59,18.17-12,25.73-16.37,7.73,2.81,26.33,9.64,30.84,11.65a2,2,0,1,0,1.64-3.67c-4-1.79-19-7.35-27.88-10.58C812,675.21,821.79,671.49,821.91,671.45Z"/><path class="cls-33" d="M910.51,904.3S982.57,861,965.09,786.08c0,0-.51-1.91,1.16-2.22s37.48,57.28-12.55,110Z"/><path class="cls-33" d="M341.87,897s-75.7-50.16-57.34-136.79c0,0,.54-2.22-1.22-2.57s-39.37,66.27,13.19,127.27Z"/><path class="cls-40" d="M345.62,676.14c-18.75-19.09-32.7,5.16-30.75,29.51,1.85,23.08,21.74,102.27,18.06,135.58h7.61C359.18,798.51,369.63,700.58,345.62,676.14Z"/><path class="cls-41" d="M337.74,841.23c18.14-67.33-4.82-160.41-4.9-160.73a1.08,1.08,0,0,0-2.09.51c.07.32,23.06,93.5,4.79,160.22Z"/><path class="cls-41" d="M299.36,718.22c-19.75-10.47-24.74,12.37-17,31.27,6.38,15.66,34.58,62,45.25,91.74h10C338.47,800.1,322.69,730.57,299.36,718.22Z"/><path class="cls-40" d="M334,841.23c-6.54-55.63-43.53-116.09-43.66-116.31a.9.9,0,0,0-1.24-.3.89.89,0,0,0-.3,1.23c.13.22,36.89,60.3,43.41,115.38Z"/><path class="cls-36" d="M382.87,744.62c19.16-8.37,22.19,13.27,13.68,30.34-5.75,11.55-26.5,41.12-40.47,66.27H340.14C345.59,803.18,363.08,753.27,382.87,744.62Z"/><path class="cls-33" d="M345.83,841.23c13.6-46.1,44.91-89.55,45-89.73a.86.86,0,0,1,1.18-.19.83.83,0,0,1,.19,1.17c-.12.18-31.1,43.17-44.67,88.75Z"/><rect class="cls-42" x="312.55" y="826.01" width="62.21" height="19.96" rx="3.05"/><polygon class="cls-43" points="325.22 837.28 362.08 837.28 371.71 845.97 363.85 876.25 343.65 876.25 323.46 876.25 315.6 845.97 325.22 837.28"/><polygon class="cls-44" points="371.71 845.97 370.09 852.19 317.22 852.19 315.6 845.97 371.71 845.97"/><path class="cls-45" d="M899.76,841.54a11.57,11.57,0,1,1-8.18,3.39,11.51,11.51,0,0,1,8.18-3.39Zm5,6.58a7,7,0,1,0,2.07,5A7,7,0,0,0,904.75,848.12Z"/><path class="cls-46" d="M881.34,875.77h0a18.21,18.21,0,0,0,18.15-18.15V838.71a1.62,1.62,0,0,0-1.61-1.61H864.8a1.62,1.62,0,0,0-1.61,1.61v18.91A18.21,18.21,0,0,0,881.34,875.77Z"/><path class="cls-45" d="M893.27,855.35a17.92,17.92,0,0,1-.87,5.56,17.66,17.66,0,0,1-1.21,2.86,18.24,18.24,0,0,1-9.13,8.34,17.79,17.79,0,0,1-6.93,1.39,17.2,17.2,0,0,1-3-.25,18,18,0,0,0,20.08-1.14,18.25,18.25,0,0,0,4.88-5.54,17.66,17.66,0,0,0,1.28-2.75,18,18,0,0,0,1.1-6.2V838.71a1.62,1.62,0,0,0-1.61-1.61h-4.61v18.25Z"/><path class="cls-46" d="M865.61,875.77h31.46a2.43,2.43,0,0,0,2.42-2.42h0a2.43,2.43,0,0,0-2.42-2.42H865.61a2.43,2.43,0,0,0-2.42,2.42h0A2.43,2.43,0,0,0,865.61,875.77Z"/><rect class="cls-47" x="865.95" y="840.55" width="6.12" height="17.06" rx="3.06"/><path class="cls-36" d="M865.84,814.73h13.84a1.91,1.91,0,0,0,1.9-1.91h0a1.91,1.91,0,0,0-1.9-1.91H861.07a5,5,0,0,1-5-5h0a5,5,0,0,1,5-5h48.39a5,5,0,0,1,5,5h0a5,5,0,0,1-5,5H892.58a1.92,1.92,0,0,0-1.91,1.91h0a1.92,1.92,0,0,0,1.91,1.91h6.49a3.86,3.86,0,0,1,3.85,3.84h0a3.86,3.86,0,0,1-3.85,3.85H888.33a7.67,7.67,0,0,0-7.64,7.64v3.5a1.81,1.81,0,0,1-1.8,1.81h0a1.81,1.81,0,0,1-1.81-1.81V826.9a4.49,4.49,0,0,0-4.48-4.48h-6.76a3.86,3.86,0,0,1-3.84-3.85h0A3.85,3.85,0,0,1,865.84,814.73Z"/><path class="cls-36" d="M386.44,530.53a60.14,60.14,0,0,0-21,3.76,16.13,16.13,0,0,0-18.18-4,26.93,26.93,0,0,0-43.21-19.32,15.91,15.91,0,0,0-15.53-6.37s-2.29-13.8-34.41-12.27c-20.94,1-34.9,18.67-38.74,39.1-3.91,20.71,11.07,33.4,38.21,33.4H404.94c17.54,0,42.61,2.88,25.2-15.47A60.07,60.07,0,0,0,386.44,530.53Z"/><path class="cls-36" d="M844.31,566.37a22.83,22.83,0,0,1,8,1.43,6.15,6.15,0,0,1,4.56-2,6,6,0,0,1,2.37.48,10.27,10.27,0,0,1,16.48-7.37,6.09,6.09,0,0,1,4.93-2.51,6.5,6.5,0,0,1,1,.08,13.25,13.25,0,0,1,16.1-17.87,6,6,0,0,1,5.45-3.47h.18c0-.47,0-1,0-1.44a23.82,23.82,0,0,1,47.63,0c0,.19,0,.37,0,.55a14.65,14.65,0,0,1,3.59-.44,14.5,14.5,0,0,1,6.82,1.69,19.08,19.08,0,0,1,33.53,17.19l.57,0a9.4,9.4,0,0,1,9.4,9.4,9.59,9.59,0,0,1-.17,1.78h.19a5.43,5.43,0,0,1,5.42,5.24,13,13,0,0,1,2.51-.24,12.76,12.76,0,0,1,8.83,3.34c6.11,5.77-.56,7.27-7,7.27H837.25c-6.69,0-16.24,1.09-9.6-5.9A22.89,22.89,0,0,1,844.31,566.37Z"/><path class="cls-33" d="M729.7,426.44a20.74,20.74,0,0,1,7.24,1.3,5.57,5.57,0,0,1,4.12-1.83,5.65,5.65,0,0,1,2.15.43,9.29,9.29,0,0,1,14.9-6.66,5.51,5.51,0,0,1,4.46-2.27,5.29,5.29,0,0,1,.9.07,12,12,0,0,1,11-16.7,12.18,12.18,0,0,1,3.54.53,5.44,5.44,0,0,1,4.93-3.13h.16c0-.43,0-.87,0-1.31a21.54,21.54,0,1,1,43.08,0c0,.17,0,.34,0,.5a13.41,13.41,0,0,1,3.26-.4,13.14,13.14,0,0,1,6.17,1.53,17.25,17.25,0,0,1,31.18,10.19,17,17,0,0,1-.86,5.36h.53a8.51,8.51,0,0,1,8.34,10.1H875a4.91,4.91,0,0,1,4.9,4.74,12.05,12.05,0,0,1,2.27-.22,11.57,11.57,0,0,1,8,3c5.52,5.22-.5,6.58-6.31,6.58H723.32c-6.06,0-14.7,1-8.7-5.34A20.73,20.73,0,0,1,729.7,426.44Z"/><rect class="cls-48" x="873.97" y="461.15" width="9.46" height="9.46" rx="1.89"/><rect class="cls-48" x="893.37" y="461.15" width="9.46" height="9.46" rx="1.89"/><rect class="cls-48" x="912.77" y="461.15" width="9.46" height="9.46" rx="1.89"/><rect class="cls-48" x="932.18" y="461.15" width="9.46" height="9.46" rx="1.89"/><path class="cls-33" d="M996.4,713.78a1,1,0,1,1,2,0v4.51a1,1,0,1,1-2,0v-4.51Zm-6.84,3.66A1,1,0,0,1,991,716l3.19,3.2a1,1,0,0,1,0,1.42,1,1,0,0,1-1.42,0l-3.19-3.2Zm-2.24,7.43a1,1,0,1,1,0-2h4.51a1,1,0,0,1,0,2Zm3.66,6.84a1,1,0,0,1-1.42,0,1,1,0,0,1,0-1.42l3.19-3.19a1,1,0,0,1,1.42,0,1,1,0,0,1,0,1.42L991,731.71Zm7.43,2.25a1,1,0,0,1-2,0v-4.51a1,1,0,1,1,2,0V734Zm6.84-3.67a1,1,0,0,1,0,1.42,1,1,0,0,1-1.42,0l-3.19-3.19a1,1,0,1,1,1.42-1.42l3.19,3.19Zm2.25-7.42a1,1,0,0,1,0,2H1003a1,1,0,0,1,0-2Zm-3.67-6.85a1,1,0,0,1,1.42,1.42l-3.19,3.2a1,1,0,1,1-1.42-1.42Z"/><rect class="cls-48" x="243.28" y="575.68" width="9.46" height="9.46" rx="1.89"/><rect class="cls-48" x="262.68" y="575.68" width="9.46" height="9.46" rx="1.89"/><rect class="cls-48" x="282.08" y="575.68" width="9.46" height="9.46" rx="1.89"/><rect class="cls-48" x="301.48" y="575.68" width="9.47" height="9.46" rx="1.89"/><path class="cls-36" d="M870.45,709a1,1,0,0,1,2,0v4.51a1,1,0,1,1-2,0V709Zm-6.85,3.66a1,1,0,0,1,1.42-1.42l3.19,3.2a1,1,0,0,1-1.41,1.42l-3.2-3.2Zm-2.24,7.44a1,1,0,1,1,0-2h4.51a1,1,0,1,1,0,2Zm3.66,6.84a1,1,0,1,1-1.42-1.42l3.2-3.2a1,1,0,1,1,1.41,1.42l-3.19,3.2Zm7.43,2.24a1,1,0,1,1-2,0v-4.51a1,1,0,1,1,2,0v4.51Zm6.84-3.66a1,1,0,0,1,0,1.42,1,1,0,0,1-1.42,0l-3.19-3.2a1,1,0,0,1,1.42-1.42l3.19,3.2Zm2.25-7.43a1,1,0,0,1,0,2H877a1,1,0,1,1,0-2Zm-3.67-6.85a1,1,0,0,1,1.42,0,1,1,0,0,1,0,1.42l-3.19,3.2a1,1,0,0,1-1.42-1.42Z"/><path class="cls-33" d="M240.16,411.4a1,1,0,0,1,2,0v4.52a1,1,0,0,1-2,0V411.4Zm-6.84,3.67a1,1,0,0,1,1.42-1.42l3.19,3.19a1,1,0,0,1-1.42,1.42l-3.19-3.19Zm-2.25,7.43a1,1,0,0,1,0-2h4.52a1,1,0,0,1,0,2Zm3.67,6.84a1,1,0,0,1-1.42-1.42l3.19-3.19a1,1,0,0,1,1.42,0,1,1,0,0,1,0,1.42l-3.19,3.19Zm7.43,2.24a1,1,0,1,1-2,0v-4.51a1,1,0,0,1,2,0v4.51Zm6.84-3.66a1,1,0,1,1-1.42,1.42l-3.19-3.19a1,1,0,0,1,0-1.42,1,1,0,0,1,1.42,0l3.19,3.19Zm2.25-7.43a1,1,0,0,1,0,2h-4.52a1,1,0,0,1,0-2Zm-3.67-6.84a1,1,0,0,1,1.42,1.42l-3.19,3.19a1,1,0,0,1-1.42-1.42Z"/><path class="cls-36" d="M386.69,459.37a1,1,0,0,1,2,0v4.52a1,1,0,0,1-2,0v-4.52ZM379.85,463a1,1,0,0,1,1.42-1.42l3.2,3.19a1,1,0,0,1-1.42,1.42l-3.2-3.19Zm-2.24,7.43a1,1,0,1,1,0-2h4.51a1,1,0,1,1,0,2Zm3.66,6.84a1,1,0,1,1-1.42-1.42l3.2-3.19a1,1,0,0,1,1.42,1.42l-3.2,3.19Zm7.43,2.25a1,1,0,0,1-2,0V475a1,1,0,0,1,2,0v4.52Zm6.84-3.67a1,1,0,0,1,0,1.42,1,1,0,0,1-1.42,0l-3.19-3.19a1,1,0,1,1,1.42-1.42l3.19,3.19Zm2.25-7.43a1,1,0,0,1,0,2h-4.52a1,1,0,0,1,0-2Zm-3.67-6.84a1,1,0,0,1,1.42,0,1,1,0,0,1,0,1.42l-3.19,3.19a1,1,0,0,1-1.42-1.42Z"/><path class="cls-49" d="M621.86,512.67s-2.71-10.81,6.39-16.52,58-8.15,51.15,41.19-22.62,91.55,6.39,103.37c0,0,2.46,1.07,1.42,3.16s-5.78.77-5.78.77,6.46,9.07-4.73,15.29-61.17,12.56-58.65-36.29S621.86,512.67,621.86,512.67Z"/><path class="cls-49" d="M694.92,843s29.06-11,55.77-18.59,60.68,5.91,69.64,13.86,3.21,29.58,0,36.51L625.61,898.29,430.9,874.8c-3.21-6.93-9-28.57,0-36.51s42.93-21.47,69.64-13.86S556.31,843,556.31,843l69.3,5.41Z"/><path class="cls-50" d="M683.23,709.32s52.18,85.08,70.9,87.77,116.11-74.85,118.52-76.66,1.48-5-1.07-4.78-16,7.63-16.88,8.21-.93-.31-.93-.31c2.58-12-8.27-14.85-11.13-15s-5,1.08-5,2.58,2.19,2.12,2.19,2.12c6.71.7,8.31,6.45,5.69,10.25s-8.29,5.77-12.58,2-1.07-8.71.23-10.17,2.64-3,1.23-4.41a2.12,2.12,0,0,0-2.91-.12c-13.61,9.42-6.85,20.25-6.85,20.25s1.4,3.8-1.86,6-58.14,29-61.89,29.28c-2.81.25-29.71-53-45.41-85.06-7.64-15.56-18.36-33.9-33.4-38.67C682.07,642.55,659.88,650.3,683.23,709.32Z"/><path class="cls-51" d="M683.23,709.32s52.18,85.08,70.9,87.77,116.11-74.85,118.52-76.66c1.74-1.3,1.74-3.31.65-4.26-.17,1.55-2.08,2.84-6.52,6-5.71,4.1-49.89,37.83-73.35,51.49s-29.56,19.6-39.84,16.55-19.28-18.48-32.13-34.86-32-70.7-31.81-90.62c.06-7.86,2.32-12.16,5-14.5a34,34,0,0,0-12.62-7.72S659.88,650.3,683.23,709.32Z"/><path class="cls-50" d="M568,709.32s-52.17,85.08-70.89,87.77S381,722.24,378.58,720.43s-1.48-5,1.07-4.78,16,7.63,16.88,8.21.93-.31.93-.31c-2.59-12,8.27-14.85,11.13-15s5,1.08,5,2.58-2.19,2.12-2.19,2.12c-6.71.7-8.31,6.45-5.69,10.25s8.29,5.77,12.57,2,1.08-8.71-.22-10.17-2.64-3-1.23-4.41a2.12,2.12,0,0,1,2.91-.12c13.61,9.42,6.85,20.25,6.85,20.25s-1.4,3.8,1.86,6,58.14,29,61.89,29.28c2.8.25,29.71-53,45.41-85.06,7.63-15.56,18.36-33.9,33.4-38.67C569.16,642.55,591.35,650.3,568,709.32Z"/><path class="cls-51" d="M568,709.32s-52.17,85.08-70.89,87.77S381,722.24,378.58,720.43c-2.16-1.61-1.64-4.32.33-4.73.19,1.75,1.72,3.24,4.68,5.38,4.66,3.38,77.76,55.59,94.47,63.95s19.6,7.71,33.74-8.68,47.87-77.92,45.94-103.62c-.61-8.17-3.69-12.86-7.6-15.47,5.41-6.86,11.71-12.39,19-14.71C569.16,642.55,591.35,650.3,568,709.32Z"/><path class="cls-51" d="M823.57,843c3.95,9.74-.54,26-3.24,31.77-3.21,6.93-46,25.69-92.63,28.74s-100.06,9.63-103.78,10.31-81.31,10-92.8,13.69-4.9-9.13,2.36-11.16,10.91-1.69,13.19-2.87S557,906,571.85,900.41s22.49-14.54,26.54-18.43,12.85-4.56,18.09-3,8.79,9.81,20.79,10,34.48-6.42,71.5-22.82c27.5-12.18,52.21-20,72.93-22.76C787.19,842.59,822.49,840.37,823.57,843Z"/><path class="cls-52" d="M823.57,843c3.95,9.74-.54,26-3.24,31.77-3.21,6.93-46,25.69-92.63,28.74s-100.06,9.63-103.78,10.31-81.31,10-92.8,13.69-4.9-9.13,2.36-11.16,10.9-1.69,13.19-2.87S557,906,571.85,900.41s22.49-14.54,26.54-18.43,12.85-4.56,18.09-3,8.79,9.81,20.79,10c6.2.09,15.19-1.62,27.53-5.56,8,5.75,27,15.66,59.79,12,45.33-5.09,74.55-15.59,82.1-21.21s13.65-23.13,10.92-26.35S802.77,842,802.73,842C812.93,841.58,823,841.63,823.57,843Z"/><path class="cls-53" d="M625.61,854.52s39.56,1.35,69.31-11.5c0,0-18.6-16.56-21.13-33.13s-1.69-48-.68-55.1,10.31-39.22,10.31-48.18,4.06-56.62-1.35-64.06c0,0-19.74-4.92-30.22-8s-9.64-20-9.64-28.57v-9.46l-16.6-1.51L609,596.56V606c0,8.62.84,25.53-9.64,28.57s-30.22,8-30.22,8c-5.41,7.44-1.35,55.11-1.35,64.06s9.29,41.08,10.31,48.18,1.86,38.54-.68,55.1S556.31,843,556.31,843C586.06,855.87,625.61,854.52,625.61,854.52Z"/><path class="cls-54" d="M625.61,854.52s39.56,1.35,69.31-11.5c0,0-18.6-16.56-21.13-33.13s-1.69-48-.68-55.1,10.31-39.22,10.31-48.18,4.06-56.62-1.35-64.06c0,0-5.86-1.46-12.89-3.28l-4,12.85L667,656s10.12,1.45,12.21,3.7,2.57,5.46,1.93,22.65-6.43,41.93-34.86,41.77-45,0-51.74,0,52.38,12,59.45,15.91,4.5,59,4.5,71.17S644,845,599.17,853.29A210.32,210.32,0,0,0,625.61,854.52Z"/><path class="cls-51" d="M672.84,640.21c-6.56-1.68-15.19-3.94-21-5.62-8.45-2.45-9.54-13.91-9.64-22.77l-16.59-2.54L609,611.82c-.11,8.86-1.2,20.32-9.65,22.77-5.79,1.68-14.43,3.94-21,5.62,0,0,5.07,29.25,7.43,34.66s21.44,19.94,39.8,19.94,37.42-14.53,39.79-19.94S672.84,640.21,672.84,640.21Z"/><path class="cls-52" d="M672.84,640.21c-6.56-1.68-15.19-3.94-21-5.62-7.69-2.23-9.28-11.92-9.59-20.32a69,69,0,0,0-6.92-.43,175.67,175.67,0,0,1-24.3-2.33l-2,.31c-.08,6.17-.63,13.6-3.81,18.37,13.7,3.66,38.76,10.39,47.8,13.13,12.69,3.86,12.39,31.55,12.39,31.55,2.37-5.41,7.43-34.66,7.43-34.66Zm-54.22,53.95a39.3,39.3,0,0,0,7,.65,38.56,38.56,0,0,0,5.86-.46,12.66,12.66,0,0,1-2.89-10.14c1-5.94-3.13-1.52-3.69,1.45S623.58,693.74,618.62,694.16Z"/><path class="cls-49" d="M616.34,517.72c0-.08-5.4-25.36,21.47-22.91l-.19,2.09c-24-2.19-19.23,20.34-19.22,20.4Z"/><path class="cls-49" d="M656.4,496c.07,0,25.54-3.37,21.89,21.94l-2.08-.29c3.25-22.57-19.5-19.57-19.57-19.56Z"/><path class="cls-45" d="M636.24,542.28a18.7,18.7,0,1,0-18.7-18.7A18.74,18.74,0,0,0,636.24,542.28Z"/><path class="cls-52" d="M584.07,569.33l-.84.14h0a11.51,11.51,0,1,0,9.61,2.31c.29,3.4-.25,7.6-4.59,8l.13-6.64C588.42,570.49,585.91,569.26,584.07,569.33Z"/><path class="cls-52" d="M667.16,569.33l.84.14h0a11.51,11.51,0,1,1-9.61,2.31c-.29,3.4.25,7.6,4.59,8l-.13-6.64C662.81,570.49,665.32,569.26,667.16,569.33Z"/><path class="cls-50" d="M625.62,511.82h0a39.54,39.54,0,0,0-39.42,39.42v35.85a39.53,39.53,0,0,0,39.42,39.41h0A39.53,39.53,0,0,0,665,587.09V551.24A39.54,39.54,0,0,0,625.62,511.82Z"/><path class="cls-51" d="M625.62,626.5A39.53,39.53,0,0,0,665,587.09V551.24a39,39,0,0,0-2.95-14.91,89,89,0,0,0-12.92-7L589.88,540.1l-3.68,14.3,6.33,3.13h1.28s1.77-6.51,8.6-6.51h38.24c8,0,14.3-.08,14.3,10.69s2.16,17.43,4.58,19.84v11.38C659.53,600.19,649.14,624.06,625.62,626.5Z"/><path class="cls-52" d="M648,589a5.18,5.18,0,1,0,5.08,5.28A5.18,5.18,0,0,0,648,589Z"/><path class="cls-52" d="M603.38,588.19a5.19,5.19,0,1,0,5.08,5.28A5.18,5.18,0,0,0,603.38,588.19Z"/><path class="cls-49" d="M601.22,569.86a1.44,1.44,0,0,1-1.29-2.58c3.72-1.91,8.7-2.14,12.35.05a1.44,1.44,0,0,1-1.48,2.48C607.86,568.05,604.19,568.44,601.22,569.86Z"/><path class="cls-49" d="M650.27,578.82a3.61,3.61,0,1,1-7.21,0,1.45,1.45,0,1,0-2.89,0,6.49,6.49,0,0,0,12.52,2.42,1,1,0,0,1,.88.17.41.41,0,0,0,.5-.66,1.8,1.8,0,0,0-1.1-.36v0a1.9,1.9,0,0,1,1.26.13.42.42,0,0,0,.56-.2.43.43,0,0,0-.2-.55,2.73,2.73,0,0,0-1.47-.23h0a2.58,2.58,0,0,1,1.3-.18.41.41,0,0,0,.46-.36.42.42,0,0,0-.37-.46,3.38,3.38,0,0,0-1.37.12,1.43,1.43,0,0,0-1.43-1.25A1.45,1.45,0,0,0,650.27,578.82Z"/><path class="cls-49" d="M651.51,569.86c-3-1.42-6.65-1.81-9.59-.05a1.44,1.44,0,0,1-1.48-2.48c3.65-2.19,8.63-2,12.35-.05a1.44,1.44,0,0,1-1.28,2.58Z"/><path class="cls-55" d="M586.2,574.59v5.55c1.88,0,4.15-2.73,4.15-5.18v-5.08s4.4-7,4.4-14.32,1.71-11.71,8-11.71,12.57,3.29,22.87,3.29,16.59-3.29,22.87-3.29,8,4.37,8,11.71,4.41,14.32,4.41,14.32V575c0,2.45,2.27,5.18,4.14,5.18v-5.55c0-3.84,1.38-5.24,1.38-5.24V552.86c0-56.15-81.58-56.15-81.58,0v16.49S586.23,570.75,586.2,574.59Z"/><path class="cls-56" d="M648.36,517.22a38.6,38.6,0,0,0-3.6-2c.63,5.3-.88,13.78-15.6,16.71-15.54,3.1-20.74-9.26-22.47-16.83a38.28,38.28,0,0,0-13,10.31c5.21,6,13,12.62,23.06,14.07C634.27,542,651.85,529.85,648.36,517.22Z"/><path class="cls-49" d="M586.2,574.59v5.55c1.88,0,4.15-2.73,4.15-5.18v-5.08s4.4-7,4.4-14.32c0-6.4,1.3-10.54,5.8-11.5h0c-6.94-2.3-10.66-5.54-12.53-8.84a47.28,47.28,0,0,0-3.19,17.64v16.49s1.4,1.4,1.37,5.24Zm57.5-30.22a24.8,24.8,0,0,1,4.79-.52c6.28,0,8,4.37,8,11.71s4.41,14.32,4.41,14.32V575c0,2.45,2.27,5.18,4.14,5.18v-5.55c0-3.84,1.38-5.24,1.38-5.24V552.86c0-13.25-4.55-23.37-11.49-30.37,9.36,15.13-11.22,21.88-11.22,21.88Z"/><path class="cls-49" d="M602.45,578.82a3.61,3.61,0,1,0,7.21,0,1.45,1.45,0,1,1,2.89,0,6.5,6.5,0,0,1-11.09,4.59,6.61,6.61,0,0,1-1.43-2.17,1,1,0,0,0-.88.17.41.41,0,0,1-.5-.66,1.8,1.8,0,0,1,1.1-.36v0a1.9,1.9,0,0,0-1.26.13.41.41,0,0,1-.55-.2.42.42,0,0,1,.19-.55,2.73,2.73,0,0,1,1.47-.23h0a2.58,2.58,0,0,0-1.3-.18.4.4,0,0,1-.45-.36.41.41,0,0,1,.36-.46,3.38,3.38,0,0,1,1.37.12,1.44,1.44,0,0,1,2.87.2Z"/><path class="cls-57" d="M621.13,599.29a1.6,1.6,0,0,0-3.2,0,7.73,7.73,0,0,0,15.45-.19,1.61,1.61,0,0,0-3.21,0,4.53,4.53,0,0,1-1.27,3.22,4.55,4.55,0,0,1-6.41.08A4.54,4.54,0,0,1,621.13,599.29Z"/><path class="cls-50" d="M427.54,843c-4,9.74.54,26,3.23,31.77,3.22,6.93,46,25.69,92.63,28.74s100.07,9.63,103.79,10.31,81.31,10,92.8,13.69,4.9-9.13-2.37-11.16-10.9-1.69-13.18-2.87-10.31-7.52-25.19-13.1S656.77,885.87,652.72,882s-12.85-4.56-18.09-3-8.79,9.81-20.79,10-34.48-6.42-71.5-22.82c-27.51-12.18-52.21-20-72.94-22.76C463.92,842.59,428.62,840.37,427.54,843Z"/><path class="cls-51" d="M427.54,843c-4,9.74.54,26,3.23,31.77,3.22,6.93,46,25.69,92.63,28.74s100.07,9.63,103.79,10.31,81.31,10,92.8,13.69c6.36,2.06,7.18-1,5.42-4.4-.15,1.31-2.27,2-8.37.53s-39.77-10.84-68.85-15.18-38.71-1.6-90.77-7.39-93-19.28-107-25.7S432.91,858.21,441.1,850s42.39-4.15,42.43-4.15q-7.33-1.62-14.12-2.53C463.92,842.59,428.62,840.37,427.54,843Z"/><path class="cls-44" d="M610.58,545s-3.85-5.88-6.06-6c-2-.07-3.64,3.29-4.55,5.15a9.72,9.72,0,0,1,2.78-.36,35.85,35.85,0,0,1,7.83,1.16Z"/><path class="cls-43" d="M610.58,545s-3.13-4.59-6.71-4.71-8.18,17.55-5,28.21c0,0,1.08,3-3.11,3.47s-6.9-2.19-6-14.11S597.89,537.93,603,538,609.9,543,610.58,545Z"/><path class="cls-50" d="M847.1,724.6c6.65-11.46,15.84-23,16.81-18.38s-8.11,15.25-12.33,20.35S847.1,724.6,847.1,724.6Z"/><path class="cls-50" d="M848.86,725.08c10.15-10.8,23.09-21.07,23-15.77s-12.7,14.57-18.59,19.06S848.86,725.08,848.86,725.08Z"/><path class="cls-51" d="M852.26,713.76a10.58,10.58,0,0,0-.77-1,14.45,14.45,0,0,0-8.85-4.28c-2.86-.18-5,1.08-5,2.58s2.19,2.12,2.19,2.12c6.71.7,8.31,6.45,5.69,10.25a9.57,9.57,0,0,1-2.79,2.66c.29-.07.6-.19.94-.3C846.64,724.91,856.11,718.54,852.26,713.76Z"/><path class="cls-50" d="M854.07,726.41a16.93,16.93,0,0,1-2.19,6.87c7.53-5.59,13.11-9.79,14.9-11.07,4.44-3.2,6.35-4.49,6.52-6a2.3,2.3,0,0,0-1.72-.52c-2,.16-11,4.89-15,7.11-1,.58-1.73,1-1.91,1.1a1,1,0,0,1-.5.2C854.19,724.8,854.16,725.58,854.07,726.41Z"/><path class="cls-50" d="M404.14,724.6c-6.66-11.46-15.85-23-16.82-18.38s8.12,15.25,12.34,20.35S404.14,724.6,404.14,724.6Z"/><path class="cls-50" d="M402.38,725.08c-10.15-10.8-23.09-21.07-23-15.77s12.71,14.57,18.6,19.06S402.38,725.08,402.38,725.08Z"/><path class="cls-51" d="M399,713.76a9.19,9.19,0,0,1,.78-1,14.42,14.42,0,0,1,8.85-4.28c2.86-.18,5,1.08,5,2.58s-2.2,2.12-2.2,2.12c-6.7.7-8.3,6.45-5.68,10.25a9.44,9.44,0,0,0,2.79,2.66c-.3-.07-.61-.19-.95-.3C404.6,724.91,395.13,718.54,399,713.76Z"/></svg>