<?xml version="1.0" encoding="utf-8"?>
<!-- Generator: Adobe Illustrator 23.0.3, SVG Export Plug-In . SVG Version: 6.00 Build 0)  -->
<svg version="1.1" id="Capa_1" xmlns="http://www.w3.org/2000/svg" xmlns:xlink="http://www.w3.org/1999/xlink" x="0px" y="0px"
	 viewBox="0 0 1080 1080" style="enable-background:new 0 0 1080 1080;" xml:space="preserve">
<style type="text/css">
	.st0{fill:#D36011;}
	.st1{fill:#F3CAD0;}
	.st2{fill:#FDBB27;}
	.st3{fill:#F4A914;}
	.st4{fill:#009FE0;}
	.st5{fill:#FFB89F;}
	.st6{fill:#485565;}
	.st7{fill:#16BBEF;}
	.st8{fill:#FFC764;}
	.st9{fill:#FFC9BB;}
	.st10{opacity:0.4;}
	.st11{fill:#EAB0BB;}
	.st12{fill:#EAB7C1;}
	.st13{fill:#E598AB;}
	.st14{fill:#C35151;}
	.st15{fill:#EAA0AE;}
	.st16{fill:#94DCE0;}
	.st17{fill:#FFFFFF;}
</style>
<g id="Grupo_171" transform="translate(-283.257 -86.322)">
	<g id="Grupo_167" transform="translate(283.257 201.995)">
		<g id="Grupo_163" transform="translate(0 0)">
			<path id="Trazado_25" class="st0" d="M646.97,358.5c0,0-34.68,13.54-60.01,59.87c-25.33,46.33-32.56,59.16-62.23,74.45
				c-29.67,15.29-65.29,32.12-51.46,80.15c13.83,48.03,51.02,96.51,114.92,104.47c63.9,7.96,132.67-59.34,142.42-81.77
				s20.07-111.79,29.02-135.86L646.97,358.5z"/>
			<path id="Trazado_26" class="st1" d="M738.04,482.21c-25.53,44.29-73.47,64.49-107.05,45.13
				c-33.59-19.36-40.11-70.97-14.57-115.25s73.46-64.5,107.05-45.13C757.06,386.33,763.57,437.92,738.04,482.21z"/>
			<path id="Trazado_27" class="st1" d="M619.32,510.64c0,0-19.54,18.82-34.01,18.82c0,0-3.62,75.26,0,78.88
				c3.62,3.62,54.27-54.27,54.27-54.27l5.79-28.22L619.32,510.64z"/>
			<path id="Trazado_28" class="st2" d="M591.25,528.55c0,0,19.37,39.25,48.33,25.51c0,0,45.59,26.76,50.65,37.63
				c5.06,10.87-15.57,80.93-23.16,91.91c-7.6,10.25-18.23,17.85-30.39,21.71c0,0-36.91,47.76-26.06,83.94
				c0,0-116.51,6.51-171.5-40.53c0,0,44.86-59.34,49.93-83.94c5.07-24.6,7.24-128.08,26.06-141.83
				C533.93,509.21,551.61,507.38,591.25,528.55z"/>
			<path id="Trazado_29" class="st3" d="M672.1,642.59c0,0,15.47,80.6,55.03,80.58l12.54-22.69l-43.42-101.31L672.1,642.59z"/>
			<g id="Grupo_158" transform="translate(0 101.033)">
				<g id="Grupo_156">
					<path id="Trazado_30" class="st4" d="M588.19,715.71c0,0-101.9-69.85-173.8-98.82s-110.67-7.54-94.64,31.38
						c15.89,38.58,176.35,96.46,259.84,101.6L588.19,715.71z"/>
					<path id="Trazado_31" class="st5" d="M588.19,715.72c9.23,3.05,18.9,4.56,28.62,4.48c13.05-0.83,53,1.63,48.7,27.37
						c-4.3,25.73-14.58,25.65-36.41,19.44c-21.83-6.22-34.88-20.03-49.51-17.13L588.19,715.72z"/>
					<path id="Trazado_32" class="st6" d="M638.85,721.66c0,0,54.35,4.3,52.12,33.6c-2.24,29.3-56.82,15.78-64.35,10.98
						C626.6,766.24,676,758.74,638.85,721.66z"/>
				</g>
				<g id="Grupo_157" transform="translate(12.991 4.084)">
					<path id="Trazado_33" class="st7" d="M452.94,703.68c0,0,108.11-59.74,182.48-81.7s110.89,3.11,91.21,40.3
						c-19.53,36.88-184.8,79.11-268.4,76.21L452.94,703.68z"/>
					<path id="Trazado_34" class="st5" d="M455,704.27c-9.48,2.15-19.25,2.72-28.92,1.7c-12.91-2.07-52.91-3.45-51.11,22.58
						c1.8,26.03,12.05,26.93,34.38,22.84c22.33-4.1,36.65-16.59,50.93-12.3L455,704.27z"/>
					<path id="Trazado_35" class="st6" d="M404.01,705.33c0,0-54.52-0.95-55.09,28.44c-0.57,29.39,55.05,21.15,63,17.11
						C411.92,750.87,363.47,738.66,404.01,705.33z"/>
				</g>
			</g>
			<path id="Trazado_36" class="st8" d="M565.04,535.21c0,0-12.54,135.58-12.54,141.42S621,799.25,621,799.25l-44.35,14.6
				c0,0-70.48-102.2-76.26-119.7c-5.79-17.5-1.93-151.47,4.82-164.78C511.96,516.06,549.58,495,565.04,535.21z"/>
			<path id="Trazado_37" class="st0" d="M677.78,394.23c0,0-5.1,24.01,18.47,47.1c23.56,23.09,34.54,45.26,28.83,61.55
				c0,0,30.92-20.13,38.56-55.32c7.64-35.19-5.76-78.65-46.1-94.24c-40.33-15.59-124.78,7.46-118.96,83.78
				c0,0,31.82,0.45,42.57-19.98C651.9,396.69,677.78,394.23,677.78,394.23z"/>
			<g id="Grupo_160" transform="translate(75.41 128.495)">
				<path id="Trazado_38" class="st9" d="M538.85,672.73c0,0,16.66,7.66,13.9,11.05c-2.77,3.39-11.62-1.01-11.62-1.01
					s11.52,6.92,11.62,9.19c0.1,2.27-3.55,5.25-8.45,3.82c-2.35,3.11-6.54,4.16-10.08,2.53c-2.78,2.4-6.55,3.29-10.11,2.38
					c-2.33,1.71-5.45,1.87-7.94,0.41c-4.37-2.47-9.86-17.57-9.86-17.57L538.85,672.73z"/>
				<g id="Grupo_159" transform="translate(2.941 3.691)" class="st10">
					<path id="Trazado_39" class="st11" d="M520.71,696.2c-0.51-0.36-0.98-0.77-1.43-1.2c-0.4-0.4-0.89-0.84-1.37-1.36
						c-0.48-0.52-0.91-1.13-1.39-1.71c-0.48-0.58-0.9-1.2-1.26-1.81c-0.36-0.61-0.59-1.24-0.83-1.76c-0.45-1.06-0.7-1.73-0.7-1.73
						s0.46,0.61,1.08,1.53c0.29,0.48,0.67,1,1.01,1.59c0.34,0.59,0.87,1.13,1.31,1.72c0.44,0.59,0.84,1.21,1.29,1.74
						c0.44,0.53,0.82,1.06,1.17,1.49C520.27,695.6,520.71,696.2,520.71,696.2z"/>
					<path id="Trazado_40" class="st11" d="M530.24,693.02c-0.51-0.36-0.98-0.77-1.43-1.2c-0.4-0.4-0.89-0.84-1.37-1.36
						c-0.48-0.52-0.91-1.13-1.39-1.71c-0.48-0.58-0.9-1.2-1.26-1.81c-0.36-0.61-0.59-1.25-0.83-1.76c-0.45-1.06-0.7-1.73-0.7-1.73
						s0.46,0.61,1.08,1.54c0.29,0.47,0.67,1,1.01,1.59c0.34,0.6,0.87,1.13,1.31,1.71c0.44,0.58,0.84,1.21,1.29,1.76
						c0.44,0.55,0.82,1.06,1.17,1.49C529.79,692.42,530.24,693.02,530.24,693.02z"/>
					<path id="Trazado_41" class="st11" d="M540.63,691.24c-0.52-0.34-1.02-0.71-1.49-1.13c-0.41-0.38-0.92-0.79-1.43-1.28
						c-0.5-0.49-0.97-1.08-1.47-1.64c-0.5-0.56-0.96-1.16-1.35-1.76c-0.38-0.61-0.65-1.21-0.92-1.71c-0.51-1.01-0.79-1.69-0.79-1.69
						s0.49,0.59,1.16,1.48c0.32,0.45,0.7,0.96,1.08,1.54c0.38,0.58,0.93,1.08,1.41,1.65s0.9,1.17,1.36,1.68s0.88,1.01,1.25,1.43
						C540.15,690.66,540.63,691.24,540.63,691.24z"/>
				</g>
			</g>
			<g id="Grupo_162" transform="translate(102.236 41.64)">
				<g id="Grupo_161" transform="translate(0)">
					<path id="Trazado_42" class="st12" d="M574.69,499.56c-2.19-5.94,0.33-12.58,5.9-15.57c9.73-5.11,15.03-6.27,18.09-9.74
						c5.07-5.43,10.53-10.49,16.32-15.14c2.6-1.53,5.47-2.56,8.45-3.04c0,0,4.14-2.97,6.8-1.93c1.16-0.61,2.56-0.53,3.66,0.2
						c-4.7,5.75-8.83,11.95-12.33,18.51c-4.31,8.8-6.41,11.62-8.59,13.62c-4.67,4.34-10.22,7.63-16.27,9.65
						C590.1,497.72,574.69,499.56,574.69,499.56z"/>
					<path id="Trazado_43" class="st13" d="M606.34,473.93c0,0,0.92-1.26,2.43-3.03c1.51-1.77,3.62-4.05,5.72-6.3
						c2.1-2.25,4.31-4.39,6.03-5.97s2.95-2.56,2.95-2.56s-0.87,1.27-2.33,3.08c-1.46,1.81-3.47,4.18-5.6,6.45
						c-2.13,2.27-4.44,4.32-6.18,5.86C607.6,473.01,606.34,473.93,606.34,473.93z"/>
					<path id="Trazado_44" class="st13" d="M616.14,474.26c0,0,0.7-1.41,1.88-3.38c1.17-1.97,2.82-4.58,4.6-7.1
						c1.79-2.52,3.65-4.93,5.11-6.73c1.46-1.8,2.54-2.9,2.54-2.9s-0.7,1.41-1.88,3.38c-1.18,1.98-2.82,4.58-4.6,7.1
						s-3.65,4.93-5.11,6.72S616.14,474.26,616.14,474.26z"/>
				</g>
				<path id="Trazado_45" class="st8" d="M573.95,499.35c0,0,7.67,113.65,14.84,140.67c7.17,27.02,29.36,40.53,39.97,41.49
					s16.4-42.46,13.51-59.82c-2.89-17.37-37.6-128.62-37.6-128.62L573.95,499.35z"/>
			</g>
		</g>
		<g id="Grupo_166" transform="translate(92.792 23.642)">
			<g id="Grupo_164" transform="translate(13.115 9.982)">
				<path id="Trazado_46" class="st14" d="M592.66,455.88c-3.17,3.14-7.06,4.34-8.72,2.68c-1.65-1.66-0.43-5.56,2.73-8.71
					c3.16-3.14,7.04-4.35,8.72-2.69C597.06,448.83,595.82,452.71,592.66,455.88z"/>
				<path id="Trazado_47" class="st0" d="M596.12,433.51c0.86,0.87,1.67,1.8,2.41,2.77c1.59,2.08,3.08,4.25,4.44,6.5
					c0.7,1.25,1.46,2.42,2.07,3.61c0.61,1.19,1.26,2.22,1.72,3.21c0.46,0.99,0.94,1.7,1.21,2.3c0.27,0.6,0.44,0.94,0.44,0.94
					s-0.32-0.18-0.86-0.55c-0.76-0.49-1.47-1.06-2.11-1.69c-0.91-0.87-1.75-1.82-2.52-2.82c-2.51-3.24-4.49-6.86-5.85-10.73
					C596.66,435.91,596.34,434.72,596.12,433.51z"/>
			</g>
			<g id="Grupo_165">
				<path id="Trazado_48" class="st14" d="M553.03,424.3c-2.87,3.4-3.75,7.4-1.96,8.9c1.79,1.51,5.57,0,8.45-3.42
					c2.88-3.42,3.76-7.4,1.97-8.9C559.69,419.37,555.91,420.89,553.03,424.3z"/>
				<path id="Trazado_49" class="st0" d="M575.03,419.03c-0.94-0.79-1.92-1.52-2.95-2.18c-2.21-1.42-4.49-2.72-6.84-3.89
					c-1.3-0.58-2.53-1.26-3.76-1.76c-1.24-0.5-2.32-1.06-3.34-1.45c-1.02-0.4-1.76-0.8-2.4-1.02c-0.64-0.23-0.97-0.35-0.97-0.35
					s0.2,0.31,0.61,0.82c0.55,0.72,1.18,1.38,1.86,1.97c0.94,0.83,1.94,1.6,3,2.28c3.43,2.25,7.2,3.92,11.16,4.95
					C572.59,418.71,573.8,418.93,575.03,419.03z"/>
			</g>
		</g>
		<path id="Trazado_50" class="st15" d="M640.15,489.36c1.77,0.24,3.51,0.68,5.19,1.31c5.48,1.99,10.51,5.06,14.79,9.02
			c1.33,1.22,2.54,2.56,3.62,4.01c0.81,1.03,1.5,2.16,2.04,3.36c0.4,0.87,0.58,1.38,0.58,1.38s-0.55-0.2-1.41-0.58
			c-0.86-0.38-1.94-0.98-3.36-1.62c-1.42-0.65-2.88-1.52-4.55-2.44c-1.67-0.92-3.27-2.05-4.95-3.17c-3.07-2.11-5.92-4.51-8.53-7.17
			C642.3,492.2,641.16,490.83,640.15,489.36z"/>
	</g>
	<g id="Grupo_170" transform="translate(291.911 86.322)">
		<g id="Grupo_168" transform="translate(0)">
			<path id="Trazado_51" class="st16" d="M637.39,188.79c7.31-6.73,11.58-16.15,11.84-26.08c0-24.72-28.15-44.76-62.86-44.76h-0.12
				c-2.38-33.91-41.75-60.88-89.97-60.88c-49.74,0-90.08,28.72-90.08,64.14c0,0.38,0.03,0.76,0.04,1.14
				c-28,4.53-48.91,22.32-48.91,43.62c0.04,5.04,1.21,10,3.45,14.52c-13.73,6.5-22.81,17.61-22.81,30.24c0,15.8,14.2,29.21,34,34.19
				c-0.19,1.37-0.28,2.74-0.29,4.12c0,24.72,28.15,44.76,62.87,44.76c7.59,0,15.15-1,22.47-3c16.52,13.69,41,22.38,68.32,22.38
				c44.83,0,82.01-23.33,88.91-53.88c2.88,0.36,5.78,0.55,8.68,0.56c28.17,0,50.98-16.25,50.98-36.3
				C673.93,207.11,658.51,193.22,637.39,188.79z"/>
			<path id="Trazado_52" class="st16" d="M586.93,338.28c0,6.85-12.14,12.41-27.12,12.41c-14.98,0-27.12-5.55-27.12-12.41
				s12.14-12.41,27.12-12.41C574.8,325.87,586.93,331.43,586.93,338.28z"/>
			<path id="Trazado_53" class="st16" d="M614.57,378.41c0,4.35-7.71,7.88-17.22,7.88s-17.22-3.52-17.22-7.88s7.71-7.88,17.22-7.88
				S614.57,374.06,614.57,378.41z"/>
			<path id="Trazado_54" class="st16" d="M652.29,413.99c0,3.94-6.98,7.13-15.58,7.13c-8.6,0-15.58-3.19-15.58-7.13
				c0-3.94,6.98-7.13,15.58-7.13C645.3,406.85,652.29,410.05,652.29,413.99z"/>
		</g>
		<g id="Grupo_169" transform="translate(17.454 18.372)">
			<path id="Trazado_55" class="st17" d="M520.75,108.37c-37.18-1-122.36,14.35-103.12,70.66c6.72,19.68,27.34,32.57,45.02,41.11
				c19.4,9.37,42.54,15.8,64.21,13.03c14.71-1.89,26.91-10.97,27.19-26.65c0.3-17.45-15.34-33.45-27.16-44.28
				c-16.78-15.19-36.38-26.94-57.69-34.57c-13.86-4.99-34.14-9.46-46.98,0.55c-15.39,11.99-38.31,33.41-40.15,54.41
				c-1.8,20.84,21.45,23.52,37.28,23.24c22.73-0.41,45.66-5.33,67.61-10.86c22.21-5.05,43.67-12.98,63.82-23.59
				c8.76-4.9,22.56-14.13,18.57-26.06c-4.06-12.16-19.51-13.13-29.84-10.79c-17.88,4.06-33.9,17.1-47.05,29.23
				c-13.79,12.72-27.33,28.59-34.31,46.23c-17.3,43.69,36.98,45.25,65.69,34.83c17.52-6.36,37.02-18.36,43.7-36.7
				c6.27-17.21-13.64-35.21-23.5-46.8c-14.92-17.55-74.63-84.23-99.75-46.64c-18.98,28.42,1.37,78.66,28.79,94.27
				c25.32,14.44,61.77-9.22,76.72-29.38c20.3-27.39-5.95-50.27-34.47-52.86c-47.54-4.33-129.7,61.67-77.66,106.97
				c3.27,2.85,8.07-1.91,4.78-4.77c-48.04-41.82,34.18-103.18,77.27-94.67c13.69,2.7,33.74,11.62,31.06,28.59
				c-2.55,16.09-21.58,27.58-34.29,34.86c-12.02,6.88-24.53,12.14-38.03,6.42c-10.41-4.41-17.75-14.17-23.17-23.68
				c-9.51-16.69-16.31-43.04-6.15-60.87c13.71-24.05,50.48,7.4,62.22,17.76c9.93,8.96,19.25,18.57,27.9,28.77
				c7.61,8.8,18.19,19.27,22.09,30.46c8.23,23.59-35.13,41.2-50.87,45.39c-16.99,4.53-53.64,5.28-48.7-21.13
				c3.66-19.53,19.88-37.13,33.55-50.48c13.59-13.27,32.38-28.67,52.14-30.28c5.9-0.48,15.43,2.23,15.9,9.43
				c0.46,7.14-11.06,13.17-15.99,16.07c-20.68,12.16-45.13,18.76-68.26,24.42c-22.03,5.39-45.29,9.96-68.07,9.05
				c-45.62-1.82-6.23-45.98,9.48-60.52c17.71-16.39,41.99-7.46,61.38,1.71c24.39,11.53,54.05,31.56,63.77,58.02
				c12.87,35.01-39.82,29.18-57.83,24.22c-26.64-7.33-66.86-26.8-66.02-59.46c0.43-16.9,16.58-28.67,30.06-35.6
				c20.88-10.74,45.78-12.91,68.84-12.29c1.87,0,3.38-1.51,3.37-3.38c0-1.86-1.51-3.37-3.37-3.37L520.75,108.37z"/>
		</g>
	</g>
</g>
</svg>
