<svg xmlns="http://www.w3.org/2000/svg" xmlns:xlink="http://www.w3.org/1999/xlink" width="729" height="226" viewBox="0 0 729 226">
  <defs>
    <clipPath id="clip-Mesa_de_trabajo_3">
      <rect width="729" height="226"/>
    </clipPath>
  </defs>
  <g id="Mesa_de_trabajo_3" data-name="Mesa de trabajo – 3" clip-path="url(#clip-Mesa_de_trabajo_3)">
    <rect width="729" height="226" fill="#fff"/>
    <g id="Grupo_189" data-name="Grupo 189" transform="translate(0.59 -569.081)">
      <path id="Trazado_299" data-name="Trazado 299" d="M2599.263,790.683v90.009" transform="translate(-2210.322 -154)" fill="none" stroke="#707070" stroke-width="4" opacity="0.45"/>
      <text id="versión_1.10.2" data-name="versión 1.10.2" transform="translate(529.41 686.081)" fill="#0f3455" font-size="25" font-family="NotoSansJP-Bold, Noto Sans JP" font-weight="700"><tspan x="-85.95" y="0">versión 1.10.2</tspan></text>
      <g id="Grupo_188" data-name="Grupo 188" transform="translate(91.627 637.662)">
        <path id="Trazado_22" data-name="Trazado 22" d="M650.261,187.608" transform="translate(-581.388 -112.083)" fill="#171616"/>
        <path id="Trazado_23" data-name="Trazado 23" d="M689.037,162.481a7.2,7.2,0,0,0-.818.051l-4.2-12.077A4.318,4.318,0,1,0,681.2,151.5c.079,0,.157-.008.235-.012l4.134,11.885a7.2,7.2,0,0,0-3.326,3.969h-9.069a5.373,5.373,0,0,0-5.372-5.368c-.064,0-.128.008-.192.009l-3.724-16.756a7.306,7.306,0,1,0-7.849-1.049l-6.411,8.841a8.074,8.074,0,0,0-8.418,1.63l-9.445-8.622a5.792,5.792,0,1,0-10.263,1l-6.75,5.838a9.872,9.872,0,1,0,1.927,1.959l6.818-5.894a5.767,5.767,0,0,0,6.647-.624l9.375,8.558a8.087,8.087,0,0,0,1.134,9.125l-7.688,8.422a7.182,7.182,0,1,0,2.45,9.255l11.372,5.448a7.178,7.178,0,1,0,13.359,3.711h11.465a8.1,8.1,0,0,0,3.2,4.262l-6.433,9.324a7.2,7.2,0,1,0,2.386,1.43l6.636-9.619a8.086,8.086,0,1,0-6.152-8.173h-11.63a7.166,7.166,0,0,0-10.882-3.082l-12.56-6.017c.013-.18.028-.358.028-.542a7.14,7.14,0,0,0-1.255-4.051l7.876-8.628a8.123,8.123,0,0,0,9.2-13.283l6.449-8.893a7.277,7.277,0,0,0,2.3.377c.141,0,.279-.013.419-.021l3.753,16.892a5.369,5.369,0,1,0,7.451,7.319h9.48a7.178,7.178,0,1,0,7.158-7.64Z" transform="translate(-598.931 -131.32)" fill="#002f43"/>
        <circle id="Elipse_21" data-name="Elipse 21" cx="2.708" cy="2.708" r="2.708" transform="translate(12.405 42.985)" fill="#005089"/>
        <circle id="Elipse_22" data-name="Elipse 22" cx="2.996" cy="2.996" r="2.996" transform="translate(26.969 28.454)" fill="#005089"/>
        <circle id="Elipse_23" data-name="Elipse 23" cx="2.996" cy="2.996" r="2.996" transform="translate(73.838 23.651)" fill="#00a3d8"/>
        <circle id="Elipse_24" data-name="Elipse 24" cx="2.996" cy="2.996" r="2.996" transform="translate(42.17 8.035)" fill="#00a3d8"/>
        <circle id="Elipse_25" data-name="Elipse 25" cx="2.996" cy="2.996" r="2.996" transform="translate(62.444 45.911)" fill="#00a3d8"/>
        <circle id="Elipse_26" data-name="Elipse 26" cx="2.996" cy="2.996" r="2.996" transform="translate(46.86 42.53)" fill="#00a3d8"/>
        <circle id="Elipse_27" data-name="Elipse 27" cx="1.635" cy="1.635" r="1.635" transform="translate(78.751 44.276)" fill="#005089"/>
        <circle id="Elipse_28" data-name="Elipse 28" cx="1.635" cy="1.635" r="1.635" transform="translate(64.976 66.729)" fill="#005089"/>
        <circle id="Elipse_29" data-name="Elipse 29" cx="1.635" cy="1.635" r="1.635" transform="translate(59.173 21.362)" fill="#005089"/>
        <circle id="Elipse_30" data-name="Elipse 30" cx="1.635" cy="1.635" r="1.635" transform="translate(71.916 10.863)" fill="#005089"/>
        <text id="diami" transform="translate(108.31 51.847)" fill="#002f43" font-size="52" font-family="ProductSans-Black, Product Sans Black" font-weight="800"><tspan x="0" y="0">diami</tspan></text>
      </g>
    </g>
  </g>
</svg>
