<svg id="Capa_1" data-name="Capa 1" xmlns="http://www.w3.org/2000/svg" xmlns:xlink="http://www.w3.org/1999/xlink" viewBox="0 0 870.94 870.94"><defs><style>.cls-1{fill:#cdf8ff;}.cls-2{fill:url(#Degradado_sin_nombre_5);}.cls-3{fill:url(#Degradado_sin_nombre_14);}.cls-4{fill:url(#Degradado_sin_nombre_14-2);}.cls-5{fill:url(#Degradado_sin_nombre_14-3);}.cls-6{fill:url(#Degradado_sin_nombre_9);}.cls-7{fill:url(#Degradado_sin_nombre_8);}.cls-8{fill:#eefdff;}.cls-9{fill:url(#Degradado_sin_nombre_9-2);}.cls-10{fill:url(#Degradado_sin_nombre_8-2);}.cls-11{fill:url(#Degradado_sin_nombre_9-3);}.cls-12{fill:url(#Degradado_sin_nombre_14-4);}.cls-13{fill:#fff;}.cls-14{fill:url(#Degradado_sin_nombre_11);}.cls-15{fill:url(#Degradado_sin_nombre_12);}.cls-16{fill:url(#Degradado_sin_nombre_13);}.cls-17{fill:url(#Degradado_sin_nombre_14-5);}.cls-18{fill:url(#Degradado_sin_nombre_15);}.cls-19{isolation:isolate;fill:url(#Degradado_sin_nombre_6);}</style><linearGradient id="Degradado_sin_nombre_5" x1="91.47" y1="916.42" x2="73.97" y2="947.25" gradientTransform="matrix(11.74, 0, 0, -6.83, 274.43, 7543.39)" gradientUnits="userSpaceOnUse"><stop offset="0" stop-color="#06bed8"/><stop offset="1" stop-color="#004666"/></linearGradient><linearGradient id="Degradado_sin_nombre_14" x1="279.19" y1="1065.82" x2="242.9" y2="1066.62" gradientTransform="matrix(1.05, 0, 0, -6.93, 161.18, 7511.31)" gradientUnits="userSpaceOnUse"><stop offset="0" stop-color="#06cff1"/><stop offset="1" stop-color="#dcedf9"/></linearGradient><linearGradient id="Degradado_sin_nombre_14-2" x1="34.28" y1="1037.89" x2="26.92" y2="1054.75" gradientTransform="matrix(9.24, 0, 0, -4.55, 265.07, 5053.79)" xlink:href="#Degradado_sin_nombre_14"/><linearGradient id="Degradado_sin_nombre_14-3" x1="14.05" y1="1063.01" x2="5.89" y2="1073.73" gradientTransform="matrix(33.05, 0, 0, -25.13, 229.35, 27305.11)" xlink:href="#Degradado_sin_nombre_14"/><linearGradient id="Degradado_sin_nombre_9" x1="11.91" y1="1045.57" x2="11.82" y2="1056.42" gradientTransform="matrix(25.71, 0, 0, -9.93, 240.36, 10880.69)" gradientUnits="userSpaceOnUse"><stop offset="0" stop-color="#030d14"/><stop offset="1" stop-color="#0b2f45"/></linearGradient><radialGradient id="Degradado_sin_nombre_8" cx="-41.94" cy="1041.48" r="5.99" gradientTransform="translate(179.21 8126.3) rotate(180) scale(7.48)" gradientUnits="userSpaceOnUse"><stop offset="0.13" stop-color="#3280fc"/><stop offset="1"/></radialGradient><linearGradient id="Degradado_sin_nombre_9-2" x1="79.6" y1="1015.78" x2="67.51" y2="1015.78" gradientTransform="matrix(4.51, 0, 0, -4.51, 161.22, 4917.22)" xlink:href="#Degradado_sin_nombre_9"/><radialGradient id="Degradado_sin_nombre_8-2" cx="29.96" cy="1041.48" r="5.99" gradientTransform="matrix(7.48, 0, 0, -7.48, 146.66, 8126.3)" xlink:href="#Degradado_sin_nombre_8"/><linearGradient id="Degradado_sin_nombre_9-3" x1="54.74" y1="1015.78" x2="42.65" y2="1015.78" gradientTransform="matrix(4.51, 0, 0, -4.51, 151.12, 4917.22)" xlink:href="#Degradado_sin_nombre_9"/><linearGradient id="Degradado_sin_nombre_14-4" x1="112.97" y1="1058.55" x2="94.22" y2="1061.28" gradientTransform="matrix(2.7, 0, 0, -2.7, 274.87, 3048.08)" xlink:href="#Degradado_sin_nombre_14"/><linearGradient id="Degradado_sin_nombre_11" x1="43.36" y1="952.16" x2="31.24" y2="978.44" gradientTransform="matrix(6.44, 0, 0, -2.97, 268.45, 3361.09)" gradientUnits="userSpaceOnUse"><stop offset="0" stop-color="#3f88ad"/><stop offset="1" stop-color="#3487c4"/></linearGradient><linearGradient id="Degradado_sin_nombre_12" x1="17.07" y1="1044.76" x2="7.69" y2="1059.07" gradientTransform="matrix(22.04, 0, 0, -16.88, 245.04, 18412.43)" gradientUnits="userSpaceOnUse"><stop offset="0" stop-color="#3a68ab"/><stop offset="0.05" stop-color="#316fb0"/><stop offset="0.24" stop-color="#1686c0"/><stop offset="0.41" stop-color="#0594ca"/><stop offset="0.54" stop-color="#0099ce"/><stop offset="0.66" stop-color="#2ba8d6"/><stop offset="0.92" stop-color="#99cfed"/><stop offset="1" stop-color="#bcdcf4"/></linearGradient><linearGradient id="Degradado_sin_nombre_13" x1="33.12" y1="949.21" x2="21.85" y2="988.14" gradientTransform="matrix(11.02, 0, 0, -3.73, 267.08, 4191.78)" gradientUnits="userSpaceOnUse"><stop offset="0.04" stop-color="#06cff1"/><stop offset="1" stop-color="#defa8e"/></linearGradient><linearGradient id="Degradado_sin_nombre_14-5" x1="-356.38" y1="1127.48" x2="-387.64" y2="1134.7" gradientTransform="matrix(5.44, 0, 0, -12.27, 260.96, 13422.98)" xlink:href="#Degradado_sin_nombre_14"/><linearGradient id="Degradado_sin_nombre_15" x1="112.41" y1="1032.08" x2="59.5" y2="1037.05" gradientTransform="matrix(2.07, 0, 0, -11.49, 268.5, 12587.56)" gradientUnits="userSpaceOnUse"><stop offset="0" stop-color="#06cff1"/><stop offset="1" stop-color="#0074a2"/></linearGradient><radialGradient id="Degradado_sin_nombre_6" cx="-28.05" cy="938.95" r="14.77" gradientTransform="translate(174.71 3888.32) rotate(180) scale(8.65 3.54)" gradientUnits="userSpaceOnUse"><stop offset="0" stop-color="#128eec"/><stop offset="1" stop-color="#fff" stop-opacity="0"/></radialGradient></defs><title>chat_icon</title><circle id="Elipse_35" data-name="Elipse 35" class="cls-1" cx="435.47" cy="435.47" r="435.47"/><g id="Grupo_190" data-name="Grupo 190"><path id="Trazado_3" data-name="Trazado 3" class="cls-2" d="M724.72,589.58c-60,16.43-74.16,11.83-84.85,27.92a36.62,36.62,0,0,0-6.25,23.4,34.84,34.84,0,0,0,9.77,20.37c20.56,19.89,77.1-4.44,109.48-31.07,7.06-5.8,26-21.37,22.18-32.43a16.58,16.58,0,0,0-9.9-8.35A59.08,59.08,0,0,0,724.72,589.58Z" transform="translate(-116.16 -103.66)"/><rect id="Rectángulo_1" data-name="Rectángulo 1" class="cls-3" x="423.34" y="82.69" width="12.76" height="83.79"/><path id="Rectángulo_2" data-name="Rectángulo 2" class="cls-4" d="M517.56,261.36h56.66a27.53,27.53,0,0,1,27.53,27.53h0a27.53,27.53,0,0,1-27.53,27.53H517.56A27.52,27.52,0,0,1,490,288.89h0A27.52,27.52,0,0,1,517.56,261.36Z" transform="translate(-116.16 -103.66)"/><path id="Rectángulo_3" data-name="Rectángulo 3" class="cls-5" d="M498,287.69h95.76a152,152,0,0,1,152,152h0a152,152,0,0,1-152,152H498a152,152,0,0,1-152-152h0A152,152,0,0,1,498,287.69Z" transform="translate(-116.16 -103.66)"/><path id="Trazado_4" data-name="Trazado 4" class="cls-6" d="M408.87,490.83h0a38.66,38.66,0,0,0,17.06,3.94H665.85a38.59,38.59,0,0,0,17-3.94h0a31.55,31.55,0,0,0,18.29-32.34l-.13-.95a99.11,99.11,0,0,0-96-81.4c-20.93-1.09-42.9-1.64-65.82-1.51q-26.94.15-52,1.49c-49.67,2.56-90.32,36.69-96.5,81.42l-.14,1A31.56,31.56,0,0,0,408.87,490.83Z" transform="translate(-116.16 -103.66)"/><g id="Grupo_8" data-name="Grupo 8"><circle id="Elipse_11" data-name="Elipse 11" class="cls-7" cx="492.95" cy="336.05" r="45.24"/><g id="Grupo_3" data-name="Grupo 3"><circle id="Elipse_12" data-name="Elipse 12" class="cls-8" cx="492.94" cy="336.04" r="32.47"/></g><g id="Grupo_4" data-name="Grupo 4"><circle id="Elipse_13" data-name="Elipse 13" class="cls-9" cx="492.95" cy="336.05" r="27.28"/></g><g id="Grupo_5" data-name="Grupo 5"><path id="Trazado_5" data-name="Trazado 5" class="cls-8" d="M591.64,432.63a10.1,10.1,0,0,0,10.1,10.1h0a10.1,10.1,0,0,0,10.1-10.1h0a10.1,10.1,0,0,0-10.1-10.1h0a10.1,10.1,0,0,0-10.1,10.1Z" transform="translate(-116.16 -103.66)"/></g><g id="Grupo_6" data-name="Grupo 6"><circle id="Elipse_14" data-name="Elipse 14" class="cls-8" cx="496.98" cy="356.96" r="4.03"/></g><g id="Grupo_7" data-name="Grupo 7"><path id="Trazado_6" data-name="Trazado 6" class="cls-8" d="M623.15,454.57a2,2,0,0,0,2,2h0a2,2,0,0,0,2-2h0a2,2,0,0,0-2-2h0a2,2,0,0,0-2,2Z" transform="translate(-116.16 -103.66)"/></g></g><g id="Grupo_14" data-name="Grupo 14"><circle id="Elipse_15" data-name="Elipse 15" class="cls-10" cx="370.74" cy="336.05" r="45.24"/><g id="Grupo_9" data-name="Grupo 9"><circle id="Elipse_16" data-name="Elipse 16" class="cls-8" cx="370.73" cy="336.04" r="32.47"/></g><g id="Grupo_10" data-name="Grupo 10"><circle id="Elipse_17" data-name="Elipse 17" class="cls-11" cx="370.74" cy="336.05" r="27.28"/></g><g id="Grupo_11" data-name="Grupo 11"><path id="Trazado_7" data-name="Trazado 7" class="cls-8" d="M469.43,432.63a10.1,10.1,0,0,0,10.1,10.1h0a10.1,10.1,0,0,0,10.1-10.1h0a10.1,10.1,0,0,0-10.1-10.1h0a10.1,10.1,0,0,0-10.1,10.1Z" transform="translate(-116.16 -103.66)"/></g><g id="Grupo_12" data-name="Grupo 12"><circle id="Elipse_18" data-name="Elipse 18" class="cls-8" cx="374.77" cy="356.96" r="4.03"/></g><g id="Grupo_13" data-name="Grupo 13"><path id="Trazado_8" data-name="Trazado 8" class="cls-8" d="M500.94,454.57a2,2,0,0,0,2,2h0a2,2,0,0,0,2-2h0a2,2,0,0,0-2-2h0a2,2,0,0,0-2,2Z" transform="translate(-116.16 -103.66)"/></g></g><path id="Trazado_9" data-name="Trazado 9" class="cls-12" d="M529.53,180.75a16.36,16.36,0,0,0,16.36,16.35h0a16.35,16.35,0,0,0,16.35-16.35h0a16.36,16.36,0,0,0-16.35-16.36h0a16.37,16.37,0,0,0-16.36,16.36Z" transform="translate(-116.16 -103.66)"/><path id="Trazado_10" data-name="Trazado 10" class="cls-13" d="M534.52,174.37a5,5,0,0,0,5,5h0a5,5,0,0,0,5-5h0a5,5,0,0,0-5-5h0a5,5,0,0,0-5,5Z" transform="translate(-116.16 -103.66)"/><path id="Trazado_11" data-name="Trazado 11" class="cls-13" d="M424.82,346.74A17.89,17.89,0,0,0,438,364.29c6.69.73,12.09-6.05,17.55-13.16s17.32-24.81,12.58-29.87C461.85,314.61,425.31,328.71,424.82,346.74Z" transform="translate(-116.16 -103.66)"/><circle id="Elipse_19" data-name="Elipse 19" class="cls-13" cx="369.77" cy="208.28" r="5.69"/><path id="Trazado_12" data-name="Trazado 12" class="cls-13" d="M405.84,446.08A230.2,230.2,0,0,1,454.51,399c12-7.9,23.84-13.52,23.14-15.15a50.22,50.22,0,0,0-24.73,6.38C418.89,406,403.67,444.55,405.84,446.08Z" transform="translate(-116.16 -103.66)"/><path id="Trazado_13" data-name="Trazado 13" class="cls-13" d="M493.22,277.65c.41,0,.67-2.33,2.66-6a34.06,34.06,0,0,1,2-3.19c3.43-4.72,15-4.61,16-4.61,18.15.16,29.74-1,29.74-.88s-8.47-.09-14.71-.21c-17.54-.36-28-1.3-32.48,3.4a14.87,14.87,0,0,0-2.8,4.49A9.41,9.41,0,0,0,493.22,277.65Z" transform="translate(-116.16 -103.66)"/><path id="Trazado_14" data-name="Trazado 14" class="cls-8" d="M497,514.19a9.22,9.22,0,0,0,8.38,8.09l59.93,5.78a9.22,9.22,0,0,0,9.77-6.34,41.66,41.66,0,0,0,1.3-5.73,2.05,2.05,0,0,0-.4-1.53,2,2,0,0,0-1.4-.76L499,506.44a2,2,0,0,0-2.16,1.88A41.09,41.09,0,0,0,497,514.19Z" transform="translate(-116.16 -103.66)"/><path id="Trazado_15" data-name="Trazado 15" class="cls-14" d="M497,514.19a40,40,0,0,0,77.85,8.26,9.27,9.27,0,0,1-9.53,5.6l-60-5.77A9.26,9.26,0,0,1,497,514.19Z" transform="translate(-116.16 -103.66)"/><path id="Trazado_16" data-name="Trazado 16" class="cls-15" d="M402.61,648.79v1.59a36.88,36.88,0,0,0,1.93,10.51c16.5,50.39,26.38,77,40.25,98.47,2.42,3.71,4.91,7.25,7.61,10.77,3.54,4.67,7.42,9.22,11.73,13.91a70.38,70.38,0,0,0,28.73,16.76,117.84,117.84,0,0,0,42.18,5h1.74a117.62,117.62,0,0,0,42.18-5A70.16,70.16,0,0,0,607.69,784c26.33-28.65,36.46-52.47,59.59-123.14a37.2,37.2,0,0,0,1.91-9.86,40,40,0,0,0,0-4.1,42.9,42.9,0,0,0-10-24.3,55.44,55.44,0,0,0-43.13-20.15l-80.18-.34-78.71-.31A56.83,56.83,0,0,0,412.9,622a43.89,43.89,0,0,0-9.77,20.32c-.17,1-.32,2-.41,3S402.61,647.65,402.61,648.79Z" transform="translate(-116.16 -103.66)"/><path id="Trazado_17" data-name="Trazado 17" class="cls-16" d="M535.93,602.14l80.18.34a55.41,55.41,0,0,1,43.13,20.14,42.85,42.85,0,0,1,10,24.3A42.52,42.52,0,0,0,658.93,622a56.77,56.77,0,0,0-44.26-20.2Z" transform="translate(-116.16 -103.66)"/><path id="Trazado_18" data-name="Trazado 18" class="cls-17" d="M456.24,720.3c1.21-62.19,9.58-74.49-2.83-89.29a36.57,36.57,0,0,0-20.67-12.59,34.77,34.77,0,0,0-22.29,3.63c-24.89,14.1-17.51,75.21-1.12,113.8,3.63,8.47,13.16,31,24.85,30.45A16.55,16.55,0,0,0,445,759.15,59,59,0,0,0,456.24,720.3Z" transform="translate(-116.16 -103.66)"/><path id="Trazado_19" data-name="Trazado 19" class="cls-18" d="M444.8,759.34c2.42,3.72,4.91,7.26,7.61,10.78.86-.88,1.63-1.76,2.32-2.59A58.9,58.9,0,0,0,466,728.7c1.21-62.2,9.6-74.47-2.83-89.27a38.61,38.61,0,0,0-9.68-8.33c12.26,14.74,3.91,27.14,2.74,89.15A59.14,59.14,0,0,1,445,759.1.91.91,0,0,0,444.8,759.34Z" transform="translate(-116.16 -103.66)"/><path id="Trazado_20" data-name="Trazado 20" class="cls-13" d="M409.71,668.46A102.89,102.89,0,0,1,413.82,647c3.28-12.86,7.39-19.12,4.72-21.6-1.74-1.62-5.17-.52-5.94-.28-11.76,3.75-15.39,25.8-14.89,39.6.31,8.47,2.42,17.9,5.47,18.32a3.49,3.49,0,0,0,2.56-.77A19.73,19.73,0,0,0,409.71,668.46Z" transform="translate(-116.16 -103.66)"/><path id="Trazado_21" data-name="Trazado 21" class="cls-13" d="M401.64,692.05a2.42,2.42,0,0,0,2.42,2.42h0a2.42,2.42,0,0,0,2.42-2.42h0a2.42,2.42,0,0,0-2.42-2.42h0a2.42,2.42,0,0,0-2.42,2.42Z" transform="translate(-116.16 -103.66)"/><ellipse id="Elipse_20" data-name="Elipse 20" class="cls-19" cx="423.35" cy="762.11" rx="127.9" ry="52.35"/></g></svg>