<svg id="Capa_1" data-name="Capa 1" xmlns="http://www.w3.org/2000/svg" xmlns:xlink="http://www.w3.org/1999/xlink" viewBox="0 0 615.07 949.79"><defs><style>.cls-1{fill:url(#Degradado_sin_nombre_21);}.cls-2{fill:url(#Degradado_sin_nombre_10);}.cls-3{fill:url(#Degradado_sin_nombre_10-2);}.cls-4{fill:url(#Degradado_sin_nombre_10-3);}.cls-5{fill:url(#Degradado_sin_nombre_5);}.cls-6{fill:url(#Degradado_sin_nombre_10-4);}.cls-7{fill:#fff;}.cls-8{fill:#eefdff;}.cls-9{fill:url(#Degradado_sin_nombre_20);}.cls-10{fill:url(#Degradado_sin_nombre_8);}.cls-11{fill:url(#Degradado_sin_nombre_9);}.cls-12{fill:url(#Degradado_sin_nombre_10-5);}.cls-13{fill:url(#Degradado_sin_nombre_11);}.cls-14{opacity:0.29;isolation:isolate;fill:url(#Degradado_sin_nombre_26);}.cls-15{fill:#089cd0;}.cls-16{fill:#9deaea;}.cls-17{fill:#2ec7b4;}</style><linearGradient id="Degradado_sin_nombre_21" x1="23.91" y1="1041.6" x2="18.89" y2="1050.45" gradientTransform="matrix(51.51, 0, 0, -30.01, 296.16, 32714.59)" gradientUnits="userSpaceOnUse"><stop offset="0" stop-color="#06bed8"/><stop offset="1" stop-color="#004666"/></linearGradient><linearGradient id="Degradado_sin_nombre_10" x1="51.92" y1="1080.98" x2="41.49" y2="1081.21" gradientTransform="matrix(4.63, 0, 0, -30.39, 44.29, 32930.89)" gradientUnits="userSpaceOnUse"><stop offset="0" stop-color="#06cff1"/><stop offset="1" stop-color="#dcedf9"/></linearGradient><linearGradient id="Degradado_sin_nombre_10-2" x1="7.56" y1="1076.2" x2="5.45" y2="1081.04" gradientTransform="matrix(40.52, 0, 0, -19.97, -9.54, 21696.23)" xlink:href="#Degradado_sin_nombre_10"/><linearGradient id="Degradado_sin_nombre_10-3" x1="4.17" y1="1077.27" x2="1.83" y2="1080.35" gradientTransform="matrix(144.98, 0, 0, -110.25, 98.42, 119350.4)" xlink:href="#Degradado_sin_nombre_10"/><linearGradient id="Degradado_sin_nombre_5" x1="3.29" y1="1074.97" x2="3.26" y2="1078.08" gradientTransform="matrix(112.79, 0, 0, -43.58, 146.7, 47306.71)" gradientUnits="userSpaceOnUse"><stop offset="0" stop-color="#030d14"/><stop offset="1" stop-color="#0b2f45"/></linearGradient><linearGradient id="Degradado_sin_nombre_10-4" x1="22.07" y1="1085.2" x2="16.68" y2="1085.98" gradientTransform="matrix(11.86, 0, 0, -11.87, 298.09, 12946.11)" xlink:href="#Degradado_sin_nombre_10"/><linearGradient id="Degradado_sin_nombre_20" x1="9.77" y1="1062.22" x2="6.29" y2="1054.67" gradientTransform="matrix(28.12, 2.46, 1.13, -12.96, -951.08, 14257.59)" gradientUnits="userSpaceOnUse"><stop offset="0" stop-color="#3f88ad"/><stop offset="1" stop-color="#3487c4"/></linearGradient><linearGradient id="Degradado_sin_nombre_8" x1="4.59" y1="1073.82" x2="1.9" y2="1077.93" gradientTransform="matrix(96.71, 0, 0, -73.98, 167.22, 80255.51)" gradientUnits="userSpaceOnUse"><stop offset="0" stop-color="#3a68ab"/><stop offset="0.05" stop-color="#316fb0"/><stop offset="0.24" stop-color="#1686c0"/><stop offset="0.41" stop-color="#0594ca"/><stop offset="0.54" stop-color="#0099ce"/><stop offset="0.66" stop-color="#2ba8d6"/><stop offset="0.92" stop-color="#99cfed"/><stop offset="1" stop-color="#bcdcf4"/></linearGradient><linearGradient id="Degradado_sin_nombre_9" x1="7.47" y1="1057.78" x2="4.23" y2="1068.96" gradientTransform="matrix(48.35, 0, 0, -16.36, 263.93, 17961.9)" gradientUnits="userSpaceOnUse"><stop offset="0.04" stop-color="#06cff1"/><stop offset="1" stop-color="#defa8e"/></linearGradient><linearGradient id="Degradado_sin_nombre_10-5" x1="-105.71" y1="1098.88" x2="-114.69" y2="1100.95" gradientTransform="matrix(23.86, 0, 0, -53.8, 237.07, 58445.97)" xlink:href="#Degradado_sin_nombre_10"/><linearGradient id="Degradado_sin_nombre_11" x1="20.95" y1="1071.84" x2="5.75" y2="1073.27" gradientTransform="matrix(9.09, 0, 0, -50.41, 270.14, 54786.82)" gradientUnits="userSpaceOnUse"><stop offset="0" stop-color="#06cff1"/><stop offset="1" stop-color="#0074a2"/></linearGradient><radialGradient id="Degradado_sin_nombre_26" cx="508.5" cy="927.11" r="123.14" gradientTransform="translate(752.35 1263.36) rotate(180) scale(1 0.41)" gradientUnits="userSpaceOnUse"><stop offset="0" stop-color="#09f"/><stop offset="1" stop-color="#fff"/></radialGradient></defs><title>diami_sleep</title><path id="Trazado_3" data-name="Trazado 3" class="cls-1" d="M741.89,579.06C666.3,599.76,648.44,594,635,614.23a46.19,46.19,0,0,0-7.87,29.48,43.86,43.86,0,0,0,12.3,25.67c25.9,25.06,97.15-5.61,138-39.15,8.89-7.29,32.77-26.93,28-40.86-2-5.72-8.09-8.55-12.48-10.51C773.43,570.17,753.29,575.93,741.89,579.06Z" transform="translate(-264.66 -43.3)"/><rect id="Rectángulo_1" data-name="Rectángulo 1" class="cls-2" x="243.84" y="27.65" width="16.09" height="105.58"/><rect id="Rectángulo_2" data-name="Rectángulo 2" class="cls-3" x="181.5" y="122.17" width="140.79" height="69.38" rx="15.7"/><path id="Rectángulo_3" data-name="Rectángulo 3" class="cls-4" d="M456.21,198.66H576.88c105.79,0,191.55,85.76,191.55,191.55h0c0,105.8-85.76,191.56-191.55,191.56H456.21c-105.79,0-191.55-85.76-191.55-191.56h0C264.66,284.42,350.42,198.66,456.21,198.66Z" transform="translate(-264.66 -43.3)"/><path id="Trazado_4" data-name="Trazado 4" class="cls-5" d="M343.89,454.63h0a48.52,48.52,0,0,0,21.49,5H667.69a48.52,48.52,0,0,0,21.49-5h0a39.76,39.76,0,0,0,23-40.75l-.16-1.21c-7.75-56.15-58.61-99.33-121-102.57-26.39-1.37-54.07-2.09-83-1.91q-33.94.19-65.55,1.87C380,313.29,328.78,356.28,321,412.67l-.17,1.21A39.77,39.77,0,0,0,343.89,454.63Z" transform="translate(-264.66 -43.3)"/><path id="Trazado_9" data-name="Trazado 9" class="cls-6" d="M495.93,63.91a20.62,20.62,0,0,0,20.61,20.62h0a20.62,20.62,0,0,0,0-41.23h0a20.61,20.61,0,0,0-20.62,20.61Z" transform="translate(-264.66 -43.3)"/><path id="Trazado_10" data-name="Trazado 10" class="cls-7" d="M502.22,55.87a6.29,6.29,0,1,0,6.28-6.29h0A6.29,6.29,0,0,0,502.22,55.87Z" transform="translate(-264.66 -43.3)"/><path id="Trazado_11" data-name="Trazado 11" class="cls-7" d="M364,273.05c-.27,9.63,7.58,21.14,16.58,22.12,8.44.93,15.17-7.69,22.12-16.58s21.82-31.27,15.86-37.63C410.65,232.57,364.59,250.35,364,273.05Z" transform="translate(-264.66 -43.3)"/><circle id="Elipse_19" data-name="Elipse 19" class="cls-7" cx="176.35" cy="185.91" r="7.17"/><path id="Trazado_12" data-name="Trazado 12" class="cls-7" d="M340.07,398.25c2.3,1.62,18.32-31,61.34-59.33,15.12-9.95,30-17,29.16-19.11s-17.72,1.8-31.17,8.05C356.51,347.76,337.34,396.32,340.07,398.25Z" transform="translate(-264.66 -43.3)"/><path id="Trazado_13" data-name="Trazado 13" class="cls-7" d="M450.22,186c.51.08.84-2.94,3.35-7.59a41.1,41.1,0,0,1,2.52-4c4.32-5.94,19-5.8,20.1-5.79,22.81.19,37.47-1.25,37.47-1.12s-10.7-.1-18.54-.26c-22.11-.45-35.27-1.64-40.92,4.28a18.48,18.48,0,0,0-3.52,5.66A11.89,11.89,0,0,0,450.22,186Z" transform="translate(-264.66 -43.3)"/><g id="Grupo_184" data-name="Grupo 184"><path id="Trazado_14" data-name="Trazado 14" class="cls-8" d="M460.73,534a11.13,11.13,0,0,1,11.32-8.14l75.78.11a11.73,11.73,0,0,1,11.67,8.16,41.71,41.71,0,0,1,1.06,6.56,2.09,2.09,0,0,1-.66,1.66,2.56,2.56,0,0,1-1.8.7l-95.62-.13a2.67,2.67,0,0,1-1.82-.69,2.11,2.11,0,0,1-.71-1.64A40.46,40.46,0,0,1,460.73,534Z" transform="translate(-264.66 -43.3)"/><path id="Trazado_15" data-name="Trazado 15" class="cls-9" d="M460.57,535.89a50.41,50.41,0,0,1,98.61-1.82A11.66,11.66,0,0,0,547.84,526l-75.87.67A11.65,11.65,0,0,0,460.57,535.89Z" transform="translate(-264.66 -43.3)"/></g><path id="Trazado_16" data-name="Trazado 16" class="cls-10" d="M336,653.68c0,.69,0,1.35,0,2a46.28,46.28,0,0,0,2.43,13.24c20.79,63.5,33.24,97,50.71,124.08,3,4.67,6.18,9.17,9.59,13.57,4.47,5.88,9.36,11.61,14.78,17.52,12.07,13.13,30.32,19.07,36.2,21.12,21.51,7.6,40.52,6.21,53.17,6.34h2.2c12.67-.13,31.65,1.26,53.16-6.34,5.88-2.05,24.17-8,36.2-21.12C627.65,788,640.41,758,669.55,668.91A46.71,46.71,0,0,0,672,656.48a49.34,49.34,0,0,0,0-5.16,54.13,54.13,0,0,0-12.61-30.62A69.88,69.88,0,0,0,605,595.3l-101-.42-99.19-.39A71.57,71.57,0,0,0,349,620a55.43,55.43,0,0,0-12.31,25.61c-.21,1.27-.39,2.56-.51,3.82C336.07,650.81,336,652.23,336,653.68Z" transform="translate(-264.66 -43.3)"/><path id="Trazado_17" data-name="Trazado 17" class="cls-11" d="M504,594.89l101,.42a69.86,69.86,0,0,1,54.36,25.41A53.93,53.93,0,0,1,672,651.34,53.47,53.47,0,0,0,659,620a71.56,71.56,0,0,0-55.78-25.46Z" transform="translate(-264.66 -43.3)"/><path id="Trazado_18" data-name="Trazado 18" class="cls-12" d="M403.58,743.73c1.48-78.36,12.08-93.86-3.56-112.5A46.11,46.11,0,0,0,374,615.36a43.82,43.82,0,0,0-28.09,4.55c-31.36,17.77-22.06,94.78-1.39,143.4,4.52,10.61,16.58,39,31.31,38.36,6-.27,10.48-5.35,13.6-9C403.21,776.49,403.36,755.54,403.58,743.73Z" transform="translate(-264.66 -43.3)"/><path id="Trazado_19" data-name="Trazado 19" class="cls-13" d="M389.16,793c3,4.67,6.19,9.17,9.6,13.57,1.09-1.11,2.05-2.23,2.92-3.26,13.82-16.17,14-37.11,14.18-48.93,1.48-78.37,12.1-93.85-3.56-112.49a48.85,48.85,0,0,0-12.16-10.5c15.44,18.58,4.91,34.21,3.44,112.34-.21,11.81-.39,32.76-14.18,49A1.5,1.5,0,0,0,389.16,793Z" transform="translate(-264.66 -43.3)"/><path id="Trazado_20" data-name="Trazado 20" class="cls-7" d="M344.94,678.47a130.77,130.77,0,0,1,5.18-27c4.14-16.2,9.32-24.1,5.95-27.22-2.19-2-6.5-.66-7.48-.35-14.81,4.72-19.4,32.51-18.76,49.91.38,10.64,3,22.55,6.89,23.08a4.43,4.43,0,0,0,3.24-1C344.32,692.06,344.61,684.87,344.94,678.47Z" transform="translate(-264.66 -43.3)"/><path id="Trazado_21" data-name="Trazado 21" class="cls-7" d="M334.78,708.19a3.07,3.07,0,0,0,3.07,3.08h0a3.07,3.07,0,0,0,3.07-3.07h0a3.06,3.06,0,0,0-3.06-3.07h0a3.07,3.07,0,0,0-3.07,3.07Z" transform="translate(-264.66 -43.3)"/><ellipse id="Elipse_20" data-name="Elipse 20" class="cls-14" cx="243.85" cy="883.81" rx="161.16" ry="65.98"/><path id="Trazado_297" data-name="Trazado 297" class="cls-7" d="M653.22,279.89c.18,6.66-4.82,14.62-10.56,15.29-5.37.63-9.66-5.33-14.08-11.47s-13.9-21.63-10.1-26C623.49,251.87,652.81,264.18,653.22,279.89Z" transform="translate(-264.66 -43.3)"/><path id="Trazado_298" data-name="Trazado 298" class="cls-15" d="M567.15,559.83c-3.29,4.39-10.45,7.09-14.33,4.73-3.65-2.21-3.25-8.16-2.84-14.28s2.46-20.75,7.06-21.75C563.1,527.23,574.92,549.49,567.15,559.83Z" transform="translate(-264.66 -43.3)"/><g id="_12" data-name="12"><path class="cls-16" d="M854.87,210.9a35.86,35.86,0,0,0-51.5-33.83,24,24,0,0,0-37.82-11.77c-.46-.44-1-.82-1.44-1.22C782.58,194.59,821.29,209.05,854.87,210.9Z" transform="translate(-264.66 -43.3)"/><path class="cls-16" d="M850.79,245.18A127.67,127.67,0,0,0,872,241.82a28.78,28.78,0,0,0-18.12-23.9,36.2,36.2,0,0,0,1-7c-33.58-1.85-72.29-16.31-90.76-46.82a27.12,27.12,0,0,0-40.76,7.7C737.68,218.75,802.73,243.41,850.79,245.18Z" transform="translate(-264.66 -43.3)"/><path class="cls-17" d="M744.11,245.59a28.47,28.47,0,0,0,10.79,6.53,142,142,0,0,1-16.08-13.49A28.75,28.75,0,0,0,744.11,245.59Z" transform="translate(-264.66 -43.3)"/><path class="cls-16" d="M879.7,275.41c-37,10.69-79,4.2-113-15.65.05.06.09.14.14.2a28.8,28.8,0,0,0,17.61,21.54,28.75,28.75,0,0,0,6.31,9c.4.38.82.72,1.23,1.07-6.48,9.8-6.4,16.21-32.5,25.45,23.44,4.08,34.66-4.13,47.49-18.73a28.79,28.79,0,0,0,20.49-5.08,28.78,28.78,0,0,0,52.26-17.81Z" transform="translate(-264.66 -43.3)"/><path class="cls-16" d="M879.7,275.41a28.71,28.71,0,0,0-8.66-19.5c-.27-.26-.55-.47-.82-.72A28.86,28.86,0,0,0,872,241.82a127.67,127.67,0,0,1-21.21,3.36c-48.06-1.77-113.11-26.43-127.44-73.4a27.18,27.18,0,0,0,15.37,39.45,28.87,28.87,0,0,0,.1,27.4,142,142,0,0,0,16.08,13.49,29.2,29.2,0,0,0,8,1.48,28.79,28.79,0,0,0,3.79,6.16C800.68,279.61,842.68,286.1,879.7,275.41Z" transform="translate(-264.66 -43.3)"/><path class="cls-7" d="M766.22,204l-15.64-6.45a1.68,1.68,0,0,1,0-3.09l16.3-7.28L758,183.5a1.68,1.68,0,0,1,1.28-3.11l12.44,5.13a1.68,1.68,0,0,1,0,3.09l-16.3,7.28,12,5a1.68,1.68,0,0,1-1.28,3.11Z" transform="translate(-264.66 -43.3)"/><path class="cls-7" d="M776,226.36a2.54,2.54,0,0,1,1.47-4.08l26.46-5.37-11.83-8.27a2.54,2.54,0,0,1,2.91-4.17l16.68,11.67a2.54,2.54,0,0,1-1,4.57l-26.46,5.37,16.11,11.28a2.54,2.54,0,1,1-2.91,4.16l-21-14.67A2.21,2.21,0,0,1,776,226.36Z" transform="translate(-264.66 -43.3)"/><path class="cls-7" d="M806.09,255.67a3.11,3.11,0,0,1,.11-2.63,3.07,3.07,0,0,1,3-1.63L841.54,254l-10.91-13.48a3.08,3.08,0,1,1,4.79-3.87l15.43,19a3.08,3.08,0,0,1-2.64,5l-32.37-2.56,14.88,18.37a3.08,3.08,0,1,1-4.79,3.87l-19.39-23.94A3,3,0,0,1,806.09,255.67Z" transform="translate(-264.66 -43.3)"/></g></svg>