<svg id="Capa_1" data-name="Capa 1" xmlns="http://www.w3.org/2000/svg" xmlns:xlink="http://www.w3.org/1999/xlink" viewBox="0 0 550.72 966.33"><defs><style>.cls-1{fill:url(#Degradado_sin_nombre_28);}.cls-2{fill:url(#Degradado_sin_nombre_14);}.cls-3{fill:url(#Degradado_sin_nombre_14-2);}.cls-4{fill:url(#Degradado_sin_nombre_39);}.cls-5{fill:url(#Degradado_sin_nombre_5);}.cls-6{fill:url(#Degradado_sin_nombre_8);}.cls-7{fill:#eefdff;}.cls-8{fill:url(#Degradado_sin_nombre_5-2);}.cls-9{fill:url(#Degradado_sin_nombre_8-2);}.cls-10{fill:url(#Degradado_sin_nombre_5-3);}.cls-11{fill:url(#Degradado_sin_nombre_14-3);}.cls-12{fill:#3d3333;}.cls-13{fill:#3a322d;}.cls-14{fill:#fff;}.cls-15{fill:#777;}.cls-16{fill:url(#Degradado_sin_nombre_40);}.cls-17{fill:url(#Degradado_sin_nombre_12);}.cls-18{fill:url(#Degradado_sin_nombre_13);}.cls-19{fill:url(#Degradado_sin_nombre_14-4);}.cls-20{fill:url(#Degradado_sin_nombre_15);}.cls-21{opacity:0.25;isolation:isolate;fill:url(#Degradado_sin_nombre_30);}</style><linearGradient id="Degradado_sin_nombre_28" x1="24.46" y1="1041.26" x2="19.35" y2="1050.27" gradientTransform="matrix(51.51, 0, 0, -30.01, 296.16, 32714.59)" gradientUnits="userSpaceOnUse"><stop offset="0" stop-color="#06bed8"/><stop offset="1" stop-color="#004666"/></linearGradient><linearGradient id="Degradado_sin_nombre_14" x1="54.32" y1="1081.41" x2="43.71" y2="1081.65" gradientTransform="matrix(4.63, 0, 0, -30.39, 38.15, 32945.4)" gradientUnits="userSpaceOnUse"><stop offset="0" stop-color="#06cff1"/><stop offset="1" stop-color="#dcedf9"/></linearGradient><linearGradient id="Degradado_sin_nombre_14-2" x1="7.84" y1="1076.74" x2="5.69" y2="1081.67" gradientTransform="matrix(40.52, 0, 0, -19.97, -15.68, 21710.74)" xlink:href="#Degradado_sin_nombre_14"/><linearGradient id="Degradado_sin_nombre_39" x1="4.26" y1="1077.32" x2="1.88" y2="1080.45" gradientTransform="matrix(144.98, 0, 0, -110.25, 98.42, 119350.4)" gradientUnits="userSpaceOnUse"><stop offset="0" stop-color="#06cff1"/><stop offset="1" stop-color="#2a0100"/></linearGradient><linearGradient id="Degradado_sin_nombre_5" x1="3.38" y1="1075.13" x2="3.35" y2="1078.31" gradientTransform="matrix(112.79, 0, 0, -43.58, 146.7, 47306.71)" gradientUnits="userSpaceOnUse"><stop offset="0" stop-color="#030d14"/><stop offset="1" stop-color="#0b2f45"/></linearGradient><radialGradient id="Degradado_sin_nombre_8" cx="-6.71" cy="1075.57" r="1.75" gradientTransform="translate(117.25 35644.46) rotate(180) scale(32.81)" gradientUnits="userSpaceOnUse"><stop offset="0.13" stop-color="#3280fc"/><stop offset="1"/></radialGradient><linearGradient id="Degradado_sin_nombre_5-2" x1="16.88" y1="1072.32" x2="13.35" y2="1072.32" gradientTransform="matrix(19.78, 0, 0, -19.78, 38.36, 21565.54)" xlink:href="#Degradado_sin_nombre_5"/><radialGradient id="Degradado_sin_nombre_8-2" cx="6.28" cy="1075.57" r="1.75" gradientTransform="matrix(32.81, 0, 0, -32.81, -25.51, 35644.46)" xlink:href="#Degradado_sin_nombre_8"/><linearGradient id="Degradado_sin_nombre_5-3" x1="11.2" y1="1072.32" x2="7.67" y2="1072.32" gradientTransform="matrix(19.78, 0, 0, -19.78, -5.96, 21565.54)" xlink:href="#Degradado_sin_nombre_5"/><linearGradient id="Degradado_sin_nombre_14-3" x1="23.02" y1="1086.38" x2="17.54" y2="1087.18" gradientTransform="matrix(11.86, 0, 0, -11.87, 298.09, 12946.11)" xlink:href="#Degradado_sin_nombre_14"/><linearGradient id="Degradado_sin_nombre_40" x1="470.12" y1="509.17" x2="570.45" y2="509.17" gradientUnits="userSpaceOnUse"><stop offset="0" stop-color="#3f88ad"/><stop offset="1" stop-color="#469dd3"/></linearGradient><linearGradient id="Degradado_sin_nombre_12" x1="4.72" y1="1073.83" x2="1.98" y2="1078.01" gradientTransform="matrix(96.71, 0, 0, -73.98, 167.22, 80255.51)" gradientUnits="userSpaceOnUse"><stop offset="0" stop-color="#3a68ab"/><stop offset="0.05" stop-color="#316fb0"/><stop offset="0.24" stop-color="#1686c0"/><stop offset="0.41" stop-color="#0594ca"/><stop offset="0.54" stop-color="#0099ce"/><stop offset="0.66" stop-color="#2ba8d6"/><stop offset="0.92" stop-color="#99cfed"/><stop offset="1" stop-color="#bcdcf4"/></linearGradient><linearGradient id="Degradado_sin_nombre_13" x1="7.73" y1="1058.01" x2="4.43" y2="1069.39" gradientTransform="matrix(48.35, 0, 0, -16.36, 263.93, 17961.9)" gradientUnits="userSpaceOnUse"><stop offset="0.04" stop-color="#06cff1"/><stop offset="1" stop-color="#defa8e"/></linearGradient><linearGradient id="Degradado_sin_nombre_14-4" x1="-107.31" y1="1099.38" x2="-116.45" y2="1101.49" gradientTransform="matrix(23.86, 0, 0, -53.8, 237.07, 58445.97)" xlink:href="#Degradado_sin_nombre_14"/><linearGradient id="Degradado_sin_nombre_15" x1="22" y1="1071.89" x2="6.54" y2="1073.34" gradientTransform="matrix(9.09, 0, 0, -50.41, 270.14, 54786.82)" gradientUnits="userSpaceOnUse"><stop offset="0" stop-color="#06cff1"/><stop offset="1" stop-color="#0074a2"/></linearGradient><radialGradient id="Degradado_sin_nombre_30" cx="518.89" cy="927.99" r="125.28" gradientTransform="translate(766.98 1279.12) rotate(180) scale(1 0.41)" gradientUnits="userSpaceOnUse"><stop offset="0" stop-color="#128eec"/><stop offset="1" stop-color="#fff"/></radialGradient></defs><title>diami_dirty</title><path id="Trazado_3" data-name="Trazado 3" class="cls-1" d="M756.35,573.88c-76.91,21.06-95.09,15.17-108.79,35.79a47,47,0,0,0-8,30,44.65,44.65,0,0,0,12.51,26.11c26.35,25.5,98.85-5.7,140.36-39.82,9.05-7.43,33.34-27.4,28.45-41.58-2-5.82-8.24-8.7-12.7-10.69C788.43,564.84,767.94,570.7,756.35,573.88Z" transform="translate(-270.79 -28.78)"/><rect id="Rectángulo_1" data-name="Rectángulo 1" class="cls-2" x="248.09" y="28.13" width="16.37" height="107.42"/><rect id="Rectángulo_2" data-name="Rectángulo 2" class="cls-3" x="184.66" y="124.3" width="143.24" height="70.59" rx="15.97"/><path id="Rectángulo_3" data-name="Rectángulo 3" class="cls-4" d="M465.69,186.85H588.45c107.64,0,194.9,87.26,194.9,194.89h0c0,107.64-87.26,194.9-194.9,194.9H465.69c-107.64,0-194.9-87.26-194.9-194.9h0C270.79,274.11,358.05,186.85,465.69,186.85Z" transform="translate(-270.79 -28.78)"/><path id="Trazado_4" data-name="Trazado 4" class="cls-5" d="M351.41,447.28h0a49.33,49.33,0,0,0,21.87,5.05H680.85a49.29,49.29,0,0,0,21.86-5.05h0a40.44,40.44,0,0,0,23.44-41.46l-.16-1.23c-7.89-57.13-59.63-101.06-123.07-104.36-26.84-1.39-55-2.12-84.39-1.94q-34.53.19-66.69,1.91c-63.68,3.28-115.81,47-123.74,104.39l-.17,1.23A40.46,40.46,0,0,0,351.41,447.28Z" transform="translate(-270.79 -28.78)"/><g id="Grupo_8" data-name="Grupo 8"><circle id="Elipse_11" data-name="Elipse 11" class="cls-6" cx="337.35" cy="352.96" r="58"/><g id="Grupo_3" data-name="Grupo 3"><circle id="Elipse_12" data-name="Elipse 12" class="cls-7" cx="337.35" cy="352.96" r="41.63"/></g><g id="Grupo_4" data-name="Grupo 4"><circle id="Elipse_13" data-name="Elipse 13" class="cls-8" cx="337.35" cy="352.96" r="34.97"/></g><g id="Grupo_5" data-name="Grupo 5"><path id="Trazado_5" data-name="Trazado 5" class="cls-7" d="M585.73,372.68a13,13,0,0,0,13,12.95h0a12.95,12.95,0,0,0,0-25.9h0a13,13,0,0,0-13,12.95Z" transform="translate(-270.79 -28.78)"/></g><g id="Grupo_6" data-name="Grupo 6"><circle id="Elipse_14" data-name="Elipse 14" class="cls-7" cx="342.51" cy="379.77" r="5.17"/></g><g id="Grupo_7" data-name="Grupo 7"><path id="Trazado_6" data-name="Trazado 6" class="cls-7" d="M626.13,400.8a2.58,2.58,0,0,0,2.58,2.59h0a2.57,2.57,0,0,0,2.58-2.58h0a2.58,2.58,0,0,0-2.58-2.58h0a2.57,2.57,0,0,0-2.58,2.58Z" transform="translate(-270.79 -28.78)"/></g></g><g id="Grupo_14" data-name="Grupo 14"><circle id="Elipse_15" data-name="Elipse 15" class="cls-9" cx="180.66" cy="352.96" r="58"/><g id="Grupo_9" data-name="Grupo 9"><circle id="Elipse_16" data-name="Elipse 16" class="cls-7" cx="180.66" cy="352.96" r="41.63"/></g><g id="Grupo_10" data-name="Grupo 10"><circle id="Elipse_17" data-name="Elipse 17" class="cls-10" cx="180.66" cy="352.96" r="34.97"/></g><g id="Grupo_11" data-name="Grupo 11"><path id="Trazado_7" data-name="Trazado 7" class="cls-7" d="M429.05,372.68A13,13,0,1,0,442,359.73h0A13,13,0,0,0,429.05,372.68Z" transform="translate(-270.79 -28.78)"/></g><g id="Grupo_12" data-name="Grupo 12"><circle id="Elipse_18" data-name="Elipse 18" class="cls-7" cx="185.83" cy="379.77" r="5.17"/></g><g id="Grupo_13" data-name="Grupo 13"><path id="Trazado_8" data-name="Trazado 8" class="cls-7" d="M469.44,400.8a2.58,2.58,0,0,0,2.58,2.59h0a2.58,2.58,0,0,0,2.59-2.58h0a2.58,2.58,0,0,0-2.58-2.58h0a2.58,2.58,0,0,0-2.58,2.58Z" transform="translate(-270.79 -28.78)"/></g></g><path id="Trazado_9" data-name="Trazado 9" class="cls-11" d="M506.1,49.76a21,21,0,0,0,21,21h0a21,21,0,0,0,0-41.95h0a21,21,0,0,0-21,21Z" transform="translate(-270.79 -28.78)"/><path id="Trazado_10" data-name="Trazado 10" class="cls-12" d="M512.49,41.57a6.4,6.4,0,1,0,6.4-6.39h0A6.39,6.39,0,0,0,512.49,41.57Z" transform="translate(-270.79 -28.78)"/><path id="Trazado_11" data-name="Trazado 11" class="cls-13" d="M371.82,262.54c-.28,9.79,7.71,21.5,16.87,22.51,8.58.94,15.43-7.83,22.5-16.87s22.2-31.82,16.14-38.29C419.33,221.35,372.47,239.44,371.82,262.54Z" transform="translate(-270.79 -28.78)"/><circle id="Elipse_19" data-name="Elipse 19" class="cls-13" cx="179.42" cy="189.14" r="7.29"/><path id="Trazado_12" data-name="Trazado 12" class="cls-14" d="M347.52,389.92c2.34,1.65,18.65-31.56,62.41-60.36,15.39-10.12,30.57-17.32,29.67-19.44s-18,1.83-31.72,8.18C364.25,338.55,344.74,388,347.52,389.92Z" transform="translate(-270.79 -28.78)"/><path id="Trazado_13" data-name="Trazado 13" class="cls-15" d="M459.59,174c.52.08.86-3,3.41-7.72a41.17,41.17,0,0,1,2.56-4.09c4.4-6,19.29-5.92,20.46-5.9,23.2.2,38.11-1.27,38.11-1.14s-10.88-.1-18.86-.26c-22.49-.46-35.89-1.67-41.63,4.35a18.82,18.82,0,0,0-3.58,5.76A12.09,12.09,0,0,0,459.59,174Z" transform="translate(-270.79 -28.78)"/><g id="Grupo_184" data-name="Grupo 184"><path id="Trazado_14" data-name="Trazado 14" class="cls-7" d="M470.28,528.05a11.31,11.31,0,0,1,11.52-8.28l77.1.1a11.94,11.94,0,0,1,11.87,8.31,41.77,41.77,0,0,1,1.08,6.67,2.13,2.13,0,0,1-.67,1.7,2.69,2.69,0,0,1-1.83.71l-97.29-.13a2.76,2.76,0,0,1-1.85-.71,2.17,2.17,0,0,1-.72-1.67A42,42,0,0,1,470.28,528.05Z" transform="translate(-270.79 -28.78)"/><path id="Trazado_15" data-name="Trazado 15" class="cls-16" d="M470.12,530a51.29,51.29,0,0,1,100.33-1.86,11.87,11.87,0,0,0-11.54-8.21l-77.19.68A11.84,11.84,0,0,0,470.12,530Z" transform="translate(-270.79 -28.78)"/></g><path id="Trazado_16" data-name="Trazado 16" class="cls-17" d="M343.37,649.8c0,.71,0,1.38,0,2a47.6,47.6,0,0,0,2.47,13.48C367,729.91,379.7,764,397.46,791.53c3.08,4.76,6.3,9.33,9.76,13.81,4.55,6,9.52,11.82,15,17.84,12.28,13.35,30.85,19.39,36.84,21.48,21.88,7.73,41.21,6.32,54.09,6.44h2.23c12.89-.12,32.2,1.29,54.09-6.44,6-2.09,24.59-8.13,36.84-21.48,33.76-36.74,46.74-67.28,76.39-157.89a47,47,0,0,0,2.45-12.64,51.08,51.08,0,0,0,0-5.25,55,55,0,0,0-12.83-31.15,71,71,0,0,0-55.3-25.84L514.3,590l-100.92-.4a72.88,72.88,0,0,0-56.75,25.9,56.46,56.46,0,0,0-12.52,26.06c-.21,1.29-.39,2.61-.52,3.89C343.45,646.88,343.37,648.32,343.37,649.8Z" transform="translate(-270.79 -28.78)"/><path id="Trazado_17" data-name="Trazado 17" class="cls-18" d="M514.3,590l102.79.43a71.12,71.12,0,0,1,55.31,25.84,55,55,0,0,1,12.83,31.16A54.44,54.44,0,0,0,672,615.5a72.78,72.78,0,0,0-56.75-25.91Z" transform="translate(-270.79 -28.78)"/><path id="Trazado_18" data-name="Trazado 18" class="cls-19" d="M412.14,741.42c1.51-79.73,12.29-95.5-3.62-114.46A47,47,0,0,0,382,610.81a44.65,44.65,0,0,0-28.58,4.63C321.52,633.52,331,711.88,352,761.35c4.59,10.78,16.87,39.71,31.85,39,6.14-.28,10.67-5.44,13.84-9.16C411.76,774.75,411.91,753.44,412.14,741.42Z" transform="translate(-270.79 -28.78)"/><path id="Trazado_19" data-name="Trazado 19" class="cls-20" d="M397.47,791.53c3.07,4.76,6.29,9.33,9.76,13.81,1.11-1.13,2.09-2.27,3-3.31,14.06-16.45,14.21-37.75,14.42-49.78,1.51-79.74,12.31-95.49-3.62-114.46a50,50,0,0,0-12.37-10.68c15.71,18.91,5,34.81,3.5,114.3-.22,12-.4,33.33-14.43,49.81A1.18,1.18,0,0,0,397.47,791.53Z" transform="translate(-270.79 -28.78)"/><path id="Trazado_20" data-name="Trazado 20" class="cls-14" d="M352.48,675a132.29,132.29,0,0,1,5.27-27.47c4.2-16.49,9.48-24.53,6.05-27.71-2.22-2.07-6.61-.67-7.61-.35-15.07,4.81-19.74,33.08-19.09,50.78.39,10.83,3,22.94,7,23.48a4.52,4.52,0,0,0,3.3-1C351.84,688.85,352.14,681.54,352.48,675Z" transform="translate(-270.79 -28.78)"/><path id="Trazado_21" data-name="Trazado 21" class="cls-14" d="M342.14,705.26a3.13,3.13,0,0,0,3.12,3.13h0a3.13,3.13,0,0,0,3.13-3.12h0a3.12,3.12,0,0,0-3.12-3.12h0a3.11,3.11,0,0,0-3.12,3.12Z" transform="translate(-270.79 -28.78)"/><ellipse id="Elipse_20" data-name="Elipse 20" class="cls-21" cx="248.1" cy="899.21" rx="163.97" ry="67.13"/><path id="Trazado_297" data-name="Trazado 297" class="cls-13" d="M666.13,269.5c.18,6.77-4.91,14.87-10.74,15.55-5.47.65-9.83-5.42-14.33-11.67s-14.15-22-10.28-26.49C635.88,241,665.71,253.51,666.13,269.5Z" transform="translate(-270.79 -28.78)"/></svg>