<svg id="Capa_1" data-name="Capa 1" xmlns="http://www.w3.org/2000/svg" xmlns:xlink="http://www.w3.org/1999/xlink" viewBox="0 0 659.24 966.09"><defs><style>.cls-1{fill:url(#Degradado_sin_nombre_41);}.cls-2{fill:url(#Degradado_sin_nombre_14);}.cls-3{fill:url(#Degradado_sin_nombre_14-2);}.cls-4{fill:url(#Degradado_sin_nombre_14-3);}.cls-5{fill:url(#Degradado_sin_nombre_9);}.cls-6{fill:url(#Degradado_sin_nombre_8);}.cls-7{fill:#eefdff;}.cls-8{fill:url(#Degradado_sin_nombre_9-2);}.cls-9{fill:url(#Degradado_sin_nombre_8-2);}.cls-10{fill:url(#Degradado_sin_nombre_9-3);}.cls-11{fill:url(#Degradado_sin_nombre_14-4);}.cls-12{fill:#fff;}.cls-13{fill:url(#Degradado_sin_nombre_11);}.cls-14{fill:url(#Degradado_sin_nombre_12);}.cls-15{fill:url(#Degradado_sin_nombre_13);}.cls-16{fill:url(#Degradado_sin_nombre_14-5);}.cls-17{fill:url(#Degradado_sin_nombre_15);}.cls-18{opacity:0.25;isolation:isolate;fill:url(#Degradado_sin_nombre_16);}.cls-19{fill:#a3d4e5;}.cls-20{fill:#92c6dd;}.cls-21{fill:#ed9e6d;}.cls-22{fill:#944434;}.cls-23{fill:#b85f3e;}</style><linearGradient id="Degradado_sin_nombre_41" x1="24.62" y1="1040.41" x2="19.5" y2="1049.42" gradientTransform="matrix(51.51, 0, 0, -30.01, 296.16, 32714.59)" gradientUnits="userSpaceOnUse"><stop offset="0" stop-color="#06bed8"/><stop offset="1" stop-color="#004666"/></linearGradient><linearGradient id="Degradado_sin_nombre_14" x1="56.1" y1="1080.57" x2="45.49" y2="1080.8" gradientTransform="matrix(4.63, 0, 0, -30.39, 138.5, 32919.65)" gradientUnits="userSpaceOnUse"><stop offset="0" stop-color="#06cff1"/><stop offset="1" stop-color="#dcedf9"/></linearGradient><linearGradient id="Degradado_sin_nombre_14-2" x1="8.05" y1="1075.46" x2="5.9" y2="1080.38" gradientTransform="matrix(40.52, 0, 0, -19.97, 84.67, 21684.99)" xlink:href="#Degradado_sin_nombre_14"/><linearGradient id="Degradado_sin_nombre_14-3" x1="4.32" y1="1077.08" x2="1.94" y2="1080.21" gradientTransform="matrix(144.98, 0, 0, -110.25, 98.42, 119350.4)" xlink:href="#Degradado_sin_nombre_14"/><linearGradient id="Degradado_sin_nombre_9" x1="3.45" y1="1074.55" x2="3.43" y2="1077.72" gradientTransform="matrix(112.79, 0, 0, -43.58, 146.7, 47306.71)" gradientUnits="userSpaceOnUse"><stop offset="0" stop-color="#030d14"/><stop offset="1" stop-color="#0b2f45"/></linearGradient><radialGradient id="Degradado_sin_nombre_8" cx="-6.96" cy="1074.78" r="1.75" gradientTransform="translate(217.59 35618.71) rotate(180) scale(32.81)" gradientUnits="userSpaceOnUse"><stop offset="0.13" stop-color="#3280fc"/><stop offset="1"/></radialGradient><linearGradient id="Degradado_sin_nombre_9-2" x1="17.3" y1="1071.02" x2="13.76" y2="1071.02" gradientTransform="matrix(19.78, 0, 0, -19.78, 138.7, 21539.8)" xlink:href="#Degradado_sin_nombre_9"/><radialGradient id="Degradado_sin_nombre_8-2" cx="6.54" cy="1074.78" r="1.75" gradientTransform="matrix(32.81, 0, 0, -32.81, 74.84, 35618.71)" xlink:href="#Degradado_sin_nombre_8"/><linearGradient id="Degradado_sin_nombre_9-3" x1="11.62" y1="1071.02" x2="8.08" y2="1071.02" gradientTransform="matrix(19.78, 0, 0, -19.78, 94.38, 21539.8)" xlink:href="#Degradado_sin_nombre_9"/><linearGradient id="Degradado_sin_nombre_14-4" x1="23.72" y1="1084.21" x2="18.24" y2="1085.01" gradientTransform="matrix(11.86, 0, 0, -11.87, 298.09, 12946.11)" xlink:href="#Degradado_sin_nombre_14"/><linearGradient id="Degradado_sin_nombre_11" x1="10.5" y1="1060.87" x2="6.96" y2="1053.19" gradientTransform="matrix(28.12, 2.46, 1.13, -12.96, -951.08, 14257.59)" gradientUnits="userSpaceOnUse"><stop offset="0" stop-color="#3f88ad"/><stop offset="1" stop-color="#3487c4"/></linearGradient><linearGradient id="Degradado_sin_nombre_12" x1="4.81" y1="1073.49" x2="2.07" y2="1077.67" gradientTransform="matrix(96.71, 0, 0, -73.98, 167.22, 80255.51)" gradientUnits="userSpaceOnUse"><stop offset="0" stop-color="#3a68ab"/><stop offset="0.05" stop-color="#316fb0"/><stop offset="0.24" stop-color="#1686c0"/><stop offset="0.41" stop-color="#0594ca"/><stop offset="0.54" stop-color="#0099ce"/><stop offset="0.66" stop-color="#2ba8d6"/><stop offset="0.92" stop-color="#99cfed"/><stop offset="1" stop-color="#bcdcf4"/></linearGradient><linearGradient id="Degradado_sin_nombre_13" x1="7.9" y1="1056.45" x2="4.61" y2="1067.82" gradientTransform="matrix(48.35, 0, 0, -16.36, 263.93, 17961.9)" gradientUnits="userSpaceOnUse"><stop offset="0.04" stop-color="#06cff1"/><stop offset="1" stop-color="#defa8e"/></linearGradient><linearGradient id="Degradado_sin_nombre_14-5" x1="-106.94" y1="1098.9" x2="-116.07" y2="1101.01" gradientTransform="matrix(23.86, 0, 0, -53.8, 237.07, 58445.97)" xlink:href="#Degradado_sin_nombre_14"/><linearGradient id="Degradado_sin_nombre_15" x1="22.91" y1="1071.38" x2="7.45" y2="1072.83" gradientTransform="matrix(9.09, 0, 0, -50.41, 270.14, 54786.82)" gradientUnits="userSpaceOnUse"><stop offset="0" stop-color="#06cff1"/><stop offset="1" stop-color="#0074a2"/></linearGradient><radialGradient id="Degradado_sin_nombre_16" cx="527.14" cy="953.51" r="125.25" gradientTransform="translate(883.83 1289.33) rotate(180) scale(1 0.41)" gradientUnits="userSpaceOnUse"><stop offset="0" stop-color="#128eec"/><stop offset="1" stop-color="#fff"/></radialGradient></defs><title>diami_hungry</title><path id="Trazado_3" data-name="Trazado 3" class="cls-1" d="M764.53,599.49c-76.89,21.06-95.06,15.16-108.76,35.78a47,47,0,0,0-8,30,44.59,44.59,0,0,0,12.51,26.11c26.34,25.49,98.82-5.7,140.32-39.82,9-7.42,33.33-27.39,28.44-41.57-2-5.81-8.23-8.69-12.7-10.69C796.61,590.45,776.13,596.31,764.53,599.49Z" transform="translate(-170.44 -54.53)"/><rect id="Rectángulo_1" data-name="Rectángulo 1" class="cls-2" x="356.69" y="28.13" width="16.36" height="107.39"/><rect id="Rectángulo_2" data-name="Rectángulo 2" class="cls-3" x="293.27" y="124.27" width="143.2" height="70.57" rx="15.97"/><path id="Rectángulo_3" data-name="Rectángulo 3" class="cls-4" d="M474,212.56H596.68c107.61,0,194.85,87.23,194.85,194.84h0c0,107.61-87.24,194.85-194.85,194.85H474C366.34,602.25,279.1,515,279.1,407.4h0C279.1,299.79,366.34,212.56,474,212.56Z" transform="translate(-170.44 -54.53)"/><path id="Trazado_4" data-name="Trazado 4" class="cls-5" d="M359.7,472.92h0A49.43,49.43,0,0,0,381.56,478h307.5a49.42,49.42,0,0,0,21.85-5.05h0a40.44,40.44,0,0,0,23.44-41.45l-.17-1.22c-7.88-57.12-59.61-101-123-104.34-26.84-1.39-55-2.12-84.37-1.94q-34.53.19-66.67,1.91c-63.67,3.28-115.78,47-123.71,104.36l-.17,1.24A40.45,40.45,0,0,0,359.7,472.92Z" transform="translate(-170.44 -54.53)"/><g id="Grupo_8" data-name="Grupo 8"><circle id="Elipse_11" data-name="Elipse 11" class="cls-6" cx="445.92" cy="352.87" r="57.99"/><g id="Grupo_3" data-name="Grupo 3"><circle id="Elipse_12" data-name="Elipse 12" class="cls-7" cx="445.92" cy="352.87" r="41.62"/></g><g id="Grupo_4" data-name="Grupo 4"><circle id="Elipse_13" data-name="Elipse 13" class="cls-8" cx="445.92" cy="352.87" r="34.96"/></g><g id="Grupo_5" data-name="Grupo 5"><path id="Trazado_5" data-name="Trazado 5" class="cls-7" d="M594,398.34a13,13,0,0,0,12.95,13h0a13,13,0,0,0,0-25.9h0A13,13,0,0,0,594,398.34Z" transform="translate(-170.44 -54.53)"/></g><g id="Grupo_6" data-name="Grupo 6"><circle id="Elipse_14" data-name="Elipse 14" class="cls-7" cx="451.09" cy="379.68" r="5.17"/></g><g id="Grupo_7" data-name="Grupo 7"><path id="Trazado_6" data-name="Trazado 6" class="cls-7" d="M634.35,426.46a2.57,2.57,0,0,0,2.58,2.58h0a2.57,2.57,0,0,0,2.58-2.58h0a2.58,2.58,0,0,0-2.58-2.59h0a2.57,2.57,0,0,0-2.58,2.58Z" transform="translate(-170.44 -54.53)"/></g></g><g id="Grupo_14" data-name="Grupo 14"><circle id="Elipse_15" data-name="Elipse 15" class="cls-9" cx="289.27" cy="352.87" r="57.99"/><g id="Grupo_9" data-name="Grupo 9"><circle id="Elipse_16" data-name="Elipse 16" class="cls-7" cx="289.27" cy="352.87" r="41.62"/></g><g id="Grupo_10" data-name="Grupo 10"><circle id="Elipse_17" data-name="Elipse 17" class="cls-10" cx="289.27" cy="352.87" r="34.96"/></g><g id="Grupo_11" data-name="Grupo 11"><path id="Trazado_7" data-name="Trazado 7" class="cls-7" d="M437.32,398.34a12.95,12.95,0,1,0,12.95-12.95h0A13,13,0,0,0,437.32,398.34Z" transform="translate(-170.44 -54.53)"/></g><g id="Grupo_12" data-name="Grupo 12"><circle id="Elipse_18" data-name="Elipse 18" class="cls-7" cx="294.44" cy="379.68" r="5.17"/></g><g id="Grupo_13" data-name="Grupo 13"><path id="Trazado_8" data-name="Trazado 8" class="cls-7" d="M477.7,426.46a2.57,2.57,0,0,0,2.58,2.58h0a2.58,2.58,0,0,0,2.59-2.58h0a2.58,2.58,0,0,0-2.58-2.59h0a2.59,2.59,0,0,0-2.58,2.58Z" transform="translate(-170.44 -54.53)"/></g></g><path id="Trazado_9" data-name="Trazado 9" class="cls-11" d="M514.35,75.5a21,21,0,0,0,21,21h0a21,21,0,0,0,0-41.94h0a21,21,0,0,0-21,21Z" transform="translate(-170.44 -54.53)"/><path id="Trazado_12" data-name="Trazado 12" class="cls-12" d="M355.81,415.57c2.34,1.65,18.64-31.55,62.4-60.34,15.38-10.12,30.56-17.32,29.66-19.44s-18,1.83-31.71,8.18C372.54,364.22,353,413.61,355.81,415.57Z" transform="translate(-170.44 -54.53)"/><path id="Trazado_13" data-name="Trazado 13" class="cls-12" d="M467.86,199.69c.52.08.85-3,3.4-7.72a43.1,43.1,0,0,1,2.56-4.09c4.4-6,19.28-5.91,20.45-5.9,23.2.2,38.11-1.27,38.11-1.13s-10.88-.1-18.85-.27c-22.49-.45-35.89-1.66-41.63,4.36a19,19,0,0,0-3.58,5.75A12.09,12.09,0,0,0,467.86,199.69Z" transform="translate(-170.44 -54.53)"/><g id="Grupo_184" data-name="Grupo 184"><path id="Trazado_14" data-name="Trazado 14" class="cls-7" d="M478.54,553.67a11.32,11.32,0,0,1,11.52-8.28l77.08.1A11.94,11.94,0,0,1,579,553.8a42.9,42.9,0,0,1,1.07,6.67,2.11,2.11,0,0,1-.66,1.69,2.67,2.67,0,0,1-1.84.71l-97.26-.13a2.7,2.7,0,0,1-1.85-.7,2.18,2.18,0,0,1-.72-1.67A41.68,41.68,0,0,1,478.54,553.67Z" transform="translate(-170.44 -54.53)"/><path id="Trazado_15" data-name="Trazado 15" class="cls-13" d="M478.38,555.58a51.28,51.28,0,0,1,100.31-1.86,11.88,11.88,0,0,0-11.54-8.21l-77.17.68A11.85,11.85,0,0,0,478.38,555.58Z" transform="translate(-170.44 -54.53)"/></g><path id="Trazado_16" data-name="Trazado 16" class="cls-14" d="M351.66,675.39c0,.7,0,1.38,0,2a47.54,47.54,0,0,0,2.47,13.47c21.15,64.59,33.82,98.65,51.58,126.21,3.07,4.75,6.29,9.32,9.76,13.8,4.54,6,9.52,11.82,15,17.83,12.27,13.35,30.83,19.39,36.82,21.48,21.88,7.73,41.21,6.32,54.08,6.44h2.23c12.89-.12,32.19,1.29,54.08-6.44,6-2.09,24.58-8.13,36.82-21.48,33.75-36.73,46.73-67.26,76.37-157.84a47.43,47.43,0,0,0,2.46-12.64,51.08,51.08,0,0,0,0-5.25,54.93,54.93,0,0,0-12.83-31.14A71.07,71.07,0,0,0,625.31,616l-102.76-.43-100.89-.4a72.85,72.85,0,0,0-56.74,25.9,56.48,56.48,0,0,0-12.52,26c-.21,1.29-.39,2.61-.52,3.89C351.75,672.47,351.66,673.91,351.66,675.39Z" transform="translate(-170.44 -54.53)"/><path id="Trazado_17" data-name="Trazado 17" class="cls-15" d="M522.55,615.59l102.76.43a71.07,71.07,0,0,1,55.29,25.84A55,55,0,0,1,693.43,673a54.49,54.49,0,0,0-13.22-31.91,72.78,72.78,0,0,0-56.74-25.89Z" transform="translate(-170.44 -54.53)"/><path id="Trazado_18" data-name="Trazado 18" class="cls-16" d="M420.42,767c1.5-79.7,12.28-95.47-3.63-114.43a46.93,46.93,0,0,0-26.5-16.14A44.58,44.58,0,0,0,361.71,641c-31.89,18.07-22.43,96.41-1.41,145.86,4.59,10.79,16.87,39.71,31.85,39,6.13-.28,10.66-5.44,13.83-9.16C420,800.31,420.19,779,420.42,767Z" transform="translate(-170.44 -54.53)"/><path id="Trazado_19" data-name="Trazado 19" class="cls-17" d="M405.75,817.09c3.07,4.75,6.29,9.32,9.76,13.8,1.1-1.13,2.09-2.27,3-3.31,14.06-16.45,14.21-37.74,14.42-49.77,1.51-79.72,12.31-95.46-3.62-114.43a49.56,49.56,0,0,0-12.37-10.67c15.71,18.9,5,34.79,3.5,114.26-.21,12-.4,33.33-14.42,49.8A1.08,1.08,0,0,0,405.75,817.09Z" transform="translate(-170.44 -54.53)"/><path id="Trazado_20" data-name="Trazado 20" class="cls-12" d="M360.77,700.61A132.2,132.2,0,0,1,366,673.15c4.2-16.49,9.47-24.52,6-27.7-2.23-2.07-6.62-.67-7.61-.35-15.07,4.8-19.73,33.07-19.09,50.76.4,10.83,3.05,22.94,7,23.48a4.48,4.48,0,0,0,3.3-1C360.13,714.43,360.43,707.12,360.77,700.61Z" transform="translate(-170.44 -54.53)"/><path id="Trazado_21" data-name="Trazado 21" class="cls-12" d="M350.43,730.84a3.13,3.13,0,0,0,3.13,3.13h0a3.13,3.13,0,0,0,3.12-3.13h0a3.12,3.12,0,0,0-3.12-3.13h0a3.13,3.13,0,0,0-3.13,3.12Z" transform="translate(-170.44 -54.53)"/><ellipse id="Elipse_20" data-name="Elipse 20" class="cls-18" cx="356.69" cy="898.98" rx="163.92" ry="67.11"/><circle class="cls-19" cx="166.46" cy="145.96" r="9.81"/><circle class="cls-20" cx="166.46" cy="182.53" r="13.61"/><path class="cls-19" d="M262.49,242.56a18.07,18.07,0,1,0,18.07-18.07A18.07,18.07,0,0,0,262.49,242.56Z" transform="translate(-170.44 -54.53)"/><path class="cls-20" d="M280.56,219a8.76,8.76,0,1,0,8.76-8.76A8.76,8.76,0,0,0,280.56,219Z" transform="translate(-170.44 -54.53)"/><path class="cls-19" d="M234.63,197.23a46.65,46.65,0,1,0,46.65-46.64A46.66,46.66,0,0,0,234.63,197.23Z" transform="translate(-170.44 -54.53)"/><circle class="cls-19" cx="36.63" cy="102.11" r="36.63"/><path class="cls-19" d="M173.34,200.49a30.44,30.44,0,1,0,30.44-30.44A30.44,30.44,0,0,0,173.34,200.49Z" transform="translate(-170.44 -54.53)"/><path class="cls-19" d="M259.49,177.45a43.81,43.81,0,1,0-30.74-53.8A43.82,43.82,0,0,0,259.49,177.45Z" transform="translate(-170.44 -54.53)"/><path class="cls-19" d="M228.37,256.67a43.81,43.81,0,1,0-30.74-53.79A43.81,43.81,0,0,0,228.37,256.67Z" transform="translate(-170.44 -54.53)"/><path class="cls-21" d="M277.79,208.24l-4.31-.27.19,2.88c.29.27.58.54.85.81l10.56,10.56a6.9,6.9,0,1,0,11.83,4.9,6.91,6.91,0,1,0-5-11.78l-10.79-10.81c-.13-.12-.24-.25-.36-.38l-3.29-.21Z" transform="translate(-170.44 -54.53)"/><path class="cls-22" d="M255.61,197.17c-7.53-4.72-17-5.5-24.66-9.92a29.21,29.21,0,0,1-4.9-47.31,29.77,29.77,0,0,0,12.29,57.36,48.17,48.17,0,0,1,23.26,5.08A26.15,26.15,0,0,0,255.61,197.17Z" transform="translate(-170.44 -54.53)"/><path class="cls-23" d="M277.52,203.94l3.28.21a49.61,49.61,0,0,1-13.73-36,29.75,29.75,0,0,0-41-28.2,29.21,29.21,0,0,0,4.89,47.3c7.71,4.43,17.14,5.21,24.66,9.93a25.75,25.75,0,0,1,6,5.21,49.57,49.57,0,0,1,12.05,8.45l-.19-2.88,4.31.27Z" transform="translate(-170.44 -54.53)"/></svg>