<svg id="Capa_1" data-name="Capa 1" xmlns="http://www.w3.org/2000/svg" xmlns:xlink="http://www.w3.org/1999/xlink" viewBox="0 0 510 894.86"><defs><style>.cls-1{fill:url(#Degradado_sin_nombre_2);}.cls-2{fill:url(#Degradado_sin_nombre_14);}.cls-3{fill:url(#Degradado_sin_nombre_14-2);}.cls-4{fill:url(#Degradado_sin_nombre_14-3);}.cls-5{fill:url(#Degradado_sin_nombre_9);}.cls-6{fill:url(#Degradado_sin_nombre_8);}.cls-7{fill:#eefdff;}.cls-8{fill:url(#Degradado_sin_nombre_9-2);}.cls-9{fill:url(#Degradado_sin_nombre_8-2);}.cls-10{fill:url(#Degradado_sin_nombre_9-3);}.cls-11{fill:url(#Degradado_sin_nombre_14-4);}.cls-12{fill:#fff;}.cls-13{fill:url(#Degradado_sin_nombre_11);}.cls-14{fill:url(#Degradado_sin_nombre_12);}.cls-15{fill:url(#Degradado_sin_nombre_13);}.cls-16{fill:url(#Degradado_sin_nombre_14-5);}.cls-17{fill:url(#Degradado_sin_nombre_15);}.cls-18{opacity:0.37;isolation:isolate;fill:url(#Degradado_sin_nombre_4);}</style><linearGradient id="Degradado_sin_nombre_2" x1="-1.24" y1="1078.51" x2="-0.4" y2="1079.99" gradientTransform="matrix(290.66, 0, 0, -169.27, -47.26, 183962.1)" gradientUnits="userSpaceOnUse"><stop offset="0" stop-color="#06bed8"/><stop offset="1" stop-color="#004666"/></linearGradient><linearGradient id="Degradado_sin_nombre_14" x1="-6.14" y1="1081.07" x2="-4.4" y2="1081.11" gradientTransform="matrix(26.12, 0, 0, -171.38, 402.14, 185357.62)" gradientUnits="userSpaceOnUse"><stop offset="0" stop-color="#06cff1"/><stop offset="1" stop-color="#dcedf9"/></linearGradient><linearGradient id="Degradado_sin_nombre_14-2" x1="0.58" y1="1081.45" x2="0.93" y2="1082.26" gradientTransform="matrix(228.53, 0, 0, -112.62, 98.52, 121991.5)" xlink:href="#Degradado_sin_nombre_14"/><linearGradient id="Degradado_sin_nombre_14-3" x1="1.08" y1="1080.67" x2="1.47" y2="1081.19" gradientTransform="matrix(817.74, 0, 0, -621.88, -785.3, 672546.77)" xlink:href="#Degradado_sin_nombre_14"/><linearGradient id="Degradado_sin_nombre_9" x1="1.23" y1="1081.35" x2="1.24" y2="1081.87" gradientTransform="matrix(636.43, 0, 0, -245.8, -241.46, 266258.93)" gradientUnits="userSpaceOnUse"><stop offset="0" stop-color="#030d14"/><stop offset="1" stop-color="#0b2f45"/></linearGradient><radialGradient id="Degradado_sin_nombre_8" cx="0.88" cy="1082.03" r="0.29" gradientTransform="matrix(185.07, 0, 0, -185.07, 34.38, 200576.8)" gradientUnits="userSpaceOnUse"><stop offset="0.13" stop-color="#3280fc"/><stop offset="1"/></radialGradient><linearGradient id="Degradado_sin_nombre_9-2" x1="0.18" y1="1083.05" x2="0.77" y2="1083.05" gradientTransform="matrix(111.57, 0, 0, -111.57, 144.62, 121164.38)" xlink:href="#Degradado_sin_nombre_9"/><radialGradient id="Degradado_sin_nombre_8-2" cx="0.32" cy="1082.03" r="0.29" gradientTransform="matrix(185.07, 0, 0, -185.07, 284.36, 200576.8)" xlink:href="#Degradado_sin_nombre_8"/><linearGradient id="Degradado_sin_nombre_9-3" x1="-0.76" y1="1083.05" x2="-0.17" y2="1083.05" gradientTransform="matrix(111.57, 0, 0, -111.57, 394.6, 121164.38)" xlink:href="#Degradado_sin_nombre_9"/><linearGradient id="Degradado_sin_nombre_14-4" x1="-1.63" y1="1081.33" x2="-0.73" y2="1081.46" gradientTransform="matrix(66.92, 0, 0, -66.92, 612.81, 72460.56)" xlink:href="#Degradado_sin_nombre_14"/><linearGradient id="Degradado_sin_nombre_11" x1="0.3" y1="1085.38" x2="0.88" y2="1086.64" gradientTransform="matrix(159.24, 0, 0, -73.4, 494.66, 80175.78)" gradientUnits="userSpaceOnUse"><stop offset="0" stop-color="#3f88ad"/><stop offset="1" stop-color="#3487c4"/></linearGradient><linearGradient id="Degradado_sin_nombre_12" x1="0.99" y1="1081.53" x2="1.44" y2="1082.21" gradientTransform="matrix(545.48, 0, 0, -417.29, -84.68, 452102.2)" gradientUnits="userSpaceOnUse"><stop offset="0" stop-color="#3a68ab"/><stop offset="0.05" stop-color="#316fb0"/><stop offset="0.24" stop-color="#1686c0"/><stop offset="0.41" stop-color="#0594ca"/><stop offset="0.54" stop-color="#0099ce"/><stop offset="0.66" stop-color="#2ba8d6"/><stop offset="0.92" stop-color="#99cfed"/><stop offset="1" stop-color="#bcdcf4"/></linearGradient><linearGradient id="Degradado_sin_nombre_13" x1="0.93" y1="1084.93" x2="1.47" y2="1086.8" gradientTransform="matrix(272.69, 0, 0, -92.26, 188.17, 100742.48)" gradientUnits="userSpaceOnUse"><stop offset="0.04" stop-color="#06cff1"/><stop offset="1" stop-color="#defa8e"/></linearGradient><linearGradient id="Degradado_sin_nombre_14-5" x1="18.06" y1="1086.45" x2="19.56" y2="1086.8" gradientTransform="matrix(134.57, 0, 0, -303.52, 754.05, 329149.78)" xlink:href="#Degradado_sin_nombre_14"/><linearGradient id="Degradado_sin_nombre_15" x1="-4.29" y1="1082.18" x2="-1.75" y2="1082.42" gradientTransform="matrix(51.27, 0, 0, -284.35, 817.4, 308452.66)" gradientUnits="userSpaceOnUse"><stop offset="0" stop-color="#06cff1"/><stop offset="1" stop-color="#0074a2"/></linearGradient><radialGradient id="Degradado_sin_nombre_4" cx="552.13" cy="905.02" r="116.01" gradientTransform="translate(-271.87 462.2) scale(1 0.41)" gradientUnits="userSpaceOnUse"><stop offset="0" stop-color="#128eec"/><stop offset="1" stop-color="#fff" stop-opacity="0"/></radialGradient></defs><title>diami_avatar</title><g id="Grupo_15" data-name="Grupo 15"><path id="Trazado_3" data-name="Trazado 3" class="cls-1" d="M332.23,577.1c71.22,19.51,88,14.06,100.74,33.14,1.46,2.2,8.9,13.4,7.41,27.77a41.25,41.25,0,0,1-11.58,24.18c-24.4,23.62-91.54-5.27-130-36.87-8.38-6.89-30.87-25.38-26.34-38.51,1.86-5.38,7.62-8,11.76-9.9C302.52,568.73,321.49,574.16,332.23,577.1Z" transform="translate(-271.87 -72.32)"/><rect id="Rectángulo_1" data-name="Rectángulo 1" class="cls-2" x="265.1" y="26.05" width="15.16" height="99.48"/><rect id="Rectángulo_2" data-name="Rectángulo 2" class="cls-3" x="206.36" y="115.11" width="132.65" height="65.37" rx="2.62"/><rect id="Rectángulo_3" data-name="Rectángulo 3" class="cls-4" x="35.36" y="146.37" width="474.65" height="360.96" rx="147.43"/><path id="Trazado_4" data-name="Trazado 4" class="cls-5" d="M707.22,459.87h0A45.84,45.84,0,0,1,687,464.55H402.13a45.8,45.8,0,0,1-20.24-4.68h0c-15.26-7.54-23.87-22.77-21.71-38.39l.15-1.14c7.3-52.91,55.22-93.59,114-96.64,24.86-1.29,50.94-2,78.15-1.8q32,.18,61.75,1.77c59,3,107.25,43.56,114.57,96.66l.16,1.15C731.08,437.1,722.47,452.33,707.22,459.87Z" transform="translate(-271.87 -72.32)"/><g id="Grupo_8" data-name="Grupo 8"><circle id="Elipse_11" data-name="Elipse 11" class="cls-6" cx="197.61" cy="326.85" r="53.71"/><g id="Grupo_3" data-name="Grupo 3"><circle id="Elipse_12" data-name="Elipse 12" class="cls-7" cx="197.61" cy="326.85" r="38.55"/></g><g id="Grupo_4" data-name="Grupo 4"><circle id="Elipse_13" data-name="Elipse 13" class="cls-8" cx="197.61" cy="326.85" r="32.38"/></g><g id="Grupo_5" data-name="Grupo 5"><path id="Trazado_5" data-name="Trazado 5" class="cls-7" d="M490.22,390.78a12,12,0,1,1-24,0h0a12,12,0,0,1,12-12h0a12,12,0,0,1,12,12Z" transform="translate(-271.87 -72.32)"/></g><g id="Grupo_6" data-name="Grupo 6"><circle id="Elipse_14" data-name="Elipse 14" class="cls-7" cx="192.82" cy="351.68" r="4.79"/></g><g id="Grupo_7" data-name="Grupo 7"><path id="Trazado_6" data-name="Trazado 6" class="cls-7" d="M452.82,416.82a2.38,2.38,0,0,1-2.39,2.4h0a2.39,2.39,0,0,1-2.39-2.39h0a2.39,2.39,0,0,1,2.39-2.39h0a2.39,2.39,0,0,1,2.39,2.39Z" transform="translate(-271.87 -72.32)"/></g></g><g id="Grupo_14" data-name="Grupo 14"><circle id="Elipse_15" data-name="Elipse 15" class="cls-9" cx="342.71" cy="326.85" r="53.71"/><g id="Grupo_9" data-name="Grupo 9"><circle id="Elipse_16" data-name="Elipse 16" class="cls-7" cx="342.71" cy="326.85" r="38.55"/></g><g id="Grupo_10" data-name="Grupo 10"><circle id="Elipse_17" data-name="Elipse 17" class="cls-10" cx="342.71" cy="326.85" r="32.38"/></g><g id="Grupo_11" data-name="Grupo 11"><path id="Trazado_7" data-name="Trazado 7" class="cls-7" d="M635.33,390.78a12,12,0,1,1-12-12h0A12,12,0,0,1,635.33,390.78Z" transform="translate(-271.87 -72.32)"/></g><g id="Grupo_12" data-name="Grupo 12"><circle id="Elipse_18" data-name="Elipse 18" class="cls-7" cx="337.92" cy="351.68" r="4.79"/></g><g id="Grupo_13" data-name="Grupo 13"><path id="Trazado_8" data-name="Trazado 8" class="cls-7" d="M597.93,416.82a2.39,2.39,0,0,1-2.4,2.4h0a2.39,2.39,0,0,1-2.39-2.39h0a2.39,2.39,0,0,1,2.39-2.39h0a2.4,2.4,0,0,1,2.4,2.39Z" transform="translate(-271.87 -72.32)"/></g></g><path id="Trazado_9" data-name="Trazado 9" class="cls-11" d="M564,91.74a19.41,19.41,0,0,1-19.42,19.42h0a19.42,19.42,0,1,1,0-38.84h0A19.42,19.42,0,0,1,564,91.74Z" transform="translate(-271.87 -72.32)"/><path id="Trazado_10" data-name="Trazado 10" class="cls-12" d="M558.05,84.16a5.92,5.92,0,1,1-5.92-5.92A5.92,5.92,0,0,1,558.05,84.16Z" transform="translate(-271.87 -72.32)"/><path id="Trazado_11" data-name="Trazado 11" class="cls-12" d="M688.32,288.79c.26,9.07-7.14,19.91-15.62,20.84-8,.87-14.3-7.25-20.84-15.63s-20.56-29.45-14.94-35.44C644.33,250.64,687.71,267.4,688.32,288.79Z" transform="translate(-271.87 -72.32)"/><circle id="Elipse_19" data-name="Elipse 19" class="cls-12" cx="343.85" cy="175.16" r="6.75"/><path id="Trazado_12" data-name="Trazado 12" class="cls-12" d="M710.82,406.75c-2.16,1.53-17.26-29.23-57.79-55.9-14.25-9.37-28.31-16.06-27.48-18s16.69,1.7,29.38,7.58C695.33,359.17,713.4,404.93,710.82,406.75Z" transform="translate(-271.87 -72.32)"/><path id="Trazado_13" data-name="Trazado 13" class="cls-12" d="M607,206.78c-.48.07-.79-2.77-3.16-7.15a35.34,35.34,0,0,0-2.37-3.79c-4.07-5.6-17.86-5.48-18.94-5.47-21.49.19-35.3-1.17-35.3-1.05s10.09-.09,17.47-.24c20.82-.42,33.23-1.54,38.55,4a17.68,17.68,0,0,1,3.32,5.33C608.11,202.53,607.61,206.7,607,206.78Z" transform="translate(-271.87 -72.32)"/><path id="Trazado_14" data-name="Trazado 14" class="cls-7" d="M602.57,487.59a11,11,0,0,1-10,9.61l-71.15,6.86a11,11,0,0,1-11.61-7.52,49.5,49.5,0,0,1-1.53-6.8,2.39,2.39,0,0,1,2.12-2.72l89.77-8.65a2.33,2.33,0,0,1,2.55,2.1.53.53,0,0,1,0,.13A48,48,0,0,1,602.57,487.59Z" transform="translate(-271.87 -72.32)"/><path id="Trazado_15" data-name="Trazado 15" class="cls-13" d="M602.57,487.6a47.51,47.51,0,0,1-92.43,9.8,11,11,0,0,0,11.32,6.66l71.16-6.86A11,11,0,0,0,602.57,487.6Z" transform="translate(-271.87 -72.32)"/><path id="Trazado_16" data-name="Trazado 16" class="cls-14" d="M714.67,647.4c0,.65,0,1.28,0,1.88a43.81,43.81,0,0,1-2.3,12.47c-19.58,59.83-31.32,91.38-47.77,116.9-2.85,4.41-5.83,8.64-9,12.79-4.21,5.55-8.82,10.95-13.93,16.52-11.37,12.36-28.56,18-34.11,19.89-20.26,7.16-38.17,5.86-50.08,6h-2.07c-11.94-.11-29.82,1.19-50.08-6-5.55-1.93-22.77-7.53-34.11-19.89-31.26-34-43.29-62.3-70.74-146.21A44.11,44.11,0,0,1,398.13,650a46.35,46.35,0,0,1,0-4.86c.59-10,4.66-19.86,11.88-28.85,12.36-15.4,31.46-23.84,51.21-23.93l95.19-.39,93.45-.37c20.18-.09,39.74,8.38,52.55,24,6.2,7.56,10.15,15.71,11.6,24.13.2,1.19.37,2.41.48,3.61S714.67,646,714.67,647.4Z" transform="translate(-271.87 -72.32)"/><path id="Trazado_17" data-name="Trazado 17" class="cls-15" d="M556.37,592l-95.18.4c-19.75.08-38.85,8.52-51.22,23.93-7.22,9-11.28,18.81-11.88,28.84.49-10.28,4.72-20.37,12.26-29.56,12.78-15.6,32.36-24.07,52.55-24Z" transform="translate(-271.87 -72.32)"/><path id="Trazado_18" data-name="Trazado 18" class="cls-16" d="M651,732.25c-1.39-73.83-11.38-88.43,3.35-106,1.69-2,10.34-12.32,24.55-15a41.3,41.3,0,0,1,26.47,4.29c29.54,16.74,20.78,89.3,1.32,135.11-4.25,10-15.63,36.78-29.51,36.14-5.68-.26-9.87-5-12.81-8.48C651.33,763.12,651.19,743.38,651,732.25Z" transform="translate(-271.87 -72.32)"/><path id="Trazado_19" data-name="Trazado 19" class="cls-17" d="M664.56,778.65c-2.84,4.41-5.82,8.64-9,12.79-1-1.05-1.94-2.1-2.76-3.06-13-15.24-13.16-35-13.36-46.11-1.39-73.84-11.4-88.42,3.36-106a45.73,45.73,0,0,1,11.45-9.89c-14.55,17.5-4.63,32.23-3.24,105.84.2,11.14.37,30.87,13.36,46.13A1.18,1.18,0,0,1,664.56,778.65Z" transform="translate(-271.87 -72.32)"/><path id="Trazado_20" data-name="Trazado 20" class="cls-12" d="M706.23,670.77c-.42-7.93-1.91-13.77-4.88-25.44-3.9-15.27-8.78-22.71-5.61-25.66,2.07-1.92,6.13-.62,7.06-.33,14,4.45,18.27,30.64,17.67,47-.37,10-2.82,21.25-6.49,21.75a4.22,4.22,0,0,1-3.06-.91C706.82,683.57,706.55,676.8,706.23,670.77Z" transform="translate(-271.87 -72.32)"/><path id="Trazado_21" data-name="Trazado 21" class="cls-12" d="M715.81,698.77a2.9,2.9,0,1,1-2.9-2.9h0a2.9,2.9,0,0,1,2.9,2.9Z" transform="translate(-271.87 -72.32)"/><ellipse id="Elipse_20" data-name="Elipse 20" class="cls-18" cx="280.26" cy="832.7" rx="151.84" ry="62.16"/></g></svg>