<svg xmlns="http://www.w3.org/2000/svg" viewBox="0 0 1080 1080"><defs><style>.cls-1{isolation:isolate;}.cls-2{fill:#6d7bb3;}.cls-3{fill:#8bc2e3;}.cls-4{fill:#c4e0f4;}.cls-5{fill:#a1cdee;}.cls-6{fill:#5e6b9f;}.cls-7{fill:#7164a0;}.cls-8{fill:#bcdaf0;}.cls-11,.cls-8{mix-blend-mode:multiply;}.cls-9{fill:#fff;}.cls-10{fill:#95c6e3;}.cls-11{fill:#dcecf6;}</style></defs><title>slide2</title><g class="cls-1"><g id="Capa_1" data-name="Capa 1"><path class="cls-2" d="M401.62,789.46c-14.69-5.33-23.95-17.61-41.4-16.08-31,2.75-53,37.62-82.9,14-36.15-28.66-26.65-201-11-240.08,13.29-33.12,37.78-.75,72.74-11.87,40.62-12.93,75.64,19.12,96.64,52.4,21.85,34.65,33.11,78.78,29.88,119.43C462.62,744.78,455.84,809.15,401.62,789.46Z"/><path class="cls-3" d="M540.27,971.66H464.11l-13.62-55S439.42,833.21,496.66,832c0,0,29.7,20.83,37.8,69.82C534.46,901.86,540.87,941,540.27,971.66Z"/><path class="cls-3" d="M275.75,971.66,286,930.18s11.08-83.46-46.16-84.63c0,0-34.33,25-31.32,126.11h67.21"/><rect class="cls-4" x="333.28" y="711.37" width="69.49" height="101.73"/><path class="cls-5" d="M402.77,752.89V711.37H333.28v59.81C356.2,770.48,383.4,766.33,402.77,752.89Z"/><path class="cls-4" d="M241.17,845.55a76.08,76.08,0,0,1,40.1-30.67L340,793.13h56.05l71.8,21.75A76,76,0,0,1,508,845.55Z"/><path class="cls-3" d="M255.56,971.66H486.93l-1.48-43.46,34-51.48c-7.56-50.13-51.62-61.84-51.62-61.84l-56.55-16.1s3.37,18.41-43.28,18.41c0,0-37.48,0-42-18.91l-44.79,16.6s-32.81,10-50.73,43.2l25,70.12Z"/><path class="cls-4" d="M410.34,719.48a45.93,45.93,0,0,1-10.32,15,127.19,127.19,0,0,1-39.84,26.19c-18.17,7.45-45.59,8.4-60-6.57-11.7-12.13-18.12-30.5-23.2-46.26-9.87-30.63-9.75-64.1-7.24-95.92.58-7.26,1.31-14.52,2.52-21.7C283.52,520.86,342.9,521,342.9,521c44.83-1.95,85.76,19.23,92.64,66.48,2.65,18.09-.84,37.53-1.74,55.62-.67,13.3-2.3,26.56-6.56,39.24C422.91,695.3,415.74,707,410.34,719.48Z"/><path class="cls-2" d="M264.9,652.87c-16.76-51.88-3.24-112.89,16.79-132C338.42,466.77,443.2,487.37,475.21,572c9.9,26.12,5.25,123.57.77,153.52-6,40.13-20.76,67.63-51.23,67.63.81-33.09-1.72-69.75,1.21-110.2,2.91-40.14-2.43-41.13-35.83-59.8-16.61-9.3-26.27-19-36.59-34.07-12.77-18.66-3.16-25.19-28.44-24.35C325.1,564.71,266.34,562.71,264.9,652.87Z"/><path class="cls-4" d="M416.13,666.57s5.93-24.7,24.92-14.49c0,0,8.57,4.34,2.39,21.29,0,0-9,24.39-27.33,15.48Z"/><path class="cls-4" d="M595.94,851.5c16.4-25.37,42.17-32.25,42.17-32.25l61.75-22.88h58.95l61.74,22.88s25.76,6.88,42.17,32.25Z"/><path class="cls-3" d="M809.86,971.66h95.4c0-16.29-1.06-39.51-1.06-39.51-5.62-97.55-76.71-112.9-76.71-112.9-55.44-13.42-25.22,72.33-25.22,72.33C800.82,912.25,803.89,940,809.86,971.66Z"/><rect class="cls-4" x="688.88" y="738.48" width="80.93" height="78.9"/><path class="cls-5" d="M769.8,775.15V738.48H688.88v18.16C712,775.85,739.77,778.29,769.8,775.15Z"/><path class="cls-3" d="M856,971.66c1.55-42.54,1.07-54.23.69-68.74-.84-32.32-7.75-59.64-29.06-83.64l-.1,0L769.8,800.44s12.13,21.24-40.89,21.24c0,0-34.93-1.36-40-21.24l-58.59,18.81s-50.09,12.32-58.68,65l29.45,54.13-1,33.23Z"/><path class="cls-2" d="M825.68,620.94c0-18.76-.8-37.47-.36-56.2.29-12,1.39-8.89-12.48-10.2-19.22-1.83-25.64,33.87-27,49.32-1.86,21.3,2.75,44.22,6.3,65,1.27,7.5.93,22.53,8.77,26,6.72,3,13.72-4.4,17.25-9.89,8.1-12.62,6.67-31.92,7.21-46.24C825.6,632.8,825.68,626.87,825.68,620.94Z"/><path class="cls-4" d="M817.36,727.49c-8.18,32-22.58,40.83-22.58,40.83l-19.32,3.77c-11.12-1.41-30.3-5.94-30.3-5.94-44.13-15-56.92-19.06-63.76-35.83-.29-.71-34.79-120.47-34.79-120.47-5.64-61.63,58.88-74.46,68.62-76.07,9.63-2.22,71.07-19.29,89.21,39.88C804.44,573.66,831.25,642.22,817.36,727.49Z"/><path class="cls-6" d="M640,553.28c-21.44,10.33-22.18,29.47-21.17,51.23.78,16.87,6,31.27,12,47.63,10.29,27.92,10.29,27.92,19.42,44,0,0,14.21,22.09,32.51,37.24-5.3-21-6.78-36.69-11.61-52.83-5.82-19.37-4.11-45.3,4.51-65.18,0,0,4.89-13.23,25-17h0L640,553.28"/><path class="cls-4" d="M675.22,676.37s-10.91-23.77-28.06-9.69c0,0-7.8,6.09,1.81,22,0,0,14,22.86,30.7,10.19Z"/><path class="cls-6" d="M673.51,620.94s.07,42.55,7.89,65.11l-8.29,1.65s-4.36-29.18-19.39-29.53Z"/><path class="cls-2" d="M836.29,529.81c69,70.24-139.75,69.53-139.75,69.53S674.65,609.46,640,553.28c0,0-9.35-43.95,89.34-57.79C729.33,495.49,794.56,487.49,836.29,529.81Z"/><path class="cls-3" d="M653.46,971.66H564.28s.31-21.16.36-22.67c.67-20.81,2-41.78,5.73-62.29,5.36-29.33,19.6-55.34,51-62.79,14.34-3.41,27.1,5.27,34.87,17.08C656.19,841,670.38,858.48,653.46,971.66Z"/><path class="cls-7" d="M900.59,228.22a126.38,126.38,0,0,0-25.87-59.11c-44.28-55.61-139.5-71.6-196.38-26.84-61,48-104.26,159.57-32.14,211.16a140.64,140.64,0,0,0,27.34,15c-2.6,12.14-8.53,32.46-20,40.16,0,0,43.26,3.32,59.53-28.54C777.22,392,853.42,376,883,323,899.29,293.85,905.69,260.09,900.59,228.22Z"/><path class="cls-8" d="M764.75,339c-28.37-3.6-55.6-15.33-72.4-39.31-17.15-24.48-23.8-55.61-21.88-85.18,1.82-28.08,9.81-56.69,30.95-76.42a126.09,126.09,0,0,1,26.13-18.51,120.27,120.27,0,0,0-49.21,22.66c-61,48-104.26,159.57-32.14,211.16a140.64,140.64,0,0,0,27.34,15c-2.6,12.14-8.53,32.46-20,40.16,0,0,43.26,3.32,59.53-28.54C777.22,392,853.42,376,883,323a152.79,152.79,0,0,0,7.81-16.15C856.45,334.91,808.06,344.53,764.75,339Z"/><circle class="cls-9" cx="708.67" cy="258.33" r="16.74"/><path class="cls-9" d="M778.33,256a16.74,16.74,0,1,1-16.74-16.74A16.74,16.74,0,0,1,778.33,256Z"/><circle class="cls-9" cx="814.51" cy="253.69" r="16.74"/><path class="cls-10" d="M597,202.58a61.5,61.5,0,0,0-83.71-57.45,76,76,0,0,0-145.92-12.61A32.43,32.43,0,0,0,316.2,159a33.22,33.22,0,0,0,.54,5.78A43.58,43.58,0,1,0,281.47,244a61.82,61.82,0,0,0,71.63,97.36,61.55,61.55,0,0,0,120.51,12.34,61.55,61.55,0,1,0,81.09-92.6A61.6,61.6,0,0,0,597,202.58Z"/><path class="cls-11" d="M597,202.58a61.61,61.61,0,0,0-46.86-59.81c13.21,12.43,23,30.87,23.46,49.07.5,18-5.31,39.65-20.35,51-6.51,4.9-19.7,11.11-28.11,10.27,11.83,15.22,16.1,34.27-1.11,49.65-19.23,17.18-42.54,15.32-57.88-3,.39,15.52-4.76,35.65-18.54,44.38-11.32,7.16-27.17,11.16-40.5,9.53-26.91-3.28-42.61-22.84-44.91-48.89.13,1.45-8.48,6.92-9.81,7.84a46.91,46.91,0,0,1-10.76,5.78c-25.7,9.34-58.58-12.17-55.78-40.18.94-9.37,4.17-21.25,8.86-29.44,2.11-3.67,8.15-12.88,13.4-12.54-34-2.22-42-59.41-3.89-76.23a43.58,43.58,0,0,0-22.79,84,61.82,61.82,0,0,0,71.63,97.36,61.55,61.55,0,0,0,120.51,12.34,61.55,61.55,0,1,0,81.09-92.6A61.6,61.6,0,0,0,597,202.58Z"/><path class="cls-10" d="M324.74,383.47c-5.88,7.06-18.15,6.55-27.4-1.16s-12-19.68-6.1-26.75,18.15-6.54,27.4,1.17S330.62,376.41,324.74,383.47Z"/><path class="cls-10" d="M292.75,399c-4.46,5.36-13.77,5-20.79-.89s-9.09-14.93-4.63-20.29,13.77-5,20.8.89S297.21,393.67,292.75,399Z"/><path class="cls-10" d="M264.45,406.05c-3.15,3.78-9.72,3.5-14.68-.63s-6.41-10.53-3.26-14.31,9.72-3.51,14.67.62S267.6,402.26,264.45,406.05Z"/><path class="cls-11" d="M416,178.57a39.42,39.42,0,0,1,62.61-31.92,39.43,39.43,0,1,0-55.06,55.06A39.2,39.2,0,0,1,416,178.57Z"/><path class="cls-11" d="M349.14,272.46a29.92,29.92,0,0,1,32.68,42.16A29.93,29.93,0,1,0,333,281.37,29.9,29.9,0,0,1,349.14,272.46Z"/><path class="cls-9" d="M388.09,246.66a16.74,16.74,0,1,1-16.74-16.74A16.75,16.75,0,0,1,388.09,246.66Z"/><path class="cls-9" d="M441,244.34a16.74,16.74,0,1,1-16.74-16.74A16.73,16.73,0,0,1,441,244.34Z"/><path class="cls-9" d="M493.94,242a16.75,16.75,0,1,1-16.75-16.74A16.75,16.75,0,0,1,493.94,242Z"/></g></g></svg>