<svg id="Capa_1" data-name="Capa 1" xmlns="http://www.w3.org/2000/svg" xmlns:xlink="http://www.w3.org/1999/xlink" viewBox="0 0 1080 1080"><defs><style>.cls-1{fill:#afddfd;}.cls-2{fill:#e6f5ff;}.cls-3{fill:#d4ecff;}.cls-10,.cls-4{fill:#5c87c7;}.cls-5{fill:#6a99de;}.cls-6{fill:#275cab;}.cls-19,.cls-7{fill:#fff;}.cls-8{fill:#366dbf;}.cls-9{fill:#60b1e6;}.cls-10{opacity:0.56;}.cls-11{fill:#c9515b;}.cls-12{fill:#81c4ef;}.cls-13{fill:#edbc9c;}.cls-14{fill:#0b3e8a;}.cls-15{fill:#164fa6;}.cls-16{fill:url(#linear-gradient);}.cls-17{fill:#dd9f80;}.cls-18{fill:#9cd8ff;}.cls-19{font-size:72.98px;font-family:Roboto-Bold, Roboto;font-weight:700;}.cls-20{letter-spacing:-0.02em;}</style><linearGradient id="linear-gradient" x1="386.45" y1="717.74" x2="386.28" y2="717.47" gradientUnits="userSpaceOnUse"><stop offset="0" stop-color="#ff3688"/><stop offset="1" stop-color="#ff85bc"/></linearGradient></defs><title>slide3</title><path class="cls-1" d="M520.73,261.36c12.42,0,13.07-18.48.69-19.27l-.36,0a1.77,1.77,0,0,0,0-.23,23.91,23.91,0,0,0-35.4-21A24.84,24.84,0,0,0,439,232.6c0,.73,0,1.46.1,2.18a28.91,28.91,0,0,0-32,11.67,9.63,9.63,0,0,0,8.08,14.91Z"/><ellipse class="cls-2" cx="560.45" cy="854.31" rx="440.8" ry="27.56"/><ellipse class="cls-3" cx="397.11" cy="867.06" rx="77.66" ry="5.53"/><ellipse class="cls-3" cx="728.59" cy="862.11" rx="109.56" ry="7.95"/><rect class="cls-4" x="479.96" y="242.24" width="106.34" height="106.34" rx="25.98"/><path class="cls-3" d="M498.61,300.31a2.55,2.55,0,0,0-1.56,3.28l1.56,4.44a2.59,2.59,0,0,0,3.27,1.56l2.25-.8-3.3-9.26Z"/><path class="cls-3" d="M526,312.2l-9.62,3.42a.28.28,0,0,0-.12,0l4.52,12.77a1,1,0,0,0,.8.66l9.28,1a1,1,0,0,0,1-1.32Z"/><path class="cls-3" d="M567.79,303.78l-4.62-13a8,8,0,0,0-4.94-14.27h-.12l-4.59-12.94a3.39,3.39,0,1,0-6.39,2.27L561.39,306a3.39,3.39,0,0,0,6.4-2.26Z"/><path class="cls-3" d="M518.67,285.93,507.24,290a6.2,6.2,0,0,0-3.77,7.91l3.81,10.73a6.17,6.17,0,0,0,7.75,3.81h0a.3.3,0,0,0,.15-.05h0l11.42-4,0,0s24.22-6,31.34-1.45l-14-39.59C541.24,275.32,518.67,285.93,518.67,285.93Z"/><path class="cls-4" d="M268.79,796.4c-.17,0,14.18-11.31,23.18-27.39,9.26-15.6,13.17-36-1.88-43.19-21.37-9.34-1.9-43-18-45.33-15.54-1.18-13.07,6.93-21.55-13.71-9.42-20.55-25.08-16.29-43.46-27.84-19.46-11-29.65,14.21-10.24,32.61,18.9,19.77-5.46,2.66-4.89,17,.3,12,46,33.16,34.4,36.36-11.35,2-15.09,12.6-7.09,21.79C238.42,767.39,268.9,795.66,268.79,796.4Z"/><path class="cls-5" d="M268.33,810.53a.36.36,0,0,0,.17-.29c2.31-21.6,1.21-51.65-8.94-80.48l-.08-.23.09-.2c3.56-7.83,5.58-16.68,7.07-25.48.5-2.91.95-5.84,1.39-8.78a.28.28,0,0,0-.15-.34.44.44,0,0,0-.58.1.58.58,0,0,0-.05.17c-.44,2.87-.88,5.73-1.36,8.57-1.37,8.12-3.18,16.3-6.27,23.66-.17.41-.34.82-.52,1.23-.15-.44-.31-.88-.47-1.32a180.17,180.17,0,0,0-18-36l-.21-.32.18-.3a.3.3,0,0,0,.05-.17,101.37,101.37,0,0,0-4.92-29.1.39.39,0,0,0-.29-.29.42.42,0,0,0-.45.21.38.38,0,0,0,0,.26,100.7,100.7,0,0,1,4.83,26.71c0,.62.05,1.23.07,1.84l-1-1.57a202.2,202.2,0,0,0-27.51-32.81c-.13-.13-.21-.11-.24-.11a.44.44,0,0,0-.16.74A197.93,197.93,0,0,1,246,701.53l.54,1-1-.17a145.6,145.6,0,0,1-33.39-9.55.18.18,0,0,0-.29.09.61.61,0,0,0,0,.42.41.41,0,0,0,.24.24,145.2,145.2,0,0,0,34.64,9.8l.33,0,.15.28a176,176,0,0,1,11.45,25.64l.05.15,0,.15a.38.38,0,0,0,.13.35l.12.1.05.15a175,175,0,0,1,6.47,24.36c.09.48.18,1,.28,1.45l-1.12-1a139.84,139.84,0,0,0-33.73-21.23.33.33,0,0,0-.43.11.46.46,0,0,0-.11.35c0,.05,0,.12.17.18A139.46,139.46,0,0,1,265.74,757l.16.14,0,.21a193.71,193.71,0,0,1,1.82,52.91c0,.18.05.23.09.26a.5.5,0,0,0,.49,0Z"/><path class="cls-5" d="M311.18,831.9c-.43,1.61-14.16-35.57-51.17-62.81-34.42-28.36-92.11-46.77-120.42-33.59-55,25-13,51.71,15.85,42.69,30-6.83,6.25,35.61,39.1,26.81,32.59-6.11,31.85,5.09,50.45,3.74C265.2,806.16,312.49,830.62,311.18,831.9Z"/><path class="cls-5" d="M849.36,777.08c.1-.15-18.1-1.32-34.62-9.49-16.45-7.62-31.22-22.25-22.87-36.68,12.34-19.78-22.76-36.54-10.82-47.55,12.15-9.75,14.69-1.67,10-23.49-3.86-22.27,11.47-27.62,20.09-47.54,9.85-20,32.49-5.05,26.89,21.11-4.41,27,6-.9,13.67,11.27,6.53,10-19.18,53.36-7.81,49.44,10.52-4.73,19.57,1.86,18.17,14C858,736,848.84,776.52,849.36,777.08Z"/><path class="cls-4" d="M857.73,788.47a.37.37,0,0,1-.31-.15c-14.12-16.5-30.21-41.91-38.14-71.43,0-.08,0-.15-.07-.23l-.19-.12c-7.36-4.43-14-10.59-20.24-17-2-2.11-4.08-4.28-6.11-6.45a.27.27,0,0,1-.07-.36.45.45,0,0,1,.53-.26.49.49,0,0,1,.14.11c2,2.13,4,4.24,6,6.31,5.72,5.92,11.84,11.64,18.56,16l1.11.71c-.12-.45-.23-.9-.35-1.35a180.34,180.34,0,0,1-5.5-39.85c0-.12,0-.25,0-.38l-.32-.14a.42.42,0,0,1-.14-.12,101.11,101.11,0,0,1-12.39-26.78.34.34,0,0,1,.08-.4.42.42,0,0,1,.48-.09.4.4,0,0,1,.14.22A100.9,100.9,0,0,0,812,671.43l1,1.56c0-.63,0-1.26,0-1.89a202.17,202.17,0,0,1,4.13-42.62c0-.18.11-.21.14-.22a.41.41,0,0,1,.39.07.39.39,0,0,1,.16.44A197.94,197.94,0,0,0,814.48,686c0,.37.07.74.1,1.11l.77-.73a145.48,145.48,0,0,0,22.13-26.76c.07-.12.14-.17.28-.09a.53.53,0,0,1,.27.33.42.42,0,0,1-.06.34,145.77,145.77,0,0,1-23,27.67l-.25.2,0,.33A175.48,175.48,0,0,0,819.79,716l0,.16.11.11a.34.34,0,0,1,.08.35l0,.16,0,.15a175.31,175.31,0,0,0,8.44,23.74l.6,1.36c.12-.47.25-.94.38-1.42A139.41,139.41,0,0,1,845.26,704a.34.34,0,0,1,.42-.16.44.44,0,0,1,.28.23.28.28,0,0,1,0,.25,139.31,139.31,0,0,0-16.32,38.55,1.94,1.94,0,0,0-.05.2l.08.2a194.47,194.47,0,0,0,28.43,44.66c.12.14.09.22.07.26a.48.48,0,0,1-.4.28Z"/><path class="cls-4" d="M826.35,796.27c.18,0-11-14.46-15.74-32.25-5.14-17.39-3.92-38.14,12.44-41.41,23-3.79,12.41-41.21,28.55-39.52,15.35,2.68,11,9.93,24.26-8,14.18-17.61,28.32-9.63,49-16.31,21.56-5.84,25.25,21.06,1.91,34.13-23.17,14.51,4.64,3.92.56,17.71-3.23,11.54-52.74,20.83-42.28,26.79,10.5,4.77,11.53,15.92,1.52,22.86C862.91,775.61,826.42,795.52,826.35,796.27Z"/><path class="cls-5" d="M823.33,810.08a.35.35,0,0,1-.1-.33c3.07-21.5,11.52-50.36,28.45-75.81a1.37,1.37,0,0,1,.13-.2l0-.23c-1.53-8.46-1.32-17.53-.6-26.43.24-2.94.52-5.89.81-8.85a.28.28,0,0,1,.23-.29.43.43,0,0,1,.54.23.35.35,0,0,1,0,.18c-.28,2.89-.56,5.78-.79,8.65-.67,8.2-.92,16.58.26,24.47.07.44.14.88.2,1.31.26-.38.52-.77.79-1.15a179.78,179.78,0,0,1,26.29-30.45l.27-.26-.1-.33a.28.28,0,0,1,0-.18,101,101,0,0,1,11.92-27,.36.36,0,0,1,.35-.2.41.41,0,0,1,.39.3.4.4,0,0,1-.07.26A100.42,100.42,0,0,0,881,698.48c-.18.58-.35,1.17-.52,1.76l1.4-1.27a202.15,202.15,0,0,1,34.73-25c.16-.09.23-.06.26,0a.4.4,0,0,1,.2.34.42.42,0,0,1-.22.42,197.65,197.65,0,0,0-45.14,35.26c-.26.27-.52.54-.77.82l1,.09a145.32,145.32,0,0,0,34.71-1.06c.14,0,.22,0,.26.16a.57.57,0,0,1-.08.42.39.39,0,0,1-.28.18,145.77,145.77,0,0,1-36,1l-.33-.06-.22.24a177.51,177.51,0,0,0-17.39,22l-.09.13V734a.36.36,0,0,1-.21.3l-.14.07-.09.14a176.63,176.63,0,0,0-12.25,22c-.21.45-.42.9-.62,1.35l1.31-.65a139.73,139.73,0,0,1,37.91-12.29.35.35,0,0,1,.4.21.44.44,0,0,1,0,.37.28.28,0,0,1-.21.13A139.43,139.43,0,0,0,839,758.85l-.18.09-.09.19A193.86,193.86,0,0,0,824,810c0,.19-.11.22-.15.23a.49.49,0,0,1-.47-.12Z"/><path class="cls-5" d="M781.75,823s126.91-97,166.86-88.62,14.74,50.5-10.94,49-2.95,40.37-33.6,35.35S873,824.58,854.66,821,781.75,823,781.75,823Z"/><rect class="cls-6" x="267.84" y="470.35" width="528.02" height="375.22" rx="7.96"/><rect class="cls-3" x="353.66" y="449.59" width="326.66" height="416.73" rx="1.48" transform="translate(1174.94 140.97) rotate(90)"/><path class="cls-1" d="M722.25,494.62H311.73a3.12,3.12,0,0,0-3.11,3.11v8.9H707.84a3.11,3.11,0,0,1,3.11,3.11V821.29h11.3a3.12,3.12,0,0,0,3.11-3.11V497.73A3.12,3.12,0,0,0,722.25,494.62Z"/><path class="cls-7" d="M777.25,658a17,17,0,1,0-17,17A17,17,0,0,0,777.25,658Z"/><path class="cls-8" d="M311.74,821.28H536a303.58,303.58,0,0,1-39.11,24.29H284.55a16.71,16.71,0,0,1-16.71-16.71V487a16.7,16.7,0,0,1,16.71-16.69H642.07q4.41,11.91,7.81,24.27H311.74a3.11,3.11,0,0,0-3.12,3.12V818.18A3.11,3.11,0,0,0,311.74,821.28Z"/><path class="cls-7" d="M287.72,624.81h0a3.19,3.19,0,0,0-3.18,3.18v74.18a3.19,3.19,0,0,0,3.18,3.18h0a3.19,3.19,0,0,0,3.18-3.18V628A3.19,3.19,0,0,0,287.72,624.81Z"/><path class="cls-9" d="M383.17,728a13.09,13.09,0,0,1-.8-3.37C382.48,725.19,382.74,726.4,383.17,728Z"/><path class="cls-4" d="M737.34,438l1.7-1.18c-.54-3.13-3.28-7.79-12.64-13.32-17.34-10.22-34.4-27.27-33.64-36.33,0,0-8.18,23.05,4,32.55C708.17,428.67,731,424,737.34,438Z"/><path class="cls-5" d="M738,437.55l1-.7c-.54-3.13-3.28-7.79-12.64-13.32-17.34-10.22-34.4-27.27-33.64-36.33,0,0-2.39,19.51,9.72,28.12C714.43,423.83,731,421,738,437.55Z"/><path class="cls-4" d="M734.3,426.28a46,46,0,0,1,3.32,9.09l.92-.49c-.23-7.94-1.94-22.65-10.48-36.28-12.48-19.93-27.92-45-27.92-45s-6.54,30.17,14.52,48.32C725.16,410.93,731,419.5,734.3,426.28Z"/><path class="cls-5" d="M714.6,387.71c11,16.14,21.42,35.28,22.95,44.93.21-.84.45-1.74.69-2.66-.77-8.29-3.17-20.2-10.18-31.38-12.48-19.93-27.92-45-27.92-45S700.23,366.7,714.6,387.71Z"/><path class="cls-4" d="M741.78,432.41a40.61,40.61,0,0,1-7.4,4.24l.56.72c6.86-1.37,19.39-5,30-14.47,15.47-13.79,35-30.91,35-30.91s-27.17-1.23-39.82,19.75C753.77,422.2,747.19,428.57,741.78,432.41Z"/><path class="cls-5" d="M772.38,409.6c-12.39,12-27.49,23.83-35.65,26.58l2.42.21a63.55,63.55,0,0,0,25.76-13.49c15.47-13.79,35-30.91,35-30.91S788.5,394,772.38,409.6Z"/><path class="cls-4" d="M739.27,439.32c.44,4.43.81,7.49,1,9.58h.87c.39-7.49,1.06-20.44.84-29.09-.34-12.75,3.58-18,6-39.42s-3.26-51.95-3.26-51.95-15,27.11-10.27,57.55S737.3,419.8,739.27,439.32Z"/><path class="cls-5" d="M740.28,448.9h.17l.8-2.9c.39-7.63.88-18.57.69-26.18-.34-12.75,3.58-18,6-39.42s-3.26-51.95-3.26-51.95-6.12,42.31-4.83,61.77C741.06,408.21,740.39,443.7,740.28,448.9Z"/><path class="cls-4" d="M771.5,351.62c-.72,4.91-14.78,33.53-23.44,52.67a57.54,57.54,0,0,0-3.86,34.45l1.74,0c-1.18-6.53-1.58-5.52-.3-15.76,1.41-11.24,17.24-19.37,26.83-41.18S772.22,346.71,771.5,351.62Z"/><path class="cls-5" d="M772,350.66c.29,6.94.29,30.58-12.15,43.42-14.41,14.88-18.76,31.05-14.08,44.62h.13c-1.18-6.53-1.58-5.52-.3-15.76,1.41-11.24,17.24-19.37,26.83-41.18C781,362.37,774.16,349.76,772,350.66Z"/><path class="cls-1" d="M713.61,436.65l5,29.41a5.7,5.7,0,0,0,5.62,4.74h28.73a5.7,5.7,0,0,0,5.62-4.74l5-29.41a4.35,4.35,0,0,0-4.29-5.08H717.91A4.35,4.35,0,0,0,713.61,436.65Z"/><path class="cls-10" d="M763.48,435.16h0a4.52,4.52,0,0,0-.22-.8l0-.05a5.58,5.58,0,0,0-.35-.69l-.08-.12a4.45,4.45,0,0,0-.42-.53c-.06-.07-.13-.12-.19-.18a3.16,3.16,0,0,0-.44-.38,3.87,3.87,0,0,0-.34-.21A2.71,2.71,0,0,0,761,432a2.9,2.9,0,0,0-.52-.18l-.33-.11a4.17,4.17,0,0,0-.94-.11H717.91a4.34,4.34,0,0,0-4.33,4.48h36.89c0,.2,0,.4,0,.61l-5,29.41a5.7,5.7,0,0,1-5.62,4.74h13.08a5.7,5.7,0,0,0,5.62-4.74l5-29.41A4.13,4.13,0,0,0,763.48,435.16Z"/><path class="cls-7" d="M679.53,425.4V821.25H371.43V406.32a19.06,19.06,0,0,0,19.08,19.08Z"/><path class="cls-1" d="M645.4,386.8v35.42H390.5a15.91,15.91,0,0,1-15.89-15.89v-3.66A15.91,15.91,0,0,1,390.5,386.8Z"/><path class="cls-7" d="M394.5,398.54h264v-3.2h-264a8.23,8.23,0,0,0-8.21,8.23v1.88a8.23,8.23,0,0,0,8.21,8.23H672.94v-3.2H394.5a5,5,0,0,1-5-5v-1.88A5,5,0,0,1,394.5,398.54Z"/><path class="cls-7" d="M390.5,386.8H645.4v-3.2H390.5a19.07,19.07,0,0,0-19.08,19.07v3.66a19.08,19.08,0,0,0,19.08,19.08H679.56v-3.19H390.5a15.91,15.91,0,0,1-15.89-15.89v-3.66A15.91,15.91,0,0,1,390.5,386.8Z"/><path class="cls-6" d="M672.94,413.68v8.54H390.5a15.07,15.07,0,0,1-4.21-.58V405.45a8.23,8.23,0,0,0,8.21,8.23Z"/><rect class="cls-1" x="480.78" y="558.42" width="38.01" height="3.7"/><rect class="cls-1" x="480.78" y="568.42" width="38.01" height="3.7"/><rect class="cls-1" x="480.78" y="578.42" width="38.01" height="3.7"/><rect class="cls-1" x="480.78" y="588.42" width="38.01" height="3.7"/><rect class="cls-1" x="480.78" y="598.42" width="38.01" height="3.7"/><rect class="cls-1" x="480.78" y="608.41" width="38.01" height="3.7"/><rect class="cls-1" x="409.62" y="618.41" width="109.17" height="3.7"/><rect class="cls-1" x="409.62" y="628.41" width="109.17" height="3.7"/><rect class="cls-1" x="409.62" y="638.41" width="109.17" height="3.7"/><rect class="cls-1" x="409.62" y="648.41" width="109.17" height="3.7"/><rect class="cls-1" x="409.62" y="658.41" width="109.17" height="3.7"/><rect class="cls-1" x="591.35" y="739.9" width="53.02" height="3.59"/><rect class="cls-1" x="591.35" y="749.59" width="53.02" height="3.59"/><rect class="cls-1" x="591.35" y="759.29" width="53.02" height="3.59"/><rect class="cls-1" x="591.35" y="768.98" width="53.02" height="3.59"/><rect class="cls-1" x="591.35" y="778.67" width="53.02" height="3.59"/><rect class="cls-1" x="591.35" y="788.05" width="53.02" height="3.7"/><rect class="cls-1" x="591.35" y="798.05" width="53.02" height="3.7"/><rect class="cls-1" x="524.21" y="739.9" width="56.39" height="3.59"/><rect class="cls-1" x="524.21" y="749.59" width="56.39" height="3.59"/><rect class="cls-1" x="524.21" y="759.29" width="56.39" height="3.59"/><rect class="cls-1" x="524.21" y="768.98" width="56.39" height="3.59"/><rect class="cls-1" x="524.21" y="778.67" width="56.39" height="3.59"/><rect class="cls-1" x="524.21" y="788.05" width="56.39" height="3.7"/><rect class="cls-1" x="524.21" y="798.05" width="56.39" height="3.7"/><rect class="cls-1" x="590.87" y="618.41" width="53.51" height="3.7"/><rect class="cls-1" x="534.51" y="557.84" width="109.87" height="53.96"/><rect class="cls-4" x="409.62" y="672.62" width="234.76" height="53.96"/><rect class="cls-1" x="590.87" y="628.41" width="53.51" height="3.7"/><rect class="cls-1" x="535.37" y="618.37" width="45.84" height="43.74"/><rect class="cls-1" x="590.87" y="638.41" width="53.51" height="3.7"/><rect class="cls-1" x="590.87" y="648.41" width="53.51" height="3.7"/><rect class="cls-1" x="590.87" y="658.41" width="53.51" height="3.7"/><rect class="cls-4" x="409.62" y="558.42" width="64.28" height="53.2"/><polygon class="cls-1" points="409.62 737.72 510.68 738.47 510.68 802.01 409.62 801.25 409.62 737.72"/><rect class="cls-11" x="409.62" y="447.17" width="234.76" height="91.3"/><path class="cls-4" d="M658.46,398.54V410.1l-46.71.38H394.5a5,5,0,0,1-5-5v-1.88a5,5,0,0,1,5-5Z"/><path class="cls-12" d="M395.68,719.79c-14.43-7.95-13.38,4.37-13.38,4.37,1.13,12.26,15.47,16.41,25.32,17.82l2.2-14.37C406.4,725.71,401.72,723.11,395.68,719.79Z"/><path class="cls-13" d="M448.6,727l-31.52,6a26,26,0,0,1-7.56-3.1l-1.68,10.35c4.08,1.5,10.83,3.58,11.22,3l30.47-12.85a11.59,11.59,0,0,0,8.19-3.31Z"/><path class="cls-13" d="M379.92,721.69,407,671.77a5.21,5.21,0,0,1,2.45-2.18c2.4-.57,7.23-1.12,10.65,2.44a.83.83,0,0,1-.4,1.37l-7.55,1.43a3.47,3.47,0,0,0-2.67,2.36l-16.15,50.06Z"/><polygon class="cls-12" points="393.34 727.25 400.38 705.44 389.61 699.54 376.56 720.36 393.34 727.25"/><polygon class="cls-14" points="373.1 771.09 375.33 809.73 356.3 862.98 363.89 863.03 398.82 810.26 396.17 772.64 373.1 771.09"/><path class="cls-15" d="M375.42,771.71s1.45,5.3,8.74,17.75a200.45,200.45,0,0,0,17,24l2.57,49.5h7.85l8.12-50.39a6.6,6.6,0,0,0-.43-3.92L401.38,768Z"/><path class="cls-16" d="M386.92,717.13a8.14,8.14,0,0,0-1.15.89A4.26,4.26,0,0,1,386.92,717.13Z"/><path class="cls-12" d="M384.29,715.58a11.7,11.7,0,0,1,11,6.31c3,5.52,8,15.6,8.12,22.37l.73,30.42a36.64,36.64,0,0,1-33.52-2.43s6.25-17.8,3.43-35.54C371.94,723.09,377.3,716.15,384.29,715.58Z"/><path class="cls-9" d="M397.77,776.76c.1-7.88-1.5-22-2.36-28.84a8.07,8.07,0,0,0-3.46-5.59c-5-3.5-7.56-10.06-8.75-14.26,2.89,7.76,11.93,11.4,19.92,13.09a19.49,19.49,0,0,1,.35,3.1l.72,30.42A31.44,31.44,0,0,1,397.77,776.76Z"/><path class="cls-17" d="M401.46,702.1l-1.09,3.34-9-4.91,6.68-12.31C399,692.29,400.58,698.62,401.46,702.1Z"/><path class="cls-13" d="M394.82,704.51c-.6-3.86-1.35-7.48-4.77-7s-8,5.2-7.43,9.06a7,7,0,0,0,1.6,3.47h-3.48v7.25H390v-4.86h.17C393.63,711.94,395.43,708.37,394.82,704.51Z"/><path class="cls-14" d="M386,705.09s-1.55-1.87-2.56-.64-1.51,3.08,1.4,4.15c0,0-.89,5-5.26,4.37s-8.24-4.88-6.39-10.76,3.48-10.3,10.08-10,11.37-.28,10.92-2c0,0,3,7.82.26,8.81a19.46,19.46,0,0,1-5.8,1S387.9,704.88,386,705.09Z"/><path class="cls-17" d="M390,717.34v-4.78l-.07-.07a11.05,11.05,0,0,1-3.8-.37,10.38,10.38,0,0,0,2.18,1.86c.35.16.4,1.68.34,3.36Z"/><path class="cls-14" d="M404,862.93v5.71h15.59a.89.89,0,0,0,.49-1.64c-2.28-1.51-5.93-3.61-9.32-4.07Z"/><path class="cls-14" d="M356.32,862.93v5.71h15.59a.9.9,0,0,0,.5-1.64c-2.28-1.51-5.94-3.61-9.33-4.07Z"/><path class="cls-14" d="M397.77,778.22l18.45,35.62-6.76,50.56h2.08L419.66,814a6.59,6.59,0,0,0-.43-3.92l-15.92-36.23Z"/><path class="cls-18" d="M374.86,774.43c4.56-8,5.13-28.32,1.75-36.87-4.5-11.39,3.27-20.6,3.27-20.6-4.61,2.68-7.45,9.21-5.78,19.75,2.82,17.74-3.43,35.54-3.43,35.54A36.53,36.53,0,0,0,374.86,774.43Z"/><path class="cls-1" d="M869.29,409.46c-11.17,0-11.76-16.63-.61-17.34l.31,0v-.21A21.53,21.53,0,0,1,900.85,373a22.35,22.35,0,0,1,42,10.56c0,.67,0,1.32-.09,2A26,26,0,0,1,971.61,396a8.67,8.67,0,0,1-7.28,13.42Z"/><path class="cls-13" d="M742.56,804.26l-5.09,7.29-23.41-11.39h0s-.44-4.12-1.6-4.24c-.59-.06-.9.66-1.06,1.37-1.16-1.12-2.4-2.15-3.09-2.14-1.55,0,2.35,6.27,3,7.43,1.16,2.19,16.11,12.56,32.84,19.92L750.77,810Z"/><path class="cls-14" d="M712.58,796.64l-3.37-14.13a1,1,0,0,0-1-.73l-1.55.23a.71.71,0,0,0-.63.9l3.37,14.14a.83.83,0,0,0,.91.74l1.55-.23A.83.83,0,0,0,712.58,796.64Z"/><path class="cls-14" d="M711.89,811.8c-5.1.44-50.88,44.12-50.88,44.12l10.49-.15,39.9-23.5s27.16,21.69,50.29,22.06c10,.16,10.38-12.17,10.38-12.17S724.32,810.71,711.89,811.8Z"/><path class="cls-15" d="M771.91,844s-2.68,14.53-17.42,16.63L638.74,860l.48-9.32,100.25-11.44Z"/><path class="cls-9" d="M754.21,789.73s-5.23.64-8.26,4.64c-1.66,2.2-6.89,12.35-6.89,12.35l11.5,6.93Z"/><path class="cls-14" d="M751.8,774.23s-4-.6-5-3.53c-1.27-3.67.75-8.51,3.09-8.44,0,0,4,.43,9,1.51,1.91.41,3.63-1,5.13-.85,3.82.4,13.18,10.53,1.32,21.33L756.64,778Z"/><path class="cls-13" d="M767,775a1.53,1.53,0,0,0-2-.19l0,0c-2.8-.66-5.49-3.81-5.49-3.81-1.43,1.89-7.72,3.2-7.72,3.2v4.2a6.87,6.87,0,0,0,6.12,7l-.07,5.43,7.91-2.44V780.1C767.38,779.41,767.85,775.85,767,775Z"/><path class="cls-17" d="M760.06,786.39a41.6,41.6,0,0,0,3.31-4.25c-1.11,1.64-5.14,3.15-5.5,3.28l-.07,5.38,2.06-.64C759.79,788.41,759.78,786.56,760.06,786.39Z"/><path class="cls-13" d="M804.4,861.87s-10.38-24.12-16.87-46.4c-2.64,1.75-5.62,4-8.91,5.34l20.46,40.38s1.62,4.11,4,4.27,8.58,1.35,8.63.84C811.86,865.16,804.4,861.87,804.4,861.87Z"/><path class="cls-12" d="M780,793.4c-3.31-2.74-11.25-4.51-14.07-5.06a5.49,5.49,0,0,0-2-.05l-9.77,1.41c-9,5.29-6.16,12-9.37,23.86s-8.32,24.67-8.32,24.67c7.47,6,33.73,10.1,33.73,10.1,4.2-4.39,4.39-20.65,4.67-30.83l3.57,3.91s11.95-6.1,11.82-6.53C788.56,809.21,780,793.4,780,793.4Z"/><path class="cls-14" d="M638.69,860l-4.63-.43a2.11,2.11,0,0,1-1.9-2.29L633.68,841a1.06,1.06,0,0,1,2-.41c1.54,2.85,3.61,7.39,3.78,11.44Z"/><path class="cls-18" d="M761.16,846.66c5.18,1.07,9,1.67,9,1.67,4.2-4.39,4.39-20.65,4.67-30.83l-3.67-7.29S770.66,834.8,761.16,846.66Z"/><path class="cls-14" d="M770.71,847.7c-1.86,4.46-6.31,11.48-16.23,12.88L638.74,860l0-.57c19.7-.55,95.16-2.68,106.81-3,13.4-.43,15.59-9.72,15.59-9.72h0c5.16,1.08,9,1.66,9,1.66A4.43,4.43,0,0,0,770.71,847.7Z"/><path class="cls-9" d="M379.14,353.6s-3.42,1.52-4.77,4.1-1,26.43-7.83,27.76-20,2.74-20,2.74l.44,5,35.46-4.8Z"/><path class="cls-15" d="M374.09,389.44l20.37,19.19s-9.53,9.9-31.65,4.78l-23.29-3-32.74,39-6.47-2.63,28.42-48.51a7,7,0,0,1,5.23-3.39Z"/><path class="cls-12" d="M386.09,349.62c3.47,2.44,25.36,19.69,11.34,58.59l-24.2-18.94s4.47-11.67,3.37-21.16c-1.9-16.38,7.09-18,8.55-18.6A1,1,0,0,1,386.09,349.62Z"/><path class="cls-14" d="M373.69,389.59l23.42,17.84s-4.64,8-27.28,9.65l-22.94,2.8-20,46.58-7.1-.33L333,411.44a7,7,0,0,1,4-4.78Z"/><path class="cls-14" d="M353.93,365.19l-5.47-11.64a.84.84,0,0,0-1-.45l-1.3.47a.64.64,0,0,0-.39.9l5.46,11.65a.75.75,0,0,0,.93.48l1.31-.48A.74.74,0,0,0,353.93,365.19Z"/><path class="cls-13" d="M346.64,389.14s-7.75,1.07-7,4.95l7.37-.93Z"/><path class="cls-13" d="M355.94,367.55s-1.22-3.06-2.24-3c-.52.05-.67.73-.68,1.38-1.2-.77-2.46-1.43-3.06-1.31-1.35.29,3.17,5,3.9,5.91a9.26,9.26,0,0,0,1.82,1.35l1.85-3.52Z"/><path class="cls-12" d="M389.67,354.45a6.64,6.64,0,0,0-8.49,4.95l-3,14.23-20.52-6.33-2.1,5.15c4.84,3.08,18.26,10.07,31.51,12.89L394,362.76A6.64,6.64,0,0,0,389.67,354.45Z"/><path class="cls-9" d="M397.16,361s-6.39,30.2-7.76,31.15-15.08-10.62-15.08-10.62a89.09,89.09,0,0,0,12.76,3.82l6.43-21.07Z"/><path class="cls-14" d="M326.79,466.15v5.65H311.37a.88.88,0,0,1-.49-1.62c2.26-1.5,5.87-3.57,9.23-4Z"/><path class="cls-14" d="M306.81,449.36l-2.57,5.23L290.39,449a.89.89,0,0,1,.13-1.69c2.65-.58,6.63-1.29,9.92-.49Z"/><path class="cls-15" d="M343.25,417.65l-18.07,48.73,1.72.08,20-46.58,22.94-2.8c22.64-1.66,27.28-9.65,27.28-9.65L392.57,404C381.13,412.59,343.25,417.65,343.25,417.65Z"/><path class="cls-18" d="M397.48,363.45c2.33,9.58,4,20.16,2,28.36-1.66,6.8-6.95,12.16-6.95,12.16l4.86,4.24C404.9,387.49,402.18,372.92,397.48,363.45Z"/><path class="cls-13" d="M368.1,336c2.07-4,7.39-5.23,11.48-3.13a8.27,8.27,0,0,1,3.66,11.1,8.19,8.19,0,0,1-.7,1.13l1.73,5.23-7,4.47-.42-5.88a6.26,6.26,0,0,1-5.78-.45C367,346.37,366,340,368.1,336Z"/><path class="cls-15" d="M378,339.53s2.41-1.07,2.8,1.1-1.44,4,1,7.47,2.74,2.35.51,9.68,3.39,13.75,14.16,12.41,12.14-13.61,3.68-22.62-10.35-12.76-14.83-17.19-17.43-5.54-18.74,7.17a20.83,20.83,0,0,0,7.91.34l0,3.19a.56.56,0,0,0,.9.44Z"/><path class="cls-17" d="M378.49,350.18c0-.81,1.77-4.26,1.35-3.73a37.1,37.1,0,0,1-3,2.48l.42,5.88,1.83-1.17C378.78,352,378.5,350.53,378.49,350.18Z"/><rect class="cls-11" x="148.53" y="442.59" width="100.45" height="100.45" rx="24.55"/><path class="cls-7" d="M213.07,463H182.58A14.62,14.62,0,0,0,168,477.58v30.48a14.62,14.62,0,0,0,14.57,14.57h30.49a14.61,14.61,0,0,0,14.56-14.57V477.58A14.61,14.61,0,0,0,213.07,463Zm-4,32.32-18.17,11a2.9,2.9,0,0,1-4.39-2.48V481.89a2.89,2.89,0,0,1,4.39-2.48l18.17,11A2.9,2.9,0,0,1,209.08,495.33Z"/><path class="cls-1" d="M323.14,348.35c12.6,0,13.27-18.76.69-19.56l-.35,0v-.24a24.28,24.28,0,0,0-35.93-21.29,25.21,25.21,0,0,0-47.42,11.91c0,.75,0,1.49.1,2.22a29.32,29.32,0,0,0-32.49,11.85,9.77,9.77,0,0,0,8.2,15.13Z"/><path class="cls-11" d="M881.62,477.35v53.38a25.58,25.58,0,0,1-25.51,25.49H802.73a25.58,25.58,0,0,1-25.49-25.49V477.35a25.58,25.58,0,0,1,25.49-25.51h53.38A25.59,25.59,0,0,1,881.62,477.35Z"/><path class="cls-7" d="M828.78,474a29.24,29.24,0,0,0-22.4,46.76,8.84,8.84,0,0,1,1.56,7.34l-1.86,8,9.84-4.33a8.94,8.94,0,0,1,6-.42A29.24,29.24,0,1,0,828.78,474Zm-11.95,30.89a1.76,1.76,0,1,1,1.76-1.75A1.75,1.75,0,0,1,816.83,504.85Zm12.5,0a1.76,1.76,0,1,1,1.75-1.75A1.75,1.75,0,0,1,829.33,504.85Zm13.18,0a1.76,1.76,0,1,1,1.76-1.75A1.75,1.75,0,0,1,842.51,504.85Z"/><path class="cls-1" d="M711,306.57c-13.26,0-14-19.74-.73-20.58l.38,0c0-.09,0-.17,0-.25a25.56,25.56,0,0,1,37.83-22.41,26.53,26.53,0,0,1,49.91,12.54c0,.78,0,1.56-.11,2.33a30.89,30.89,0,0,1,34.21,12.47,10.28,10.28,0,0,1-8.64,15.92Z"/><text class="cls-19" transform="translate(454.36 517.25)">H<tspan class="cls-20" x="51.56" y="0">O</tspan><tspan x="100.42" y="0">Y</tspan></text></svg>