<svg id="Capa_1" data-name="Capa 1" xmlns="http://www.w3.org/2000/svg" xmlns:xlink="http://www.w3.org/1999/xlink" viewBox="0 0 902.86 843.57"><defs><style>.cls-1{fill:#ed9e6d;}.cls-2{fill:#944434;}.cls-3{fill:#b85f3e;}.cls-4{fill:#e5ebf7;}.cls-5{fill:#d8dfea;}.cls-6{fill:#ffd24a;}.cls-7{fill:#ffa439;}.cls-8{fill:#399d4d;}.cls-9{fill:#e75444;}.cls-10{fill:#ff704c;}.cls-11{fill:#d24d54;}.cls-12{fill:#89d84f;}.cls-13{fill:#d83d40;}.cls-14{fill:#ff4e4e;}.cls-15{fill:#fff;}.cls-16{fill:#e03d40;}.cls-17{fill:#802c32;}.cls-18{fill:url(#Degradado_sin_nombre_14);}.cls-19{fill:url(#Degradado_sin_nombre_14-2);}.cls-20{fill:url(#Degradado_sin_nombre_14-3);}.cls-21{fill:url(#Degradado_sin_nombre_9);}.cls-22{fill:url(#Degradado_sin_nombre_8);}.cls-23{fill:#eefdff;}.cls-24{fill:url(#Degradado_sin_nombre_9-2);}.cls-25{fill:url(#Degradado_sin_nombre_8-2);}.cls-26{fill:url(#Degradado_sin_nombre_9-3);}.cls-27{fill:url(#Degradado_sin_nombre_14-4);}.cls-28{fill:#868686;}.cls-29{fill:#9d9393;}.cls-30{fill:url(#Degradado_sin_nombre_11);}.cls-31{fill:#ffe9ca;}.cls-32{fill:url(#Degradado_sin_nombre_14-5);}</style><linearGradient id="Degradado_sin_nombre_14" x1="54.21" y1="1076.78" x2="41.28" y2="1077.07" gradientTransform="matrix(4.63, 0, 0, -30.39, 222.67, 32828.8)" gradientUnits="userSpaceOnUse"><stop offset="0" stop-color="#06cff1"/><stop offset="1" stop-color="#dcedf9"/></linearGradient><linearGradient id="Degradado_sin_nombre_14-2" x1="7.9" y1="1068.33" x2="5.28" y2="1074.34" gradientTransform="matrix(40.52, 0, 0, -19.97, 168.84, 21594.15)" xlink:href="#Degradado_sin_nombre_14"/><linearGradient id="Degradado_sin_nombre_14-3" x1="4.49" y1="1075.13" x2="1.59" y2="1078.95" gradientTransform="matrix(144.98, 0, 0, -110.25, 98.42, 119350.4)" xlink:href="#Degradado_sin_nombre_14"/><linearGradient id="Degradado_sin_nombre_9" x1="3.31" y1="1070.21" x2="3.28" y2="1074.08" gradientTransform="matrix(112.79, 0, 0, -43.58, 146.7, 47306.71)" gradientUnits="userSpaceOnUse"><stop offset="0" stop-color="#030d14"/><stop offset="1" stop-color="#0b2f45"/></linearGradient><radialGradient id="Degradado_sin_nombre_8" cx="-7.01" cy="1069.5" r="2.13" gradientTransform="translate(301.77 35527.86) rotate(180) scale(32.81)" gradientUnits="userSpaceOnUse"><stop offset="0.13" stop-color="#3280fc"/><stop offset="1"/></radialGradient><linearGradient id="Degradado_sin_nombre_9-2" x1="17.77" y1="1062.26" x2="13.46" y2="1062.26" gradientTransform="matrix(19.78, 0, 0, -19.78, 222.88, 21448.95)" xlink:href="#Degradado_sin_nombre_9"/><radialGradient id="Degradado_sin_nombre_8-2" cx="5.54" cy="1069.5" r="2.13" gradientTransform="matrix(32.81, 0, 0, -32.81, 159.01, 35527.86)" xlink:href="#Degradado_sin_nombre_8"/><linearGradient id="Degradado_sin_nombre_9-3" x1="10.36" y1="1062.26" x2="6.05" y2="1062.26" gradientTransform="matrix(19.78, 0, 0, -19.78, 178.56, 21448.95)" xlink:href="#Degradado_sin_nombre_9"/><linearGradient id="Degradado_sin_nombre_14-4" x1="23.18" y1="1075.62" x2="16.5" y2="1076.59" gradientTransform="matrix(11.86, 0, 0, -11.87, 298.09, 12946.11)" xlink:href="#Degradado_sin_nombre_14"/><linearGradient id="Degradado_sin_nombre_11" x1="10.63" y1="1045.39" x2="6.31" y2="1036.02" gradientTransform="matrix(28.12, 2.46, 1.13, -12.96, -951.08, 14257.59)" gradientUnits="userSpaceOnUse"><stop offset="0" stop-color="#3f88ad"/><stop offset="1" stop-color="#3487c4"/></linearGradient><linearGradient id="Degradado_sin_nombre_14-5" x1="606.03" y1="682.9" x2="635.93" y2="682.9" gradientTransform="matrix(1, 0, 0, 1, 0, 0)" xlink:href="#Degradado_sin_nombre_14"/></defs><title>slide5</title><path class="cls-1" d="M272.26,252.65l-6.56-.42.29,4.39c.43.41.87.81,1.29,1.23l16.07,16.07a10.5,10.5,0,1,0,18,7.46,10.51,10.51,0,1,0-7.58-17.93L277.35,247c-.19-.19-.36-.39-.55-.58l-5-.32Z" transform="translate(-86.27 -145.38)"/><path class="cls-2" d="M238.49,235.79c-11.45-7.18-25.8-8.37-37.53-15.1a44.48,44.48,0,0,1-7.45-72A45.31,45.31,0,0,0,212.21,236a73.31,73.31,0,0,1,35.41,7.73A39.76,39.76,0,0,0,238.49,235.79Z" transform="translate(-86.27 -145.38)"/><path class="cls-3" d="M271.84,246.1l5,.32c-14.24-14.56-21.34-34.37-20.9-54.77a45.3,45.3,0,0,0-62.39-42.93,44.48,44.48,0,0,0,7.45,72c11.73,6.73,26.08,7.92,37.53,15.1a39.76,39.76,0,0,1,9.13,7.93A75.63,75.63,0,0,1,266,256.62l-.29-4.39,6.56.42Z" transform="translate(-86.27 -145.38)"/><path class="cls-4" d="M480.45,980.93c9.27.64,18.07-3.85,26-8.74s15.75-10.41,24.86-12.22c8.73-1.74,18,.09,26.56-2.25a28.65,28.65,0,0,0,19.73-19.8,27.62,27.62,0,0,0,.75-4.33,26.93,26.93,0,0,0-2.86-9.94c-5.29-10.2-15.58-13-25.67-16.29A65.17,65.17,0,0,1,537,902.1c-10.55-6.13-14.51-19-24.4-25.62-8.36-5.64-25.15-7.38-32.14,1.5-7.6,9.67.09,23.61-.51,35.89-.57,11.77-8.83,21.48-15.4,31.25a55,55,0,0,0-7.1,14.41,24.93,24.93,0,0,0,23,21.4Z" transform="translate(-86.27 -145.38)"/><path class="cls-5" d="M577.58,937.92a28.65,28.65,0,0,1-19.73,19.8c-8.59,2.34-17.83.51-26.56,2.25-9.11,1.81-17,7.34-24.86,12.22s-16.71,9.38-26,8.74a24.93,24.93,0,0,1-23-21.4c-1.92,6.34-2.11,12.85,1.08,18.56,4.71,8.42,15.53,11.85,25.1,10.62s18.19-6.21,26.45-11.19,16.69-10.19,26.18-11.95c8-1.49,16.4-.47,24.1-3,12.32-4.08,19.13-16.76,18-28.95A27.62,27.62,0,0,1,577.58,937.92Z" transform="translate(-86.27 -145.38)"/><path class="cls-6" d="M502.66,938.51a24.44,24.44,0,0,0,25.71,8.25,24.14,24.14,0,0,0,13.39-10.53,22.81,22.81,0,0,0,.65-5.33,23.2,23.2,0,0,0-44.49-9.19A24.31,24.31,0,0,0,502.66,938.51Z" transform="translate(-86.27 -145.38)"/><path class="cls-7" d="M528.37,946.76a23.65,23.65,0,0,1-30.45-25,23.18,23.18,0,1,0,43.84,14.52A24.14,24.14,0,0,1,528.37,946.76Z" transform="translate(-86.27 -145.38)"/><path class="cls-8" d="M988.94,474.67a3.37,3.37,0,0,0-4.3-2.05A65.48,65.48,0,0,0,959.44,489a76.43,76.43,0,0,1,20.68-23,3.37,3.37,0,0,0-4-5.43,82.85,82.85,0,0,0-16.22,15.79,82.57,82.57,0,0,0-1.32-23.57,3.36,3.36,0,0,0-6.59,1.35,76,76,0,0,1,.88,24.63,94,94,0,0,0-11.8-29.29,3.36,3.36,0,0,0-5.72,3.54,87.58,87.58,0,0,1,13,43.41c-.58,1.44-1.13,2.9-1.63,4.38a76.13,76.13,0,0,1-5.19,9.56,3.35,3.35,0,0,0,1,4.64,3,3,0,0,0,.72.35,3.36,3.36,0,0,0,3.93-1.36c.26-.4.49-.81.74-1.22.12.07.24.14.37.2l.2.08a3.36,3.36,0,0,0,4.2-1.87c.18-.41.37-.8.55-1.2a3.33,3.33,0,0,0,1.46-2.46c0-.21,0-.42.05-.64a59.36,59.36,0,0,1,32.16-28A3.36,3.36,0,0,0,988.94,474.67Z" transform="translate(-86.27 -145.38)"/><path class="cls-9" d="M916.88,530.39q-.72,3-1.48,6.35l36.32,7.74Z" transform="translate(-86.27 -145.38)"/><path class="cls-9" d="M922.81,509.19a21.72,21.72,0,0,0-.9,2.21c-.23.64-.51,1.55-.84,2.68l19.28,4.25Z" transform="translate(-86.27 -145.38)"/><path class="cls-9" d="M948.5,559.45c.62-1.25,1.23-2.49,1.82-3.71l-18.1-2.57Z" transform="translate(-86.27 -145.38)"/><path class="cls-9" d="M959.44,536.28q1.09-2.44,1.95-4.44l-19.65-2.9Z" transform="translate(-86.27 -145.38)"/><path class="cls-9" d="M925,602.42c.92-1.44,1.84-2.94,2.78-4.49L917.6,596Z" transform="translate(-86.27 -145.38)"/><path class="cls-10" d="M932.22,553.17l18.1,2.57c3.59-7.38,6.74-14.14,9.12-19.46l-17.7-7.34,19.65,2.9c1.14-2.66,2-4.69,2.38-5.9a22.16,22.16,0,0,0-41-16.75l17.54,9.14-19.28-4.25c-1,3.52-2.51,9.26-4.19,16.31l34.84,14.09-36.32-7.74c-1.51,6.63-3.11,14-4.61,21.61l18.7,7.68L910,562.34c-5.28,27.56-8.92,56.19-2.64,58.37C911,622,917.61,614.12,925,602.42L917.6,596l10.21,1.94c2.2-3.64,4.45-7.55,6.69-11.6l-16.39-7,19.2,1.86c3.89-7.22,7.71-14.69,11.19-21.76Z" transform="translate(-86.27 -145.38)"/><path class="cls-9" d="M934.5,586.33c.94-1.69,1.87-3.39,2.81-5.12l-19.2-1.86Z" transform="translate(-86.27 -145.38)"/><path class="cls-9" d="M910.79,558.35c-.26,1.33-.52,2.66-.77,4L929.49,566Z" transform="translate(-86.27 -145.38)"/><path class="cls-7" d="M823.78,843.06a7.43,7.43,0,0,1,2.73-8l-3-10.14-16.23,4.74a9.76,9.76,0,1,1-17.86,7.56,9.62,9.62,0,0,1-.37-2.23L770,840.53a8,8,0,0,1,.94,2.05,7.88,7.88,0,1,1-15.45,2.19l-12.06,3.53,4.83,16.5.22-.08a5.65,5.65,0,1,1,3.17,10.84l-.23.05,7.25,24.79a8,8,0,0,1,1.52-.61,8.46,8.46,0,1,1,3.14,16.53l3.54,12.1,65.09-19a10.34,10.34,0,0,1,12.82-11.93L838.7,876.7a6.34,6.34,0,0,1-1.1.45,6.19,6.19,0,1,1-3.48-11.89,5.36,5.36,0,0,1,1.17-.22l-4.87-16.67A7.43,7.43,0,0,1,823.78,843.06ZM786.5,909.71a4,4,0,1,1,2.71-4.94A4,4,0,0,1,786.5,909.71Zm-10-24.51a7.77,7.77,0,1,1,5.27-9.63A7.78,7.78,0,0,1,776.53,885.2Zm4.12-23.64a6,6,0,1,1,7.44,4.08A6,6,0,0,1,780.65,861.56Zm16.92,22.64a2.59,2.59,0,1,1-3.22-1.76A2.59,2.59,0,0,1,797.57,884.2Zm7.49,24.47a5.5,5.5,0,1,1,3.73-6.83A5.5,5.5,0,0,1,805.06,908.67ZM823,899a8.46,8.46,0,1,1,5.74-10.49A8.45,8.45,0,0,1,823,899Zm-6.23-31.37a8,8,0,1,1,5.43-9.92A8,8,0,0,1,816.75,867.67Z" transform="translate(-86.27 -145.38)"/><path class="cls-6" d="M822.53,838.76a7.39,7.39,0,0,1,2.73-8l-3-10.15-16.23,4.74a10.4,10.4,0,0,1,.88,2.08,9.77,9.77,0,0,1-18.75,5.48,10.2,10.2,0,0,1-.37-2.22l-19.09,5.58a8,8,0,0,1,.94,2,7.88,7.88,0,0,1-15.13,4.43,7.57,7.57,0,0,1-.31-2.24L742.17,844,747,860.5l.23-.08a5.65,5.65,0,0,1,3.17,10.84l-.23.06,7.24,24.78a9.38,9.38,0,0,1,1.53-.61,8.45,8.45,0,1,1,4.74,16.23,8.17,8.17,0,0,1-1.61.31l3.54,12.09,65.1-19a10.33,10.33,0,0,1,12.82-11.92l-6.07-20.75a6,6,0,0,1-1.11.44A6.19,6.19,0,0,1,832.86,861a7,7,0,0,1,1.18-.22l-4.88-16.67A7.39,7.39,0,0,1,822.53,838.76Zm-37.29,66.65a4,4,0,1,1,2.71-4.94A4,4,0,0,1,785.24,905.41Zm-10-24.51a7.76,7.76,0,1,1,5.28-9.63A7.75,7.75,0,0,1,775.27,880.9Zm4.12-23.64a6,6,0,1,1,7.45,4.08A6,6,0,0,1,779.39,857.26Zm16.92,22.64a2.59,2.59,0,1,1-3.21-1.76A2.59,2.59,0,0,1,796.31,879.9Zm7.49,24.47a5.5,5.5,0,1,1,3.73-6.82A5.5,5.5,0,0,1,803.8,904.37Zm17.92-9.62a8.46,8.46,0,1,1,5.74-10.49A8.46,8.46,0,0,1,821.72,894.75Zm-6.22-31.38a8,8,0,1,1,5.43-9.92A8,8,0,0,1,815.5,863.37Z" transform="translate(-86.27 -145.38)"/><path class="cls-11" d="M184.08,816.34c7.07,34.52,30.35,62.14,62.92,75.42,6.95,2.84,8.75,12.67,5.45,18.67-3.92,7.15-11.74,8.28-18.67,5.45-38.64-15.75-67.84-51.35-76.2-92.17-3.54-17.26,22.93-24.8,26.5-7.37Z" transform="translate(-86.27 -145.38)"/><path class="cls-6" d="M164.22,820.69c5.37,6.36,21.55-.45,21.19,11.5-.09,3-3.83,6.36-5.45,8.49-6.94,9.1,7.68,6.58,11.17,6.83,9.69.68,4.06,13.9,1.94,18.3-3.1,6.41,3.09,12.06,9.54,9.17a15.63,15.63,0,0,1,3.33-1.06c3.68-.6,6.22-.46,8.74,2.45a.9.9,0,0,1,0,.77c-1.66,4.28-5.64,26.85,8.87,16.17a25.51,25.51,0,0,1,7.46-3.92c5.09-1.69,8.92,3.19,6.56,7.58-.82,1.52-5.79,3.09-4.32.36,4.06-7.56-8.41-1.31-10-.43-2.41,1.33-4.17,2.36-7,2.6-5.25.43-8-4.53-9-8.83-.58-2.39.37-5.31,1-7.62,1.94-7.47-6.53-4.11-10.29-3.12-5,1.31-8.61.75-10.77-4.31-2.89-6.74,11.68-20.83.58-24.51-3-1-11.25,2.71-13.19-1.8-1.68-3.92,0-7.19,2.65-10.32,10.31-12.11-5.73-11.14-11.08-11.61-3-.27-4.82-1.71-6.64-3.87-1.12-1.32,3.43-4.35,4.73-2.82Z" transform="translate(-86.27 -145.38)"/><path class="cls-8" d="M809.26,241c5.23,12.58,18.46,16.38,29.57,8.5h0C833.6,237,820.36,233.15,809.26,241Z" transform="translate(-86.27 -145.38)"/><path class="cls-12" d="M839.64,226.1c7,9.57,3.79,21.12-7.09,25.79h0C825.59,242.32,828.76,230.77,839.64,226.1Z" transform="translate(-86.27 -145.38)"/><path class="cls-13" d="M859,302.57a35,35,0,0,1-31.86-49.4,35,35,0,1,0,57.28,38.45A34.89,34.89,0,0,1,859,302.57Z" transform="translate(-86.27 -145.38)"/><path class="cls-14" d="M859,302.57a34.89,34.89,0,0,0,25.42-10.95,35,35,0,0,0-57.28-38.45A35,35,0,0,0,859,302.57Z" transform="translate(-86.27 -145.38)"/><circle class="cls-15" cx="775.87" cy="108.24" r="5.47"/><path class="cls-15" d="M874.18,259.85a2.57,2.57,0,1,1-2.57-2.57A2.57,2.57,0,0,1,874.18,259.85Z" transform="translate(-86.27 -145.38)"/><path class="cls-8" d="M628.31,172.23h0a18.39,18.39,0,0,0,23.51,11.13h0A18.39,18.39,0,0,0,628.31,172.23Z" transform="translate(-86.27 -145.38)"/><path class="cls-8" d="M659.45,161.09h0a18.39,18.39,0,0,1-11.12,23.51h0A18.39,18.39,0,0,1,659.45,161.09Z" transform="translate(-86.27 -145.38)"/><path class="cls-12" d="M640.74,157.88h0a21,21,0,0,0,10,27.89h0A20.94,20.94,0,0,0,640.74,157.88Z" transform="translate(-86.27 -145.38)"/><path class="cls-16" d="M674.57,183c4.4,12.3,1.73,36.26-10.57,40.66S634.44,211.25,630,199,634.65,180.41,647,176,670.17,170.73,674.57,183Z" transform="translate(-86.27 -145.38)"/><path class="cls-17" d="M639.71,198.51a1,1,0,0,0-.23,1.36A3.53,3.53,0,0,0,641,201a.38.38,0,0,0,.55-.33,3.51,3.51,0,0,0-.36-1.85A1,1,0,0,0,639.71,198.51Z" transform="translate(-86.27 -145.38)"/><path class="cls-17" d="M648.67,195.73a1,1,0,0,0-.36,1.25,3.37,3.37,0,0,0,1.28,1.19.36.36,0,0,0,.55-.26,3.32,3.32,0,0,0-.14-1.78A1,1,0,0,0,648.67,195.73Z" transform="translate(-86.27 -145.38)"/><path class="cls-17" d="M654.22,188.32a1.07,1.07,0,0,0-.47,1.37,3.81,3.81,0,0,0,1.35,1.38.41.41,0,0,0,.63-.26,3.69,3.69,0,0,0-.07-2A1,1,0,0,0,654.22,188.32Z" transform="translate(-86.27 -145.38)"/><path class="cls-17" d="M662.32,192.54a1,1,0,0,0-.85,1.05,3.45,3.45,0,0,0,.73,1.66.38.38,0,0,0,.64,0,3.51,3.51,0,0,0,.58-1.75A1,1,0,0,0,662.32,192.54Z" transform="translate(-86.27 -145.38)"/><path class="cls-17" d="M668.88,185.24a1.05,1.05,0,0,0-.93,1.06,3.7,3.7,0,0,0,.72,1.76.4.4,0,0,0,.66,0,3.67,3.67,0,0,0,.67-1.81A1,1,0,0,0,668.88,185.24Z" transform="translate(-86.27 -145.38)"/><path class="cls-17" d="M640,190.37a1,1,0,0,0-.2,1.32,3.37,3.37,0,0,0,1.46,1.05.38.38,0,0,0,.53-.34,3.52,3.52,0,0,0-.38-1.79A1,1,0,0,0,640,190.37Z" transform="translate(-86.27 -145.38)"/><path class="cls-17" d="M642.64,209.48a1,1,0,0,0,.19,1.28,3.48,3.48,0,0,0,1.66.53.36.36,0,0,0,.39-.46,3.3,3.3,0,0,0-.88-1.54A.94.94,0,0,0,642.64,209.48Z" transform="translate(-86.27 -145.38)"/><path class="cls-17" d="M650.42,207.78a1.16,1.16,0,0,0-.27,1.54,4,4,0,0,0,1.7,1.26.44.44,0,0,0,.62-.38,4,4,0,0,0-.4-2.11A1.14,1.14,0,0,0,650.42,207.78Z" transform="translate(-86.27 -145.38)"/><path class="cls-17" d="M656.85,199.5a1.2,1.2,0,0,0-.7,1.47,4.27,4.27,0,0,0,1.35,1.73.47.47,0,0,0,.74-.21,4.27,4.27,0,0,0,.18-2.23A1.19,1.19,0,0,0,656.85,199.5Z" transform="translate(-86.27 -145.38)"/><path class="cls-17" d="M660,210.39a.81.81,0,0,0-.36,1,2.87,2.87,0,0,0,1,1.07.31.31,0,0,0,.48-.2,2.88,2.88,0,0,0,0-1.51A.8.8,0,0,0,660,210.39Z" transform="translate(-86.27 -145.38)"/><path class="cls-17" d="M667.28,201.17a1.09,1.09,0,0,0-1,1.11,3.85,3.85,0,0,0,.75,1.83.41.41,0,0,0,.69,0,3.8,3.8,0,0,0,.7-1.89A1.07,1.07,0,0,0,667.28,201.17Z" transform="translate(-86.27 -145.38)"/><path class="cls-17" d="M672.93,194.19a1.29,1.29,0,0,0-.74,1.23,13.13,13.13,0,0,0,.65,1.68.44.44,0,0,0,.7.19,2.72,2.72,0,0,0,.87-2.22A1,1,0,0,0,672.93,194.19Z" transform="translate(-86.27 -145.38)"/><path class="cls-17" d="M633,195.17a.89.89,0,0,0-.1,1.2,3.12,3.12,0,0,0,1.4.85.33.33,0,0,0,.45-.34,3.13,3.13,0,0,0-.46-1.59A.88.88,0,0,0,633,195.17Z" transform="translate(-86.27 -145.38)"/><path class="cls-17" d="M654.2,217.26a1,1,0,0,0,.49,1.3,3.76,3.76,0,0,0,1.86.2.39.39,0,0,0,.3-.58,3.62,3.62,0,0,0-1.25-1.43A1,1,0,0,0,654.2,217.26Z" transform="translate(-86.27 -145.38)"/><path class="cls-17" d="M667.47,212.17a1.17,1.17,0,0,0-1.33.88,4.09,4.09,0,0,0,.26,2.13.44.44,0,0,0,.72.19,4,4,0,0,0,1.27-1.77A1.16,1.16,0,0,0,667.47,212.17Z" transform="translate(-86.27 -145.38)"/><path class="cls-17" d="M659.81,182.76a1.2,1.2,0,0,0-.29,1.59,4.3,4.3,0,0,0,1.74,1.31.46.46,0,0,0,.65-.39,4.23,4.23,0,0,0-.4-2.18A1.18,1.18,0,0,0,659.81,182.76Z" transform="translate(-86.27 -145.38)"/><path class="cls-17" d="M644.16,183.37a1.13,1.13,0,0,0-.37,1.5,4,4,0,0,0,1.58,1.36.44.44,0,0,0,.65-.34,4,4,0,0,0-.26-2.1A1.12,1.12,0,0,0,644.16,183.37Z" transform="translate(-86.27 -145.38)"/><path class="cls-17" d="M653,179.89a.76.76,0,0,0-.43.92,2.7,2.7,0,0,0,.84,1.06.29.29,0,0,0,.46-.13,2.65,2.65,0,0,0,.1-1.38A.75.75,0,0,0,653,179.89Z" transform="translate(-86.27 -145.38)"/><path class="cls-14" d="M143.17,436.66c-16.85-13.5-38.4-14.94-49.71-3.82a3.78,3.78,0,0,0,.54,2.07c.47.77,1.25,1.41,1.38,2.3.21,1.38-1.21,2.42-2.46,3.05s-2.73,1.46-2.78,2.86c-.07,1.95,2.65,2.95,2.94,4.87.24,1.54-1.17,2.79-1.81,4.22-.78,1.75-.18,4.66,1.67,5.59s4.54-.3,6.36,1.42c1.21,1.13,1.14,3.08.6,4.64s-1.49,3-1.79,4.6.32,3.62,1.9,4.09c1.35.4,2.7-.44,4-1s3.11-.68,3.76.56a12.54,12.54,0,0,0-1,7.81c.65,2.59,3,4.9,5.64,4.82,1.84-.06,3.45-1.17,5.06-2.07s3.56-1.62,5.25-.89c3.48,1.51,3.06,7.8,6.76,8.68s6.5-4.65,10-3.55c2.37.74,3.48,4.23,6,4.09,2.1-.11,3-2.72,4.7-3.93s4.2-.87,6.41-.89C166.67,472.84,160.81,450.8,143.17,436.66ZM137,466.36c-2.34,2.92-9,1.46-14.94-3.28s-8.81-10.95-6.46-13.87a.63.63,0,0,1,.11-.12,11.79,11.79,0,0,1,1.37-4.2c.52-.93,1.5-1.91,2.51-1.55.83.29,1.15,1.35,1.94,1.77a2.3,2.3,0,0,0,2.55-.65c.68-.65,1.14-1.5,1.84-2.13a2.2,2.2,0,0,1,2.57-.51c.88.57.88,1.87.65,2.9s-.56,2.18,0,3.09a2.78,2.78,0,0,0,3,1c1.1-.23,2.1-.8,3.19-1.06a2.91,2.91,0,0,1,3.06.79c1.37,1.89-1.36,4.7-.23,6.74.76,1.37,2.81,1.45,3.8,2.67,1.14,1.38.39,3.48-.68,4.92a10.27,10.27,0,0,1-4.15,3.36Z" transform="translate(-86.27 -145.38)"/><path class="cls-1" d="M150.06,487.07c-1.71,1.21-2.6,3.82-4.7,3.93-2.47.14-3.58-3.35-6-4.09-3.5-1.1-6.43,4.39-10,3.55s-3.28-7.17-6.76-8.68c-1.69-.73-3.65,0-5.25.89s-3.22,2-5.06,2.07c-2.67.08-5-2.23-5.64-4.82a12.54,12.54,0,0,1,1-7.81c-.65-1.24-2.48-1.12-3.76-.56s-2.63,1.4-4,1c-1.58-.47-2.2-2.47-1.9-4.09s1.24-3,1.79-4.6.61-3.51-.6-4.64c-1.82-1.72-4.42-.44-6.36-1.42s-2.45-3.84-1.67-5.59c.64-1.43,2-2.68,1.81-4.22-.29-1.92-3-2.92-2.94-4.87,0-1.4,1.52-2.24,2.78-2.86s2.67-1.67,2.46-3.05c-.13-.89-.91-1.53-1.38-2.3a3.78,3.78,0,0,1-.54-2.07,25.59,25.59,0,0,0-1.85,2c-10.66,13.3-4.85,35.66,13,49.94s40.91,15.08,51.57,1.78c.11-.13.21-.28.32-.42C154.26,486.2,151.85,485.79,150.06,487.07Z" transform="translate(-86.27 -145.38)"/><path class="cls-1" d="M141.89,457.92c-1-1.22-3-1.3-3.8-2.67-1.13-2,1.6-4.85.23-6.74a2.91,2.91,0,0,0-3.06-.79c-1.09.26-2.09.83-3.19,1.06a2.78,2.78,0,0,1-3-1c-.54-.91-.21-2.05,0-3.09s.23-2.33-.65-2.9a2.2,2.2,0,0,0-2.57.51c-.7.63-1.16,1.48-1.84,2.13a2.3,2.3,0,0,1-2.55.65c-.79-.42-1.11-1.48-1.94-1.77-1-.36-2,.62-2.51,1.55a11.79,11.79,0,0,0-1.37,4.2c2.43-2.76,9-1.27,14.83,3.4s8.7,10.73,6.57,13.71a10.27,10.27,0,0,0,4.15-3.36C142.28,461.4,143,459.3,141.89,457.92Z" transform="translate(-86.27 -145.38)"/><rect id="Rectángulo_1" data-name="Rectángulo 1" class="cls-18" x="423" y="39.37" width="19.96" height="130.97"/><rect id="Rectángulo_2" data-name="Rectángulo 2" class="cls-19" x="345.66" y="156.62" width="174.65" height="86.07" rx="19.47"/><path id="Rectángulo_3" data-name="Rectángulo 3" class="cls-20" d="M444.41,343.17H594.09c131.24,0,237.63,106.39,237.63,237.62h0c0,131.24-106.39,237.63-237.63,237.63H444.41c-131.24,0-237.63-106.39-237.63-237.63h0C206.78,449.56,313.17,343.17,444.41,343.17Z" transform="translate(-86.27 -145.38)"/><path id="Trazado_4" data-name="Trazado 4" class="cls-21" d="M305.08,660.7h0a60.19,60.19,0,0,0,26.66,6.16h375a60.26,60.26,0,0,0,26.66-6.16h0A49.33,49.33,0,0,0,762,610.15l-.2-1.5C752.17,539,689.08,485.43,611.73,481.41c-32.73-1.7-67.07-2.59-102.89-2.37q-42.1.24-81.31,2.33c-77.65,4-141.2,57.33-150.87,127.28l-.21,1.5A49.33,49.33,0,0,0,305.08,660.7Z" transform="translate(-86.27 -145.38)"/><g id="Grupo_8" data-name="Grupo 8"><circle id="Elipse_11" data-name="Elipse 11" class="cls-22" cx="531.82" cy="435.42" r="70.72"/><g id="Grupo_3" data-name="Grupo 3"><circle id="Elipse_12" data-name="Elipse 12" class="cls-23" cx="531.82" cy="435.42" r="50.76"/></g><g id="Grupo_4" data-name="Grupo 4"><circle id="Elipse_13" data-name="Elipse 13" class="cls-24" cx="531.82" cy="435.42" r="42.64"/></g><g id="Grupo_5" data-name="Grupo 5"><path id="Trazado_5" data-name="Trazado 5" class="cls-23" d="M590.78,569.74a15.79,15.79,0,0,0,15.79,15.8h0a15.8,15.8,0,0,0,0-31.59h0a15.79,15.79,0,0,0-15.79,15.79Z" transform="translate(-86.27 -145.38)"/></g><g id="Grupo_6" data-name="Grupo 6"><circle id="Elipse_14" data-name="Elipse 14" class="cls-23" cx="538.13" cy="468.11" r="6.3"/></g><g id="Grupo_7" data-name="Grupo 7"><path id="Trazado_6" data-name="Trazado 6" class="cls-23" d="M640,604a3.14,3.14,0,0,0,3.14,3.16h0a3.15,3.15,0,0,0,3.15-3.15h0a3.15,3.15,0,0,0-3.15-3.15h0A3.15,3.15,0,0,0,640,604Z" transform="translate(-86.27 -145.38)"/></g></g><g id="Grupo_14" data-name="Grupo 14"><circle id="Elipse_15" data-name="Elipse 15" class="cls-25" cx="340.78" cy="435.42" r="70.72"/><g id="Grupo_9" data-name="Grupo 9"><circle id="Elipse_16" data-name="Elipse 16" class="cls-23" cx="340.78" cy="435.42" r="50.76"/></g><g id="Grupo_10" data-name="Grupo 10"><circle id="Elipse_17" data-name="Elipse 17" class="cls-26" cx="340.78" cy="435.42" r="42.64"/></g><g id="Grupo_11" data-name="Grupo 11"><path id="Trazado_7" data-name="Trazado 7" class="cls-23" d="M399.74,569.74A15.8,15.8,0,1,0,415.53,554h0A15.79,15.79,0,0,0,399.74,569.74Z" transform="translate(-86.27 -145.38)"/></g><g id="Grupo_12" data-name="Grupo 12"><circle id="Elipse_18" data-name="Elipse 18" class="cls-23" cx="347.09" cy="468.11" r="6.3"/></g><g id="Grupo_13" data-name="Grupo 13"><path id="Trazado_8" data-name="Trazado 8" class="cls-23" d="M449,604a3.16,3.16,0,0,0,3.15,3.16h0a3.15,3.15,0,0,0,3.15-3.15h0a3.16,3.16,0,0,0-3.14-3.15h0A3.16,3.16,0,0,0,449,604Z" transform="translate(-86.27 -145.38)"/></g></g><path id="Trazado_9" data-name="Trazado 9" class="cls-27" d="M493.68,176a25.57,25.57,0,0,0,25.57,25.57h0a25.58,25.58,0,0,0,0-51.15h0A25.57,25.57,0,0,0,493.68,176Z" transform="translate(-86.27 -145.38)"/><path id="Trazado_10" data-name="Trazado 10" class="cls-28" d="M501.48,166a7.8,7.8,0,1,0,7.8-7.8h0A7.8,7.8,0,0,0,501.48,166Z" transform="translate(-86.27 -145.38)"/><path id="Trazado_11" data-name="Trazado 11" class="cls-29" d="M330,435.45c-.34,11.94,9.4,26.22,20.57,27.45C361,464,369.35,453.35,378,442.33s27.07-38.8,19.67-46.68C387.88,385.23,330.76,407.29,330,435.45Z" transform="translate(-86.27 -145.38)"/><circle id="Elipse_19" data-name="Elipse 19" class="cls-29" cx="339.27" cy="235.68" r="8.89"/><path id="Trazado_12" data-name="Trazado 12" class="cls-15" d="M300.33,590.76c2.86,2,22.74-38.48,76.1-73.59,18.76-12.34,37.27-21.12,36.17-23.71s-22,2.23-38.67,10C320.73,528.13,297,588.37,300.33,590.76Z" transform="translate(-86.27 -145.38)"/><path id="Trazado_13" data-name="Trazado 13" class="cls-15" d="M437,327.48c.63.1,1-3.65,4.16-9.42a51.32,51.32,0,0,1,3.11-5c5.36-7.37,23.52-7.21,24.95-7.19,28.29.24,46.47-1.55,46.47-1.38s-13.27-.13-23-.33c-27.43-.55-43.76-2-50.77,5.31a23.23,23.23,0,0,0-4.36,7A14.75,14.75,0,0,0,437,327.48Z" transform="translate(-86.27 -145.38)"/><g id="Grupo_184" data-name="Grupo 184"><path id="Trazado_14" data-name="Trazado 14" class="cls-23" d="M450,759.18a13.79,13.79,0,0,1,14-10.1l94,.13a14.57,14.57,0,0,1,14.48,10.13,52,52,0,0,1,1.31,8.13,2.59,2.59,0,0,1-.81,2.07,3.31,3.31,0,0,1-2.24.87l-118.62-.16a3.4,3.4,0,0,1-2.25-.86,2.65,2.65,0,0,1-.88-2A49.79,49.79,0,0,1,450,759.18Z" transform="translate(-86.27 -145.38)"/><path id="Trazado_15" data-name="Trazado 15" class="cls-30" d="M449.81,761.51a62.55,62.55,0,0,1,122.34-2.27,14.48,14.48,0,0,0-14.08-10l-94.11.82A14.47,14.47,0,0,0,449.81,761.51Z" transform="translate(-86.27 -145.38)"/></g><path id="Trazado_297" data-name="Trazado 297" class="cls-29" d="M688.8,443.93c.22,8.27-6,18.14-13.1,19-6.66.79-12-6.6-17.47-14.23S641,421.84,645.7,416.38C651.92,409.18,688.3,424.45,688.8,443.93Z" transform="translate(-86.27 -145.38)"/><path class="cls-1" d="M905.55,690.15a3.72,3.72,0,1,0,2.19,7,3,3,0,0,1,2.86-.08l27.9,14.24,3.48-6.82L914.07,690.2a3,3,0,0,1-1.61-2.35,3.72,3.72,0,1,0-6.91,2.3Z" transform="translate(-86.27 -145.38)"/><path class="cls-2" d="M941.93,696l21.45,11,2.77-5.42L944.7,690.57a17.43,17.43,0,0,0-23.44,7.6h0a18,18,0,0,0-1.14,2.83A17.43,17.43,0,0,1,941.93,696Z" transform="translate(-86.27 -145.38)"/><path class="cls-3" d="M928.86,721.61l21.45,10.94,13.07-25.61-21.45-11a14.6,14.6,0,1,0-13.07,25.62Z" transform="translate(-86.27 -145.38)"/><path class="cls-17" d="M951.83,713.77c4.37-8.57,10.78-14.06,14.32-12.25s2.86,10.22-1.51,18.79-10.79,14.05-14.33,12.24S947.45,722.33,951.83,713.77Z" transform="translate(-86.27 -145.38)"/><ellipse class="cls-11" cx="958.23" cy="717.04" rx="14.35" ry="4.84" transform="translate(-202.28 1099.24) rotate(-62.96)"/><path class="cls-31" d="M956.83,716.32c1.17-2.3,2.75-3.84,3.53-3.44s.45,2.57-.72,4.87-2.75,3.84-3.53,3.45S955.66,718.62,956.83,716.32Z" transform="translate(-86.27 -145.38)"/><path id="Trazado_297-2" data-name="Trazado 297" class="cls-32" d="M630.66,707.51c-5.55,6.13-14.68,5.49-21,.72-4.17-5.38-4.11-13.05-2.82-22.36s6.06-31.31,13.24-32C629.5,652.94,643.75,693.06,630.66,707.51Z" transform="translate(-86.27 -145.38)"/></svg>