<svg id="Capa_1" data-name="Capa 1" xmlns="http://www.w3.org/2000/svg" xmlns:xlink="http://www.w3.org/1999/xlink" viewBox="0 0 1080 1080"><defs><style>.cls-1{fill:none;}.cls-2,.cls-4{fill:#5e9eeb;}.cls-2{opacity:0.4;}.cls-3{fill:#f7f7f7;}.cls-5{fill:#d4eeff;}.cls-6{fill:#f2cf00;}.cls-7{fill:#512918;}.cls-8{fill:#fff;}.cls-9{clip-path:url(#clip-path);}.cls-10{fill:#213a7e;}.cls-11{fill:#e5bca9;}.cls-12{clip-path:url(#clip-path-2);}.cls-13{fill:url(#Degradado_sin_nombre_14);}.cls-14{fill:url(#Degradado_sin_nombre_14-2);}.cls-15{fill:url(#Degradado_sin_nombre_14-3);}.cls-16{fill:url(#Degradado_sin_nombre_9);}.cls-17{fill:url(#Degradado_sin_nombre_8);}.cls-18{fill:#eefdff;}.cls-19{fill:url(#Degradado_sin_nombre_9-2);}.cls-20{fill:url(#Degradado_sin_nombre_8-2);}.cls-21{fill:url(#Degradado_sin_nombre_9-3);}.cls-22{fill:url(#Degradado_sin_nombre_14-4);}.cls-23{fill:url(#Degradado_sin_nombre_11);}.cls-24{fill:url(#Degradado_sin_nombre_14-5);}.cls-25{fill:url(#Degradado_sin_nombre_14-6);}.cls-26{fill:url(#Degradado_sin_nombre_14-7);}.cls-27{fill:url(#Degradado_sin_nombre_9-4);}.cls-28{fill:url(#Degradado_sin_nombre_8-3);}.cls-29{fill:url(#Degradado_sin_nombre_9-5);}.cls-30{fill:url(#Degradado_sin_nombre_8-4);}.cls-31{fill:url(#Degradado_sin_nombre_9-6);}.cls-32{fill:url(#Degradado_sin_nombre_14-8);}.cls-33{fill:url(#Degradado_sin_nombre_11-2);}</style><clipPath id="clip-path"><circle class="cls-1" cx="519.09" cy="321.47" r="44.82" transform="translate(87.81 753.67) rotate(-76.83)"/></clipPath><clipPath id="clip-path-2"><circle class="cls-1" cx="519.09" cy="584.94" r="44.82" transform="translate(-168.73 957.11) rotate(-76.83)"/></clipPath><linearGradient id="Degradado_sin_nombre_14" x1="44.37" y1="1072.61" x2="45.44" y2="1072.63" gradientTransform="matrix(5.29, 0, 0, -34.71, 330.62, 37653.89)" gradientUnits="userSpaceOnUse"><stop offset="0" stop-color="#06cff1"/><stop offset="1" stop-color="#dcedf9"/></linearGradient><linearGradient id="Degradado_sin_nombre_14-2" x1="6.37" y1="1068.96" x2="6.59" y2="1069.46" gradientTransform="matrix(46.29, 0, 0, -22.81, 269.12, 24819.98)" xlink:href="#Degradado_sin_nombre_14"/><linearGradient id="Degradado_sin_nombre_14-3" x1="2.76" y1="1078.6" x2="3" y2="1078.92" gradientTransform="matrix(165.63, 0, 0, -125.96, 90.11, 136333.88)" xlink:href="#Degradado_sin_nombre_14"/><linearGradient id="Degradado_sin_nombre_9" x1="3.29" y1="1075.93" x2="3.29" y2="1076.25" gradientTransform="matrix(128.91, 0, 0, -49.79, 145.19, 54034.63)" gradientUnits="userSpaceOnUse"><stop offset="0" stop-color="#030d14"/><stop offset="1" stop-color="#0b2f45"/></linearGradient><radialGradient id="Degradado_sin_nombre_8" cx="8.1" cy="1074.71" r="0.18" gradientTransform="matrix(37.49, 0, 0, -37.49, 256.13, 40737.72)" gradientUnits="userSpaceOnUse"><stop offset="0.13" stop-color="#3280fc"/><stop offset="1"/></radialGradient><linearGradient id="Degradado_sin_nombre_9-2" x1="12.27" y1="1070.89" x2="12.63" y2="1070.89" gradientTransform="matrix(22.6, 0, 0, -22.6, 278.46, 24651.24)" xlink:href="#Degradado_sin_nombre_9"/><radialGradient id="Degradado_sin_nombre_8-2" cx="7.23" cy="1074.71" r="0.18" gradientTransform="matrix(37.49, 0, 0, -37.49, 306.76, 40737.72)" xlink:href="#Degradado_sin_nombre_8"/><linearGradient id="Degradado_sin_nombre_9-3" x1="10.83" y1="1070.89" x2="11.19" y2="1070.89" gradientTransform="matrix(22.6, 0, 0, -22.6, 329.09, 24651.24)" xlink:href="#Degradado_sin_nombre_9"/><linearGradient id="Degradado_sin_nombre_14-4" x1="18.14" y1="1059.34" x2="18.69" y2="1059.42" gradientTransform="matrix(13.55, 0, 0, -13.56, 318.22, 14772.99)" xlink:href="#Degradado_sin_nombre_14"/><linearGradient id="Degradado_sin_nombre_11" x1="8.51" y1="1067.51" x2="8.87" y2="1068.28" gradientTransform="matrix(32.25, 0, 0, -14.87, 294.29, 16335.33)" gradientUnits="userSpaceOnUse"><stop offset="0" stop-color="#3f88ad"/><stop offset="1" stop-color="#3487c4"/></linearGradient><linearGradient id="Degradado_sin_nombre_14-5" x1="44.17" y1="1064.85" x2="45.24" y2="1064.87" xlink:href="#Degradado_sin_nombre_14"/><linearGradient id="Degradado_sin_nombre_14-6" x1="6.34" y1="1057.16" x2="6.56" y2="1057.65" gradientTransform="matrix(46.29, 0, 0, -22.81, 269.12, 24819.98)" xlink:href="#Degradado_sin_nombre_14"/><linearGradient id="Degradado_sin_nombre_14-7" x1="2.75" y1="1076.47" x2="2.99" y2="1076.78" gradientTransform="matrix(165.63, 0, 0, -125.96, 90.11, 136333.88)" xlink:href="#Degradado_sin_nombre_14"/><linearGradient id="Degradado_sin_nombre_9-4" x1="3.28" y1="1070.53" x2="3.28" y2="1070.85" xlink:href="#Degradado_sin_nombre_9"/><radialGradient id="Degradado_sin_nombre_8-3" cx="8.07" cy="1067.53" r="0.18" xlink:href="#Degradado_sin_nombre_8"/><linearGradient id="Degradado_sin_nombre_9-5" x1="12.22" y1="1058.98" x2="12.58" y2="1058.98" gradientTransform="matrix(22.6, 0, 0, -22.6, 278.46, 24651.24)" xlink:href="#Degradado_sin_nombre_9"/><radialGradient id="Degradado_sin_nombre_8-4" cx="7.2" cy="1067.53" r="0.18" gradientTransform="matrix(37.49, 0, 0, -37.49, 306.76, 40737.72)" xlink:href="#Degradado_sin_nombre_8"/><linearGradient id="Degradado_sin_nombre_9-6" x1="10.78" y1="1058.98" x2="11.14" y2="1058.98" gradientTransform="matrix(22.6, 0, 0, -22.6, 329.09, 24651.24)" xlink:href="#Degradado_sin_nombre_9"/><linearGradient id="Degradado_sin_nombre_14-8" x1="18.06" y1="1039.48" x2="18.61" y2="1039.56" gradientTransform="matrix(13.55, 0, 0, -13.56, 318.22, 14772.99)" xlink:href="#Degradado_sin_nombre_14"/><linearGradient id="Degradado_sin_nombre_11-2" x1="8.48" y1="1049.4" x2="8.84" y2="1050.17" xlink:href="#Degradado_sin_nombre_11"/></defs><title>slide</title><circle class="cls-2" cx="550.6" cy="530.11" r="370.22"/><rect class="cls-3" x="362.08" y="130.51" width="377.04" height="776.49" rx="61.55"/><path class="cls-4" d="M572.57,157.44a5.5,5.5,0,1,1-5.49-5.49A5.49,5.49,0,0,1,572.57,157.44Z"/><circle class="cls-4" cx="507.57" cy="181.7" r="6.41"/><rect class="cls-4" x="534.12" y="178.49" width="65.91" height="6.87" rx="3.43"/><path class="cls-4" d="M554.4,881.52A29.55,29.55,0,1,1,584,852,29.58,29.58,0,0,1,554.4,881.52Zm0-57.06A27.51,27.51,0,1,0,581.91,852,27.55,27.55,0,0,0,554.4,824.46Z"/><path class="cls-4" d="M717.32,808.93H384.12V218.59h333.2Zm-331.16-2H715.28V220.62H386.16Z"/><rect class="cls-5" x="638.31" y="386.86" width="369.07" height="159.89" rx="26.36"/><polygon class="cls-5" points="613.94 386.86 678.66 386.86 650.36 423.28 613.94 386.86"/><circle class="cls-6" cx="833.01" cy="502.28" r="23.54" transform="translate(152.04 1196.89) rotate(-76.66)"/><path class="cls-7" d="M826.4,496.8c0,2.42-2-1.49-4.39-1.49s-4.38,3.91-4.38,1.49a4.39,4.39,0,1,1,8.77,0Z"/><path class="cls-7" d="M848.39,496.8c0,2.42-2-1.49-4.39-1.49s-4.38,3.91-4.38,1.49a4.39,4.39,0,1,1,8.77,0Z"/><path class="cls-7" d="M833,511.81A19.76,19.76,0,0,1,819,506a.64.64,0,0,1,.9-.9,18.57,18.57,0,0,0,26.21,0,.65.65,0,0,1,.91,0,.63.63,0,0,1,0,.9A19.78,19.78,0,0,1,833,511.81Z"/><rect class="cls-4" x="671.22" y="423.58" width="286.18" height="8.05"/><rect class="cls-4" x="671.22" y="454.26" width="286.18" height="8.05"/><rect class="cls-4" x="671.22" y="490.6" width="113.55" height="8.05"/><path class="cls-4" d="M487.26,268H120.18a26.43,26.43,0,0,0-26.36,26.36v61.73a26.44,26.44,0,0,0,26.36,26.37H436.52a26.44,26.44,0,0,0,26.36-26.37V294.35c0-.64-.05-1.27-.09-1.89Z"/><rect class="cls-8" x="130.65" y="300.93" width="286.18" height="8.05"/><rect class="cls-8" x="130.65" y="331.61" width="172.61" height="8.05"/><circle class="cls-5" cx="567.27" cy="445.6" r="47.83" transform="translate(-86.56 140.87) rotate(-13.16)"/><rect class="cls-5" x="638.31" y="657.14" width="369.07" height="128.09" rx="26.36"/><polygon class="cls-5" points="613.94 657.14 678.66 657.14 650.36 693.56 613.94 657.14"/><rect class="cls-4" x="671.22" y="698.41" width="286.18" height="8.05"/><rect class="cls-4" x="671.22" y="729.09" width="104.47" height="8.05"/><circle class="cls-5" cx="567.27" cy="715.88" r="47.83" transform="translate(-148.1 147.97) rotate(-13.16)"/><circle class="cls-4" cx="519.09" cy="321.47" r="44.82" transform="translate(87.81 753.67) rotate(-76.83)"/><g class="cls-9"><path class="cls-10" d="M541.31,314.81a22.22,22.22,0,1,1-22.22-22.22A22.22,22.22,0,0,1,541.31,314.81Z"/><path class="cls-6" d="M522.55,343.31h-6.92a23.25,23.25,0,0,0-23.24,23.24v16.26h53.4V366.55A23.24,23.24,0,0,0,522.55,343.31Z"/><path class="cls-11" d="M531.93,302.55c-15.09,6.63-25.68,0-25.68,0,1.6,4.46,2,11.92-5,22.19l-.54.06a18.4,18.4,0,0,0,18.4,18.34h0a18.4,18.4,0,0,0,18.4-18.34l-.54-.06C529.9,314.47,530.33,307,531.93,302.55Z"/><path class="cls-11" d="M511.93,333.34v15.72a7.16,7.16,0,1,0,14.32,0V333.34Z"/><path class="cls-8" d="M513,330.64a6.07,6.07,0,0,0,12.1,0Z"/><path class="cls-11" d="M505.9,323.57a5.39,5.39,0,1,1-5.38-5.39A5.38,5.38,0,0,1,505.9,323.57Z"/><path class="cls-11" d="M543.05,323.57a5.39,5.39,0,1,1-5.38-5.39A5.38,5.38,0,0,1,543.05,323.57Z"/></g><path class="cls-4" d="M487.26,531.46H120.18a26.43,26.43,0,0,0-26.36,26.36v61.73a26.44,26.44,0,0,0,26.36,26.37H436.52a26.44,26.44,0,0,0,26.36-26.37V557.82c0-.64-.05-1.26-.09-1.89Z"/><rect class="cls-8" x="130.65" y="568.95" width="286.18" height="8.05"/><rect class="cls-8" x="130.65" y="599.62" width="172.61" height="8.05"/><circle class="cls-4" cx="519.09" cy="584.94" r="44.82" transform="translate(-168.73 957.11) rotate(-76.83)"/><g class="cls-12"><path class="cls-10" d="M541.31,578.28a22.22,22.22,0,1,1-22.22-22.22A22.22,22.22,0,0,1,541.31,578.28Z"/><path class="cls-6" d="M522.55,606.78h-6.92A23.25,23.25,0,0,0,492.39,630v16.26h53.4V630A23.24,23.24,0,0,0,522.55,606.78Z"/><path class="cls-11" d="M531.93,566c-15.09,6.63-25.68,0-25.68,0,1.6,4.46,2,11.92-5,22.19l-.54.06a18.4,18.4,0,0,0,18.4,18.34h0a18.4,18.4,0,0,0,18.4-18.34l-.54-.06C529.9,577.94,530.33,570.48,531.93,566Z"/><path class="cls-11" d="M511.93,596.82v15.71a7.16,7.16,0,0,0,14.32,0V596.82Z"/><path class="cls-8" d="M513,594.12a6.07,6.07,0,0,0,12.1,0Z"/><path class="cls-11" d="M505.9,587a5.39,5.39,0,1,1-5.38-5.38A5.38,5.38,0,0,1,505.9,587Z"/><path class="cls-11" d="M543.05,587a5.39,5.39,0,1,1-5.38-5.38A5.38,5.38,0,0,1,543.05,587Z"/></g><g id="Grupo_15" data-name="Grupo 15"><rect id="Rectángulo_1" data-name="Rectángulo 1" class="cls-13" x="568.23" y="413.75" width="1.89" height="12.4"/><rect id="Rectángulo_2" data-name="Rectángulo 2" class="cls-14" x="560.9" y="424.86" width="16.54" height="8.15" rx="1.61"/><rect id="Rectángulo_3" data-name="Rectángulo 3" class="cls-15" x="539.58" y="428.76" width="59.19" height="45.01" rx="18.58"/><path id="Trazado_4" data-name="Trazado 4" class="cls-16" d="M589.46,458.83h0a5.82,5.82,0,0,1-2.53.58H551.42a5.82,5.82,0,0,1-2.53-.58h0a4.68,4.68,0,0,1-2.71-4.79l0-.14c.91-6.6,6.89-11.67,14.21-12,3.1-.16,6.36-.25,9.75-.23,2.66,0,5.22.09,7.7.22,7.35.38,13.37,5.44,14.28,12.06l0,.14A4.67,4.67,0,0,1,589.46,458.83Z"/><g id="Grupo_8" data-name="Grupo 8"><circle id="Elipse_11" data-name="Elipse 11" class="cls-17" cx="559.81" cy="451.26" r="6.7"/><g id="Grupo_3" data-name="Grupo 3"><circle id="Elipse_12" data-name="Elipse 12" class="cls-18" cx="559.81" cy="451.26" r="4.81"/></g><g id="Grupo_4" data-name="Grupo 4"><circle id="Elipse_13" data-name="Elipse 13" class="cls-19" cx="559.81" cy="451.26" r="4.04"/></g><g id="Grupo_5" data-name="Grupo 5"><path id="Trazado_5" data-name="Trazado 5" class="cls-18" d="M562.4,450.22a1.5,1.5,0,1,1-1.5-1.5A1.5,1.5,0,0,1,562.4,450.22Z"/></g><g id="Grupo_6" data-name="Grupo 6"><circle id="Elipse_14" data-name="Elipse 14" class="cls-18" cx="559.22" cy="454.36" r="0.6"/></g><g id="Grupo_7" data-name="Grupo 7"><path id="Trazado_6" data-name="Trazado 6" class="cls-18" d="M557.74,453.46a.3.3,0,0,1-.3.3h0a.29.29,0,0,1-.3-.3h0a.3.3,0,0,1,.3-.3h0a.31.31,0,0,1,.3.3Z"/></g></g><g id="Grupo_14" data-name="Grupo 14"><circle id="Elipse_15" data-name="Elipse 15" class="cls-20" cx="577.91" cy="451.26" r="6.7"/><g id="Grupo_9" data-name="Grupo 9"><circle id="Elipse_16" data-name="Elipse 16" class="cls-18" cx="577.91" cy="451.26" r="4.81"/></g><g id="Grupo_10" data-name="Grupo 10"><circle id="Elipse_17" data-name="Elipse 17" class="cls-21" cx="577.91" cy="451.26" r="4.04"/></g><g id="Grupo_11" data-name="Grupo 11"><path id="Trazado_7" data-name="Trazado 7" class="cls-18" d="M580.49,450.22a1.5,1.5,0,1,1-1.49-1.5A1.49,1.49,0,0,1,580.49,450.22Z"/></g><g id="Grupo_12" data-name="Grupo 12"><circle id="Elipse_18" data-name="Elipse 18" class="cls-18" cx="577.31" cy="454.36" r="0.6"/></g><g id="Grupo_13" data-name="Grupo 13"><path id="Trazado_8" data-name="Trazado 8" class="cls-18" d="M575.83,453.46a.29.29,0,0,1-.3.3h0a.3.3,0,0,1-.3-.3h0a.31.31,0,0,1,.3-.3h0a.3.3,0,0,1,.3.3Z"/></g></g><path id="Trazado_9" data-name="Trazado 9" class="cls-22" d="M571.6,412.93a2.43,2.43,0,1,1-2.43-2.43h0a2.43,2.43,0,0,1,2.43,2.43Z"/><path id="Trazado_10" data-name="Trazado 10" class="cls-8" d="M570.86,412a.74.74,0,0,1-1.48,0h0a.74.74,0,0,1,.74-.74h0a.74.74,0,0,1,.74.74Z"/><path id="Trazado_11" data-name="Trazado 11" class="cls-8" d="M587.1,437.5a2.66,2.66,0,0,1-2,2.6c-1,.1-1.78-.91-2.6-2s-2.56-3.68-1.86-4.42C581.62,432.74,587,434.83,587.1,437.5Z"/><circle id="Elipse_19" data-name="Elipse 19" class="cls-8" cx="578.05" cy="432.35" r="0.84"/><path id="Trazado_12" data-name="Trazado 12" class="cls-8" d="M589.91,452.21c-.27.19-2.16-3.65-7.21-7-1.78-1.17-3.53-2-3.42-2.25s2.08.21,3.66.95C588,446.27,590.23,452,589.91,452.21Z"/><path id="Trazado_13" data-name="Trazado 13" class="cls-8" d="M577,427.27c-.06,0-.1-.34-.4-.89a4.57,4.57,0,0,0-.29-.47c-.51-.7-2.23-.69-2.36-.69-2.68,0-4.41-.14-4.41-.13s1.26,0,2.18,0c2.6-.05,4.15-.19,4.81.51a2,2,0,0,1,.41.66A1.41,1.41,0,0,1,577,427.27Z"/><path id="Trazado_14" data-name="Trazado 14" class="cls-18" d="M576.41,462.29a1.36,1.36,0,0,1-1.24,1.19l-8.87.86a1.36,1.36,0,0,1-1.45-.94,5,5,0,0,1-.19-.85.25.25,0,0,1,.06-.22.24.24,0,0,1,.2-.11l11.19-1.08a.29.29,0,0,1,.22.07.28.28,0,0,1,.1.21A5.06,5.06,0,0,1,576.41,462.29Z"/><path id="Trazado_15" data-name="Trazado 15" class="cls-23" d="M576.41,462.29a5.93,5.93,0,0,1-11.53,1.22,1.37,1.37,0,0,0,1.41.83l8.88-.85A1.38,1.38,0,0,0,576.41,462.29Z"/></g><g id="Grupo_15-2" data-name="Grupo 15"><rect id="Rectángulo_1-2" data-name="Rectángulo 1" class="cls-24" x="567.17" y="682.96" width="1.89" height="12.4"/><rect id="Rectángulo_2-2" data-name="Rectángulo 2" class="cls-25" x="559.84" y="694.06" width="16.54" height="8.15" rx="1.61"/><rect id="Rectángulo_3-2" data-name="Rectángulo 3" class="cls-26" x="538.52" y="697.96" width="59.19" height="45.01" rx="18.58"/><path id="Trazado_4-2" data-name="Trazado 4" class="cls-27" d="M588.4,728h0a5.7,5.7,0,0,1-2.53.59H550.35a5.65,5.65,0,0,1-2.52-.59h0a4.67,4.67,0,0,1-2.71-4.78l0-.15c.91-6.6,6.89-11.67,14.21-12.05,3.1-.16,6.35-.24,9.75-.22,2.65,0,5.22.09,7.7.22,7.35.38,13.37,5.43,14.28,12.05l0,.14A4.67,4.67,0,0,1,588.4,728Z"/><g id="Grupo_8-2" data-name="Grupo 8"><circle id="Elipse_11-2" data-name="Elipse 11" class="cls-28" cx="558.75" cy="720.47" r="6.7"/><g id="Grupo_3-2" data-name="Grupo 3"><circle id="Elipse_12-2" data-name="Elipse 12" class="cls-18" cx="558.75" cy="720.47" r="4.81"/></g><g id="Grupo_4-2" data-name="Grupo 4"><circle id="Elipse_13-2" data-name="Elipse 13" class="cls-29" cx="558.75" cy="720.47" r="4.04"/></g><g id="Grupo_5-2" data-name="Grupo 5"><path id="Trazado_5-2" data-name="Trazado 5" class="cls-18" d="M561.34,719.42a1.5,1.5,0,1,1-1.5-1.5A1.49,1.49,0,0,1,561.34,719.42Z"/></g><g id="Grupo_6-2" data-name="Grupo 6"><circle id="Elipse_14-2" data-name="Elipse 14" class="cls-18" cx="558.16" cy="723.56" r="0.6"/></g><g id="Grupo_7-2" data-name="Grupo 7"><path id="Trazado_6-2" data-name="Trazado 6" class="cls-18" d="M556.67,722.67a.29.29,0,0,1-.29.3h0a.3.3,0,0,1-.3-.3h0a.29.29,0,0,1,.3-.3h0a.29.29,0,0,1,.29.3Z"/></g></g><g id="Grupo_14-2" data-name="Grupo 14"><circle id="Elipse_15-2" data-name="Elipse 15" class="cls-30" cx="576.84" cy="720.47" r="6.7"/><g id="Grupo_9-2" data-name="Grupo 9"><circle id="Elipse_16-2" data-name="Elipse 16" class="cls-18" cx="576.84" cy="720.47" r="4.81"/></g><g id="Grupo_10-2" data-name="Grupo 10"><circle id="Elipse_17-2" data-name="Elipse 17" class="cls-31" cx="576.84" cy="720.47" r="4.04"/></g><g id="Grupo_11-2" data-name="Grupo 11"><path id="Trazado_7-2" data-name="Trazado 7" class="cls-18" d="M579.43,719.42a1.5,1.5,0,1,1-1.49-1.5A1.49,1.49,0,0,1,579.43,719.42Z"/></g><g id="Grupo_12-2" data-name="Grupo 12"><circle id="Elipse_18-2" data-name="Elipse 18" class="cls-18" cx="576.25" cy="723.56" r="0.6"/></g><g id="Grupo_13-2" data-name="Grupo 13"><path id="Trazado_8-2" data-name="Trazado 8" class="cls-18" d="M574.77,722.67a.31.31,0,0,1-.3.3h0a.3.3,0,0,1-.3-.3h0a.29.29,0,0,1,.3-.3h0a.3.3,0,0,1,.3.3Z"/></g></g><path id="Trazado_9-2" data-name="Trazado 9" class="cls-32" d="M570.53,682.13a2.42,2.42,0,1,1-2.42-2.42h0a2.42,2.42,0,0,1,2.42,2.42Z"/><path id="Trazado_10-2" data-name="Trazado 10" class="cls-8" d="M569.8,681.19a.74.74,0,0,1-1.48,0h0a.74.74,0,0,1,.74-.74h0a.74.74,0,0,1,.74.74Z"/><path id="Trazado_11-2" data-name="Trazado 11" class="cls-8" d="M586,706.7a2.66,2.66,0,0,1-1.95,2.6c-1,.11-1.78-.9-2.6-1.95s-2.56-3.67-1.86-4.42C580.55,702,586,704,586,706.7Z"/><circle id="Elipse_19-2" data-name="Elipse 19" class="cls-8" cx="576.99" cy="701.55" r="0.84"/><path id="Trazado_12-2" data-name="Trazado 12" class="cls-8" d="M588.85,721.41c-.27.19-2.16-3.65-7.21-7-1.78-1.17-3.53-2-3.43-2.24s2.08.21,3.67.94C586.91,715.48,589.17,721.18,588.85,721.41Z"/><path id="Trazado_13-2" data-name="Trazado 13" class="cls-8" d="M575.9,696.48c-.06,0-.09-.35-.39-.9-.09-.16-.19-.32-.29-.47-.51-.7-2.23-.68-2.37-.68-2.68,0-4.4-.15-4.4-.13l2.18,0c2.6-.06,4.14-.2,4.81.5a2.36,2.36,0,0,1,.41.66C576,696,576,696.47,575.9,696.48Z"/><path id="Trazado_14-2" data-name="Trazado 14" class="cls-18" d="M575.35,731.49a1.38,1.38,0,0,1-1.24,1.2l-8.88.85a1.36,1.36,0,0,1-1.44-.93,6.17,6.17,0,0,1-.2-.85.32.32,0,0,1,.06-.23.33.33,0,0,1,.21-.11l11.19-1.08a.29.29,0,0,1,.22.07.28.28,0,0,1,.1.21A6.32,6.32,0,0,1,575.35,731.49Z"/><path id="Trazado_15-2" data-name="Trazado 15" class="cls-33" d="M575.35,731.49a5.93,5.93,0,0,1-11.53,1.22,1.37,1.37,0,0,0,1.41.83l8.88-.85A1.38,1.38,0,0,0,575.35,731.49Z"/></g></svg>